G04*
G04 #@! TF.GenerationSoftware,Altium Limited,Altium Designer,21.7.1 (17)*
G04*
G04 Layer_Color=16711935*
%FSLAX25Y25*%
%MOIN*%
G70*
G04*
G04 #@! TF.SameCoordinates,4C4A95DF-11EF-4B83-83A5-CF7285FCABA4*
G04*
G04*
G04 #@! TF.FilePolarity,Negative*
G04*
G01*
G75*
%ADD15C,0.02953*%
%ADD16C,0.10158*%
G04:AMPARAMS|DCode=17|XSize=124.02mil|YSize=64.96mil|CornerRadius=17.72mil|HoleSize=0mil|Usage=FLASHONLY|Rotation=90.000|XOffset=0mil|YOffset=0mil|HoleType=Round|Shape=RoundedRectangle|*
%AMROUNDEDRECTD17*
21,1,0.12402,0.02953,0,0,90.0*
21,1,0.08858,0.06496,0,0,90.0*
1,1,0.03543,0.01476,0.04429*
1,1,0.03543,0.01476,-0.04429*
1,1,0.03543,-0.01476,-0.04429*
1,1,0.03543,-0.01476,0.04429*
%
%ADD17ROUNDEDRECTD17*%
%ADD18C,0.10827*%
G04:AMPARAMS|DCode=19|XSize=124.02mil|YSize=64.96mil|CornerRadius=17.72mil|HoleSize=0mil|Usage=FLASHONLY|Rotation=0.000|XOffset=0mil|YOffset=0mil|HoleType=Round|Shape=RoundedRectangle|*
%AMROUNDEDRECTD19*
21,1,0.12402,0.02953,0,0,0.0*
21,1,0.08858,0.06496,0,0,0.0*
1,1,0.03543,0.04429,-0.01476*
1,1,0.03543,-0.04429,-0.01476*
1,1,0.03543,-0.04429,0.01476*
1,1,0.03543,0.04429,0.01476*
%
%ADD19ROUNDEDRECTD19*%
%ADD20R,0.10433X0.14370*%
%ADD21C,0.09252*%
%ADD22R,0.09252X0.09252*%
%ADD23O,0.09252X0.05315*%
%ADD24C,0.07146*%
%ADD25C,0.06532*%
%ADD26C,0.04528*%
%ADD27C,0.24213*%
%ADD28C,0.08465*%
%ADD29R,0.10433X0.10433*%
%ADD53R,0.07835X0.09173*%
%ADD109C,0.11811*%
%ADD110R,0.05709X0.03347*%
%ADD111R,0.04528X0.14370*%
%ADD112R,0.06890X0.14370*%
%ADD113R,0.13189X0.06890*%
%ADD114R,0.09055X0.09252*%
G04:AMPARAMS|DCode=115|XSize=79.53mil|YSize=51.97mil|CornerRadius=10.24mil|HoleSize=0mil|Usage=FLASHONLY|Rotation=180.000|XOffset=0mil|YOffset=0mil|HoleType=Round|Shape=RoundedRectangle|*
%AMROUNDEDRECTD115*
21,1,0.07953,0.03150,0,0,180.0*
21,1,0.05906,0.05197,0,0,180.0*
1,1,0.02047,-0.02953,0.01575*
1,1,0.02047,0.02953,0.01575*
1,1,0.02047,0.02953,-0.01575*
1,1,0.02047,-0.02953,-0.01575*
%
%ADD115ROUNDEDRECTD115*%
%ADD116R,0.06496X0.13976*%
%ADD117R,0.04528X0.14370*%
%ADD118R,0.10827X0.04921*%
%ADD119R,0.13976X0.10039*%
%ADD120R,0.10039X0.13976*%
%ADD121R,0.08465X0.09252*%
%ADD122R,0.09252X0.08465*%
%ADD123R,0.06890X0.04528*%
%ADD124R,0.08465X0.02953*%
%ADD125R,0.10079X0.13583*%
%ADD126R,0.05709X0.04134*%
%ADD127R,0.03347X0.05709*%
%ADD128R,0.04134X0.05709*%
%ADD129R,0.14764X0.08465*%
%ADD130R,0.07677X0.02165*%
%ADD131R,0.10039X0.04528*%
%ADD132R,0.02953X0.04528*%
%ADD133R,0.05512X0.04528*%
%ADD134R,0.04528X0.05512*%
%ADD135R,0.16535X0.08268*%
%ADD136R,0.02953X0.08465*%
%ADD137R,0.01772X0.05315*%
G04:AMPARAMS|DCode=138|XSize=129.92mil|YSize=76.77mil|CornerRadius=5.08mil|HoleSize=0mil|Usage=FLASHONLY|Rotation=90.000|XOffset=0mil|YOffset=0mil|HoleType=Round|Shape=RoundedRectangle|*
%AMROUNDEDRECTD138*
21,1,0.12992,0.06661,0,0,90.0*
21,1,0.11976,0.07677,0,0,90.0*
1,1,0.01016,0.03331,0.05988*
1,1,0.01016,0.03331,-0.05988*
1,1,0.01016,-0.03331,-0.05988*
1,1,0.01016,-0.03331,0.05988*
%
%ADD138ROUNDEDRECTD138*%
G04:AMPARAMS|DCode=139|XSize=29.53mil|YSize=76.77mil|CornerRadius=4.96mil|HoleSize=0mil|Usage=FLASHONLY|Rotation=90.000|XOffset=0mil|YOffset=0mil|HoleType=Round|Shape=RoundedRectangle|*
%AMROUNDEDRECTD139*
21,1,0.02953,0.06685,0,0,90.0*
21,1,0.01961,0.07677,0,0,90.0*
1,1,0.00992,0.03343,0.00980*
1,1,0.00992,0.03343,-0.00980*
1,1,0.00992,-0.03343,-0.00980*
1,1,0.00992,-0.03343,0.00980*
%
%ADD139ROUNDEDRECTD139*%
%ADD140R,0.09252X0.13583*%
%ADD141R,0.09252X0.09055*%
D15*
X47244Y295276D02*
D03*
Y240158D02*
D03*
Y185039D02*
D03*
D16*
X31890Y278543D02*
D03*
X37402Y292323D02*
D03*
X57087D02*
D03*
X62598Y278543D02*
D03*
X47244Y275590D02*
D03*
X31890Y223425D02*
D03*
X37402Y237205D02*
D03*
X57087D02*
D03*
X62598Y223425D02*
D03*
X47244Y220472D02*
D03*
X31890Y168307D02*
D03*
X37402Y182087D02*
D03*
X57087D02*
D03*
X62598Y168307D02*
D03*
X47244Y165354D02*
D03*
D17*
X351008Y382839D02*
D03*
Y430903D02*
D03*
X207450D02*
D03*
X351008Y478968D02*
D03*
X207450D02*
D03*
Y382839D02*
D03*
D18*
X269791Y474094D02*
D03*
Y417574D02*
D03*
D19*
X221820Y495306D02*
D03*
X337032D02*
D03*
X221820Y366500D02*
D03*
X337032D02*
D03*
D20*
X1084291Y409882D02*
D03*
X1049646D02*
D03*
X852106D02*
D03*
X886752D02*
D03*
D21*
X1066969Y382323D02*
D03*
X1057126D02*
D03*
X1076811D02*
D03*
X879272D02*
D03*
X859587D02*
D03*
X869429D02*
D03*
X59995Y446658D02*
D03*
X59996Y428942D02*
D03*
X34404D02*
D03*
X747441Y54134D02*
D03*
X747441Y36417D02*
D03*
X721850D02*
D03*
X668645Y54134D02*
D03*
X668645Y36417D02*
D03*
X643054D02*
D03*
X589848Y54134D02*
D03*
X589849Y36417D02*
D03*
X564257D02*
D03*
X511052Y54134D02*
D03*
X511052Y36417D02*
D03*
X485461D02*
D03*
X432255Y54134D02*
D03*
X432256Y36417D02*
D03*
X406664D02*
D03*
X327868D02*
D03*
X353459D02*
D03*
X353459Y54134D02*
D03*
X249072Y36417D02*
D03*
X274663D02*
D03*
X274663Y54134D02*
D03*
X170275Y36417D02*
D03*
X195867D02*
D03*
X195866Y54134D02*
D03*
X856692Y298236D02*
D03*
X882284D02*
D03*
X882283Y315953D02*
D03*
X1079823D02*
D03*
X1079823Y298236D02*
D03*
X1054232D02*
D03*
X980905Y315953D02*
D03*
X980906Y298236D02*
D03*
X955315D02*
D03*
D22*
X34405Y446658D02*
D03*
X721850Y54134D02*
D03*
X643054D02*
D03*
X564258D02*
D03*
X485461D02*
D03*
X406665D02*
D03*
X327868D02*
D03*
X249072D02*
D03*
X170276D02*
D03*
X856693Y315953D02*
D03*
X1054232D02*
D03*
X955315D02*
D03*
D23*
X47200Y421658D02*
D03*
X734646Y29134D02*
D03*
X655849D02*
D03*
X577053D02*
D03*
X498256D02*
D03*
X419460D02*
D03*
X340664D02*
D03*
X261867D02*
D03*
X183071D02*
D03*
X869488Y290953D02*
D03*
X1067027D02*
D03*
X968110D02*
D03*
D24*
X67200Y96583D02*
D03*
X27200D02*
D03*
D25*
X34700Y71583D02*
D03*
X39700Y61583D02*
D03*
X44700Y71583D02*
D03*
X49700Y61583D02*
D03*
X54700Y71583D02*
D03*
X59700Y61583D02*
D03*
D26*
X112925Y357095D02*
D03*
X122925D02*
D03*
X112925Y347094D02*
D03*
X122925D02*
D03*
X112925Y337094D02*
D03*
X122925D02*
D03*
X112925Y327095D02*
D03*
X122925D02*
D03*
X112925Y317094D02*
D03*
X122925D02*
D03*
X112925Y307095D02*
D03*
X122925D02*
D03*
X112925Y297094D02*
D03*
X122925D02*
D03*
X112925Y287094D02*
D03*
X122925D02*
D03*
X112925Y277095D02*
D03*
X122925D02*
D03*
X112925Y267094D02*
D03*
X122925D02*
D03*
X112925Y257095D02*
D03*
X122925D02*
D03*
X112925Y247094D02*
D03*
X122925D02*
D03*
X112925Y237094D02*
D03*
X122925D02*
D03*
X112925Y227095D02*
D03*
Y217094D02*
D03*
X122925D02*
D03*
X112925Y207095D02*
D03*
X122925D02*
D03*
X112925Y197095D02*
D03*
X122925D02*
D03*
Y227095D02*
D03*
D27*
X119409Y462598D02*
D03*
X804961D02*
D03*
Y92244D02*
D03*
X121417Y92126D02*
D03*
X15800Y264900D02*
D03*
X1086600D02*
D03*
X851200Y488200D02*
D03*
Y264900D02*
D03*
X458900Y15800D02*
D03*
X300500D02*
D03*
X617300D02*
D03*
X851200D02*
D03*
X15800D02*
D03*
Y488200D02*
D03*
X1086600D02*
D03*
D28*
X958346Y439882D02*
D03*
X967953Y439872D02*
D03*
X978347Y439882D02*
D03*
X958346Y382382D02*
D03*
X978347D02*
D03*
D29*
X943937Y409882D02*
D03*
X991969D02*
D03*
D53*
X221550Y130300D02*
D03*
X197850D02*
D03*
X221550Y110300D02*
D03*
X197850D02*
D03*
D109*
X207450Y366500D02*
Y388400D01*
X207491Y425100D02*
Y436800D01*
X207450Y473300D02*
Y495306D01*
Y495306D02*
X351008Y495306D01*
Y366500D02*
Y405800D01*
X207450Y366500D02*
X351008Y366500D01*
Y436800D02*
Y495306D01*
X351049Y422100D02*
Y436800D01*
D110*
X284900Y110040D02*
D03*
Y102560D02*
D03*
X277500Y110040D02*
D03*
Y102560D02*
D03*
X187800Y126560D02*
D03*
Y134040D02*
D03*
X306791Y419540D02*
D03*
Y412060D02*
D03*
Y467560D02*
D03*
Y475040D02*
D03*
X161900Y72840D02*
D03*
Y65360D02*
D03*
X138800D02*
D03*
Y72840D02*
D03*
X154200D02*
D03*
Y65360D02*
D03*
X146500D02*
D03*
Y72840D02*
D03*
X216168Y55935D02*
D03*
Y48455D02*
D03*
X911282Y316000D02*
D03*
Y308520D02*
D03*
X680994Y61440D02*
D03*
Y53960D02*
D03*
X226700Y48560D02*
D03*
Y56040D02*
D03*
X921518Y308520D02*
D03*
Y316000D02*
D03*
X705600Y53960D02*
D03*
Y61440D02*
D03*
X239009Y163225D02*
D03*
Y155745D02*
D03*
X231135Y177694D02*
D03*
Y170213D02*
D03*
X187800Y114040D02*
D03*
Y106560D02*
D03*
X252600Y333860D02*
D03*
Y341340D02*
D03*
X299800D02*
D03*
Y333860D02*
D03*
X380900Y341860D02*
D03*
Y349340D02*
D03*
X372450D02*
D03*
Y341860D02*
D03*
X364000D02*
D03*
Y349340D02*
D03*
D111*
X979671Y267941D02*
D03*
X971797D02*
D03*
X963923D02*
D03*
X956049D02*
D03*
D112*
X946600Y245500D02*
D03*
X989120D02*
D03*
D113*
X260348Y390900D02*
D03*
X280033D02*
D03*
Y448200D02*
D03*
X260348D02*
D03*
D114*
X14800Y290539D02*
D03*
Y307861D02*
D03*
X80315Y276673D02*
D03*
Y293996D02*
D03*
X14800Y221358D02*
D03*
Y238681D02*
D03*
X80315Y221358D02*
D03*
Y238681D02*
D03*
X14764Y183465D02*
D03*
Y166142D02*
D03*
X80315Y183465D02*
D03*
Y166142D02*
D03*
D115*
X917400Y243818D02*
D03*
Y238700D02*
D03*
Y233582D02*
D03*
D116*
X141263Y221481D02*
D03*
X199137D02*
D03*
X302000Y271781D02*
D03*
X252000D02*
D03*
X197800Y356481D02*
D03*
X147800D02*
D03*
D117*
X150515Y244119D02*
D03*
X158389Y244119D02*
D03*
X166263D02*
D03*
X189885D02*
D03*
X182011D02*
D03*
X174137D02*
D03*
X292748Y293632D02*
D03*
X284874D02*
D03*
X277000D02*
D03*
X269126D02*
D03*
X261252D02*
D03*
X188548Y378331D02*
D03*
X180674D02*
D03*
X172800D02*
D03*
X164926D02*
D03*
X157052D02*
D03*
D118*
X339785Y271341D02*
D03*
Y279215D02*
D03*
Y287089D02*
D03*
Y294963D02*
D03*
Y302837D02*
D03*
Y310711D02*
D03*
Y318585D02*
D03*
Y326459D02*
D03*
X400415D02*
D03*
Y318585D02*
D03*
Y310711D02*
D03*
Y302837D02*
D03*
Y294963D02*
D03*
Y287089D02*
D03*
Y279215D02*
D03*
Y271341D02*
D03*
D119*
X326807Y408917D02*
D03*
Y386083D02*
D03*
X326791Y456317D02*
D03*
Y433483D02*
D03*
D120*
X242617Y456200D02*
D03*
X219783D02*
D03*
Y399200D02*
D03*
X242617D02*
D03*
D121*
X226769Y420400D02*
D03*
X238580D02*
D03*
Y434800D02*
D03*
X226769D02*
D03*
X291410Y383716D02*
D03*
X303222D02*
D03*
X295569Y104400D02*
D03*
X307380D02*
D03*
X248654Y171887D02*
D03*
X260465D02*
D03*
X229269Y94600D02*
D03*
X241080D02*
D03*
X248654Y158402D02*
D03*
X260465D02*
D03*
X215842Y153383D02*
D03*
X204031D02*
D03*
X275426Y171887D02*
D03*
X287237D02*
D03*
X291410Y440800D02*
D03*
X303222D02*
D03*
X118831Y163400D02*
D03*
X107020D02*
D03*
Y120100D02*
D03*
X118831D02*
D03*
D122*
X295603Y136355D02*
D03*
Y124544D02*
D03*
X349600Y343569D02*
D03*
Y355380D02*
D03*
D123*
X153600Y479795D02*
D03*
Y491606D02*
D03*
X162575D02*
D03*
Y479795D02*
D03*
X171550D02*
D03*
Y491606D02*
D03*
X180525D02*
D03*
Y479795D02*
D03*
X189500D02*
D03*
Y491606D02*
D03*
D124*
X259161Y466200D02*
D03*
Y471200D02*
D03*
Y476200D02*
D03*
Y481200D02*
D03*
X280421D02*
D03*
Y476200D02*
D03*
Y471200D02*
D03*
Y466200D02*
D03*
Y409680D02*
D03*
Y414680D02*
D03*
Y419680D02*
D03*
Y424680D02*
D03*
X259161D02*
D03*
Y419680D02*
D03*
Y414680D02*
D03*
Y409680D02*
D03*
X264613Y328095D02*
D03*
Y333096D02*
D03*
X289613D02*
D03*
Y328095D02*
D03*
X264613Y338095D02*
D03*
Y343096D02*
D03*
X289613D02*
D03*
Y338095D02*
D03*
X264613Y308095D02*
D03*
Y313096D02*
D03*
X289613D02*
D03*
Y308095D02*
D03*
X264613Y318095D02*
D03*
Y323096D02*
D03*
X289613D02*
D03*
Y318095D02*
D03*
D125*
X269791Y474094D02*
D03*
Y417574D02*
D03*
D126*
X248991Y439260D02*
D03*
Y446740D02*
D03*
Y416640D02*
D03*
Y409160D02*
D03*
Y465760D02*
D03*
Y473240D02*
D03*
X958300Y429840D02*
D03*
Y422360D02*
D03*
X978642Y422381D02*
D03*
Y429861D02*
D03*
X979900Y280260D02*
D03*
Y287740D02*
D03*
X956100D02*
D03*
Y280260D02*
D03*
X231233Y163225D02*
D03*
Y155745D02*
D03*
X238910Y177694D02*
D03*
Y170213D02*
D03*
X244500Y333860D02*
D03*
Y341340D02*
D03*
X307200D02*
D03*
Y333860D02*
D03*
X338500Y349340D02*
D03*
Y341860D02*
D03*
X215100Y85840D02*
D03*
Y78360D02*
D03*
D127*
X290851Y483100D02*
D03*
X298331D02*
D03*
Y427600D02*
D03*
X290851D02*
D03*
X461540Y54000D02*
D03*
X454060D02*
D03*
X540840Y54300D02*
D03*
X533360D02*
D03*
X689655Y54353D02*
D03*
X697135D02*
D03*
X533360Y45200D02*
D03*
X540840D02*
D03*
X296260Y54000D02*
D03*
X303740D02*
D03*
X1020258Y315935D02*
D03*
X1012778D02*
D03*
X284973Y116965D02*
D03*
X277493D02*
D03*
X219816Y171887D02*
D03*
X212335D02*
D03*
Y164209D02*
D03*
X219816D02*
D03*
X277395Y125784D02*
D03*
X284875D02*
D03*
Y134603D02*
D03*
X277395D02*
D03*
X284973Y152241D02*
D03*
X277493D02*
D03*
X252340Y324800D02*
D03*
X244860D02*
D03*
X415660Y318600D02*
D03*
X423140D02*
D03*
Y310700D02*
D03*
X415660D02*
D03*
Y302800D02*
D03*
X423140D02*
D03*
D128*
X300231Y451300D02*
D03*
X292751D02*
D03*
X300231Y395000D02*
D03*
X292751D02*
D03*
X258595Y105253D02*
D03*
X266076D02*
D03*
X243340Y105200D02*
D03*
X235860D02*
D03*
X219816Y143048D02*
D03*
X212335D02*
D03*
X284973Y161060D02*
D03*
X277493D02*
D03*
X284973Y143422D02*
D03*
X277493D02*
D03*
X299060Y324800D02*
D03*
X306540D02*
D03*
Y317300D02*
D03*
X299060D02*
D03*
X252340D02*
D03*
X244860D02*
D03*
X280840Y351000D02*
D03*
X273360D02*
D03*
X140160Y149000D02*
D03*
X147640D02*
D03*
Y134700D02*
D03*
X140160D02*
D03*
Y126800D02*
D03*
X147640D02*
D03*
D129*
X294391Y404707D02*
D03*
Y418093D02*
D03*
Y460207D02*
D03*
Y473593D02*
D03*
D130*
X236154Y113521D02*
D03*
Y116079D02*
D03*
Y118639D02*
D03*
Y121198D02*
D03*
Y123757D02*
D03*
Y126316D02*
D03*
Y128875D02*
D03*
Y131434D02*
D03*
Y133993D02*
D03*
Y136552D02*
D03*
Y139111D02*
D03*
Y141670D02*
D03*
Y144229D02*
D03*
Y146788D02*
D03*
X264501D02*
D03*
X264500Y144229D02*
D03*
Y141670D02*
D03*
Y139111D02*
D03*
Y136552D02*
D03*
Y133993D02*
D03*
Y131434D02*
D03*
Y128875D02*
D03*
Y126316D02*
D03*
Y123757D02*
D03*
Y121198D02*
D03*
Y118639D02*
D03*
Y116079D02*
D03*
Y113521D02*
D03*
D131*
X130760Y197095D02*
D03*
X105169D02*
D03*
X130760Y207095D02*
D03*
X105169D02*
D03*
X130760Y217094D02*
D03*
X105169D02*
D03*
X130760Y227095D02*
D03*
X105169D02*
D03*
X130760Y237094D02*
D03*
X105169D02*
D03*
X130760Y247094D02*
D03*
X105169D02*
D03*
X130760Y257095D02*
D03*
X105169D02*
D03*
X130760Y267094D02*
D03*
X105169D02*
D03*
X130760Y277095D02*
D03*
X105169D02*
D03*
X130760Y287094D02*
D03*
X105169D02*
D03*
X130760Y297094D02*
D03*
X105169D02*
D03*
X130760Y307095D02*
D03*
X105169D02*
D03*
X130760Y317094D02*
D03*
X105169D02*
D03*
X130760Y327095D02*
D03*
X105169D02*
D03*
X130760Y337094D02*
D03*
X105169D02*
D03*
X130760Y347094D02*
D03*
X105169D02*
D03*
X130760Y357095D02*
D03*
X105169D02*
D03*
D132*
X51260Y20724D02*
D03*
X75560Y20324D02*
D03*
X55000Y20724D02*
D03*
X58740D02*
D03*
Y11276D02*
D03*
X51260D02*
D03*
X79300Y20324D02*
D03*
X83040D02*
D03*
Y10876D02*
D03*
X75560D02*
D03*
D133*
X41927Y20303D02*
D03*
X66600Y19937D02*
D03*
X41927Y12429D02*
D03*
X66600Y12063D02*
D03*
D134*
X59763Y36700D02*
D03*
X67637D02*
D03*
X84337D02*
D03*
X76463D02*
D03*
D135*
X188626Y412400D02*
D03*
X154374D02*
D03*
X188726Y454800D02*
D03*
X154474D02*
D03*
D136*
X204500Y93130D02*
D03*
X199500D02*
D03*
X194500D02*
D03*
X189500D02*
D03*
X184500D02*
D03*
X179500D02*
D03*
X174500D02*
D03*
X169500D02*
D03*
Y71870D02*
D03*
X174500D02*
D03*
X179500D02*
D03*
X184500D02*
D03*
X189500D02*
D03*
X194500D02*
D03*
X199500D02*
D03*
X204500D02*
D03*
D137*
X412303Y169144D02*
D03*
X410335D02*
D03*
X471358D02*
D03*
X469390D02*
D03*
X467421D02*
D03*
X465453D02*
D03*
X463484D02*
D03*
X461516D02*
D03*
X459547D02*
D03*
X457579D02*
D03*
X455610D02*
D03*
X453642D02*
D03*
X451673D02*
D03*
X449705D02*
D03*
X447736D02*
D03*
X445768D02*
D03*
X443799D02*
D03*
X441831D02*
D03*
X439862D02*
D03*
X437894D02*
D03*
X435925D02*
D03*
X433957D02*
D03*
X431988D02*
D03*
X430020D02*
D03*
X428051D02*
D03*
X426083D02*
D03*
X424114D02*
D03*
X422146D02*
D03*
X420177D02*
D03*
X418209D02*
D03*
X416240D02*
D03*
X414272D02*
D03*
X408366D02*
D03*
X406398D02*
D03*
X404429D02*
D03*
X402461D02*
D03*
X400492D02*
D03*
X398524D02*
D03*
X396555D02*
D03*
X394587D02*
D03*
X392618D02*
D03*
X390650D02*
D03*
X388681D02*
D03*
X386713D02*
D03*
X384744D02*
D03*
X382776D02*
D03*
X380807D02*
D03*
X378839D02*
D03*
X376870D02*
D03*
X374902D02*
D03*
X372933D02*
D03*
X370965D02*
D03*
X368996D02*
D03*
X367028D02*
D03*
X365059D02*
D03*
X363090D02*
D03*
X361122D02*
D03*
X359154D02*
D03*
X357185D02*
D03*
X355217D02*
D03*
D138*
X106984Y141500D02*
D03*
D139*
X130016Y131500D02*
D03*
Y136500D02*
D03*
Y141500D02*
D03*
Y146500D02*
D03*
Y151500D02*
D03*
D140*
X348917Y160581D02*
D03*
X477658D02*
D03*
D141*
X74539Y204100D02*
D03*
X91861D02*
D03*
M02*
