G04*
G04 #@! TF.GenerationSoftware,Altium Limited,Altium Designer,21.7.1 (17)*
G04*
G04 Layer_Color=8388736*
%FSLAX25Y25*%
%MOIN*%
G70*
G04*
G04 #@! TF.SameCoordinates,4C4A95DF-11EF-4B83-83A5-CF7285FCABA4*
G04*
G04*
G04 #@! TF.FilePolarity,Positive*
G04*
G01*
G75*
%ADD10C,0.00394*%
%ADD145C,0.01968*%
D10*
X49095Y21907D02*
X60907D01*
Y10095D02*
Y21907D01*
X49095Y10095D02*
X60907D01*
X49095D02*
Y21907D01*
X73395Y21507D02*
X85207D01*
Y9695D02*
Y21507D01*
X73395Y9695D02*
X85207D01*
X73395D02*
Y21507D01*
X59963Y39062D02*
X67834D01*
X59963Y34338D02*
X67834D01*
Y39062D01*
X59963Y34338D02*
Y39062D01*
X44289Y12232D02*
Y20103D01*
X39565Y12232D02*
Y20103D01*
Y12232D02*
X44289D01*
X39565Y20103D02*
X44289D01*
X84137Y34338D02*
Y39062D01*
X76266Y34338D02*
Y39062D01*
X84137D01*
X76266Y34338D02*
X84137D01*
X64238Y19737D02*
X68962D01*
X64238Y11866D02*
X68962D01*
X64238D02*
Y19737D01*
X68962Y11866D02*
Y19737D01*
X124500Y143149D02*
Y140525D01*
X123975Y140000D01*
X122926D01*
X122401Y140525D01*
Y143149D01*
X121351Y142624D02*
X120827Y143149D01*
X119777D01*
X119252Y142624D01*
Y142099D01*
X119777Y141574D01*
X120302D01*
X119777D01*
X119252Y141050D01*
Y140525D01*
X119777Y140000D01*
X120827D01*
X121351Y140525D01*
D145*
X50669Y20331D02*
D03*
X74969Y19931D02*
D03*
M02*
