G04*
G04 #@! TF.GenerationSoftware,Altium Limited,Altium Designer,21.7.1 (17)*
G04*
G04 Layer_Color=255*
%FSLAX25Y25*%
%MOIN*%
G70*
G04*
G04 #@! TF.SameCoordinates,4C4A95DF-11EF-4B83-83A5-CF7285FCABA4*
G04*
G04*
G04 #@! TF.FilePolarity,Positive*
G04*
G01*
G75*
%ADD34C,0.02362*%
%ADD35C,0.09567*%
G04:AMPARAMS|DCode=36|XSize=118.11mil|YSize=59.06mil|CornerRadius=14.76mil|HoleSize=0mil|Usage=FLASHONLY|Rotation=90.000|XOffset=0mil|YOffset=0mil|HoleType=Round|Shape=RoundedRectangle|*
%AMROUNDEDRECTD36*
21,1,0.11811,0.02953,0,0,90.0*
21,1,0.08858,0.05906,0,0,90.0*
1,1,0.02953,0.01476,0.04429*
1,1,0.02953,0.01476,-0.04429*
1,1,0.02953,-0.01476,-0.04429*
1,1,0.02953,-0.01476,0.04429*
%
%ADD36ROUNDEDRECTD36*%
%ADD37C,0.10236*%
G04:AMPARAMS|DCode=38|XSize=118.11mil|YSize=59.06mil|CornerRadius=14.76mil|HoleSize=0mil|Usage=FLASHONLY|Rotation=0.000|XOffset=0mil|YOffset=0mil|HoleType=Round|Shape=RoundedRectangle|*
%AMROUNDEDRECTD38*
21,1,0.11811,0.02953,0,0,0.0*
21,1,0.08858,0.05906,0,0,0.0*
1,1,0.02953,0.04429,-0.01476*
1,1,0.02953,-0.04429,-0.01476*
1,1,0.02953,-0.04429,0.01476*
1,1,0.02953,0.04429,0.01476*
%
%ADD38ROUNDEDRECTD38*%
%ADD39R,0.09843X0.13780*%
%ADD40C,0.08661*%
%ADD41R,0.08661X0.08661*%
%ADD42O,0.08661X0.04724*%
%ADD43C,0.06555*%
%ADD44C,0.05941*%
%ADD45C,0.03937*%
%ADD46C,0.23622*%
%ADD47C,0.07874*%
%ADD48R,0.09843X0.09843*%
D34*
X47244Y295276D02*
D03*
Y240158D02*
D03*
Y185039D02*
D03*
D35*
X31890Y278543D02*
D03*
X37402Y292323D02*
D03*
X57087D02*
D03*
X62598Y278543D02*
D03*
X47244Y275590D02*
D03*
X31890Y223425D02*
D03*
X37402Y237205D02*
D03*
X57087D02*
D03*
X62598Y223425D02*
D03*
X47244Y220472D02*
D03*
X31890Y168307D02*
D03*
X37402Y182087D02*
D03*
X57087D02*
D03*
X62598Y168307D02*
D03*
X47244Y165354D02*
D03*
D36*
X351008Y382839D02*
D03*
Y430903D02*
D03*
X207450D02*
D03*
X351008Y478968D02*
D03*
X207450D02*
D03*
Y382839D02*
D03*
D37*
X269791Y474094D02*
D03*
Y417574D02*
D03*
D38*
X221820Y495306D02*
D03*
X337032D02*
D03*
X221820Y366500D02*
D03*
X337032D02*
D03*
D39*
X1084291Y409882D02*
D03*
X1049646D02*
D03*
X852106D02*
D03*
X886752D02*
D03*
D40*
X1066969Y382323D02*
D03*
X1057126D02*
D03*
X1076811D02*
D03*
X879272D02*
D03*
X859587D02*
D03*
X869429D02*
D03*
X59995Y446658D02*
D03*
X59996Y428942D02*
D03*
X34404D02*
D03*
X747441Y54134D02*
D03*
X747441Y36417D02*
D03*
X721850D02*
D03*
X668645Y54134D02*
D03*
X668645Y36417D02*
D03*
X643054D02*
D03*
X589848Y54134D02*
D03*
X589849Y36417D02*
D03*
X564257D02*
D03*
X511052Y54134D02*
D03*
X511052Y36417D02*
D03*
X485461D02*
D03*
X432255Y54134D02*
D03*
X432256Y36417D02*
D03*
X406664D02*
D03*
X327868D02*
D03*
X353459D02*
D03*
X353459Y54134D02*
D03*
X249072Y36417D02*
D03*
X274663D02*
D03*
X274663Y54134D02*
D03*
X170275Y36417D02*
D03*
X195867D02*
D03*
X195866Y54134D02*
D03*
X856692Y298236D02*
D03*
X882284D02*
D03*
X882283Y315953D02*
D03*
X1079823D02*
D03*
X1079823Y298236D02*
D03*
X1054232D02*
D03*
X980905Y315953D02*
D03*
X980906Y298236D02*
D03*
X955315D02*
D03*
D41*
X34405Y446658D02*
D03*
X721850Y54134D02*
D03*
X643054D02*
D03*
X564258D02*
D03*
X485461D02*
D03*
X406665D02*
D03*
X327868D02*
D03*
X249072D02*
D03*
X170276D02*
D03*
X856693Y315953D02*
D03*
X1054232D02*
D03*
X955315D02*
D03*
D42*
X47200Y421658D02*
D03*
X734646Y29134D02*
D03*
X655849D02*
D03*
X577053D02*
D03*
X498256D02*
D03*
X419460D02*
D03*
X340664D02*
D03*
X261867D02*
D03*
X183071D02*
D03*
X869488Y290953D02*
D03*
X1067027D02*
D03*
X968110D02*
D03*
D43*
X67200Y96583D02*
D03*
X27200D02*
D03*
D44*
X34700Y71583D02*
D03*
X39700Y61583D02*
D03*
X44700Y71583D02*
D03*
X49700Y61583D02*
D03*
X54700Y71583D02*
D03*
X59700Y61583D02*
D03*
D45*
X112925Y357095D02*
D03*
X122925D02*
D03*
X112925Y347094D02*
D03*
X122925D02*
D03*
X112925Y337094D02*
D03*
X122925D02*
D03*
X112925Y327095D02*
D03*
X122925D02*
D03*
X112925Y317094D02*
D03*
X122925D02*
D03*
X112925Y307095D02*
D03*
X122925D02*
D03*
X112925Y297094D02*
D03*
X122925D02*
D03*
X112925Y287094D02*
D03*
X122925D02*
D03*
X112925Y277095D02*
D03*
X122925D02*
D03*
X112925Y267094D02*
D03*
X122925D02*
D03*
X112925Y257095D02*
D03*
X122925D02*
D03*
X112925Y247094D02*
D03*
X122925D02*
D03*
X112925Y237094D02*
D03*
X122925D02*
D03*
X112925Y227095D02*
D03*
Y217094D02*
D03*
X122925D02*
D03*
X112925Y207095D02*
D03*
X122925D02*
D03*
X112925Y197095D02*
D03*
X122925D02*
D03*
Y227095D02*
D03*
D46*
X119409Y462598D02*
D03*
X804961D02*
D03*
Y92244D02*
D03*
X121417Y92126D02*
D03*
X15800Y264900D02*
D03*
X1086600D02*
D03*
X851200Y488200D02*
D03*
Y264900D02*
D03*
X458900Y15800D02*
D03*
X300500D02*
D03*
X617300D02*
D03*
X851200D02*
D03*
X15800D02*
D03*
Y488200D02*
D03*
X1086600D02*
D03*
D47*
X958346Y439882D02*
D03*
X967953Y439872D02*
D03*
X978347Y439882D02*
D03*
X958346Y382382D02*
D03*
X978347D02*
D03*
D48*
X943937Y409882D02*
D03*
X991969D02*
D03*
M02*
