G04*
G04 #@! TF.GenerationSoftware,Altium Limited,Altium Designer,21.7.1 (17)*
G04*
G04 Layer_Physical_Order=2*
G04 Layer_Color=16711680*
%FSLAX25Y25*%
%MOIN*%
G70*
G04*
G04 #@! TF.SameCoordinates,4C4A95DF-11EF-4B83-83A5-CF7285FCABA4*
G04*
G04*
G04 #@! TF.FilePolarity,Positive*
G04*
G01*
G75*
%ADD11C,0.01000*%
%ADD12C,0.00787*%
%ADD30C,0.03937*%
%ADD31C,0.01181*%
%ADD32C,0.01968*%
%ADD34C,0.02362*%
%ADD35C,0.09567*%
G04:AMPARAMS|DCode=36|XSize=118.11mil|YSize=59.06mil|CornerRadius=14.76mil|HoleSize=0mil|Usage=FLASHONLY|Rotation=90.000|XOffset=0mil|YOffset=0mil|HoleType=Round|Shape=RoundedRectangle|*
%AMROUNDEDRECTD36*
21,1,0.11811,0.02953,0,0,90.0*
21,1,0.08858,0.05906,0,0,90.0*
1,1,0.02953,0.01476,0.04429*
1,1,0.02953,0.01476,-0.04429*
1,1,0.02953,-0.01476,-0.04429*
1,1,0.02953,-0.01476,0.04429*
%
%ADD36ROUNDEDRECTD36*%
%ADD37C,0.10236*%
G04:AMPARAMS|DCode=38|XSize=118.11mil|YSize=59.06mil|CornerRadius=14.76mil|HoleSize=0mil|Usage=FLASHONLY|Rotation=0.000|XOffset=0mil|YOffset=0mil|HoleType=Round|Shape=RoundedRectangle|*
%AMROUNDEDRECTD38*
21,1,0.11811,0.02953,0,0,0.0*
21,1,0.08858,0.05906,0,0,0.0*
1,1,0.02953,0.04429,-0.01476*
1,1,0.02953,-0.04429,-0.01476*
1,1,0.02953,-0.04429,0.01476*
1,1,0.02953,0.04429,0.01476*
%
%ADD38ROUNDEDRECTD38*%
%ADD39R,0.09843X0.13780*%
%ADD40C,0.08661*%
%ADD41R,0.08661X0.08661*%
%ADD42O,0.08661X0.04724*%
%ADD43C,0.06555*%
%ADD44C,0.05941*%
%ADD45C,0.03937*%
%ADD46C,0.23622*%
%ADD47C,0.07874*%
%ADD48R,0.09843X0.09843*%
%ADD49C,0.01772*%
%ADD50C,0.04724*%
%ADD51C,0.01772*%
%ADD52R,0.05118X0.02756*%
%ADD53R,0.07835X0.09173*%
%ADD54R,0.03937X0.13780*%
%ADD55R,0.06299X0.13780*%
%ADD56R,0.12598X0.06299*%
%ADD57R,0.08465X0.08661*%
G04:AMPARAMS|DCode=58|XSize=66.93mil|YSize=39.37mil|CornerRadius=3.94mil|HoleSize=0mil|Usage=FLASHONLY|Rotation=180.000|XOffset=0mil|YOffset=0mil|HoleType=Round|Shape=RoundedRectangle|*
%AMROUNDEDRECTD58*
21,1,0.06693,0.03150,0,0,180.0*
21,1,0.05906,0.03937,0,0,180.0*
1,1,0.00787,-0.02953,0.01575*
1,1,0.00787,0.02953,0.01575*
1,1,0.00787,0.02953,-0.01575*
1,1,0.00787,-0.02953,-0.01575*
%
%ADD58ROUNDEDRECTD58*%
%ADD59R,0.05906X0.13386*%
%ADD60R,0.03937X0.13780*%
%ADD61R,0.10236X0.04331*%
%ADD62R,0.13386X0.09449*%
%ADD63R,0.09449X0.13386*%
%ADD64R,0.07874X0.08661*%
%ADD65R,0.08661X0.07874*%
%ADD66R,0.06299X0.03937*%
%ADD67R,0.07874X0.02362*%
%ADD68R,0.09488X0.12992*%
%ADD69R,0.05118X0.03543*%
%ADD70R,0.02756X0.05118*%
%ADD71R,0.03543X0.05118*%
%ADD72R,0.14173X0.07874*%
%ADD73R,0.07087X0.01575*%
%ADD74R,0.09449X0.03937*%
%ADD75R,0.02362X0.03937*%
%ADD76R,0.04921X0.03937*%
%ADD77R,0.03937X0.04921*%
%ADD78R,0.16142X0.07874*%
%ADD79R,0.02362X0.07874*%
%ADD80R,0.01181X0.04724*%
G04:AMPARAMS|DCode=81|XSize=124.02mil|YSize=70.87mil|CornerRadius=2.13mil|HoleSize=0mil|Usage=FLASHONLY|Rotation=90.000|XOffset=0mil|YOffset=0mil|HoleType=Round|Shape=RoundedRectangle|*
%AMROUNDEDRECTD81*
21,1,0.12402,0.06661,0,0,90.0*
21,1,0.11976,0.07087,0,0,90.0*
1,1,0.00425,0.03331,0.05988*
1,1,0.00425,0.03331,-0.05988*
1,1,0.00425,-0.03331,-0.05988*
1,1,0.00425,-0.03331,0.05988*
%
%ADD81ROUNDEDRECTD81*%
G04:AMPARAMS|DCode=82|XSize=23.62mil|YSize=70.87mil|CornerRadius=2.01mil|HoleSize=0mil|Usage=FLASHONLY|Rotation=90.000|XOffset=0mil|YOffset=0mil|HoleType=Round|Shape=RoundedRectangle|*
%AMROUNDEDRECTD82*
21,1,0.02362,0.06685,0,0,90.0*
21,1,0.01961,0.07087,0,0,90.0*
1,1,0.00402,0.03343,0.00980*
1,1,0.00402,0.03343,-0.00980*
1,1,0.00402,-0.03343,-0.00980*
1,1,0.00402,-0.03343,0.00980*
%
%ADD82ROUNDEDRECTD82*%
%ADD83R,0.08661X0.12992*%
%ADD84R,0.08661X0.08465*%
%ADD85C,0.02362*%
%ADD86R,0.35196X0.05953*%
%ADD87R,0.07900X0.06220*%
%ADD88R,0.15600X0.70400*%
%ADD89R,0.35300X0.18100*%
%ADD90R,0.34200X0.13300*%
%ADD91R,0.34200X0.09927*%
%ADD92R,0.15100X0.26700*%
%ADD93R,0.13600X0.14191*%
%ADD94R,0.15991X0.29200*%
%ADD95R,0.34200X0.11400*%
%ADD96R,0.08400X0.23400*%
%ADD97R,0.05000X0.22100*%
%ADD98R,0.03000X0.19729*%
%ADD99R,0.19800X0.13000*%
%ADD100R,0.48500X0.20200*%
%ADD101R,0.12400X0.41400*%
%ADD102R,0.19200X0.20200*%
%ADD103R,0.27000X0.02900*%
%ADD104R,0.09000X0.22000*%
%ADD105R,0.27200X0.28100*%
%ADD106R,0.19300X0.62800*%
%ADD107R,0.25191X0.18500*%
%ADD108R,0.25000X0.22400*%
G36*
X1088697Y501440D02*
X1090742Y500949D01*
X1092686Y500144D01*
X1094479Y499045D01*
X1096079Y497679D01*
X1097445Y496079D01*
X1098544Y494286D01*
X1099349Y492342D01*
X1099840Y490297D01*
X1099994Y488335D01*
X1099967Y488200D01*
X1099967Y246140D01*
X1099994Y246005D01*
X1099840Y244043D01*
X1099349Y241998D01*
X1098544Y240055D01*
X1097445Y238261D01*
X1096079Y236662D01*
X1094479Y235296D01*
X1092686Y234196D01*
X1090742Y233391D01*
X1088697Y232901D01*
X1087099Y232775D01*
X1086600Y232773D01*
Y232773D01*
X1086550Y232763D01*
X968110D01*
Y232764D01*
X961856Y232575D01*
X955624Y232009D01*
X949438Y231067D01*
X943319Y229754D01*
X937292Y228074D01*
X931376Y226032D01*
X925595Y223638D01*
X919969Y220898D01*
X914519Y217824D01*
X910917Y215495D01*
X910478Y215734D01*
Y230097D01*
X910853Y230427D01*
X911018Y230405D01*
X912677D01*
X912744Y230304D01*
X913526Y229782D01*
X914447Y229599D01*
X920353D01*
X921274Y229782D01*
X922056Y230304D01*
X922578Y231085D01*
X922761Y232007D01*
Y234729D01*
X929100D01*
X930128Y234864D01*
X931085Y235261D01*
X931908Y235892D01*
X935008Y238992D01*
X935639Y239814D01*
X936036Y240772D01*
X936171Y241800D01*
Y249855D01*
X938745Y252429D01*
X961617D01*
X962644Y252564D01*
X963602Y252961D01*
X964425Y253592D01*
X966731Y255898D01*
X967362Y256721D01*
X967758Y257679D01*
X967894Y258706D01*
Y259083D01*
X975234D01*
X975734Y259083D01*
Y259083D01*
X975734D01*
Y259083D01*
X983608D01*
Y276520D01*
X984428D01*
Y284000D01*
X982459D01*
Y285968D01*
X977341D01*
Y284000D01*
X975373D01*
Y276854D01*
X975372Y276799D01*
X975350Y276799D01*
X974755D01*
Y277076D01*
X974560Y277802D01*
X974406Y278068D01*
X974393Y278168D01*
X974135Y278791D01*
X973725Y279325D01*
X970965Y282085D01*
X970431Y282495D01*
X969808Y282753D01*
X969140Y282841D01*
X960627D01*
Y284000D01*
X958659D01*
Y285968D01*
X953541D01*
Y284000D01*
X951573D01*
Y276520D01*
X959986D01*
Y268199D01*
X959952Y267941D01*
Y260371D01*
X937100D01*
X936072Y260236D01*
X935114Y259839D01*
X934292Y259208D01*
X929392Y254308D01*
X928761Y253485D01*
X928364Y252528D01*
X928229Y251500D01*
Y243445D01*
X927455Y242671D01*
X922761D01*
Y245393D01*
X922578Y246315D01*
X922056Y247096D01*
X921274Y247618D01*
X920353Y247801D01*
X914447D01*
X913526Y247618D01*
X912744Y247096D01*
X912677Y246995D01*
X911018D01*
X910853Y246973D01*
X910478Y247303D01*
Y301560D01*
X911522Y302604D01*
X924331D01*
X924999Y302692D01*
X925622Y302950D01*
X926156Y303360D01*
X926569Y303773D01*
X948779D01*
X949447Y303861D01*
X950069Y304119D01*
X950604Y304529D01*
X953541Y307466D01*
X964047D01*
X964715Y307554D01*
X965338Y307812D01*
X965872Y308222D01*
X975355Y317704D01*
X975803Y317446D01*
X975590Y316652D01*
Y315253D01*
X975953Y313901D01*
X976652Y312689D01*
X977642Y311700D01*
X978854Y311000D01*
X980206Y310638D01*
X981605D01*
X982957Y311000D01*
X984169Y311700D01*
X985158Y312689D01*
X985198Y312758D01*
X1009431D01*
Y311407D01*
X1016124D01*
Y313376D01*
X1016912D01*
Y311407D01*
X1023605D01*
Y312776D01*
X1048917D01*
Y310638D01*
X1059547D01*
Y321268D01*
X1048917D01*
Y319129D01*
X1023605D01*
Y320462D01*
X1016912D01*
Y318494D01*
X1016124D01*
Y320462D01*
X1009431D01*
Y319111D01*
X985219D01*
X985158Y319216D01*
X984169Y320206D01*
X982957Y320905D01*
X981605Y321268D01*
X980206D01*
X979413Y321055D01*
X979154Y321503D01*
X980132Y322482D01*
X980542Y323017D01*
X980800Y323639D01*
X980888Y324307D01*
Y378167D01*
X981368Y378444D01*
X982284Y379360D01*
X982932Y380482D01*
X983268Y381734D01*
Y383030D01*
X982932Y384281D01*
X982284Y385404D01*
X981368Y386320D01*
X980246Y386968D01*
X978994Y387303D01*
X977699D01*
X976447Y386968D01*
X975325Y386320D01*
X974409Y385404D01*
X973761Y384281D01*
X973425Y383030D01*
Y381734D01*
X973761Y380482D01*
X974409Y379360D01*
X975325Y378444D01*
X975726Y378212D01*
Y325376D01*
X962978Y312628D01*
X960630D01*
Y321268D01*
X950000D01*
Y314850D01*
X946648Y311498D01*
X926046D01*
Y311866D01*
X924077D01*
Y312653D01*
X926046D01*
Y319346D01*
X916991D01*
Y318978D01*
X915809D01*
Y319346D01*
X906934D01*
Y383205D01*
X915439Y391710D01*
X1060151D01*
X1064387Y387474D01*
Y386970D01*
X1063705Y386576D01*
X1062716Y385586D01*
X1062297Y384862D01*
X1061797D01*
X1061379Y385586D01*
X1060390Y386576D01*
X1059177Y387276D01*
X1057826Y387638D01*
X1056426D01*
X1055075Y387276D01*
X1053863Y386576D01*
X1052873Y385586D01*
X1052173Y384374D01*
X1051811Y383023D01*
Y381623D01*
X1052173Y380271D01*
X1052873Y379059D01*
X1053863Y378070D01*
X1055075Y377370D01*
X1056426Y377008D01*
X1057826D01*
X1059177Y377370D01*
X1060390Y378070D01*
X1061379Y379059D01*
X1061797Y379784D01*
X1062297D01*
X1062716Y379059D01*
X1063705Y378070D01*
X1064917Y377370D01*
X1066269Y377008D01*
X1067668D01*
X1069020Y377370D01*
X1070232Y378070D01*
X1071222Y379059D01*
X1071921Y380271D01*
X1072283Y381623D01*
Y383023D01*
X1071921Y384374D01*
X1071222Y385586D01*
X1070232Y386576D01*
X1069550Y386970D01*
Y388543D01*
X1069462Y389211D01*
X1069204Y389834D01*
X1068794Y390368D01*
X1063046Y396116D01*
X1062511Y396527D01*
X1061889Y396784D01*
X1061220Y396872D01*
X914370D01*
X913702Y396784D01*
X913079Y396527D01*
X912545Y396116D01*
X902528Y386100D01*
X902118Y385565D01*
X901860Y384942D01*
X901772Y384274D01*
Y373137D01*
X901310Y372946D01*
X897159Y377097D01*
X896624Y377507D01*
X896002Y377765D01*
X895334Y377853D01*
X873183D01*
X872976Y378353D01*
X873682Y379059D01*
X874382Y380271D01*
X874744Y381623D01*
Y383023D01*
X874382Y384374D01*
X873682Y385586D01*
X872693Y386576D01*
X871481Y387276D01*
X870129Y387638D01*
X868729D01*
X867378Y387276D01*
X866166Y386576D01*
X865176Y385586D01*
X864758Y384862D01*
X864258D01*
X863840Y385586D01*
X862850Y386576D01*
X861638Y387276D01*
X860286Y387638D01*
X858887D01*
X857535Y387276D01*
X856323Y386576D01*
X855334Y385586D01*
X854634Y384374D01*
X854272Y383023D01*
Y381623D01*
X854634Y380271D01*
X855334Y379059D01*
X856323Y378070D01*
X857535Y377370D01*
X858887Y377008D01*
X860286D01*
X861638Y377370D01*
X862850Y378070D01*
X863840Y379059D01*
X864258Y379784D01*
X864758D01*
X865176Y379059D01*
X866166Y378070D01*
X866848Y377676D01*
Y376671D01*
X866876Y376457D01*
X866547Y376081D01*
X855669D01*
X848191Y383559D01*
Y436136D01*
X858203Y446147D01*
X953603D01*
X955418Y444332D01*
X955353Y443836D01*
X955325Y443820D01*
X954408Y442904D01*
X953761Y441781D01*
X953425Y440530D01*
Y439234D01*
X953761Y437982D01*
X954408Y436860D01*
X955325Y435944D01*
X955765Y435689D01*
Y433580D01*
X953773D01*
Y426100D01*
X955741D01*
Y424131D01*
X960859D01*
Y426100D01*
X962827D01*
Y433580D01*
X960928D01*
Y435689D01*
X961368Y435944D01*
X962284Y436860D01*
X962932Y437982D01*
X963268Y439234D01*
Y440530D01*
X962932Y441781D01*
X962284Y442904D01*
X961368Y443820D01*
X960928Y444074D01*
Y445054D01*
X960840Y445722D01*
X960582Y446344D01*
X960172Y446879D01*
X959593Y447457D01*
X959785Y447919D01*
X972431D01*
X975765Y444584D01*
Y444074D01*
X975325Y443820D01*
X974409Y442904D01*
X973761Y441781D01*
X973425Y440530D01*
Y439234D01*
X973761Y437982D01*
X974409Y436860D01*
X975325Y435944D01*
X975765Y435689D01*
Y433601D01*
X974114D01*
Y426121D01*
X976083D01*
Y424152D01*
X981201D01*
Y426121D01*
X983169D01*
Y433601D01*
X980928D01*
Y435689D01*
X981368Y435944D01*
X982284Y436860D01*
X982932Y437982D01*
X983268Y439234D01*
Y440530D01*
X982932Y441781D01*
X982284Y442904D01*
X981368Y443820D01*
X980928Y444074D01*
Y445654D01*
X980840Y446322D01*
X980582Y446944D01*
X980172Y447479D01*
X975325Y452325D01*
X974791Y452735D01*
X974168Y452993D01*
X973500Y453081D01*
X856400D01*
X855732Y452993D01*
X855109Y452735D01*
X854575Y452325D01*
X842013Y439764D01*
X841603Y439229D01*
X841345Y438607D01*
X841257Y437939D01*
Y381756D01*
X841345Y381088D01*
X841603Y380465D01*
X842013Y379931D01*
X852041Y369903D01*
X852576Y369493D01*
X853198Y369235D01*
X853866Y369147D01*
X892797D01*
X896457Y365487D01*
Y265336D01*
X893079Y261958D01*
X892669Y261423D01*
X892411Y260801D01*
X892323Y260133D01*
Y243055D01*
X891947Y242725D01*
X891600Y242771D01*
X889379D01*
X888351Y242636D01*
X887393Y242239D01*
X886571Y241608D01*
X884264Y239302D01*
X883634Y238479D01*
X883237Y237522D01*
X883101Y236494D01*
Y223715D01*
X882885Y223311D01*
X882880Y223306D01*
X882880D01*
X882523Y222960D01*
X881468Y222018D01*
X881467Y222017D01*
X881465Y222015D01*
X881465Y222015D01*
X881298Y221820D01*
X880682Y221270D01*
X880336Y220961D01*
X880316Y220939D01*
X879968Y220583D01*
X876700Y217316D01*
X876344Y216967D01*
X876323Y216948D01*
X876015Y216604D01*
X875504Y216031D01*
X875324Y215880D01*
X875324Y215880D01*
X875313Y215865D01*
X875300Y215854D01*
X875299Y215853D01*
X875295Y215847D01*
X875290Y215843D01*
X873989Y214387D01*
X873989Y214387D01*
X873988Y214386D01*
X871555Y211664D01*
X871408Y211449D01*
X870613Y210559D01*
X870618Y210555D01*
X870618Y210554D01*
X867441Y206570D01*
X867128Y206181D01*
X867072Y206119D01*
X866835Y205784D01*
X866334Y205079D01*
X866159Y204890D01*
X866159Y204890D01*
X866158Y204888D01*
X866156Y204887D01*
X862971Y200396D01*
X862968Y200392D01*
X862965Y200388D01*
X862965Y200388D01*
X862846Y200163D01*
X862363Y199482D01*
X862112Y199128D01*
X862083Y199076D01*
X861821Y198652D01*
X859392Y194787D01*
X859124Y194367D01*
X859092Y194322D01*
X858881Y193940D01*
X858503Y193256D01*
X858369Y193082D01*
X858369Y193082D01*
X858355Y193049D01*
X858334Y193021D01*
X858334Y193020D01*
X858333Y193017D01*
X858330Y193013D01*
X857203Y190974D01*
X857184Y190925D01*
X857153Y190884D01*
X855922Y188656D01*
X855917Y188644D01*
X855910Y188635D01*
X855910Y188634D01*
X855908Y188628D01*
X855903Y188622D01*
X855647Y188158D01*
X855617Y188081D01*
X855571Y188013D01*
X855571Y188013D01*
X855512Y187845D01*
X855144Y187179D01*
X854946Y186820D01*
X854914Y186742D01*
X854699Y186291D01*
X852737Y182217D01*
X852518Y181768D01*
X852483Y181707D01*
X852322Y181317D01*
X852001Y180542D01*
X851871Y180318D01*
X850709Y177511D01*
X850503Y177055D01*
X850503Y177055D01*
X850326Y176587D01*
X850136Y176128D01*
X850067Y175966D01*
X849997Y175812D01*
X849995Y175811D01*
X849960Y175739D01*
X849889Y175574D01*
X849815Y175372D01*
X849747Y175190D01*
X849725Y175106D01*
X849680Y174939D01*
X849381Y174216D01*
X849203Y173787D01*
X849195Y173760D01*
X849036Y173288D01*
X848680Y172271D01*
X848499Y171804D01*
X848509Y171784D01*
X848349Y171327D01*
X847896Y170032D01*
X847716Y169565D01*
X847716Y169565D01*
X847566Y169088D01*
X847537Y169004D01*
X847371Y168533D01*
X847329Y168430D01*
X847223Y168062D01*
X847038Y167423D01*
X846856Y166969D01*
X846856Y166969D01*
X846733Y166484D01*
X846389Y165292D01*
X846385Y165267D01*
X846376Y165245D01*
X845341Y161652D01*
X845302Y161395D01*
X845064Y160568D01*
X844956Y160193D01*
X844938Y160091D01*
X844828Y159603D01*
X844518Y158248D01*
X844391Y157764D01*
X844391Y157763D01*
X844296Y157272D01*
X843987Y155917D01*
X843859Y155433D01*
X843859Y155433D01*
X843774Y154993D01*
X843708Y154713D01*
X843693Y154660D01*
X843619Y154228D01*
X843484Y153432D01*
X843407Y153183D01*
X842518Y147948D01*
X842515Y147864D01*
X842490Y147783D01*
X842481Y147731D01*
X842472Y147473D01*
X842328Y146626D01*
X842257Y146209D01*
X842253Y146139D01*
X842200Y145642D01*
X842109Y144841D01*
X842110Y144807D01*
X842102Y144774D01*
X841844Y142481D01*
X841789Y142001D01*
X841770Y141987D01*
X841770D01*
X841770Y141987D01*
X841732Y141488D01*
X841696Y141174D01*
X841640Y140678D01*
X841621Y140569D01*
X841600Y140187D01*
X841554Y139369D01*
X841523Y139206D01*
X841506Y139114D01*
X841464Y138714D01*
X841456Y138573D01*
X841447Y138072D01*
X841194Y133554D01*
X841213Y133296D01*
X841161Y132367D01*
X841149Y132286D01*
X841131Y130972D01*
X841122Y130473D01*
Y130473D01*
X841117Y129983D01*
X841123Y129928D01*
X841115Y129873D01*
X841112Y129623D01*
X841121Y129539D01*
X841101Y129173D01*
X841104Y129125D01*
X841108Y128626D01*
X841108Y104500D01*
X841104Y104000D01*
X841103Y103991D01*
X841108D01*
X841108Y103500D01*
Y96725D01*
X841108Y96725D01*
X841108Y96837D01*
X841106Y96724D01*
X841088Y96706D01*
X841088Y96706D01*
X841088Y96705D01*
X841100Y96339D01*
X841102Y95839D01*
Y84618D01*
X829920Y73436D01*
X774875D01*
X762016Y86295D01*
X761194Y86926D01*
X760236Y87323D01*
X759208Y87458D01*
X415367D01*
X414339Y87323D01*
X413381Y86926D01*
X412559Y86295D01*
X412441Y86141D01*
X411942Y86108D01*
X405042Y93009D01*
Y164813D01*
X418799D01*
Y168976D01*
X418821Y169144D01*
Y182137D01*
X419283Y182329D01*
X425534Y176077D01*
Y173474D01*
X419587D01*
Y164813D01*
X473917D01*
Y168976D01*
X473939Y169144D01*
Y189942D01*
X473851Y190610D01*
X473594Y191232D01*
X473183Y191767D01*
X420114Y244837D01*
X419579Y245247D01*
X418956Y245505D01*
X418288Y245593D01*
X379042D01*
X378884Y246180D01*
X378741Y246428D01*
Y266733D01*
X380833Y268824D01*
X393328D01*
Y267207D01*
X407502D01*
Y275081D01*
Y282955D01*
Y290829D01*
Y298703D01*
Y300219D01*
X412313D01*
Y298272D01*
X419006D01*
Y300241D01*
X421762D01*
Y305359D01*
X419006D01*
Y308141D01*
X421762D01*
Y313259D01*
X419006D01*
Y316041D01*
X421762D01*
Y321159D01*
X419006D01*
Y323128D01*
X412313D01*
Y321181D01*
X407502D01*
Y322719D01*
X393328D01*
Y321181D01*
X386169D01*
X383481Y323869D01*
Y338513D01*
X385428D01*
Y345206D01*
X383459D01*
Y345994D01*
X385428D01*
Y352687D01*
X366978D01*
Y354000D01*
X366877Y354771D01*
X366579Y355489D01*
X366106Y356106D01*
X365489Y356579D01*
X364771Y356877D01*
X364000Y356978D01*
X363229Y356877D01*
X362511Y356579D01*
X361894Y356106D01*
X361508Y355603D01*
X361009Y355735D01*
Y381567D01*
X361395Y381884D01*
X361400Y381883D01*
X425200D01*
X426163Y382075D01*
X426980Y382620D01*
X427525Y383437D01*
X427717Y384400D01*
Y423700D01*
X427525Y424663D01*
X426980Y425480D01*
X426163Y426025D01*
X425200Y426217D01*
X361400D01*
X360437Y426025D01*
X359620Y425480D01*
X359075Y424663D01*
X358883Y423700D01*
Y414176D01*
X358421Y413985D01*
X357103Y415303D01*
X356322Y415825D01*
X355400Y416009D01*
X345598D01*
X338603Y423003D01*
X337822Y423525D01*
X336900Y423708D01*
X335879D01*
X335715Y423909D01*
Y438100D01*
X335562Y438868D01*
X335452Y439032D01*
Y440176D01*
X318129D01*
Y438245D01*
X318101Y438100D01*
Y427774D01*
X317638Y427583D01*
X312764Y432458D01*
X312955Y432920D01*
X314391D01*
X315159Y433073D01*
X315810Y433507D01*
X316245Y434159D01*
X316398Y434927D01*
Y449693D01*
X318129D01*
Y449624D01*
X335452D01*
Y451470D01*
X335498Y451700D01*
Y461627D01*
X335452Y461856D01*
Y463010D01*
X334934D01*
X334910Y463046D01*
X334259Y463481D01*
X333491Y463634D01*
X310762D01*
Y464213D01*
X311318D01*
Y470906D01*
X309350D01*
Y471694D01*
X311318D01*
Y478387D01*
X307278D01*
Y479820D01*
X307087Y480784D01*
X306541Y481600D01*
X305701Y482440D01*
X305551Y483002D01*
X305175Y483653D01*
X304643Y484184D01*
X303993Y484560D01*
X303716Y484634D01*
X303470Y484880D01*
X302654Y485425D01*
X301691Y485617D01*
X301677D01*
Y487628D01*
X294985D01*
Y485659D01*
X292229D01*
Y480541D01*
X294985D01*
Y479498D01*
X288988D01*
X288684Y479895D01*
X288745Y480124D01*
Y480876D01*
X288551Y481602D01*
X288175Y482253D01*
X287643Y482784D01*
X286993Y483160D01*
X286326Y483338D01*
Y484350D01*
X274515D01*
Y478050D01*
Y473050D01*
Y468050D01*
X280214D01*
X280421Y468023D01*
X285336D01*
Y467687D01*
X302263D01*
Y466113D01*
X285336D01*
Y454302D01*
X294384D01*
X294522Y453859D01*
X294522D01*
Y448741D01*
X296491D01*
Y446772D01*
X297284D01*
Y435054D01*
X296635Y434925D01*
X295853Y434403D01*
X293265Y431815D01*
X292743Y431033D01*
X292569Y430159D01*
X292229D01*
Y427055D01*
X291482Y426308D01*
X288696D01*
X288483Y426809D01*
X288651Y427098D01*
X288845Y427824D01*
Y428576D01*
X288651Y429302D01*
X288275Y429953D01*
X287743Y430484D01*
X287092Y430860D01*
X286367Y431054D01*
X285615D01*
X284889Y430860D01*
X284238Y430484D01*
X283707Y429953D01*
X283331Y429302D01*
X283137Y428576D01*
Y427830D01*
X274515D01*
Y421531D01*
Y416531D01*
Y411531D01*
X280214D01*
X280421Y411504D01*
X285663D01*
X285870Y411531D01*
X286326D01*
Y411591D01*
X286486Y411612D01*
X287252Y411929D01*
X287588Y412187D01*
X302263D01*
Y410613D01*
X285336D01*
Y398802D01*
X296393D01*
Y397559D01*
X294522D01*
Y392441D01*
X296393D01*
Y379400D01*
X296546Y378632D01*
X296981Y377981D01*
X297316Y377757D01*
Y377416D01*
X298281D01*
X298400Y377393D01*
X299291D01*
X299291Y377393D01*
X333491D01*
X334259Y377546D01*
X334910Y377981D01*
X335345Y378632D01*
X335498Y379400D01*
Y390800D01*
X335469Y390945D01*
Y392776D01*
X333649D01*
X333491Y392807D01*
X316398D01*
Y408600D01*
X316245Y409368D01*
X315810Y410019D01*
X315159Y410454D01*
X314391Y410607D01*
X311318D01*
Y415406D01*
X309350D01*
Y416194D01*
X311318D01*
Y422887D01*
X307249D01*
Y423659D01*
X307057Y424622D01*
X306511Y425439D01*
X304600Y427351D01*
X303783Y427896D01*
X302820Y428088D01*
X301677D01*
Y430292D01*
X308118D01*
X318474Y419935D01*
X318472Y419911D01*
X318037Y419260D01*
X317884Y418492D01*
Y404300D01*
X318037Y403532D01*
X318146Y403368D01*
Y402224D01*
X335469D01*
Y404155D01*
X335498Y404300D01*
Y418492D01*
X335574Y418576D01*
X336186Y418608D01*
X342897Y411897D01*
X343678Y411375D01*
X344600Y411192D01*
X354402D01*
X356191Y409402D01*
Y349854D01*
X355899Y349475D01*
X343301D01*
Y346707D01*
X341059D01*
Y347568D01*
X335941D01*
Y346707D01*
X334700D01*
X333932Y346554D01*
X333281Y346119D01*
X332846Y345468D01*
X332693Y344700D01*
Y324500D01*
X332698Y324472D01*
Y322325D01*
Y314451D01*
Y306577D01*
Y298703D01*
Y290829D01*
Y282955D01*
Y275081D01*
Y267207D01*
X346872D01*
Y275081D01*
Y283118D01*
X354129D01*
Y261645D01*
X347655Y255171D01*
X261100D01*
X260072Y255036D01*
X259115Y254639D01*
X258292Y254008D01*
X258053Y253696D01*
X257554Y253663D01*
X231753Y279464D01*
Y317597D01*
X236375Y322219D01*
X241513D01*
Y320272D01*
X246422D01*
X246632Y319859D01*
Y314741D01*
X248600D01*
Y312772D01*
X256080D01*
Y316331D01*
X256539Y316392D01*
X257258Y316689D01*
X257874Y317163D01*
X258246Y317534D01*
X258708Y317343D01*
Y314946D01*
X270519D01*
Y315519D01*
X272358D01*
X273046Y314831D01*
Y305896D01*
X269639Y302490D01*
X265689D01*
X265189Y302490D01*
X264689Y302490D01*
X263833D01*
Y304946D01*
X270519D01*
Y311245D01*
X258708D01*
Y307771D01*
X258671Y307490D01*
Y302490D01*
X257315D01*
Y284773D01*
X264689D01*
X265189Y284773D01*
X265689Y284773D01*
X273063D01*
Y298613D01*
X277113Y302663D01*
X280937Y298839D01*
Y284773D01*
X288311D01*
X288811Y284773D01*
X289311Y284773D01*
X296685D01*
Y302490D01*
X295329D01*
Y304946D01*
X295519D01*
Y311245D01*
X283708D01*
Y304946D01*
X290167D01*
Y302843D01*
X289813Y302490D01*
X288811Y302490D01*
X288311Y302490D01*
X284587D01*
X281181Y305896D01*
Y314831D01*
X281869Y315519D01*
X283708D01*
Y314946D01*
X295320D01*
Y312772D01*
X302800D01*
Y314741D01*
X304768D01*
Y319859D01*
X302827D01*
Y322241D01*
X304768D01*
Y327359D01*
X302800D01*
Y329328D01*
X299926D01*
X299241Y330013D01*
X299448Y330513D01*
X302672D01*
Y330120D01*
X311728D01*
Y337100D01*
X311728Y337600D01*
X311728D01*
Y337600D01*
X311728D01*
Y345080D01*
X302672D01*
Y344687D01*
X295272D01*
Y342583D01*
X295099Y342561D01*
X294477Y342303D01*
X293942Y341893D01*
X293295Y341245D01*
X283708D01*
Y338181D01*
X270519D01*
Y339946D01*
Y343518D01*
X270541Y343686D01*
Y344531D01*
X272483Y346472D01*
X277100D01*
Y348441D01*
X279068D01*
Y353559D01*
X277100D01*
Y355528D01*
X269620D01*
Y350898D01*
X269566Y350857D01*
X266135Y347425D01*
X265724Y346891D01*
X265467Y346268D01*
X265464Y346245D01*
X261626D01*
X261348Y346661D01*
X261436Y346872D01*
X261571Y347900D01*
X261436Y348928D01*
X261039Y349886D01*
X260408Y350708D01*
X259585Y351339D01*
X258628Y351736D01*
X257600Y351871D01*
X237000D01*
X235972Y351736D01*
X235015Y351339D01*
X234192Y350708D01*
X219555Y336071D01*
X169500D01*
X168472Y335936D01*
X167943Y335716D01*
X167443Y336051D01*
Y369473D01*
X168363D01*
X168863Y369473D01*
Y369473D01*
X168863D01*
Y369473D01*
X176737D01*
Y387190D01*
X175077D01*
X175035Y387291D01*
X174625Y387825D01*
X172325Y390125D01*
X171791Y390535D01*
X171168Y390793D01*
X170500Y390881D01*
X87969D01*
X72981Y405869D01*
Y443100D01*
X72893Y443768D01*
X72635Y444391D01*
X72225Y444925D01*
X68667Y448483D01*
X68132Y448894D01*
X67510Y449152D01*
X66842Y449239D01*
X64642D01*
X64248Y449922D01*
X63259Y450911D01*
X62047Y451611D01*
X60695Y451973D01*
X59296D01*
X57944Y451611D01*
X56732Y450911D01*
X55742Y449922D01*
X55042Y448710D01*
X54680Y447358D01*
Y445959D01*
X55042Y444607D01*
X55742Y443395D01*
X56732Y442405D01*
X57944Y441706D01*
X59296Y441343D01*
X60695D01*
X62047Y441706D01*
X63259Y442405D01*
X64248Y443395D01*
X64642Y444077D01*
X65773D01*
X67819Y442031D01*
Y404800D01*
X67907Y404132D01*
X68165Y403509D01*
X68575Y402975D01*
X85075Y386475D01*
X85609Y386065D01*
X86232Y385807D01*
X86900Y385719D01*
X153115D01*
Y369473D01*
X154535D01*
Y341979D01*
X154073Y341788D01*
X146053Y349808D01*
Y356734D01*
X145965Y357402D01*
X145707Y358024D01*
X145297Y358559D01*
X138659Y365197D01*
X138124Y365607D01*
X137502Y365865D01*
X136834Y365953D01*
X94966D01*
X94298Y365865D01*
X93676Y365607D01*
X93141Y365197D01*
X87175Y359231D01*
X86765Y358696D01*
X86507Y358073D01*
X86419Y357405D01*
Y282972D01*
X74114D01*
Y281124D01*
X67768D01*
X67214Y282085D01*
X66140Y283159D01*
X64825Y283918D01*
X63358Y284311D01*
X61839D01*
X60372Y283918D01*
X59057Y283159D01*
X57983Y282085D01*
X57224Y280770D01*
X56831Y279303D01*
Y277784D01*
X57224Y276317D01*
X57983Y275002D01*
X59057Y273928D01*
X60372Y273169D01*
X61839Y272776D01*
X63358D01*
X64825Y273169D01*
X66140Y273928D01*
X67214Y275002D01*
X67768Y275962D01*
X74114D01*
Y270374D01*
X86419D01*
Y255075D01*
X83997Y252653D01*
X61172D01*
X60504Y252565D01*
X59881Y252307D01*
X59346Y251897D01*
X55531Y248081D01*
X43900D01*
X43232Y247993D01*
X42609Y247735D01*
X42075Y247325D01*
X37722Y242972D01*
X36642D01*
X35175Y242579D01*
X33860Y241820D01*
X32786Y240746D01*
X32027Y239431D01*
X31634Y237964D01*
Y236445D01*
X32027Y234979D01*
X32786Y233663D01*
X33860Y232589D01*
X35175Y231830D01*
X36642Y231437D01*
X38161D01*
X39628Y231830D01*
X40943Y232589D01*
X42017Y233663D01*
X42776Y234979D01*
X43169Y236445D01*
Y237964D01*
X42776Y239431D01*
X42302Y240252D01*
X43684Y241634D01*
X43709Y241624D01*
X44096Y241339D01*
X43898Y240598D01*
Y239717D01*
X44126Y238866D01*
X44566Y238103D01*
X45189Y237480D01*
X45952Y237039D01*
X46804Y236811D01*
X47685D01*
X48536Y237039D01*
X49299Y237480D01*
X49922Y238103D01*
X50362Y238866D01*
X50590Y239717D01*
Y240598D01*
X50362Y241449D01*
X49922Y242212D01*
X49715Y242419D01*
X49922Y242919D01*
X54505D01*
Y242374D01*
X53545Y241820D01*
X52471Y240746D01*
X51712Y239431D01*
X51319Y237964D01*
Y236445D01*
X51712Y234979D01*
X52471Y233663D01*
X53545Y232589D01*
X54860Y231830D01*
X56327Y231437D01*
X57846D01*
X59313Y231830D01*
X60628Y232589D01*
X61702Y233663D01*
X62461Y234979D01*
X62854Y236445D01*
Y237964D01*
X62461Y239431D01*
X61702Y240746D01*
X60628Y241820D01*
X60123Y242112D01*
X60058Y242607D01*
X63169Y245719D01*
X85800D01*
X86468Y245807D01*
X87091Y246065D01*
X87625Y246475D01*
X89767Y248617D01*
X90229Y248426D01*
Y237100D01*
Y210301D01*
X85562D01*
Y197899D01*
X90484D01*
X90685Y197415D01*
X91316Y196593D01*
X93622Y194287D01*
X94444Y193656D01*
X95402Y193259D01*
X96430Y193123D01*
X105169D01*
X105427Y193157D01*
X108071D01*
Y191634D01*
X127756D01*
Y203157D01*
X137453D01*
Y203879D01*
X137953Y204086D01*
X152994Y189044D01*
X150102Y186153D01*
X100743D01*
X100075Y186065D01*
X99453Y185807D01*
X98918Y185397D01*
X91580Y178059D01*
X91170Y177525D01*
X91055Y177246D01*
X61110D01*
X60903Y177746D01*
X61702Y178545D01*
X62461Y179860D01*
X62854Y181327D01*
Y182846D01*
X62461Y184313D01*
X61702Y185628D01*
X60628Y186702D01*
X59313Y187461D01*
X57846Y187854D01*
X56327D01*
X54860Y187461D01*
X53545Y186702D01*
X52471Y185628D01*
X51712Y184313D01*
X51319Y182846D01*
Y181327D01*
X51712Y179860D01*
X52471Y178545D01*
X53270Y177746D01*
X53063Y177246D01*
X41425D01*
X41218Y177746D01*
X42017Y178545D01*
X42776Y179860D01*
X43169Y181327D01*
Y182846D01*
X42776Y184313D01*
X42017Y185628D01*
X40943Y186702D01*
X39628Y187461D01*
X38161Y187854D01*
X36642D01*
X35175Y187461D01*
X33860Y186702D01*
X32786Y185628D01*
X32027Y184313D01*
X31634Y182846D01*
Y181327D01*
X32027Y179860D01*
X32786Y178545D01*
X33860Y177471D01*
X35175Y176712D01*
X35851Y176531D01*
X35980Y176048D01*
X33720Y173788D01*
X32649Y174075D01*
X31130D01*
X29664Y173682D01*
X28348Y172922D01*
X27274Y171849D01*
X26720Y170888D01*
X20965D01*
Y172441D01*
X8563D01*
Y159843D01*
X20965D01*
Y165726D01*
X26720D01*
X27274Y164766D01*
X28348Y163692D01*
X29664Y162932D01*
X31130Y162539D01*
X32649D01*
X34116Y162932D01*
X35431Y163692D01*
X36505Y164766D01*
X37264Y166081D01*
X37657Y167548D01*
Y169066D01*
X37370Y170138D01*
X39317Y172084D01*
X57542D01*
X57831Y171584D01*
X57224Y170533D01*
X56831Y169066D01*
Y167548D01*
X57224Y166081D01*
X57983Y164766D01*
X59057Y163692D01*
X60372Y162932D01*
X61839Y162539D01*
X63358D01*
X64825Y162932D01*
X66140Y163692D01*
X67214Y164766D01*
X67768Y165726D01*
X74114D01*
Y159843D01*
X86516D01*
Y163127D01*
X87016Y163334D01*
X89053Y161297D01*
Y77969D01*
X85247Y74164D01*
X57712D01*
X57128Y74747D01*
X56226Y75268D01*
X55221Y75537D01*
X54179D01*
X53174Y75268D01*
X52272Y74747D01*
X51535Y74011D01*
X51015Y73109D01*
X50745Y72103D01*
Y71062D01*
X51015Y70056D01*
X51535Y69154D01*
X52272Y68418D01*
X53174Y67897D01*
X54179Y67628D01*
X55221D01*
X56226Y67897D01*
X57128Y68418D01*
X57712Y69002D01*
X65698D01*
X65889Y68540D01*
X65812Y68462D01*
X65402Y67928D01*
X65144Y67305D01*
X65056Y66637D01*
Y41483D01*
X64702Y41129D01*
X63700Y41129D01*
X63200Y41129D01*
X62381D01*
Y58671D01*
X62865Y59154D01*
X63385Y60056D01*
X63655Y61062D01*
Y62103D01*
X63385Y63109D01*
X62865Y64011D01*
X62128Y64747D01*
X61226Y65268D01*
X60221Y65537D01*
X59179D01*
X58174Y65268D01*
X57272Y64747D01*
X56535Y64011D01*
X56015Y63109D01*
X55745Y62103D01*
Y61062D01*
X56015Y60056D01*
X56535Y59154D01*
X57219Y58471D01*
Y41129D01*
X55826D01*
Y32271D01*
X63200D01*
X63700Y32271D01*
X64200Y32271D01*
X71574D01*
Y34119D01*
X72526D01*
Y32271D01*
X80400D01*
Y41129D01*
X72526D01*
Y39281D01*
X71574D01*
Y41129D01*
X70218D01*
Y65568D01*
X71880Y67230D01*
X87050D01*
X87718Y67318D01*
X88341Y67576D01*
X88876Y67986D01*
X95231Y74341D01*
X95641Y74876D01*
X95899Y75498D01*
X95987Y76166D01*
Y174129D01*
X95992Y174133D01*
X96487Y174198D01*
X96540Y173998D01*
X96916Y173347D01*
X97447Y172816D01*
X98098Y172440D01*
X98824Y172246D01*
X99576D01*
X100302Y172440D01*
X100953Y172816D01*
X101129Y172992D01*
X102185Y171936D01*
X102719Y171526D01*
X103342Y171268D01*
X104010Y171180D01*
X109972D01*
X110641Y171268D01*
X111263Y171526D01*
X111797Y171936D01*
X111994Y172132D01*
X112893D01*
Y145300D01*
X113046Y144532D01*
X113481Y143881D01*
X114132Y143446D01*
X114900Y143293D01*
X142100D01*
X142868Y143446D01*
X143519Y143881D01*
X143954Y144532D01*
X144107Y145300D01*
Y146441D01*
X145869D01*
Y151559D01*
X144107D01*
Y172132D01*
X182170D01*
X182304Y171632D01*
X182047Y171484D01*
X181516Y170953D01*
X181140Y170302D01*
X181099Y170150D01*
X172675Y161725D01*
X172265Y161191D01*
X172007Y160568D01*
X171919Y159900D01*
Y99035D01*
X171350D01*
Y88081D01*
X140200D01*
X139532Y87993D01*
X138909Y87735D01*
X138375Y87325D01*
X102975Y51925D01*
X102565Y51391D01*
X102307Y50768D01*
X102219Y50100D01*
Y18554D01*
X86190D01*
Y24261D01*
X85895D01*
Y24336D01*
X85700Y25062D01*
X85324Y25712D01*
X84793Y26244D01*
X84142Y26620D01*
X83416Y26814D01*
X82664D01*
X81938Y26620D01*
X81288Y26244D01*
X80756Y25712D01*
X80380Y25062D01*
X80186Y24336D01*
Y24261D01*
X79891D01*
Y18554D01*
X78709D01*
Y24261D01*
X72410D01*
Y22491D01*
X71029D01*
Y23874D01*
X67010D01*
X66981Y23945D01*
X66570Y24480D01*
X63225Y27825D01*
X62691Y28235D01*
X62068Y28493D01*
X61400Y28581D01*
X47469D01*
X46280Y29771D01*
Y32702D01*
X46192Y33370D01*
X45934Y33992D01*
X45524Y34527D01*
X37725Y42325D01*
X37725Y42325D01*
X37281Y42769D01*
Y57913D01*
X37714Y58163D01*
X38173Y57898D01*
X39179Y57628D01*
X40221D01*
X41227Y57898D01*
X42128Y58418D01*
X42865Y59154D01*
X43385Y60056D01*
X43655Y61062D01*
Y62103D01*
X43385Y63109D01*
X42865Y64011D01*
X42281Y64594D01*
Y67913D01*
X42714Y68163D01*
X43174Y67897D01*
X44179Y67628D01*
X45221D01*
X46227Y67897D01*
X47128Y68418D01*
X47865Y69154D01*
X48385Y70056D01*
X48655Y71062D01*
Y72103D01*
X48385Y73109D01*
X47865Y74011D01*
X47128Y74747D01*
X46227Y75268D01*
X45221Y75537D01*
X44179D01*
X43174Y75268D01*
X42619Y74948D01*
X42553Y74935D01*
X41995Y75146D01*
X41935Y75291D01*
X41525Y75825D01*
X39225Y78125D01*
X38691Y78535D01*
X38068Y78793D01*
X37400Y78881D01*
X32200D01*
X31532Y78793D01*
X30909Y78535D01*
X30375Y78125D01*
X28175Y75925D01*
X27765Y75391D01*
X27507Y74768D01*
X27419Y74100D01*
Y68800D01*
X27507Y68132D01*
X27765Y67509D01*
X28175Y66975D01*
X30019Y65131D01*
Y41100D01*
X30107Y40432D01*
X30365Y39809D01*
X30775Y39275D01*
X39346Y30704D01*
Y24240D01*
X37498D01*
Y16866D01*
X37498Y16366D01*
X37498D01*
Y16366D01*
X37498D01*
Y8492D01*
X42144D01*
X45442Y5194D01*
X45442Y5194D01*
X46059Y4721D01*
X46777Y4423D01*
X47548Y4322D01*
X47548Y4322D01*
X101300D01*
X102071Y4423D01*
X102789Y4721D01*
X103406Y5194D01*
X110843Y12631D01*
X110843Y12631D01*
X111316Y13248D01*
X111614Y13966D01*
X111715Y14737D01*
X111715Y14737D01*
Y47236D01*
X127501Y63022D01*
X134273D01*
Y62013D01*
X166428D01*
Y65965D01*
X167145D01*
X167311Y65563D01*
X167722Y65028D01*
X172839Y59911D01*
X172648Y59449D01*
X164961D01*
Y48819D01*
X175591D01*
Y51156D01*
X191448D01*
X191613Y50870D01*
X192603Y49881D01*
X193815Y49181D01*
X195166Y48819D01*
X196566D01*
X197918Y49181D01*
X199130Y49881D01*
X200119Y50870D01*
X200284Y51156D01*
X204932D01*
X209494Y46594D01*
X210111Y46121D01*
X210829Y45823D01*
X211600Y45722D01*
X211641Y45232D01*
Y45109D01*
X220696D01*
Y45722D01*
X222172D01*
Y45213D01*
X231228D01*
Y51906D01*
X229259D01*
Y52694D01*
X231228D01*
Y53459D01*
X243757D01*
Y48819D01*
X254387D01*
Y51156D01*
X270245D01*
X270409Y50870D01*
X271399Y49881D01*
X272611Y49181D01*
X273963Y48819D01*
X275362D01*
X276714Y49181D01*
X277926Y49881D01*
X278916Y50870D01*
X279080Y51156D01*
X292913D01*
Y49472D01*
X299606D01*
Y51441D01*
X300394D01*
Y49472D01*
X307087D01*
Y50922D01*
X322553D01*
Y48819D01*
X333183D01*
Y51156D01*
X349041D01*
X349206Y50870D01*
X350196Y49881D01*
X351408Y49181D01*
X352759Y48819D01*
X354159D01*
X355510Y49181D01*
X356722Y49881D01*
X357712Y50870D01*
X358412Y52082D01*
X358774Y53434D01*
Y54834D01*
X358412Y56185D01*
X357712Y57397D01*
X356722Y58387D01*
X356464Y58536D01*
X356594Y59019D01*
X401350D01*
Y48819D01*
X411980D01*
Y51156D01*
X427838D01*
X428002Y50870D01*
X428992Y49881D01*
X430204Y49181D01*
X431556Y48819D01*
X432955D01*
X433716Y49023D01*
X436464Y46275D01*
X436999Y45865D01*
X437621Y45607D01*
X438289Y45519D01*
X530013D01*
Y40672D01*
X536706D01*
Y42641D01*
X537494D01*
Y40672D01*
X544187D01*
Y49272D01*
X544187Y49727D01*
X544187D01*
Y49773D01*
X544187D01*
Y51322D01*
X558943D01*
Y48819D01*
X569572D01*
Y51156D01*
X585430D01*
X585595Y50870D01*
X586585Y49881D01*
X587797Y49181D01*
X589148Y48819D01*
X590548D01*
X591900Y49181D01*
X593112Y49881D01*
X594101Y50870D01*
X594801Y52082D01*
X595163Y53434D01*
Y54834D01*
X594801Y56185D01*
X594101Y57397D01*
X593112Y58387D01*
X591900Y59087D01*
X590548Y59449D01*
X589148D01*
X587797Y59087D01*
X586585Y58387D01*
X585595Y57397D01*
X585430Y57112D01*
X569572D01*
Y59449D01*
X558943D01*
Y57278D01*
X544187D01*
Y58828D01*
X537494D01*
Y56859D01*
X536706D01*
Y58828D01*
X530013D01*
Y57112D01*
X515469D01*
X515305Y57397D01*
X514315Y58387D01*
X513103Y59087D01*
X511752Y59449D01*
X510352D01*
X509000Y59087D01*
X507788Y58387D01*
X506799Y57397D01*
X506634Y57112D01*
X490776D01*
Y59449D01*
X480146D01*
Y56978D01*
X464887D01*
Y58527D01*
X458194D01*
Y56559D01*
X457406D01*
Y58527D01*
X454364D01*
X452534Y60357D01*
X452726Y60819D01*
X669931D01*
X671618Y59132D01*
X671311Y58732D01*
X670696Y59087D01*
X669344Y59449D01*
X667945D01*
X666593Y59087D01*
X665381Y58387D01*
X664392Y57397D01*
X664227Y57112D01*
X648369D01*
Y59449D01*
X637739D01*
Y48819D01*
X648369D01*
Y51156D01*
X664227D01*
X664392Y50870D01*
X665381Y49881D01*
X666593Y49181D01*
X667945Y48819D01*
X669344D01*
X670696Y49181D01*
X671908Y49881D01*
X672898Y50870D01*
X673012Y51069D01*
X676466D01*
Y50613D01*
X685521D01*
Y50982D01*
X686309D01*
Y49826D01*
X693002D01*
Y51794D01*
X693789D01*
Y49826D01*
X700482D01*
Y50982D01*
X701073D01*
Y50613D01*
X710127D01*
Y50982D01*
X716535D01*
Y48819D01*
X727165D01*
Y51156D01*
X743023D01*
X743188Y50870D01*
X744177Y49881D01*
X745390Y49181D01*
X746741Y48819D01*
X748141D01*
X749493Y49181D01*
X750704Y49881D01*
X751694Y50870D01*
X752394Y52082D01*
X752756Y53434D01*
Y54834D01*
X752394Y56185D01*
X751694Y57397D01*
X750704Y58387D01*
X749493Y59087D01*
X748141Y59449D01*
X746741D01*
X745390Y59087D01*
X744177Y58387D01*
X743188Y57397D01*
X743023Y57112D01*
X727165D01*
Y59449D01*
X716535D01*
Y56938D01*
X710127D01*
Y57306D01*
X708159D01*
Y58094D01*
X710127D01*
Y60819D01*
X749831D01*
X763114Y47535D01*
X763649Y47125D01*
X764271Y46867D01*
X764939Y46780D01*
X839872D01*
X840540Y46867D01*
X841162Y47125D01*
X841697Y47535D01*
X864058Y69897D01*
X864520Y69706D01*
Y15800D01*
X864547Y15665D01*
X864393Y13703D01*
X863902Y11658D01*
X863097Y9714D01*
X861998Y7921D01*
X860632Y6321D01*
X859032Y4955D01*
X857239Y3856D01*
X855296Y3051D01*
X853250Y2560D01*
X851289Y2406D01*
X851153Y2433D01*
X15800D01*
X15665Y2406D01*
X13703Y2560D01*
X11658Y3051D01*
X9714Y3856D01*
X7921Y4955D01*
X6321Y6321D01*
X4955Y7921D01*
X3856Y9714D01*
X3051Y11658D01*
X2560Y13703D01*
X2406Y15665D01*
X2433Y15800D01*
Y488200D01*
X2406Y488335D01*
X2560Y490297D01*
X3051Y492342D01*
X3856Y494286D01*
X4955Y496079D01*
X6321Y497679D01*
X7921Y499045D01*
X9714Y500144D01*
X11658Y500949D01*
X13703Y501440D01*
X15665Y501594D01*
X15800Y501567D01*
X1086600D01*
X1086735Y501594D01*
X1088697Y501440D01*
D02*
G37*
G36*
X139119Y354931D02*
Y352385D01*
X138657Y352193D01*
X137057Y353794D01*
X136522Y354204D01*
X135899Y354462D01*
X135231Y354550D01*
X127756D01*
Y359019D01*
X135031D01*
X139119Y354931D01*
D02*
G37*
G36*
X295272Y332716D02*
Y331245D01*
X283708D01*
Y326074D01*
X280092D01*
Y331386D01*
X280092Y331387D01*
X279990Y332157D01*
X279840Y332519D01*
X280174Y333019D01*
X294358D01*
X294772Y333073D01*
X295272Y332716D01*
D02*
G37*
G36*
X165740Y255190D02*
X164463Y253914D01*
X164053Y253379D01*
X163887Y252977D01*
X162826D01*
X162326Y252977D01*
Y252977D01*
X162326D01*
Y252977D01*
X154452D01*
Y252977D01*
X146578D01*
Y235261D01*
X147934D01*
Y207070D01*
X147472Y206878D01*
X139368Y214983D01*
X138833Y215393D01*
X138211Y215651D01*
X137542Y215739D01*
X137453D01*
Y221031D01*
X127756D01*
Y223158D01*
X137453D01*
Y231031D01*
X127756D01*
Y243158D01*
X137453D01*
Y250066D01*
X137725Y250275D01*
X143102Y255652D01*
X165548D01*
X165740Y255190D01*
D02*
G37*
G36*
X178074Y235261D02*
X185448D01*
X185948Y235261D01*
Y235261D01*
X185948D01*
Y235261D01*
X193822D01*
Y241538D01*
X196913D01*
X235891Y202560D01*
X235700Y202098D01*
X197569D01*
X196270Y203397D01*
X195735Y203807D01*
X195113Y204065D01*
X194445Y204153D01*
X186700D01*
X186032Y204065D01*
X185409Y203807D01*
X184875Y203397D01*
X181844Y200366D01*
X181604Y200227D01*
X181237Y199861D01*
X180753Y199638D01*
X180102Y200013D01*
X179376Y200208D01*
X178624D01*
X177898Y200013D01*
X177251Y199639D01*
X159722D01*
X157254Y202107D01*
X157254Y202107D01*
X154868Y204493D01*
Y227931D01*
X160214Y233277D01*
X160624Y233812D01*
X160882Y234434D01*
X160970Y235102D01*
Y235261D01*
X161826D01*
X162326Y235261D01*
Y235261D01*
X162326D01*
Y235261D01*
X170200D01*
Y252319D01*
X178074D01*
Y235261D01*
D02*
G37*
G36*
X281225Y156532D02*
X281233Y156532D01*
X281627Y156276D01*
Y154800D01*
X278871D01*
Y149682D01*
X281627D01*
Y147950D01*
X281233D01*
Y145981D01*
X279265D01*
Y140863D01*
X281233D01*
Y139150D01*
X280741Y139131D01*
Y139131D01*
X276911D01*
X272738Y143304D01*
X274101Y144668D01*
X274512Y145202D01*
X274770Y145825D01*
X274857Y146493D01*
Y156532D01*
X281225D01*
D02*
G37*
G36*
X293019Y177139D02*
Y142261D01*
X289304D01*
Y137184D01*
X288221D01*
Y138894D01*
X288713D01*
Y147950D01*
X288320D01*
Y156769D01*
X281635D01*
X281627Y156769D01*
X281233Y157025D01*
Y158501D01*
X283202D01*
Y163619D01*
X281233D01*
Y165587D01*
X281331Y165587D01*
Y178186D01*
X269520D01*
Y165587D01*
X272845D01*
Y163716D01*
X272883Y163429D01*
X272561Y163295D01*
X272026Y162885D01*
X270451Y161310D01*
X270041Y160776D01*
X269783Y160153D01*
X269695Y159485D01*
Y147562D01*
X269118Y146985D01*
X259897D01*
Y152103D01*
X266371D01*
Y164702D01*
X257978D01*
X257786Y165164D01*
X258210Y165587D01*
X266371D01*
Y178186D01*
X242749D01*
Y173953D01*
X241469D01*
Y175922D01*
X236351D01*
Y173953D01*
X234383D01*
Y173560D01*
X233694D01*
Y176316D01*
X228576D01*
Y173560D01*
X226607D01*
Y172695D01*
X223162D01*
Y176414D01*
X216469D01*
Y174446D01*
X215682D01*
Y176414D01*
X208989D01*
Y174468D01*
X202682D01*
X198393Y178757D01*
X198585Y179219D01*
X290939D01*
X293019Y177139D01*
D02*
G37*
G36*
X226706Y159485D02*
X228674D01*
Y157517D01*
X233792D01*
Y159485D01*
X235761D01*
Y159879D01*
X236450D01*
Y157123D01*
X241568D01*
Y159879D01*
X242749D01*
Y152103D01*
X252077D01*
Y137542D01*
X252165Y136874D01*
X252423Y136251D01*
X252833Y135717D01*
X256382Y132168D01*
X256916Y131758D01*
X257539Y131500D01*
X258207Y131412D01*
X258989D01*
Y128678D01*
Y123753D01*
X258517Y123691D01*
X257895Y123433D01*
X257360Y123023D01*
X253397Y119059D01*
X244315Y128141D01*
X243919Y128445D01*
X243948Y128913D01*
X243987Y128998D01*
X244391Y129165D01*
X244925Y129575D01*
X245825Y130475D01*
X246235Y131009D01*
X246493Y131632D01*
X246581Y132300D01*
Y145900D01*
X246493Y146568D01*
X246235Y147191D01*
X245825Y147725D01*
X244937Y148613D01*
X244402Y149023D01*
X243780Y149281D01*
X243112Y149369D01*
X241666D01*
Y149544D01*
X230642D01*
Y149369D01*
X229511D01*
X228843Y149281D01*
X228221Y149023D01*
X227686Y148613D01*
X225161Y146088D01*
X225138Y146094D01*
X224754Y146389D01*
X224760Y146398D01*
X224954Y147124D01*
Y147876D01*
X224760Y148602D01*
X224661Y148773D01*
Y152021D01*
X224573Y152689D01*
X224315Y153311D01*
X223905Y153846D01*
X222684Y155067D01*
X222149Y155477D01*
X221747Y155643D01*
Y159682D01*
X222247Y159682D01*
X223162D01*
Y160645D01*
X226706D01*
Y159485D01*
D02*
G37*
G36*
X356369Y179075D02*
X356904Y178665D01*
X357526Y178407D01*
X358194Y178319D01*
X360246D01*
Y178224D01*
X360440Y177498D01*
X360509Y177378D01*
Y173474D01*
X352658D01*
Y164813D01*
X362478D01*
Y126428D01*
X351831Y115781D01*
X289241D01*
X288573Y115693D01*
X287950Y115435D01*
X287416Y115025D01*
X285777Y113387D01*
X284280D01*
X284113Y113409D01*
X283842D01*
X283306Y113944D01*
X283497Y114406D01*
X283595D01*
Y119524D01*
X280839D01*
Y121493D01*
X280741D01*
Y123225D01*
X281528D01*
Y121257D01*
X288221D01*
Y123203D01*
X289304D01*
Y118639D01*
X301902D01*
Y130450D01*
Y142261D01*
X298181D01*
Y178208D01*
X298093Y178876D01*
X297835Y179499D01*
X297425Y180033D01*
X296930Y180529D01*
X297121Y180991D01*
X354454D01*
X356369Y179075D01*
D02*
G37*
G36*
X229506Y121932D02*
X230041Y121521D01*
X230642Y121272D01*
Y118442D01*
Y115883D01*
Y113324D01*
Y110765D01*
X233573D01*
Y109728D01*
X232120D01*
Y107637D01*
X230108D01*
X229972Y107716D01*
X229246Y107910D01*
X228495D01*
X227936Y107761D01*
X227436Y108043D01*
Y116855D01*
X224131D01*
Y117881D01*
X228474Y122224D01*
X228565Y122342D01*
X229064Y122374D01*
X229506Y121932D01*
D02*
G37*
G36*
X349446Y108385D02*
X340423Y99362D01*
X301475D01*
Y108847D01*
X349255D01*
X349446Y108385D01*
D02*
G37*
G36*
X258148Y108644D02*
X258683Y108234D01*
X259305Y107976D01*
X259902Y107897D01*
X260367Y107812D01*
Y102694D01*
X262297D01*
Y99362D01*
X260165D01*
X256648Y102880D01*
Y109438D01*
X257148Y109645D01*
X258148Y108644D01*
D02*
G37*
G36*
X388241Y182405D02*
Y173474D01*
X388090D01*
Y164813D01*
X392005D01*
Y91513D01*
X392093Y90845D01*
X392351Y90223D01*
X392761Y89688D01*
X410683Y71767D01*
X410492Y71305D01*
X215946D01*
X207025Y80225D01*
X206491Y80635D01*
X205868Y80893D01*
X205200Y80981D01*
X201100D01*
X200432Y80893D01*
X199809Y80635D01*
X199275Y80225D01*
X197675Y78625D01*
X197581Y78503D01*
X197081Y78673D01*
Y79200D01*
X196993Y79868D01*
X196735Y80491D01*
X196325Y81025D01*
X190588Y86762D01*
X190779Y87224D01*
X192650D01*
Y99035D01*
X189970D01*
X186254Y102751D01*
X186445Y103213D01*
X192327D01*
Y103745D01*
X203735D01*
Y116855D01*
X191964D01*
Y109906D01*
X190359D01*
Y112662D01*
X186609D01*
Y127938D01*
X190359D01*
Y130694D01*
X191964D01*
Y123745D01*
X203735D01*
Y136855D01*
X192327D01*
Y137387D01*
X188381D01*
Y152731D01*
X197525Y161875D01*
X197935Y162409D01*
X198193Y163032D01*
X198281Y163700D01*
Y168215D01*
X198743Y168407D01*
X204765Y162384D01*
X205300Y161974D01*
X205923Y161716D01*
X206591Y161628D01*
X208989D01*
Y159682D01*
X209436D01*
X209936Y159682D01*
Y147083D01*
X216076D01*
Y145607D01*
X214107D01*
Y140489D01*
X216076D01*
Y138521D01*
X223556D01*
Y140467D01*
X225771D01*
X226439Y140555D01*
X227061Y140813D01*
X227596Y141223D01*
X230142Y143769D01*
X230642Y143562D01*
Y139133D01*
X227133D01*
X226465Y139045D01*
X225842Y138787D01*
X225308Y138377D01*
X223786Y136855D01*
X215665D01*
Y123745D01*
X222041D01*
X222233Y123283D01*
X219725Y120775D01*
X219315Y120241D01*
X219057Y119618D01*
X218969Y118950D01*
Y116855D01*
X215665D01*
Y103745D01*
X224337D01*
X224666Y103369D01*
X224652Y103259D01*
Y100899D01*
X223364D01*
Y98571D01*
X219292D01*
X218868Y98854D01*
X218100Y99007D01*
X207650D01*
Y99035D01*
X196350D01*
Y97289D01*
X196293Y97000D01*
Y84000D01*
X196446Y83232D01*
X196881Y82581D01*
X197532Y82146D01*
X198300Y81993D01*
X212541D01*
Y80132D01*
X217659D01*
Y81993D01*
X218100D01*
X218638Y82100D01*
X219628D01*
Y82743D01*
X219954Y83232D01*
X220107Y84000D01*
Y90629D01*
X223364D01*
Y88301D01*
X235175D01*
Y100672D01*
X239600D01*
Y102641D01*
X241568D01*
Y107759D01*
X239600D01*
Y109728D01*
X238735D01*
Y110765D01*
X241666D01*
Y115266D01*
X242166Y115473D01*
X244399Y113240D01*
Y98875D01*
X244487Y98207D01*
X244745Y97585D01*
X245155Y97050D01*
X254336Y87869D01*
X254870Y87459D01*
X255493Y87201D01*
X256161Y87113D01*
X344427D01*
X345095Y87201D01*
X345718Y87459D01*
X346253Y87869D01*
X378695Y120312D01*
X379105Y120847D01*
X379363Y121469D01*
X379451Y122137D01*
Y164813D01*
X385335D01*
Y168976D01*
X385357Y169144D01*
Y176763D01*
X385269Y177431D01*
X385011Y178053D01*
X384601Y178588D01*
X378747Y184441D01*
X378939Y184903D01*
X385743D01*
X388241Y182405D01*
D02*
G37*
G36*
X55590Y16787D02*
X56159D01*
Y15213D01*
X55590D01*
Y10278D01*
X54409D01*
Y15213D01*
X48110D01*
Y11603D01*
X47648Y11412D01*
X46356Y12704D01*
Y15866D01*
X46356Y16366D01*
X46356D01*
Y16366D01*
X46356D01*
Y17722D01*
X48110D01*
Y16787D01*
X54409D01*
Y23419D01*
X55590D01*
Y16787D01*
D02*
G37*
%LPC*%
G36*
X192650Y489637D02*
X186350D01*
Y485307D01*
X183675D01*
Y489637D01*
X177375D01*
Y485307D01*
X174700D01*
Y489637D01*
X168400D01*
Y485307D01*
X165725D01*
Y489637D01*
X159425D01*
Y485307D01*
X156750D01*
Y489637D01*
X150450D01*
Y485297D01*
X149732Y485154D01*
X149081Y484719D01*
X148646Y484068D01*
X148579Y483732D01*
X148482D01*
Y475857D01*
X148493D01*
Y463100D01*
X148646Y462332D01*
X149081Y461681D01*
X149732Y461246D01*
X150500Y461093D01*
X177693D01*
Y404600D01*
X177846Y403832D01*
X178281Y403181D01*
X178932Y402746D01*
X179700Y402593D01*
X184593D01*
Y369500D01*
X184746Y368732D01*
X185181Y368081D01*
X185832Y367646D01*
X186600Y367493D01*
X199000D01*
X199768Y367646D01*
X200419Y368081D01*
X200854Y368732D01*
X201007Y369500D01*
Y393693D01*
X213090D01*
Y390539D01*
X214870D01*
X215100Y390493D01*
X230700D01*
X231468Y390646D01*
X232119Y391081D01*
X232554Y391732D01*
X232707Y392500D01*
Y462900D01*
X232554Y463668D01*
X232119Y464319D01*
X231468Y464754D01*
X230700Y464907D01*
X201007D01*
Y467400D01*
Y483300D01*
X200854Y484068D01*
X200419Y484719D01*
X199768Y485154D01*
X199000Y485307D01*
X192650D01*
Y489637D01*
D02*
G37*
G36*
X39720Y451973D02*
X29090D01*
Y441343D01*
X39720D01*
Y451973D01*
D02*
G37*
G36*
X265066Y479350D02*
X253255D01*
Y479038D01*
X252589Y478860D01*
X251938Y478484D01*
X251407Y477953D01*
X251031Y477302D01*
X250836Y476576D01*
Y475824D01*
X251031Y475098D01*
X251407Y474447D01*
X251783Y474072D01*
X251885Y473750D01*
X251783Y473428D01*
X251407Y473053D01*
X251031Y472402D01*
X250836Y471676D01*
Y471468D01*
X246432D01*
Y469500D01*
X244463D01*
Y469407D01*
X237900D01*
X237132Y469254D01*
X236481Y468819D01*
X236046Y468168D01*
X235893Y467400D01*
Y445000D01*
X236046Y444232D01*
X236481Y443581D01*
X237132Y443146D01*
X237900Y442993D01*
X246432D01*
Y441032D01*
X251550D01*
Y442993D01*
X262900D01*
X263347Y443082D01*
X268616D01*
Y453318D01*
X264907D01*
Y463050D01*
X265066D01*
Y465996D01*
X265107Y466200D01*
Y472420D01*
X265066Y472624D01*
Y473050D01*
Y479350D01*
D02*
G37*
G36*
X49169Y425034D02*
X45232D01*
X44358Y424919D01*
X43544Y424581D01*
X42845Y424045D01*
X42308Y423346D01*
X41971Y422532D01*
X41856Y421658D01*
X41971Y420785D01*
X42308Y419971D01*
X42845Y419272D01*
X43544Y418735D01*
X44358Y418398D01*
X45232Y418283D01*
X49169D01*
X50042Y418398D01*
X50856Y418735D01*
X51555Y419272D01*
X52092Y419971D01*
X52429Y420785D01*
X52544Y421658D01*
X52429Y422532D01*
X52092Y423346D01*
X51555Y424045D01*
X50856Y424581D01*
X50042Y424919D01*
X49169Y425034D01*
D02*
G37*
G36*
X265066Y422830D02*
X253255D01*
Y422519D01*
X252589Y422340D01*
X251938Y421964D01*
X251407Y421433D01*
X251031Y420782D01*
X250836Y420056D01*
Y419305D01*
X251031Y418579D01*
X251077Y418499D01*
X251031Y418420D01*
X250836Y417694D01*
Y416942D01*
X251031Y416216D01*
X251400Y415576D01*
X251442Y415369D01*
X251117Y414895D01*
X251070Y414868D01*
X246432D01*
Y413107D01*
X237900D01*
X237132Y412954D01*
X236481Y412519D01*
X236046Y411868D01*
X235893Y411100D01*
Y392600D01*
X235924Y392442D01*
Y390539D01*
X249310D01*
Y390593D01*
X252081D01*
Y385782D01*
X254243D01*
X254691Y385693D01*
X263091D01*
X263538Y385782D01*
X268616D01*
Y396018D01*
X265098D01*
Y409634D01*
X265107Y409680D01*
Y415900D01*
X265066Y416105D01*
Y416531D01*
Y422830D01*
D02*
G37*
G36*
X1080522Y321268D02*
X1079123D01*
X1077771Y320905D01*
X1076559Y320206D01*
X1075570Y319216D01*
X1074870Y318004D01*
X1074508Y316652D01*
Y315253D01*
X1074870Y313901D01*
X1075570Y312689D01*
X1076559Y311700D01*
X1077771Y311000D01*
X1079123Y310638D01*
X1080522D01*
X1081874Y311000D01*
X1083086Y311700D01*
X1084076Y312689D01*
X1084775Y313901D01*
X1085138Y315253D01*
Y316652D01*
X1084775Y318004D01*
X1084076Y319216D01*
X1083086Y320206D01*
X1081874Y320905D01*
X1080522Y321268D01*
D02*
G37*
G36*
X882983D02*
X881584D01*
X880232Y320905D01*
X879020Y320206D01*
X878030Y319216D01*
X877331Y318004D01*
X876968Y316652D01*
Y315253D01*
X877331Y313901D01*
X878030Y312689D01*
X879020Y311700D01*
X880232Y311000D01*
X881584Y310638D01*
X882983D01*
X884335Y311000D01*
X885547Y311700D01*
X886536Y312689D01*
X887236Y313901D01*
X887598Y315253D01*
Y316652D01*
X887236Y318004D01*
X886536Y319216D01*
X885547Y320206D01*
X884335Y320905D01*
X882983Y321268D01*
D02*
G37*
G36*
X862008D02*
X851378D01*
Y310638D01*
X862008D01*
Y321268D01*
D02*
G37*
G36*
X47685Y298622D02*
X46804D01*
X45952Y298394D01*
X45189Y297953D01*
X44566Y297330D01*
X44126Y296567D01*
X43898Y295716D01*
Y294835D01*
X44126Y293984D01*
X44566Y293221D01*
X45189Y292598D01*
X45952Y292157D01*
X46804Y291929D01*
X47685D01*
X48536Y292157D01*
X49299Y292598D01*
X49922Y293221D01*
X50362Y293984D01*
X50590Y294835D01*
Y295716D01*
X50362Y296567D01*
X49922Y297330D01*
X49299Y297953D01*
X48536Y298394D01*
X47685Y298622D01*
D02*
G37*
G36*
X57846Y298091D02*
X56327D01*
X54860Y297697D01*
X53545Y296938D01*
X52471Y295864D01*
X51712Y294549D01*
X51319Y293082D01*
Y291564D01*
X51712Y290097D01*
X52471Y288781D01*
X53545Y287707D01*
X54860Y286948D01*
X56327Y286555D01*
X57846D01*
X59313Y286948D01*
X60628Y287707D01*
X61702Y288781D01*
X62461Y290097D01*
X62854Y291564D01*
Y293082D01*
X62461Y294549D01*
X61702Y295864D01*
X60628Y296938D01*
X59313Y297697D01*
X57846Y298091D01*
D02*
G37*
G36*
X38161D02*
X36642D01*
X35175Y297697D01*
X33860Y296938D01*
X32786Y295864D01*
X32027Y294549D01*
X31634Y293082D01*
Y291564D01*
X32027Y290097D01*
X32786Y288781D01*
X33860Y287707D01*
X35175Y286948D01*
X36642Y286555D01*
X38161D01*
X39628Y286948D01*
X40943Y287707D01*
X42017Y288781D01*
X42776Y290097D01*
X43169Y291564D01*
Y293082D01*
X42776Y294549D01*
X42017Y295864D01*
X40943Y296938D01*
X39628Y297697D01*
X38161Y298091D01*
D02*
G37*
G36*
X21001Y296838D02*
X8599D01*
Y284239D01*
X18274D01*
X18442Y284217D01*
X22566D01*
X26409Y280374D01*
X26122Y279303D01*
Y277784D01*
X26515Y276317D01*
X27274Y275002D01*
X28348Y273928D01*
X29664Y273169D01*
X31130Y272776D01*
X32649D01*
X34116Y273169D01*
X35431Y273928D01*
X36505Y275002D01*
X37264Y276317D01*
X37657Y277784D01*
Y279303D01*
X37264Y280770D01*
X36505Y282085D01*
X35431Y283159D01*
X34116Y283918D01*
X32649Y284311D01*
X31130D01*
X30059Y284024D01*
X25460Y288623D01*
X24925Y289034D01*
X24303Y289292D01*
X23635Y289380D01*
X21001D01*
Y296838D01*
D02*
G37*
G36*
X32649Y229193D02*
X31130D01*
X29664Y228800D01*
X28348Y228041D01*
X27274Y226967D01*
X26720Y226006D01*
X21001D01*
Y227658D01*
X8599D01*
Y215059D01*
X21001D01*
Y220844D01*
X26720D01*
X27274Y219884D01*
X28348Y218810D01*
X29664Y218051D01*
X31130Y217657D01*
X32649D01*
X34116Y218051D01*
X35431Y218810D01*
X36505Y219884D01*
X37264Y221199D01*
X37657Y222666D01*
Y224184D01*
X37264Y225652D01*
X36505Y226967D01*
X35431Y228041D01*
X34116Y228800D01*
X32649Y229193D01*
D02*
G37*
G36*
X63358D02*
X61839D01*
X60372Y228800D01*
X59057Y228041D01*
X57983Y226967D01*
X57224Y225652D01*
X56831Y224184D01*
Y222666D01*
X57224Y221199D01*
X57983Y219884D01*
X59057Y218810D01*
X60372Y218051D01*
X61839Y217657D01*
X63358D01*
X64825Y218051D01*
X66140Y218810D01*
X67214Y219884D01*
X67768Y220844D01*
X74114D01*
Y215059D01*
X86516D01*
Y227658D01*
X74114D01*
Y226006D01*
X67768D01*
X67214Y226967D01*
X66140Y228041D01*
X64825Y228800D01*
X63358Y229193D01*
D02*
G37*
G36*
X47685Y188386D02*
X46804D01*
X45952Y188158D01*
X45189Y187717D01*
X44566Y187094D01*
X44126Y186331D01*
X43898Y185480D01*
Y184599D01*
X44126Y183748D01*
X44566Y182985D01*
X45189Y182361D01*
X45952Y181921D01*
X46804Y181693D01*
X47685D01*
X48536Y181921D01*
X49299Y182361D01*
X49922Y182985D01*
X50362Y183748D01*
X50590Y184599D01*
Y185480D01*
X50362Y186331D01*
X49922Y187094D01*
X49299Y187717D01*
X48536Y188158D01*
X47685Y188386D01*
D02*
G37*
G36*
X141900Y139707D02*
X114900D01*
X114132Y139554D01*
X113481Y139119D01*
X113046Y138468D01*
X112893Y137700D01*
Y134800D01*
Y115700D01*
X112925Y115538D01*
Y113801D01*
X114358D01*
X114900Y113693D01*
X123900D01*
X124442Y113801D01*
X124736D01*
Y113891D01*
X125319Y114281D01*
X125754Y114932D01*
X125907Y115700D01*
Y128066D01*
X126294Y128383D01*
X126673Y128308D01*
X131358D01*
X133003Y126663D01*
X133620Y126189D01*
X134339Y125892D01*
X135109Y125790D01*
X136420D01*
Y122273D01*
X143900D01*
Y124241D01*
X145869D01*
Y129359D01*
X143900D01*
Y132141D01*
X145869D01*
Y137259D01*
X143907D01*
Y137700D01*
X143900Y137736D01*
Y139227D01*
X143157D01*
X142668Y139554D01*
X141900Y139707D01*
D02*
G37*
G36*
X67943Y104122D02*
X66457D01*
X65001Y103832D01*
X63629Y103264D01*
X62394Y102439D01*
X61344Y101389D01*
X60519Y100154D01*
X59950Y98782D01*
X59661Y97325D01*
Y95840D01*
X59950Y94384D01*
X60519Y93011D01*
X61344Y91777D01*
X62394Y90727D01*
X63629Y89901D01*
X65001Y89333D01*
X66457Y89043D01*
X67943D01*
X69399Y89333D01*
X70771Y89901D01*
X72006Y90727D01*
X73056Y91777D01*
X73881Y93011D01*
X74450Y94384D01*
X74739Y95840D01*
Y97325D01*
X74450Y98782D01*
X73881Y100154D01*
X73056Y101389D01*
X72006Y102439D01*
X70771Y103264D01*
X69399Y103832D01*
X67943Y104122D01*
D02*
G37*
G36*
X27943D02*
X26457D01*
X25001Y103832D01*
X23629Y103264D01*
X22394Y102439D01*
X21344Y101389D01*
X20519Y100154D01*
X19950Y98782D01*
X19661Y97325D01*
Y95840D01*
X19950Y94384D01*
X20519Y93011D01*
X21344Y91777D01*
X22394Y90727D01*
X23629Y89901D01*
X25001Y89333D01*
X26457Y89043D01*
X27943D01*
X29399Y89333D01*
X30771Y89901D01*
X32006Y90727D01*
X33056Y91777D01*
X33881Y93011D01*
X34450Y94384D01*
X34739Y95840D01*
Y97325D01*
X34450Y98782D01*
X33881Y100154D01*
X33056Y101389D01*
X32006Y102439D01*
X30771Y103264D01*
X29399Y103832D01*
X27943Y104122D01*
D02*
G37*
%LPD*%
G36*
X213090Y447539D02*
X213093D01*
Y415807D01*
X201007D01*
Y447593D01*
X213090D01*
Y447539D01*
D02*
G37*
D11*
X410335Y169144D02*
Y178454D01*
X391134Y197654D02*
X410335Y178454D01*
X393850Y197942D02*
X394692Y197100D01*
X393642Y197942D02*
X393850D01*
X394719Y197100D02*
X412303Y179516D01*
X394692Y197100D02*
X394719D01*
X389103Y197654D02*
X391134D01*
X388717Y198040D02*
X389103Y197654D01*
X388508Y198040D02*
X388717D01*
X248895Y256295D02*
X258906Y246283D01*
X367234D01*
X368006Y247055D01*
X412303Y169144D02*
Y179516D01*
X373862Y267662D02*
X379639Y273439D01*
X387590D01*
X393367Y279215D01*
X400415D01*
X379790Y271341D02*
X400415D01*
X376224Y267775D02*
X379790Y271341D01*
X258247Y244693D02*
X368543D01*
X241520Y261420D02*
X258247Y244693D01*
X157052Y337536D02*
X221088Y273500D01*
X164926Y331912D02*
Y378331D01*
Y331912D02*
X221747Y275091D01*
X157052Y337536D02*
Y378331D01*
X280421Y419680D02*
X281102Y420361D01*
X284032D02*
X285700Y422030D01*
X281102Y420361D02*
X284032D01*
X304732Y420418D02*
Y423659D01*
X298331Y426449D02*
X299209Y425571D01*
X302820D01*
X304732Y423659D01*
X298331Y426449D02*
Y430830D01*
X304762Y475918D02*
Y479820D01*
Y475918D02*
X305640Y475040D01*
X306791D01*
X302891Y481691D02*
X304762Y479820D01*
X301691Y483100D02*
X302891Y481900D01*
X298331Y483100D02*
X301691D01*
X304732Y420418D02*
X305610Y419540D01*
X306791D01*
X253819Y416072D02*
X254566Y415325D01*
X258516D02*
X259161Y414680D01*
X253691Y417318D02*
X253819Y417190D01*
Y416072D02*
Y417190D01*
X254566Y415325D02*
X258516D01*
X253691Y471300D02*
X253741Y471250D01*
X259111D02*
X259161Y471200D01*
X253691Y419680D02*
X259161D01*
X253691Y476200D02*
X259161D01*
X253741Y471250D02*
X259111D01*
X302891Y481691D02*
Y481900D01*
X280421Y476200D02*
X285491D01*
X430020Y169144D02*
Y177947D01*
X402467Y205499D02*
X430020Y177947D01*
X400491Y204680D02*
X428051Y177120D01*
Y169144D02*
Y177120D01*
X241520Y261420D02*
Y261420D01*
X248895Y256295D02*
Y256295D01*
X376224Y245079D02*
Y267775D01*
X373862Y245079D02*
Y267662D01*
X371352Y245226D02*
X371500Y245079D01*
X371352Y245226D02*
Y246248D01*
X370545Y247055D02*
X371352Y246248D01*
X368006Y247055D02*
X370545D01*
X368929Y245079D02*
X369138D01*
X368543Y244693D02*
X368929Y245079D01*
X256000Y324800D02*
X259295Y328095D01*
X264613D01*
X252340Y324800D02*
X256000D01*
X244500Y333860D02*
X252600D01*
X252600Y333860D01*
X252994Y341340D02*
X256239Y338095D01*
X264613D01*
X252600Y341340D02*
X252994D01*
X228277Y269772D02*
X235417D01*
X221747Y275091D02*
X222959D01*
X228277Y269772D01*
X235417D02*
X248895Y256295D01*
X221088Y273500D02*
X222300D01*
X227618Y268182D01*
X234758D01*
X241520Y261420D01*
X400105Y205303D02*
Y205512D01*
Y205303D02*
X400491Y204917D01*
Y204680D02*
Y204917D01*
D12*
X355400Y413600D02*
X358600Y410400D01*
Y341931D02*
X361053Y339478D01*
X358600Y341931D02*
Y410400D01*
X386741Y187312D02*
X390650Y183403D01*
X361266Y186510D02*
X362068Y187312D01*
X386741D01*
X361000Y186510D02*
X361266D01*
X361053Y258081D02*
Y339478D01*
X353003Y250031D02*
X361053Y258081D01*
X286000Y423900D02*
X292480D01*
X281201D02*
X286000D01*
X285991Y423909D02*
X286000Y423900D01*
X285991Y423909D02*
Y428200D01*
X292480Y423900D02*
X294968Y426388D01*
X280421Y424680D02*
X281201Y423900D01*
X344600Y413600D02*
X355400D01*
X336900Y421300D02*
X344600Y413600D01*
X320515Y421300D02*
X336900D01*
X309115Y432700D02*
X320515Y421300D01*
X294968Y426388D02*
Y430112D01*
X297556Y432700D01*
X309115D01*
X280421Y481200D02*
X281121Y480500D01*
X285891D01*
X390650Y169144D02*
Y183403D01*
D30*
X885922Y220705D02*
X886546Y221519D01*
X886939Y222468D01*
X887072Y223486D01*
X885542Y220333D02*
X885699Y220481D01*
X884114Y219057D02*
X883131Y218131D01*
X879153Y214152D02*
X878251Y213197D01*
X874516Y209018D02*
X873722Y208078D01*
X870226Y203694D02*
X869395Y202589D01*
X866209Y198098D02*
X865453Y196969D01*
X862485Y192245D02*
X861806Y191092D01*
X860678Y189053D02*
X860668Y189034D01*
X860629Y188963D01*
X859397Y186734D02*
X859379Y186702D01*
X859379Y186702D01*
X859122Y186237D02*
X858499Y185030D01*
X856093Y180034D02*
X855540Y178798D01*
X854179Y175512D02*
X854189Y175537D01*
X854179Y175512D02*
X854154Y175452D01*
X853667Y174275D02*
X853619Y174161D01*
X853619Y174161D02*
X853601Y174117D01*
X853573Y174048D02*
X853574Y174053D01*
X851474Y168234D02*
X851482Y168257D01*
X851474Y168234D02*
X851429Y168103D01*
X851123Y167229D02*
X851114Y167205D01*
X851114D02*
X850688Y165870D01*
X850685Y165857D02*
X850688Y165870D01*
X849156Y160553D02*
X848814Y159222D01*
X848814D02*
X848809Y159200D01*
X848302Y156980D02*
X848296Y156953D01*
X848296D02*
X848285Y156904D01*
X848277Y156869D02*
X848285Y156904D01*
X847637Y154063D02*
X847615Y153970D01*
X847581Y153820D02*
X847322Y152518D01*
X846433Y147283D02*
X846410Y147148D01*
X846410D02*
X846405Y147118D01*
X846396Y147067D02*
X846383Y146992D01*
X846383D02*
X846203Y145704D01*
X846055Y144396D02*
X846052Y144366D01*
X846052D02*
X846048Y144330D01*
X845585Y140217D02*
X845470Y138890D01*
X845446Y138462D02*
X845448Y138499D01*
X845446Y138462D02*
X845444Y138422D01*
X845444D02*
X845442Y138386D01*
X845440Y138340D02*
X845442Y138386D01*
X845087Y129927D02*
X845086Y129856D01*
X845086D02*
X845086Y129817D01*
X845079Y103995D02*
Y103991D01*
X845077Y96588D02*
X845079Y96696D01*
X845077Y96588D02*
X845073Y96339D01*
X882349Y210946D02*
X881628Y210181D01*
X881628Y210181D02*
X881594Y210143D01*
X873761Y200865D02*
X873100Y199986D01*
X877888Y205996D02*
X877260Y205253D01*
X845082Y129568D02*
X845079Y129132D01*
X845096Y130519D02*
X845094Y130432D01*
X845158Y133331D02*
X845119Y132230D01*
X845734Y141541D02*
X845735Y141556D01*
X847746Y154542D02*
X847751Y154566D01*
X852263Y170487D02*
X852265Y170495D01*
X853416Y173670D02*
X852950Y172451D01*
X850205Y164192D02*
X850192Y164146D01*
X887118Y215669D02*
X886337Y214934D01*
X887118Y215669D02*
X887131Y215681D01*
X888654Y217042D02*
X888811Y217190D01*
X869896Y195470D02*
X869289Y194564D01*
X863077Y184032D02*
X862585Y183080D01*
X864627Y186838D02*
X864596Y186781D01*
X864627Y186838D02*
X864636Y186853D01*
X857794Y172409D02*
X857785Y172386D01*
X857794Y172409D02*
X857802Y172427D01*
X857843Y172526D02*
X857802Y172427D01*
X858363Y173781D02*
X858340Y173725D01*
X857594Y171925D02*
X857226Y170963D01*
X855039Y164618D02*
X855036Y164607D01*
X855383Y165695D02*
X855040Y164618D01*
X854543Y162895D02*
X854542Y162893D01*
X854554Y162935D02*
X854543Y162895D01*
X852693Y155871D02*
X852697Y155886D01*
X852705Y155923D02*
X852713Y155957D01*
X850549Y143843D02*
X850553Y143875D01*
X850847Y146236D02*
X850703Y145210D01*
X850857Y146293D02*
X850847Y146236D01*
X850872Y146383D02*
X850875Y146396D01*
X849964Y138162D02*
X849962Y138114D01*
X849965Y138169D02*
X849966Y138190D01*
X849966Y138193D02*
X849968Y138224D01*
X850081Y139689D02*
X849991Y138645D01*
X849613Y129802D02*
X849613Y129774D01*
X849614Y129844D02*
X849613Y129802D01*
X849621Y130381D02*
X849621Y130368D01*
X849622Y130439D02*
X849621Y130381D01*
X849678Y133068D02*
X849647Y132183D01*
X849603Y96472D02*
X849600Y96339D01*
X849603Y96472D02*
X849606Y96633D01*
X849609Y129496D02*
X849606Y129141D01*
X850893Y146506D02*
X850875Y146396D01*
X851993Y152805D02*
X851788Y151772D01*
X852047Y153040D02*
X852031Y152971D01*
X855383Y165695D02*
X855392Y165721D01*
X853228Y158214D02*
X853232Y158229D01*
X855749Y166741D02*
X855709Y166627D01*
X853503Y159286D02*
X853232Y158229D01*
X860164Y178053D02*
X859729Y177078D01*
X863346Y184520D02*
X863350Y184527D01*
X866311Y189825D02*
X865777Y188918D01*
X833441Y64938D02*
X849600Y81098D01*
X831565Y69465D02*
X845073Y82973D01*
Y96339D01*
X885699Y220481D02*
X885922Y220705D01*
X885699Y220481D02*
X885699Y220481D01*
X884114Y219057D02*
X885542Y220333D01*
X884114Y219057D02*
X884114Y219057D01*
X879153Y214152D02*
X883131Y218131D01*
X879153Y214152D02*
X879153Y214152D01*
X878251Y213197D02*
X878251Y213197D01*
X878251Y213197D02*
X878251Y213197D01*
X876950Y211741D02*
X878251Y213197D01*
X874516Y209018D02*
X876947Y211738D01*
X870293Y203778D02*
X873722Y208078D01*
X870226Y203694D02*
X870293Y203778D01*
X869395Y202589D02*
X869395Y202589D01*
X866209Y198098D02*
X869395Y202589D01*
X866209Y198098D02*
X866209Y198098D01*
X862485Y192246D02*
X865453Y196969D01*
X862485Y192245D02*
X862485Y192246D01*
X861806Y191092D02*
X861806Y191092D01*
X861806Y191092D02*
X861806Y191092D01*
X860679Y189053D02*
X861806Y191092D01*
X860678Y189053D02*
X860679Y189053D01*
X860629Y188963D02*
X860629Y188963D01*
X859397Y186735D02*
X860629Y188963D01*
X859397Y186734D02*
X859397Y186735D01*
X859379Y186702D02*
X859379Y186702D01*
X859122Y186237D02*
X859379Y186702D01*
X859122Y186237D02*
X859122Y186237D01*
X856094Y180035D02*
X858499Y185030D01*
X856093Y180034D02*
X856094Y180035D01*
X854179Y175512D02*
X854179D01*
X853667Y174276D02*
X854154Y175452D01*
X853667Y174275D02*
X853667Y174276D01*
X853619Y174161D02*
X853619Y174161D01*
X853574Y174053D02*
X853601Y174117D01*
X851474Y168234D02*
X851474D01*
X851123Y167229D02*
X851429Y168103D01*
X851123Y167229D02*
X851123Y167229D01*
X851114Y167205D02*
X851114D01*
X850688Y165870D02*
X850688D01*
X848814Y159222D02*
X848814D01*
X848296Y156953D02*
X848296D01*
X848285Y156904D02*
X848285D01*
X847637Y154064D02*
X847746Y154542D01*
X847637Y154063D02*
X847637Y154064D01*
X847615Y153970D02*
X847615Y153970D01*
X847581Y153820D02*
X847615Y153970D01*
X846410Y147148D02*
X846410D01*
X846396Y147067D02*
X846405Y147118D01*
X846383Y146992D02*
X846383D01*
X846203Y145704D02*
X846203Y145704D01*
X846052Y144366D02*
X846052D01*
X845448Y138499D02*
X845470Y138890D01*
X845446Y138462D02*
X845446D01*
X845444Y138422D02*
X845444D01*
X845442Y138386D02*
X845442D01*
X845086Y129856D02*
X845086D01*
X845086Y129817D02*
Y129817D01*
X845082Y129568D02*
X845086Y129817D01*
X845079Y103995D02*
X845079Y129132D01*
X845079Y96696D02*
Y103991D01*
Y96696D02*
Y96696D01*
X212300Y94600D02*
X229269D01*
X208200Y90500D02*
X212300Y94600D01*
X963923Y258706D02*
Y267941D01*
X937100Y256400D02*
X961617D01*
X963923Y258706D01*
X917400Y238700D02*
X929100D01*
X932200Y241800D01*
Y251500D01*
X937100Y256400D01*
X339785Y326459D02*
X351941D01*
X358100Y287200D02*
Y320300D01*
X351941Y326459D02*
X358100Y320300D01*
X876947Y211738D02*
X876950Y211741D01*
X881628Y210181D02*
X881628Y210181D01*
X882349Y210946D02*
X886337Y214934D01*
X873761Y200865D02*
X875332Y202834D01*
X873761Y200865D02*
X873761Y200865D01*
X881593Y210142D02*
X881594Y210143D01*
X880242Y208630D02*
X881593Y210142D01*
X877888Y205996D02*
X880242Y208630D01*
X875332Y202834D02*
X877260Y205253D01*
X887072Y236494D02*
X889379Y238800D01*
X891600D01*
X887072Y223486D02*
Y236494D01*
X419894Y78960D02*
X757333D01*
X771355Y64938D01*
X833441D01*
X849600Y81098D02*
Y96339D01*
X891600Y219979D02*
Y233600D01*
X886337Y214934D02*
X886337Y214934D01*
X888811Y217190D02*
X888811Y217190D01*
X891600Y219979D01*
X855039Y164618D02*
X855040Y164618D01*
X849606Y96633D02*
Y96633D01*
X857802Y172427D02*
X857802Y172427D01*
X854543Y162895D02*
X854543Y162895D01*
X849613Y129773D02*
X849613Y129774D01*
X849606Y96633D02*
X849606Y129141D01*
X850549Y143843D02*
X850549Y143843D01*
X849647Y132182D02*
X849647Y132183D01*
X857794Y172409D02*
X857794Y172409D01*
X857785Y172386D02*
X857785Y172386D01*
X887131Y215681D02*
X887132Y215681D01*
X237000Y347900D02*
X257600D01*
X169500Y332100D02*
X221200D01*
X237000Y347900D01*
X773230Y69465D02*
X831565D01*
X415367Y83487D02*
X759208D01*
X773230Y69465D01*
X846055Y144396D02*
X846203Y145704D01*
X845087Y129927D02*
X845094Y130432D01*
X845096Y130519D02*
X845119Y132230D01*
X845158Y133331D02*
X845440Y138340D01*
X845585Y140217D02*
X845734Y141541D01*
X845735Y141556D02*
X846048Y144330D01*
X846433Y147283D02*
X847322Y152518D01*
X847751Y154566D02*
X848277Y156869D01*
X854189Y175537D02*
X855540Y178798D01*
X851482Y168257D02*
X852263Y170487D01*
X852265Y170495D02*
X852950Y172451D01*
X848302Y156980D02*
X848809Y159200D01*
X853416Y173670D02*
X853573Y174048D01*
X849156Y160553D02*
X850192Y164146D01*
X850205Y164192D02*
X850685Y165857D01*
X887132Y215681D02*
X888654Y217042D01*
X869896Y195471D02*
X873100Y199986D01*
X869896Y195470D02*
X869896Y195471D01*
X864596Y186781D02*
X864596Y186781D01*
X863350Y184527D02*
X864596Y186781D01*
X864627Y186838D02*
X864627D01*
X864636Y186853D02*
X865777Y188918D01*
X864636Y186853D02*
X864636Y186853D01*
X862585Y183080D02*
X862585Y183080D01*
X860164Y178053D02*
X862585Y183080D01*
X857594Y171925D02*
X857757Y172320D01*
X857594Y171925D02*
X857594Y171925D01*
X857757Y172320D02*
X857785Y172386D01*
X857843Y172527D02*
X858339Y173725D01*
X857843Y172526D02*
X857843Y172527D01*
X858363Y173782D02*
X859729Y177078D01*
X858363Y173781D02*
X858363Y173782D01*
X852697Y155886D02*
X852705Y155923D01*
X850847Y146236D02*
X850847D01*
X850872Y146382D02*
X850872Y146383D01*
X850857Y146293D02*
X850872Y146382D01*
X849964Y138162D02*
X849965Y138169D01*
X849966Y138190D02*
X849966Y138193D01*
X849967Y138224D02*
X849991Y138645D01*
X850081Y139689D02*
X850549Y143843D01*
X849609Y129496D02*
X849613Y129773D01*
X849613Y129802D02*
X849613D01*
X849621Y130381D02*
X849621D01*
X849622Y130439D02*
X849647Y132182D01*
X849614Y129844D02*
X849621Y130368D01*
X849678Y133068D02*
X849962Y138114D01*
X850553Y143875D02*
X850703Y145210D01*
X850893Y146506D02*
X851788Y151772D01*
X851993Y152805D02*
X852031Y152971D01*
X854554Y162935D02*
X855036Y164607D01*
X852047Y153040D02*
X852693Y155871D01*
X852713Y155957D02*
X853228Y158214D01*
X855392Y165721D02*
X855709Y166627D01*
X855749Y166741D02*
X857226Y170963D01*
X853503Y159286D02*
X854542Y162893D01*
X863077Y184032D02*
X863346Y184520D01*
X866311Y189825D02*
X869289Y194564D01*
X94124Y199401D02*
Y202537D01*
X92561Y204100D02*
X94124Y202537D01*
X96430Y197095D02*
X105169D01*
X94124Y199401D02*
X96430Y197095D01*
X94124Y206362D02*
Y208594D01*
X91861Y204100D02*
X94124Y206362D01*
X94200Y208670D02*
Y237100D01*
X94124Y208594D02*
X94200Y208670D01*
X94100Y255500D02*
X94200Y255400D01*
X358100Y260000D02*
Y287200D01*
X349300Y251200D02*
X358100Y260000D01*
X357989Y287089D02*
X358100Y287200D01*
X339785Y287089D02*
X357989D01*
X268000Y251200D02*
X349300D01*
X301020Y451300D02*
Y451694D01*
X306791Y457465D01*
Y466900D01*
X300519Y395394D02*
X306791Y401665D01*
X300519Y395000D02*
Y395394D01*
X306791Y401665D02*
Y411400D01*
X264700Y251200D02*
X268000D01*
X261100D02*
X264700D01*
X94200Y351600D02*
Y354800D01*
Y348300D02*
Y351600D01*
Y255400D02*
Y348300D01*
Y237100D02*
Y255400D01*
Y237100D02*
X94205Y237094D01*
X105169D01*
D31*
X867253Y168495D02*
X867252Y168494D01*
X867242Y168470D01*
X865031Y162275D02*
X864889Y161830D01*
X861968Y150505D02*
X861884Y150085D01*
X872025Y179062D02*
X871823Y178670D01*
X901260Y214291D02*
X901259Y214290D01*
X901267Y214296D02*
X901260Y214291D01*
X900627Y213786D02*
X900626Y213786D01*
X900639Y213796D02*
X900627Y213786D01*
X901283Y214309D02*
X901267Y214296D01*
X859895Y132443D02*
X859883Y132077D01*
X860184Y137593D02*
X860185Y137600D01*
X860941Y144533D02*
X860879Y144095D01*
X860976Y144743D02*
X860972Y144717D01*
X863331Y156423D02*
X863218Y155983D01*
X865397Y163324D02*
X865385Y163289D01*
X869374Y173586D02*
X869202Y173201D01*
X874970Y184366D02*
X874748Y183989D01*
X881741Y194454D02*
X881464Y194086D01*
X889580Y203701D02*
X889285Y203388D01*
X898443Y212044D02*
X898431Y212034D01*
Y212034D02*
X898076Y211734D01*
X878214Y189504D02*
X877973Y189145D01*
X867042Y167985D02*
X866890Y167590D01*
X867068Y162733D02*
X867060Y162711D01*
X865032Y155928D02*
X864948Y155599D01*
X868912Y167871D02*
X868912Y167870D01*
X868920Y167892D02*
X868912Y167871D01*
X876466Y183416D02*
X876301Y183135D01*
X873574Y178202D02*
X873574Y178201D01*
X905545Y213140D02*
X905546Y213141D01*
X868881Y167798D02*
X868885Y167806D01*
X902377Y212915D02*
X902377Y212916D01*
X866677Y155213D02*
X866677Y155212D01*
X863693Y150101D02*
X863631Y149791D01*
X861664Y132338D02*
X861654Y132058D01*
X883124Y193347D02*
X882912Y193065D01*
X862722Y144441D02*
X862719Y144424D01*
X875121Y177339D02*
X875121Y177339D01*
X881097Y187445D02*
X880976Y187263D01*
X866733Y155434D02*
X866677Y155213D01*
X899531Y210646D02*
X899543Y210655D01*
X863768Y138093D02*
X863749Y137879D01*
X899531Y210646D02*
X899265Y210421D01*
X865420Y149708D02*
X865379Y149503D01*
X862008Y138298D02*
X861980Y137972D01*
X886633Y197747D02*
X886633Y197747D01*
X868369Y161086D02*
X868297Y160863D01*
X862686Y144229D02*
X862640Y143907D01*
X886854Y198009D02*
X886633Y197747D01*
X905219Y212909D02*
X905052Y212783D01*
X870308Y166613D02*
X870237Y166426D01*
X863432Y132225D02*
X863426Y132042D01*
X866699Y161680D02*
X866593Y161346D01*
X870550Y167196D02*
X870555Y167208D01*
X901738Y212406D02*
X901739Y212407D01*
X884504Y192235D02*
X884364Y192049D01*
X898021Y211685D02*
X898022Y211686D01*
X868881Y167797D02*
X868881Y167798D01*
X896250Y205350D02*
X896091Y205200D01*
X868734Y162132D02*
X868736Y162138D01*
X902369Y212909D02*
X902377Y212915D01*
X870967Y172811D02*
X870839Y172523D01*
X864431Y143921D02*
X864401Y143707D01*
X862719Y144424D02*
X862719Y144424D01*
X890832Y202447D02*
X890611Y202213D01*
X900635Y209261D02*
X900455Y209108D01*
X872562Y172038D02*
X872480Y171855D01*
X885536Y199193D02*
X885242Y198844D01*
X868674Y167297D02*
X868563Y167008D01*
X877966Y182473D02*
X877854Y182283D01*
X902368Y212908D02*
X902369Y212909D01*
X898022Y211686D02*
X898029Y211692D01*
X875121Y177339D02*
X875021Y177145D01*
X862722Y144442D02*
X862722Y144441D01*
X888172Y196825D02*
X888025Y196650D01*
X901736Y212404D02*
X901738Y212406D01*
X873574Y178201D02*
X873422Y177908D01*
X879653Y188472D02*
X879474Y188203D01*
X860248Y138502D02*
X860211Y138068D01*
X864468Y144136D02*
X864468Y144138D01*
X898004Y216227D02*
X898447Y217149D01*
X897888Y216134D02*
X897887Y216133D01*
Y216133D02*
X897871Y216120D01*
X896249Y214827D02*
X896218Y214802D01*
Y214802D02*
X895709Y214370D01*
X895687Y214351D02*
X895681Y214346D01*
X895681Y214346D02*
X895650Y214318D01*
X894239Y213057D02*
X894240Y213058D01*
X894233Y213052D02*
X894239Y213057D01*
X893245Y212169D02*
X893256Y212179D01*
X891560Y210663D02*
X891074Y210206D01*
X887078Y206209D02*
X886629Y205733D01*
X886613Y205715D02*
X886600Y205700D01*
X882903Y201563D02*
X882460Y201038D01*
X878979Y196674D02*
X878570Y196130D01*
X871974Y186257D02*
X871641Y185692D01*
X870480Y183591D02*
X870480Y183591D01*
X870468Y183570D01*
X870468Y183570D01*
X868925Y180779D02*
X868628Y180202D01*
X864533Y171187D02*
X864532Y171187D01*
X864527Y171175D01*
X864527Y171174D01*
X864019Y169949D02*
X863990Y169878D01*
X863990Y169878D02*
X863960Y169803D01*
X863958Y169801D02*
X863958Y169801D01*
X863772Y169350D02*
X863545Y168758D01*
X862057Y164505D02*
X862034Y164439D01*
X861693Y163465D02*
X861479Y162794D01*
X859228Y154425D02*
X859230Y154433D01*
X858566Y151526D02*
X858562Y151507D01*
X858562Y151507D01*
X858515Y151301D02*
X858389Y150668D01*
X856730Y138919D02*
X856674Y138268D01*
X856648Y137815D02*
X856646Y137776D01*
X856306Y129747D02*
X856306Y129733D01*
X856306D02*
X856306Y129718D01*
X856301Y129376D02*
X856299Y129151D01*
X856298Y95430D02*
X856299Y95472D01*
X900301Y215792D02*
X900514Y216014D01*
X900300Y215791D02*
X900301Y215792D01*
X899674Y215292D02*
X899673Y215292D01*
X899670Y215289D01*
X899537Y215183D02*
X899520Y215169D01*
X899519Y215168D01*
X899452Y215115D02*
X899452Y215115D01*
X899443Y215108D02*
X899452Y215115D01*
X898987Y214744D02*
X898988Y214745D01*
X898980Y214738D02*
X898987Y214744D01*
X897346Y213435D02*
X897318Y213413D01*
X897318Y213413D02*
X896893Y213053D01*
X896849Y213014D02*
X896861Y213025D01*
X896849Y213014D02*
X896836Y213002D01*
X892732Y209334D02*
X892328Y208955D01*
X888329Y204955D02*
X887957Y204560D01*
X887932Y204532D02*
X887925Y204525D01*
X884217Y200376D02*
X883851Y199942D01*
X880358Y195561D02*
X880017Y195108D01*
X876773Y190536D02*
X876474Y190088D01*
X873471Y185310D02*
X873193Y184837D01*
X872024Y182723D02*
X872025Y182723D01*
X867779Y174356D02*
X867564Y173875D01*
X865654Y169265D02*
X865631Y169210D01*
X865620Y169182D02*
X865601Y169137D01*
X865601Y169136D01*
X863728Y163916D02*
X863710Y163865D01*
X863362Y162870D02*
X863184Y162312D01*
X861631Y156921D02*
X861489Y156370D01*
X860241Y150902D02*
X860137Y150377D01*
X859231Y145044D02*
X859224Y145006D01*
X859195Y144833D02*
X859118Y144291D01*
X858489Y138706D02*
X858442Y138168D01*
X858416Y137707D02*
X858415Y137687D01*
X858415Y137687D01*
X858127Y132551D02*
X858111Y132091D01*
X858111D02*
Y132091D01*
X858071Y122636D02*
Y122633D01*
X858070Y95410D02*
X858071Y95440D01*
X865528Y137886D02*
X865528Y137886D01*
X901732Y207869D02*
X901731Y207868D01*
X907401Y212284D02*
X907896Y213246D01*
X901731Y207868D02*
X901644Y207795D01*
X867146Y149307D02*
X867126Y149209D01*
X870037Y160490D02*
X870002Y160381D01*
X885815Y191032D02*
X885814Y191032D01*
X879461Y181524D02*
X879410Y181436D01*
X870002Y160381D02*
X870002Y160380D01*
X876670Y176478D02*
X876620Y176382D01*
X874158Y171269D02*
X874117Y171178D01*
X889484Y195634D02*
X889415Y195553D01*
X868434Y154938D02*
X868406Y154829D01*
X885884Y191124D02*
X885815Y191032D01*
X897426Y204026D02*
X897345Y203949D01*
X865158Y129208D02*
X865157Y129173D01*
X868406Y154829D02*
X868406Y154828D01*
X865528Y137886D02*
X865518Y137779D01*
X893334Y199938D02*
X893264Y199864D01*
X865201Y132121D02*
X865201Y132120D01*
X882539Y186415D02*
X882481Y186329D01*
X906243Y211463D02*
X906164Y211403D01*
X866176Y143615D02*
X866162Y143516D01*
X871945Y165935D02*
X871909Y165840D01*
X865201Y132120D02*
X865197Y132026D01*
X900165Y215684D02*
X900151Y215672D01*
X856314Y130312D02*
X856314Y130316D01*
X854535Y129774D02*
X854535Y129773D01*
X855707Y145458D02*
X855707Y145458D01*
X892055Y213481D02*
X892054Y213481D01*
X890875Y214803D02*
X890864Y214793D01*
X861266Y172561D02*
X861266Y172560D01*
X880272Y203937D02*
X879684Y203240D01*
X890902Y214827D02*
X890875Y214803D01*
X891889Y215709D02*
X891865Y215688D01*
X855063Y152100D02*
X854895Y151258D01*
X855114Y152324D02*
X855104Y152278D01*
X855779Y155239D02*
X855770Y155195D01*
X856528Y158409D02*
X856304Y157535D01*
X858356Y164656D02*
X858070Y163761D01*
X858716Y165685D02*
X858685Y165595D01*
X860713Y171224D02*
X860715Y171231D01*
X860751Y171317D02*
X860715Y171231D01*
X861266Y172560D02*
X861250Y172521D01*
X853110Y138006D02*
X853107Y137951D01*
X853110Y138006D02*
X853111Y138027D01*
X853211Y139331D02*
X853136Y138467D01*
X852822Y132875D02*
X852796Y132153D01*
X865828Y182500D02*
X865429Y181727D01*
X867383Y185312D02*
X867361Y185274D01*
X868978Y188149D02*
X868536Y187398D01*
X872454Y193633D02*
X871965Y192903D01*
X853682Y143514D02*
X853680Y143498D01*
X853680D02*
X853679Y143487D01*
X876213Y198887D02*
X875673Y198169D01*
X852758Y129437D02*
X852756Y129144D01*
X852763Y129756D02*
X852763Y129742D01*
X852763Y129770D02*
X852763Y129756D01*
X852763Y129801D02*
X852763Y129770D01*
X852771Y130382D02*
X852771Y130348D01*
X893337Y217003D02*
X893279Y216952D01*
X893337Y217003D02*
X893345Y217010D01*
X894008Y217571D02*
X893345Y217010D01*
X894046Y217602D02*
X894008Y217571D01*
X883982Y208089D02*
X883946Y208048D01*
X884575Y208717D02*
X883982Y208089D01*
X889211Y213316D02*
X888566Y212709D01*
X853955Y145722D02*
X853834Y144868D01*
X853961Y145761D02*
X853955Y145722D01*
X853996Y145963D02*
X853981Y145874D01*
X855782Y155248D02*
X855779Y155239D01*
X857572Y162031D02*
X857574Y162040D01*
X857580Y162061D02*
X857574Y162040D01*
X860502Y170715D02*
X860199Y169923D01*
X862997Y176676D02*
X862644Y175886D01*
X894461Y217933D02*
X894904Y218855D01*
X896232Y217079D02*
X896676Y218002D01*
X894513Y215678D02*
X894496Y215663D01*
X895113Y216187D02*
X894527Y215690D01*
X894496Y215663D02*
X894463Y215633D01*
X892080Y213504D02*
X892062Y213488D01*
X892062Y213488D02*
X892055Y213481D01*
X890388Y211992D02*
X889820Y211457D01*
X885302Y206907D02*
X885273Y206875D01*
X885826Y207463D02*
X885302Y206907D01*
X881588Y202751D02*
X881071Y202139D01*
X877596Y197781D02*
X877120Y197147D01*
X873895Y192603D02*
X873467Y191963D01*
X870475Y187201D02*
X870087Y186543D01*
X868916Y184424D02*
X868916Y184423D01*
X868932Y184452D02*
X868916Y184424D01*
X867377Y181640D02*
X867028Y180964D01*
X864591Y175903D02*
X864283Y175214D01*
X862901Y171878D02*
X862890Y171851D01*
X862386Y170634D02*
X862351Y170550D01*
X862351Y170550D02*
X862321Y170479D01*
X860025Y164061D02*
X859775Y163279D01*
X859278Y161554D02*
X859281Y161564D01*
X858230Y157915D02*
X858032Y157145D01*
X855700Y145417D02*
X855595Y144675D01*
X855707Y145458D02*
X855700Y145417D01*
X855740Y145653D02*
X855728Y145583D01*
X854970Y139124D02*
X854905Y138365D01*
X854879Y137916D02*
X854876Y137863D01*
X854534Y129727D02*
X854534Y129742D01*
X854535Y129773D02*
X854534Y129750D01*
X854530Y129404D02*
X854527Y129149D01*
X854543Y130349D02*
X854543Y130329D01*
X854590Y132767D02*
X854568Y132134D01*
X855440Y143296D02*
X855442Y143310D01*
X856790Y151704D02*
X856642Y150961D01*
X856840Y151924D02*
X856833Y151893D01*
X857506Y154841D02*
X857500Y154813D01*
X860387Y165097D02*
X860360Y165019D01*
X862137Y170032D02*
X861872Y169340D01*
X893064Y214383D02*
X893048Y214369D01*
X895148Y216214D02*
X895113Y216187D01*
X857448Y145125D02*
X857356Y144480D01*
X856359Y132659D02*
X856339Y132116D01*
X857201Y143097D02*
X857201Y143101D01*
X859931Y157421D02*
X859761Y156759D01*
X866185Y175130D02*
X865922Y174542D01*
X875334Y191569D02*
X874972Y191028D01*
X858072Y129343D02*
X858071Y129163D01*
X859197Y144845D02*
X859195Y144833D01*
X860291Y151122D02*
X860291Y151122D01*
X862688Y160591D02*
X862686Y160583D01*
X858077Y129703D02*
X858077Y129707D01*
X865406Y168667D02*
X865218Y168174D01*
X870475Y179920D02*
X870224Y179434D01*
X903910Y214138D02*
X904353Y215060D01*
X895075Y206676D02*
X894837Y206452D01*
X861615Y129275D02*
X861614Y129170D01*
X893903Y208005D02*
X893583Y207703D01*
X859842Y122647D02*
X859842Y122641D01*
X859844Y129311D02*
X859842Y129170D01*
X902140Y214992D02*
X902582Y215913D01*
X905546Y213141D02*
X905976Y213719D01*
X892083Y201193D02*
X891934Y201035D01*
X863386Y129241D02*
X863386Y129173D01*
X905976Y213719D02*
X906125Y214625D01*
X290400Y104400D02*
X295569D01*
X272160D02*
X290400D01*
X271560Y105000D02*
X272160Y104400D01*
X284113Y110828D02*
X284900Y110040D01*
X280768Y112831D02*
X282772Y110828D01*
X284113D01*
X274445Y112831D02*
X280768D01*
X284900Y110040D02*
X286081D01*
X287700Y106900D02*
X292228Y111428D01*
X353634D02*
X367028Y124822D01*
X292228Y111428D02*
X353634D01*
X286081Y110040D02*
X289241Y113200D01*
X352900D02*
X365059Y125359D01*
X289241Y113200D02*
X352900D01*
X367028Y124822D02*
Y169144D01*
Y175552D01*
X281821Y106900D02*
X287700D01*
X278681Y110040D02*
X281821Y106900D01*
X277500Y110040D02*
X278681D01*
X269914Y114857D02*
X273943Y110828D01*
X276713D01*
X277500Y110040D01*
X269914Y114857D02*
Y122280D01*
X268635Y123560D02*
X269914Y122280D01*
X264697Y123560D02*
X268635D01*
X264500Y123757D02*
X264697Y123560D01*
X365059Y125359D02*
Y169144D01*
X271686Y115590D02*
X274445Y112831D01*
X271686Y115590D02*
Y123014D01*
X268581Y126119D02*
X271686Y123014D01*
X264697Y126119D02*
X268581D01*
X264500Y126316D02*
X264697Y126119D01*
X365059Y169144D02*
Y176859D01*
X265540Y105000D02*
X271560D01*
X342960Y93238D02*
X372933Y123211D01*
X342226Y95009D02*
X370965Y123748D01*
X344427Y89694D02*
X376870Y122137D01*
X341492Y96781D02*
X368996Y124285D01*
X343694Y91466D02*
X374902Y122674D01*
X898021Y211685D02*
X898022Y211686D01*
X898431Y212034D02*
Y212034D01*
X893903Y208005D02*
X893903Y208005D01*
X901267Y214296D02*
X901267Y214296D01*
X901283Y214309D02*
X901283Y214309D01*
X901259Y214290D02*
X901260Y214291D01*
X900626Y213786D02*
X900627Y213786D01*
X885242Y198844D02*
X885242Y198844D01*
X876301Y183135D02*
X876301Y183135D01*
X902368Y212908D02*
X902369Y212909D01*
X860248Y138502D02*
X860248Y138502D01*
X896091Y205200D02*
X896091Y205200D01*
X861664Y132338D02*
X861664Y132339D01*
X868912Y167870D02*
X868912Y167871D01*
X863768Y138093D02*
X863768Y138093D01*
X884504Y192235D02*
X884504Y192235D01*
X884364Y192049D02*
X884364Y192049D01*
X867253Y168495D02*
X867253Y168495D01*
X212271Y63400D02*
X671000D01*
X886633Y197747D02*
X886633Y197747D01*
X905545Y213140D02*
X905546Y213141D01*
X213754Y66952D02*
X752359D01*
X863426Y132041D02*
Y132042D01*
X211565Y61600D02*
X447641D01*
X213028Y65172D02*
X676081D01*
X866677Y155212D02*
X866677Y155213D01*
X896250Y205350D02*
X896250Y205350D01*
X862719Y144424D02*
X862719Y144424D01*
X885536Y199193D02*
X885536Y199193D01*
X861615Y129275D02*
Y129275D01*
X868881Y167797D02*
X868881Y167798D01*
X214876Y68724D02*
X753093D01*
X205200Y78400D02*
X214876Y68724D01*
X199500Y76800D02*
X201100Y78400D01*
X205200D01*
X256161Y89694D02*
X344427D01*
X259096Y96781D02*
X341492D01*
X254066Y101811D02*
X259096Y96781D01*
X256895Y91466D02*
X343694D01*
X231331Y123757D02*
X242543D01*
X252295Y101077D02*
X258362Y95009D01*
X246980Y98875D02*
X256161Y89694D01*
X248752Y99609D02*
X256895Y91466D01*
X250523Y100343D02*
X257628Y93238D01*
X243699Y98287D02*
X257900Y84086D01*
X257628Y93238D02*
X342960D01*
X258362Y95009D02*
X342226D01*
X185272Y83728D02*
X189500Y79500D01*
X140934Y83728D02*
X185272D01*
X188200Y85500D02*
X194500Y79200D01*
X140200Y85500D02*
X188200D01*
X141757Y81957D02*
X180843D01*
X149985Y80185D02*
X176415D01*
X154892Y78413D02*
X173187D01*
X146500Y76700D02*
X149985Y80185D01*
X154200Y77722D02*
X154892Y78413D01*
X839872Y49361D02*
X865157Y74646D01*
X839138Y51132D02*
X863386Y75380D01*
X836213Y58245D02*
X856293Y78325D01*
X836947Y56473D02*
X858065Y77591D01*
X837681Y54702D02*
X859837Y76858D01*
X834745Y61788D02*
X852750Y79793D01*
X838404Y52904D02*
X861614Y76114D01*
X835479Y60017D02*
X854522Y79059D01*
X182000Y105860D02*
X185260Y102600D01*
X191800D02*
X194500Y99900D01*
X185260Y102600D02*
X191800D01*
X178992Y169592D02*
X182235Y172835D01*
X190448D01*
X192157Y171127D01*
Y165957D02*
Y171127D01*
X182000Y105860D02*
Y155800D01*
X192157Y165957D01*
X184028Y134786D02*
Y154534D01*
X184028Y109150D02*
Y134786D01*
X184028Y154534D02*
X193928Y164434D01*
X184028Y134786D02*
X184028Y134786D01*
X193928Y164434D02*
Y171861D01*
X195700Y163700D02*
Y172594D01*
X185800Y153800D02*
X195700Y163700D01*
X185800Y135520D02*
Y153800D01*
X184028Y109150D02*
X186600Y106579D01*
Y106560D02*
Y106579D01*
X185800Y135520D02*
X185831Y135488D01*
Y134828D02*
X186619Y134040D01*
X185831Y134828D02*
Y135488D01*
X186619Y134040D02*
X194523D01*
X191076Y174713D02*
X193928Y171861D01*
X191809Y176485D02*
X195700Y172594D01*
X110924Y174713D02*
X191076D01*
X110190Y176485D02*
X191809D01*
X109457Y178257D02*
X192543D01*
X206591Y164209D02*
X212335D01*
X192543Y178257D02*
X206591Y164209D01*
X108455Y180028D02*
X193472D01*
X201613Y171887D02*
X212335D01*
X193472Y180028D02*
X201613Y171887D01*
X176272Y104072D02*
Y158748D01*
X179500Y93130D02*
Y100844D01*
X176272Y104072D02*
X179500Y100844D01*
X184500Y93130D02*
Y98349D01*
X178043Y104806D02*
X184500Y98349D01*
X178043Y104806D02*
Y158015D01*
X188909Y96476D02*
X189500Y95886D01*
X179815Y105540D02*
Y157281D01*
X189500Y93130D02*
Y95886D01*
X188879Y96476D02*
X188909D01*
X179815Y105540D02*
X188879Y96476D01*
X194523Y134040D02*
X197850Y130713D01*
Y130300D02*
Y130713D01*
X194523Y106560D02*
X197850Y109887D01*
X186600Y106560D02*
X194523D01*
X197850Y109887D02*
Y110300D01*
X176272Y158748D02*
X185867Y168344D01*
X178043Y158015D02*
X187639Y167610D01*
X174500Y159900D02*
X183800Y169200D01*
X174500Y93130D02*
Y159900D01*
X179815Y157281D02*
X189410Y166876D01*
Y168680D01*
X189739Y169009D02*
Y169169D01*
X189410Y168680D02*
X189739Y169009D01*
X93405Y76166D02*
Y174665D01*
X91634Y76900D02*
Y162366D01*
X187667Y170275D02*
X188000Y170608D01*
X187639Y169989D02*
X187667Y170017D01*
Y170275D01*
X187639Y167610D02*
Y169989D01*
X185867Y168344D02*
Y170056D01*
X185600Y170730D02*
X185713Y170617D01*
Y170210D02*
X185867Y170056D01*
X185713Y170210D02*
Y170617D01*
X274200Y129372D02*
X277395Y126178D01*
X269225Y139111D02*
X274200Y134136D01*
Y129372D02*
Y134136D01*
Y120652D02*
X277493Y117359D01*
X268930Y131237D02*
X274200Y125967D01*
Y120652D02*
Y125967D01*
X242500Y98340D02*
X242553Y98287D01*
X242500Y98340D02*
Y99900D01*
X242553Y98287D02*
X243699D01*
X215842Y153383D02*
X215983Y153242D01*
X220859D01*
X222079Y145606D02*
Y152021D01*
X220859Y153242D02*
X222079Y152021D01*
X219915Y143048D02*
Y143442D01*
X221550Y110300D02*
Y118950D01*
X226649Y124049D01*
Y131749D01*
X228893Y133993D01*
X236154D01*
X221550Y130969D02*
X227133Y136552D01*
X236154D01*
X221550Y130300D02*
Y130969D01*
X197850Y110300D02*
Y110969D01*
X228870Y104896D02*
Y105056D01*
X227233Y103259D02*
X228870Y104896D01*
X227233Y96636D02*
Y103259D01*
Y96636D02*
X229269Y94600D01*
X228870Y105056D02*
X235716D01*
X235860Y105200D01*
X230347Y124741D02*
Y127694D01*
Y124741D02*
X231331Y123757D01*
X230347Y127694D02*
X231528Y128875D01*
X236154D01*
X222620Y138400D02*
X223320Y139100D01*
X216689Y138400D02*
X222620D01*
X292008Y181800D02*
X295600Y178208D01*
X101477Y181800D02*
X292008D01*
X254066Y116079D02*
X259185Y121198D01*
X264500D01*
X914370Y394291D02*
X1061220D01*
X1066969Y388543D01*
Y382323D02*
Y388543D01*
X971900Y276700D02*
Y277500D01*
Y267941D02*
Y276700D01*
X979774Y267941D02*
Y279345D01*
X969140Y280260D02*
X971900Y277500D01*
X956100Y280260D02*
X969140D01*
X898004Y216227D02*
X898004Y216227D01*
X897888Y216134D02*
X898004Y216227D01*
X897887Y216133D02*
X897888Y216134D01*
X897887Y216133D02*
X897888Y216134D01*
X897871Y216120D02*
X897871Y216120D01*
X896249Y214827D02*
X897871Y216120D01*
X896249Y214827D02*
X896249Y214827D01*
X895687Y214351D02*
X895709Y214370D01*
X895681Y214346D02*
X895681Y214346D01*
X894240Y213058D02*
X895650Y214318D01*
X894239Y213057D02*
X894240Y213058D01*
X893257Y212179D02*
X894233Y213052D01*
X893256Y212179D02*
X893257Y212179D01*
X893245Y212169D02*
X893245Y212169D01*
X891560Y210663D02*
X893245Y212169D01*
X887078Y206209D02*
X891074Y210206D01*
X887078Y206209D02*
X887078Y206209D01*
X886613Y205715D02*
X886629Y205733D01*
X882460Y201038D02*
X882460Y201038D01*
X878979Y196674D02*
X882460Y201038D01*
X878979Y196674D02*
X878979Y196674D01*
X878570Y196130D02*
X878570Y196130D01*
X875334Y191569D02*
X878570Y196130D01*
X871640Y185691D02*
X871641Y185692D01*
X870480Y183591D02*
X871640Y185691D01*
X870480Y183591D02*
X870480Y183591D01*
X870468Y183570D02*
X870468Y183570D01*
X868926Y180780D02*
X870468Y183570D01*
X868925Y180779D02*
X868926Y180780D01*
X864533Y171187D02*
X865922Y174542D01*
X864532Y171187D02*
X864533Y171187D01*
X864527Y171174D02*
X864527Y171175D01*
X864020Y169949D02*
X864527Y171174D01*
X864019Y169949D02*
X864020Y169949D01*
X863990Y169878D02*
X863990Y169878D01*
X863958Y169801D02*
X863960Y169803D01*
X862057Y164505D02*
X863545Y168758D01*
X862034Y164439D02*
X862034Y164439D01*
X861693Y163465D02*
X862034Y164439D01*
X861693Y163465D02*
X861693Y163465D01*
X861479Y162794D02*
X861479Y162794D01*
X860980Y161064D02*
X861479Y162794D01*
X859230Y154433D02*
X859761Y156759D01*
X859230Y154433D02*
X859230Y154433D01*
X858566Y151526D02*
X859228Y154425D01*
X858566Y151526D02*
X858566Y151526D01*
X858562Y151507D02*
X858562Y151507D01*
X858515Y151302D02*
X858562Y151507D01*
X858515Y151301D02*
X858515Y151302D01*
X858389Y150668D02*
X858389Y150668D01*
X857485Y145349D02*
X858389Y150668D01*
X856730Y138919D02*
X857201Y143097D01*
X856730Y138919D02*
X856730Y138919D01*
X856648Y137815D02*
X856674Y138268D01*
X856646Y137776D02*
X856646Y137776D01*
X856359Y132659D02*
X856646Y137776D01*
X856306Y129733D02*
X856306D01*
X856306Y129718D02*
Y129718D01*
X856301Y129376D02*
Y129376D01*
X856306Y129718D01*
X856299Y95472D02*
X856299Y129151D01*
X900514Y216014D02*
Y255900D01*
X900300Y215791D02*
X900301Y215792D01*
X900165Y215684D02*
X900300Y215791D01*
X899674Y215292D02*
X900151Y215672D01*
X899673Y215292D02*
X899674Y215292D01*
X899519Y215168D02*
X899520Y215169D01*
X899452Y215115D02*
X899519Y215168D01*
X899452Y215115D02*
X899452Y215115D01*
X898988Y214745D02*
X899443Y215108D01*
X898987Y214744D02*
X898988Y214745D01*
X897346Y213436D02*
X898980Y214738D01*
X897346Y213435D02*
X897346Y213436D01*
X897318Y213413D02*
X897318Y213413D01*
X896861Y213025D02*
X896893Y213053D01*
X896849Y213014D02*
X896849Y213014D01*
X892732Y209335D02*
X895414Y211732D01*
X892732Y209334D02*
X892732Y209335D01*
X892328Y208955D02*
X892328Y208955D01*
X888329Y204955D02*
X892328Y208955D01*
X887932Y204532D02*
X887957Y204560D01*
X883851Y199942D02*
X883851Y199942D01*
X883851Y199942D02*
X883851Y199942D01*
X880358Y195561D02*
X883851Y199942D01*
X880017Y195107D02*
X880017Y195108D01*
X876774Y190536D02*
X880017Y195107D01*
X876773Y190536D02*
X876774Y190536D01*
X876473Y190087D02*
X876474Y190088D01*
X873471Y185310D02*
X876473Y190087D01*
X873192Y184836D02*
X873193Y184837D01*
X872025Y182723D02*
X873192Y184836D01*
X867779Y174357D02*
X870224Y179434D01*
X867779Y174356D02*
X867779Y174357D01*
X867563Y173874D02*
X867564Y173875D01*
X866166Y170501D02*
X867563Y173874D01*
X865654Y169265D02*
X866166Y170501D01*
X865654Y169265D02*
X865654Y169265D01*
X865620Y169182D02*
X865631Y169210D01*
X865601Y169136D02*
X865601Y169137D01*
X865406Y168667D02*
X865601Y169136D01*
X863728Y163916D02*
X865218Y168174D01*
X863728Y163916D02*
X863728Y163916D01*
X863710Y163864D02*
X863710Y163865D01*
X863362Y162870D02*
X863710Y163864D01*
X863362Y162870D02*
X863362Y162870D01*
X863184Y162312D02*
X863184Y162312D01*
X862688Y160591D02*
X863184Y162312D01*
X861489Y156370D02*
X861489Y156370D01*
X860291Y151122D02*
X861489Y156370D01*
X860241Y150903D02*
X860291Y151122D01*
X860241Y150902D02*
X860241Y150903D01*
X860137Y150376D02*
X860137Y150377D01*
X859231Y145044D02*
X860137Y150376D01*
X859231Y145044D02*
X859231Y145044D01*
X859118Y144291D02*
X859118Y144291D01*
X858489Y138707D02*
X859118Y144291D01*
X858489Y138706D02*
X858489Y138707D01*
X858416Y137707D02*
X858442Y138168D01*
X858415Y137687D02*
X858415Y137687D01*
X858127Y132551D02*
X858415Y137687D01*
X858127Y132551D02*
Y132551D01*
X858111Y132091D02*
X858111D01*
X858071Y95440D02*
Y95440D01*
Y122636D02*
X858071Y129163D01*
X858071Y95440D02*
Y122633D01*
X111458Y210638D02*
X117138D01*
X119658Y213158D01*
X137542D01*
X384556Y199516D02*
X387011Y201972D01*
X400822D01*
X416240Y186554D01*
X241305Y205807D02*
X368013D01*
X368920Y204900D02*
X369000D01*
X368013Y205807D02*
X368920Y204900D01*
X387745Y200200D02*
X400088D01*
X414272Y186017D01*
Y169144D02*
Y186017D01*
X416240Y169144D02*
Y186554D01*
X764939Y49361D02*
X839872D01*
X870037Y160490D02*
Y160490D01*
X705600Y61440D02*
X706387Y62228D01*
X907896Y213246D02*
Y302629D01*
X868406Y154828D02*
X868406Y154829D01*
X870002Y160380D02*
X870002Y160381D01*
X865157Y90719D02*
X865157Y129173D01*
X952472Y310047D02*
X964047D01*
X707728Y62228D02*
X708900Y63400D01*
X893334Y199938D02*
X897345Y203949D01*
X706387Y62228D02*
X707728D01*
X865201Y132120D02*
X865201Y132121D01*
X964047Y310047D02*
X978307Y324307D01*
X910453Y305185D02*
X924331D01*
X885814Y191032D02*
X885815Y191032D01*
X924331Y305185D02*
X925500Y306354D01*
X948779D02*
X952472Y310047D01*
X865157Y81757D02*
X865157Y81757D01*
X708900Y63400D02*
X750900D01*
X893334Y199938D02*
X893334Y199938D01*
X907896Y302629D02*
X910453Y305185D01*
X978307Y324307D02*
Y381949D01*
X750900Y63400D02*
X764939Y49361D01*
X925500Y306354D02*
X948779D01*
X865157Y81757D02*
Y90719D01*
X865157Y74646D02*
Y81757D01*
X874158Y171269D02*
X876620Y176382D01*
X885884Y191124D02*
X889415Y195553D01*
X865528Y137886D02*
X866162Y143516D01*
X865528Y137886D02*
X865528Y137886D01*
X904956Y210440D02*
X906164Y211403D01*
X901731Y207868D02*
X901732Y207869D01*
X897426Y204026D02*
X901644Y207795D01*
X882539Y186415D02*
X885814Y191032D01*
X871945Y165935D02*
X874117Y171178D01*
X876670Y176478D02*
X879410Y181436D01*
X867146Y149307D02*
X868406Y154828D01*
X866176Y143615D02*
X867126Y149209D01*
X865158Y129208D02*
X865197Y132026D01*
X879461Y181524D02*
X882481Y186329D01*
X870037Y160490D02*
X871909Y165840D01*
X865197Y132026D02*
Y132026D01*
X901732Y207869D02*
X904956Y210440D01*
X889484Y195634D02*
X893264Y199864D01*
X868434Y154938D02*
X870002Y160380D01*
X865201Y132121D02*
X865518Y137779D01*
X906243Y211463D02*
X907401Y212284D01*
X176415Y80185D02*
X179500Y77100D01*
Y66300D02*
X181172Y64628D01*
X765673Y51132D02*
X839138D01*
X671000Y63400D02*
X676000Y58400D01*
X863386Y91453D02*
X863386Y129173D01*
X863386Y88386D02*
X863386Y88386D01*
X181172Y64628D02*
X211042D01*
X146500Y72840D02*
Y76700D01*
X676000Y58400D02*
X696500D01*
X703280Y65180D02*
X709042D01*
X211042Y64628D02*
X212271Y63400D01*
X891934Y201035D02*
X891934Y201035D01*
X906125Y214625D02*
Y303363D01*
X179500Y71870D02*
Y77100D01*
X751634Y65172D02*
X765673Y51132D01*
X709042Y65180D02*
X709051Y65172D01*
X751634D01*
X696500Y58400D02*
X703280Y65180D01*
X863386Y75380D02*
Y88386D01*
X892083Y201193D02*
X896091Y205200D01*
X863386Y88386D02*
Y91453D01*
X863386Y129241D02*
X863386Y129242D01*
X906125Y303363D02*
X911282Y308520D01*
X179500Y66300D02*
Y71870D01*
X204500Y69114D02*
Y71870D01*
Y69114D02*
X205090Y68524D01*
X212182D01*
X890832Y202447D02*
X890832Y202447D01*
X894837Y206452D01*
X766407Y52904D02*
X838404D01*
X904353Y215060D02*
Y384274D01*
X752359Y66952D02*
X766407Y52904D01*
X861614Y93975D02*
X861614Y129170D01*
X904353Y384274D02*
X914370Y394291D01*
X212182Y68524D02*
X213754Y66952D01*
X861614Y76114D02*
Y93975D01*
X895334Y375272D02*
X902582Y368024D01*
Y215913D02*
Y368024D01*
X859842Y81042D02*
Y94100D01*
X889580Y203701D02*
X889580Y203701D01*
X833502Y54702D02*
X837681D01*
X869429Y376671D02*
X870828Y375272D01*
X859842Y94100D02*
X859842Y122641D01*
X859842Y122647D02*
X859842Y129170D01*
X859837Y81037D02*
X859842Y81042D01*
X833476Y54676D02*
X833502Y54702D01*
X753093Y68724D02*
X767141Y54676D01*
X199500Y71870D02*
Y76800D01*
X859837Y76858D02*
Y81037D01*
X889580Y203701D02*
X893583Y207703D01*
X869429Y376671D02*
Y382323D01*
X870828Y375272D02*
X895334D01*
X767141Y54676D02*
X833476D01*
X893903Y208005D02*
X893903Y208005D01*
X892732Y209335D02*
X892732Y209335D01*
X858065Y87065D02*
X858071Y87071D01*
X858489Y138707D02*
Y138707D01*
X753827Y70495D02*
X767875Y56447D01*
X858071Y93654D02*
X858071D01*
X767875Y56447D02*
X827447D01*
X827473Y56473D02*
X836947D01*
X394587Y91513D02*
X415605Y70495D01*
X753827D01*
X394587Y91513D02*
Y169144D01*
X827447Y56447D02*
X827473Y56473D01*
X858065Y77591D02*
Y87065D01*
X858071Y93654D02*
Y95410D01*
X858071Y87071D02*
Y93654D01*
X856293Y78325D02*
Y95264D01*
X754561Y72267D02*
X768609Y58219D01*
X822519D01*
X871640Y185691D02*
X871641Y185691D01*
X396555Y92245D02*
X416533Y72267D01*
X898447Y257933D02*
X900514Y260000D01*
X822519Y58219D02*
X822545Y58245D01*
X396555Y92245D02*
Y169144D01*
X893245Y212169D02*
X893245Y212169D01*
X416533Y72267D02*
X754561D01*
X898447Y250739D02*
X898447Y250739D01*
Y217149D02*
Y250739D01*
X822545Y58245D02*
X836213D01*
X898447Y250739D02*
Y257933D01*
X896676Y259399D02*
X900810Y263533D01*
X896676Y218002D02*
Y259399D01*
X958300Y430629D02*
X958346Y430675D01*
Y439882D01*
X769316Y60017D02*
X835479D01*
X854522Y79059D02*
Y95610D01*
X845610Y382490D02*
X854600Y373500D01*
X400492Y91208D02*
Y169144D01*
X894600Y373500D02*
X900810Y367290D01*
X845610Y437205D02*
X857134Y448728D01*
X954672D02*
X958346Y445054D01*
X854876Y137863D02*
X854876Y137863D01*
X854522Y95610D02*
X854527Y95615D01*
X890388Y211992D02*
X890388Y211992D01*
X889820Y211457D02*
X889820Y211457D01*
X862351Y170550D02*
X862351Y170550D01*
X900810Y263533D02*
Y367290D01*
X868916Y184423D02*
X868916Y184424D01*
X854527Y95615D02*
X854527Y129149D01*
X854530Y129404D02*
X854530Y129405D01*
X958346Y439882D02*
Y445054D01*
X885826Y207463D02*
X889820Y211457D01*
X857134Y448728D02*
X954672D01*
X885302Y206907D02*
X885302Y206907D01*
X894496Y215663D02*
X894496Y215663D01*
X862321Y170478D02*
X862321Y170479D01*
X755294Y74039D02*
X769316Y60017D01*
X417661Y74039D02*
X755294D01*
X845610Y382490D02*
Y437205D01*
X854600Y373500D02*
X894600D01*
X862386Y170634D02*
X862386Y170634D01*
X400492Y91208D02*
X417661Y74039D01*
X892054Y213481D02*
X892055Y213481D01*
X854535Y129773D02*
X854535Y129774D01*
X892080Y213504D02*
X892080Y213504D01*
X402461Y91939D02*
Y169144D01*
X770050Y61788D02*
X834745D01*
X852750Y79793D02*
Y96339D01*
X852756Y129144D02*
Y129144D01*
X978327Y439862D02*
X978347Y439843D01*
Y430945D02*
Y439843D01*
Y430945D02*
X978642Y430650D01*
X854895Y151258D02*
X854895Y151258D01*
X893345Y217010D02*
X893345Y217010D01*
X756028Y75810D02*
X770050Y61788D01*
X899038Y264267D02*
Y366556D01*
X853866Y371728D02*
X893866D01*
X856400Y450500D02*
X973500D01*
X872454Y193633D02*
X872454Y193633D01*
X843839Y381756D02*
Y437939D01*
X894904Y218855D02*
Y260133D01*
X973500Y450500D02*
X978347Y445654D01*
X876213Y198887D02*
X876213Y198887D01*
X894904Y260133D02*
X899038Y264267D01*
X852756Y96345D02*
X852756Y129144D01*
X890875Y214803D02*
X890875Y214803D01*
X853110Y138006D02*
X853110Y138006D01*
X852750Y96339D02*
X852756Y96345D01*
X843839Y381756D02*
X853866Y371728D01*
X852771Y130348D02*
X852771Y130348D01*
X884575Y208717D02*
X884575Y208717D01*
X978347Y439882D02*
Y445654D01*
X418590Y75810D02*
X756028D01*
X843839Y437939D02*
X856400Y450500D01*
X852758Y129437D02*
X852758Y129438D01*
X893337Y217003D02*
X893337Y217003D01*
X893866Y371728D02*
X899038Y366556D01*
X402461Y91939D02*
X418590Y75810D01*
X852771Y130382D02*
X852771Y130382D01*
X884575Y208717D02*
X888566Y212709D01*
X888566Y212709D01*
X891889Y215709D02*
X891889Y215709D01*
X853107Y137951D02*
X853107Y137951D01*
X531641Y48100D02*
X533360Y46381D01*
X438289Y48100D02*
X531641D01*
X533360Y45200D02*
Y46381D01*
X185700Y66400D02*
X211800D01*
X213028Y65172D01*
X210308Y62857D02*
X211565Y61600D01*
X177943Y62857D02*
X210308D01*
X209575Y61085D02*
X213937Y56723D01*
X169547Y66853D02*
X175315Y61085D01*
X209575D01*
X447641Y61600D02*
X454060Y55181D01*
X174500Y66300D02*
X177943Y62857D01*
X215381Y56723D02*
X216168Y55935D01*
X213937Y56723D02*
X215381D01*
X454060Y54005D02*
Y55181D01*
X676081Y65172D02*
X679813Y61440D01*
X680994D01*
X100743Y183572D02*
X151172D01*
X155800Y188200D02*
X190278D01*
X151172Y183572D02*
X155800Y188200D01*
X93405Y174665D02*
Y176234D01*
X100743Y183572D01*
X98233Y178556D02*
X101477Y181800D01*
X98233Y176227D02*
X99200Y175260D01*
Y175100D02*
Y175260D01*
X98233Y176227D02*
Y178556D01*
X57087Y237205D02*
Y243287D01*
X62100Y248300D02*
X85800D01*
X57087Y243287D02*
X62100Y248300D01*
X56600Y245500D02*
X61172Y250072D01*
X43900Y245500D02*
X56600D01*
X61172Y250072D02*
X85066D01*
X89000Y254006D01*
X37402Y239002D02*
X43900Y245500D01*
X37402Y237205D02*
Y239002D01*
X89000Y254006D02*
Y357405D01*
X85800Y248300D02*
X90772Y253272D01*
X80315Y166142D02*
X87858D01*
X91634Y162366D01*
X38248Y174665D02*
X93405D01*
X31890Y168307D02*
X38248Y174665D01*
X98626Y205274D02*
Y210437D01*
X100349Y203551D02*
X114393D01*
X98626Y205274D02*
X100349Y203551D01*
X101181Y212992D02*
X115157D01*
X98626Y210437D02*
X101181Y212992D01*
X18442Y286798D02*
X23635D01*
X14800Y290440D02*
X18442Y286798D01*
X23635D02*
X31890Y278543D01*
X14800Y290440D02*
Y290539D01*
X62598Y278543D02*
X78445D01*
X80315Y276673D01*
X14800Y221358D02*
X16867Y223425D01*
X31890D01*
X78248D02*
X80315Y221358D01*
X62598Y223425D02*
X78248D01*
X181188Y183572D02*
X355523D01*
X180860Y183900D02*
X181188Y183572D01*
X180700Y183900D02*
X180860D01*
X917400Y235550D02*
Y236732D01*
X186700Y201572D02*
X194445D01*
X196500Y199516D02*
X384556D01*
X194445Y201572D02*
X196500Y199516D01*
X183633Y198505D02*
X186700Y201572D01*
X183356Y198103D02*
X183633Y198380D01*
X183356Y197943D02*
Y198103D01*
X183633Y198380D02*
Y198505D01*
X195766Y197745D02*
X385290D01*
X194079Y199420D02*
X194090D01*
X187851Y199800D02*
X193700D01*
X194079Y199420D01*
X194090D02*
X195766Y197745D01*
X185700Y197649D02*
X187851Y199800D01*
X190200Y197649D02*
X193357D01*
X195032Y195973D02*
X390328D01*
X193357Y197649D02*
X195032Y195973D01*
X183295Y195582D02*
X192918D01*
X194299Y194202D01*
X158653Y197058D02*
X178545D01*
X178840Y197353D02*
X179000D01*
X178545Y197058D02*
X178840Y197353D01*
X180478Y195287D02*
X180773Y195582D01*
X180933D01*
X157919Y195287D02*
X180478D01*
X155429Y200282D02*
X158653Y197058D01*
X155429Y200282D02*
X155429D01*
X152287Y203424D02*
X155429Y200282D01*
X154695Y198510D02*
X157919Y195287D01*
X137542Y213158D02*
X157185Y193515D01*
X192480D02*
X193565Y192430D01*
X157185Y193515D02*
X192480D01*
X388127Y190658D02*
X389085Y189700D01*
X192831Y190658D02*
X388127D01*
X137557Y210638D02*
X156451Y191743D01*
X191746D01*
X192831Y190658D01*
X191012Y189972D02*
X192097Y188887D01*
X138595Y207095D02*
X155717Y189972D01*
X191012D01*
X190278Y188200D02*
X191363Y187115D01*
X179100Y186100D02*
X189873D01*
X190629Y185343D01*
X356257D01*
X121458Y210638D02*
X137557D01*
X191363Y187115D02*
X357085D01*
X192097Y188887D02*
X387393D01*
X193565Y192430D02*
X388861D01*
X404429Y176861D01*
X150515Y202691D02*
X154695Y198510D01*
X154695D01*
X152287Y203424D02*
Y229000D01*
X158389Y235102D01*
Y244119D01*
X150515Y202691D02*
Y244119D01*
X197982Y244119D02*
X240501Y201600D01*
X189885Y244119D02*
X197982D01*
X182200Y244308D02*
Y251400D01*
X182011Y244119D02*
X182200Y244308D01*
Y251400D02*
X183928Y253128D01*
X191478D01*
X166288Y252088D02*
X169100Y254900D01*
X166288Y244144D02*
Y252088D01*
X166263Y244119D02*
X166288Y244144D01*
X192212Y254900D02*
X241305Y205807D01*
X169100Y254900D02*
X192212D01*
X135900Y252100D02*
X142033Y258233D01*
X187056D02*
X187110Y258287D01*
X187987D01*
X188100Y258400D01*
X112920Y252100D02*
X135900D01*
X142033Y258233D02*
X187056D01*
X140333Y260133D02*
X185256D01*
X137294Y257095D02*
X140333Y260133D01*
X185310Y260187D02*
X186087D01*
X130760Y257095D02*
X137294D01*
X185256Y260133D02*
X185310Y260187D01*
X186087D02*
X186200Y260300D01*
X130760Y207095D02*
X138595D01*
X853996Y145963D02*
X854895Y151258D01*
X855104Y152278D02*
X855104Y152278D01*
X855063Y152100D02*
X855104Y152278D01*
X855769Y155194D02*
X855770Y155195D01*
X855114Y152324D02*
X855769Y155194D01*
X856304Y157535D02*
X856304Y157535D01*
X855782Y155248D02*
X856304Y157535D01*
X856528Y158410D02*
X857572Y162031D01*
X856528Y158409D02*
X856528Y158410D01*
X858070Y163761D02*
X858070Y163761D01*
X857580Y162061D02*
X858070Y163761D01*
X858684Y165594D02*
X858685Y165595D01*
X858356Y164657D02*
X858684Y165594D01*
X858356Y164656D02*
X858356Y164657D01*
X860715Y171231D02*
X860715D01*
X860700Y171194D02*
X860713Y171224D01*
X853111Y138027D02*
X853136Y138467D01*
X861266Y172561D02*
X862644Y175886D01*
X861266Y172560D02*
X861266Y172561D01*
X852822Y132875D02*
X853107Y137951D01*
X865429Y181726D02*
X865429Y181727D01*
X862997Y176676D02*
X865429Y181726D01*
X867361Y185273D02*
X867361Y185274D01*
X865828Y182500D02*
X867361Y185273D01*
X868535Y187398D02*
X868536Y187398D01*
X867383Y185313D02*
X868535Y187398D01*
X867383Y185312D02*
X867383Y185313D01*
X871965Y192902D02*
X871965Y192903D01*
X868978Y188149D02*
X871965Y192902D01*
X853680Y143498D02*
X853680D01*
X872454Y193633D02*
X875673Y198169D01*
X852758Y129438D02*
X852763Y129742D01*
X852763Y129756D02*
X852763D01*
X852796Y132153D02*
Y132153D01*
X852771Y130382D02*
X852796Y132153D01*
X852763Y129801D02*
X852771Y130348D01*
X852763Y129770D02*
X852763D01*
X879684Y203240D02*
X879684Y203240D01*
X876213Y198887D02*
X879684Y203240D01*
X894046Y217602D02*
X894461Y217933D01*
X894046Y217602D02*
X894046Y217602D01*
X891889Y215709D02*
X893279Y216952D01*
X883945Y208048D02*
X883946Y208048D01*
X880273Y203938D02*
X883945Y208048D01*
X880272Y203937D02*
X880273Y203938D01*
X853961Y145761D02*
X853981Y145874D01*
X853682Y143514D02*
X853834Y144868D01*
X853211Y139331D02*
X853679Y143487D01*
X858716Y165685D02*
X860199Y169923D01*
X860502Y170715D02*
X860683Y171152D01*
X860700Y171194D01*
X860751Y171317D02*
X861250Y172521D01*
X890902Y214827D02*
X891865Y215688D01*
X889211Y213316D02*
X890864Y214793D01*
X894513Y215678D02*
X894527Y215690D01*
X895148Y216214D02*
X896232Y217079D01*
X892062Y213488D02*
X892062Y213488D01*
X892080Y213504D02*
X893048Y214369D01*
X890388Y211992D02*
X890911Y212459D01*
X892054Y213481D01*
X881588Y202751D02*
X885273Y206875D01*
X881588Y202751D02*
X881588Y202751D01*
X881071Y202138D02*
X881071Y202139D01*
X877596Y197781D02*
X881071Y202138D01*
X877596Y197781D02*
X877596Y197781D01*
X877119Y197146D02*
X877120Y197147D01*
X873895Y192603D02*
X877119Y197146D01*
X873895Y192603D02*
X873895Y192603D01*
X870475Y187201D02*
X873467Y191963D01*
X870475Y187201D02*
X870475Y187201D01*
X870087Y186542D02*
X870087Y186543D01*
X868932Y184452D02*
X870087Y186542D01*
X867378Y181641D02*
X868916Y184423D01*
X867377Y181640D02*
X867378Y181641D01*
X867028Y180963D02*
X867028Y180964D01*
X864591Y175903D02*
X867028Y180963D01*
X864283Y175214D02*
X864283Y175214D01*
X862901Y171878D02*
X864283Y175214D01*
X862901Y171878D02*
X862901Y171878D01*
X862386Y170634D02*
X862890Y171851D01*
X862137Y170032D02*
X862321Y170478D01*
X860025Y164062D02*
X860360Y165019D01*
X860025Y164061D02*
X860025Y164062D01*
X858230Y157915D02*
X859278Y161554D01*
X858032Y157144D02*
X858032Y157145D01*
X857506Y154841D02*
X858032Y157144D01*
X855700Y145417D02*
X855700D01*
X855707Y145458D02*
X855728Y145583D01*
X855707Y145458D02*
X855707Y145458D01*
X855740Y145654D02*
X856642Y150961D01*
X855740Y145653D02*
X855740Y145654D01*
X854879Y137916D02*
X854904Y138365D01*
X854590Y132767D02*
X854876Y137863D01*
X854530Y129405D02*
X854534Y129727D01*
X854534Y129742D02*
X854534Y129750D01*
X854535Y129774D02*
X854543Y130329D01*
X854543Y130349D02*
X854568Y132134D01*
X854970Y139124D02*
X855440Y143296D01*
X855442Y143310D02*
X855595Y144675D01*
X856790Y151704D02*
X856833Y151893D01*
X856840Y151924D02*
X857500Y154813D01*
X859281Y161564D02*
X859775Y163279D01*
X860387Y165097D02*
X861872Y169340D01*
X893064Y214383D02*
X894463Y215633D01*
X857485Y145349D02*
X857485Y145349D01*
X857452Y145153D02*
X857476Y145292D01*
X857452Y145152D02*
X857452Y145153D01*
X856293Y95264D02*
X856298Y95430D01*
X856306Y129747D02*
X856314Y130312D01*
X856314Y130316D02*
X856339Y132116D01*
X857201Y143101D02*
X857356Y144480D01*
X859931Y157421D02*
X860980Y161064D01*
X866185Y175130D02*
X868628Y180202D01*
X863772Y169350D02*
X863958Y169801D01*
X871974Y186257D02*
X874972Y191028D01*
X882903Y201563D02*
X886600Y205700D01*
X235860Y105200D02*
X236154Y105494D01*
X858072Y129343D02*
X858077Y129703D01*
X858077Y129707D02*
X858111Y132091D01*
X859197Y144845D02*
X859224Y145006D01*
X861631Y156921D02*
X862686Y160583D01*
X870475Y179920D02*
X872024Y182723D01*
X884217Y200376D02*
X887925Y204525D01*
X895414Y211732D02*
X896836Y213002D01*
X899537Y215183D02*
X899670Y215289D01*
X902377Y212916D02*
X903910Y214138D01*
X902377Y212915D02*
X902377Y212916D01*
X901739Y212407D02*
X902368Y212908D01*
X901738Y212406D02*
X901739Y212407D01*
X883125Y193348D02*
X886633Y197747D01*
X883124Y193347D02*
X883125Y193348D01*
X882912Y193065D02*
X882912Y193065D01*
X879653Y188472D02*
X882912Y193065D01*
X873574Y178202D02*
X876301Y183135D01*
X873574Y178201D02*
X873574Y178202D01*
X870967Y172811D02*
X873422Y177908D01*
X868885Y167806D02*
X868912Y167870D01*
X868674Y167297D02*
X868881Y167797D01*
X866700Y161680D02*
X867060Y162711D01*
X866699Y161680D02*
X866700Y161680D01*
X866593Y161345D02*
X866593Y161346D01*
X865032Y155928D02*
X866593Y161345D01*
X862722Y144442D02*
X863631Y149791D01*
X862722Y144441D02*
X862722Y144442D01*
X862686Y144229D02*
X862719Y144424D01*
X862640Y143906D02*
X862640Y143907D01*
X862008Y138299D02*
X862640Y143906D01*
X862008Y138298D02*
X862008Y138299D01*
X861664Y132339D02*
X861980Y137972D01*
X861615Y129275D02*
X861654Y132058D01*
X901283Y214309D02*
X902140Y214992D01*
X900639Y213796D02*
X901259Y214290D01*
X899535Y212915D02*
X900626Y213786D01*
X898029Y211692D02*
X898076Y211734D01*
X893903Y208005D02*
X898021Y211685D01*
X885536Y199193D02*
X889285Y203388D01*
X881741Y194454D02*
X885242Y198844D01*
X881741Y194454D02*
X881741Y194454D01*
X874971Y184366D02*
X877973Y189145D01*
X874970Y184366D02*
X874971Y184366D01*
X874748Y183989D02*
X874748Y183989D01*
X872025Y179062D02*
X874748Y183989D01*
X867288Y168580D02*
X869202Y173201D01*
X867288Y168579D02*
X867288Y168580D01*
X867253Y168495D02*
X867273Y168543D01*
X867242Y168470D02*
X867242Y168470D01*
X867042Y167985D02*
X867242Y168470D01*
X864889Y161830D02*
X864889Y161830D01*
X863331Y156423D02*
X864889Y161830D01*
X860977Y144743D02*
X861884Y150085D01*
X860976Y144743D02*
X860977Y144743D01*
X860941Y144534D02*
X860972Y144717D01*
X860941Y144533D02*
X860941Y144534D01*
X860248Y138502D02*
X860879Y144095D01*
X860185Y137600D02*
X860211Y138068D01*
X859895Y132443D02*
X860184Y137593D01*
X859895Y132443D02*
X859895Y132443D01*
X861968Y150505D02*
X863218Y155983D01*
X878214Y189504D02*
X881464Y194086D01*
X859844Y129311D02*
X859883Y132077D01*
X865031Y162275D02*
X865385Y163289D01*
X869374Y173586D02*
X871823Y178670D01*
X898443Y212044D02*
X899535Y212915D01*
X865397Y163324D02*
X866890Y167590D01*
X863693Y150101D02*
X864948Y155599D01*
X876466Y183416D02*
X879474Y188203D01*
X886854Y198009D02*
X890611Y202213D01*
X868920Y167892D02*
X870839Y172523D01*
X867068Y162733D02*
X868563Y167008D01*
X895075Y206676D02*
X899208Y210369D01*
X899543Y210655D02*
X901736Y212404D01*
X899208Y210369D02*
X899265Y210421D01*
X905219Y212909D02*
X905545Y213140D01*
X896250Y205350D02*
X900394Y209054D01*
X888172Y196825D02*
X891934Y201035D01*
X884504Y192235D02*
X888025Y196650D01*
X881097Y187445D02*
X884364Y192049D01*
X875121Y177339D02*
X877854Y182283D01*
X875121Y177339D02*
X875121Y177339D01*
X870308Y166613D02*
X870550Y167196D01*
X870555Y167208D02*
X872480Y171855D01*
X868736Y162138D02*
X870237Y166426D01*
X868369Y161087D02*
X868734Y162132D01*
X868369Y161086D02*
X868369Y161087D01*
X865420Y149708D02*
X866677Y155212D01*
X864468Y144138D02*
X865379Y149503D01*
X864431Y143921D02*
X864468Y144136D01*
X864431Y143921D02*
X864431Y143921D01*
X863768Y138093D02*
X864401Y143707D01*
X863432Y132226D02*
X863749Y137879D01*
X863432Y132225D02*
X863432Y132226D01*
X863386Y129242D02*
X863426Y132041D01*
X866733Y155434D02*
X868297Y160863D01*
X872562Y172038D02*
X875021Y177145D01*
X877966Y182473D02*
X880976Y187263D01*
X900394Y209054D02*
X900455Y209108D01*
X900635Y209261D02*
X905052Y212783D01*
X100300Y177540D02*
Y177700D01*
X101463Y176309D02*
Y176377D01*
X100300Y177540D02*
X101463Y176377D01*
Y176309D02*
X104010Y173761D01*
X109972D02*
X110924Y174713D01*
X104010Y173761D02*
X109972D01*
X104744Y175533D02*
X109239D01*
X110190Y176485D01*
X108800Y177600D02*
X109457Y178257D01*
X105600Y177600D02*
X108800D01*
X103234Y177042D02*
Y179666D01*
X103200Y179700D02*
X103234Y179666D01*
Y177042D02*
X104744Y175533D01*
X108000Y179733D02*
X108160D01*
X108455Y180028D01*
X188000Y170608D02*
Y170768D01*
X194299Y194202D02*
X389595D01*
X391311Y195100D02*
X408366Y178045D01*
X391201Y195100D02*
X391311D01*
X390328Y195973D02*
X391201Y195100D01*
X389595Y194202D02*
X406398Y177398D01*
X389085Y189700D02*
X398524Y180261D01*
X389085Y189700D02*
X389085D01*
X387393Y188887D02*
X388779Y187500D01*
X388779D01*
X392618Y183661D01*
X355523Y183572D02*
X358194Y180900D01*
X295600Y136358D02*
Y178208D01*
X385290Y197745D02*
X387745Y200200D01*
X359757Y184443D02*
X367243D01*
X357085Y187115D02*
X359757Y184443D01*
X367243D02*
X367426Y184626D01*
X368659D01*
X368772Y184739D01*
X358194Y180900D02*
X373628D01*
X358928Y182672D02*
X374361D01*
X356257Y185343D02*
X358928Y182672D01*
X368810Y184739D02*
X374800D01*
X382776Y176763D01*
X367887Y176411D02*
Y178687D01*
X368000Y178800D01*
X367028Y175552D02*
X367887Y176411D01*
X365451Y177251D02*
Y178833D01*
X365059Y176859D02*
X365451Y177251D01*
X240940Y203667D02*
X365162D01*
X191478Y253128D02*
X240940Y203667D01*
X240501Y201600D02*
X367000D01*
X374361Y182672D02*
X380807Y176226D01*
X373628Y180900D02*
X378839Y175689D01*
Y169144D02*
Y175689D01*
X254658Y137542D02*
Y165686D01*
X258207Y133993D02*
X264500D01*
X254658Y137542D02*
X258207Y133993D01*
X382776Y169144D02*
Y176763D01*
X380807Y169144D02*
Y176226D01*
X363090Y169144D02*
Y178591D01*
X363100Y178600D01*
X404429Y169144D02*
Y176861D01*
X406398Y169144D02*
Y177398D01*
X115157Y212992D02*
X117520Y215354D01*
X109382Y208562D02*
X111458Y210638D01*
X109382Y208551D02*
Y208562D01*
X107925Y207095D02*
X109382Y208551D01*
X105169Y207095D02*
X107925D01*
X114393Y203551D02*
X119382Y208540D01*
Y208562D01*
X121458Y210638D01*
X364000Y317600D02*
Y341860D01*
X372450Y321650D02*
Y341860D01*
X380900Y322800D02*
Y341860D01*
Y322800D02*
X385100Y318600D01*
X378800Y302800D02*
X415660D01*
X364000Y317600D02*
X378800Y302800D01*
X385100Y318600D02*
X415660D01*
X383400Y310700D02*
X415660D01*
X372450Y321650D02*
X383400Y310700D01*
X259602Y247964D02*
X362045D01*
X257551Y243012D02*
X418288D01*
X234062Y266501D02*
X257551Y243012D01*
X256817Y241240D02*
X417555D01*
X233356Y264701D02*
X256817Y241240D01*
X256083Y239468D02*
X416821D01*
X232917Y262634D02*
X256083Y239468D01*
X255349Y237697D02*
X416087D01*
X232378Y260668D02*
X255349Y237697D01*
X253780Y235925D02*
X415353D01*
X253047Y234153D02*
X414619D01*
X135231Y351969D02*
X253047Y234153D01*
X252313Y232382D02*
X413885D01*
X137600Y347094D02*
X252313Y232382D01*
X251579Y230610D02*
X413152D01*
X139989Y342200D02*
X251579Y230610D01*
X250845Y228838D02*
X412418D01*
X142589Y337094D02*
X250845Y228838D01*
X250111Y227067D02*
X411684D01*
X144978Y332200D02*
X250111Y227067D01*
X249377Y225295D02*
X410950D01*
X147578Y327095D02*
X249377Y225295D01*
X248643Y223523D02*
X410216D01*
X150267Y321900D02*
X248643Y223523D01*
X247910Y221752D02*
X409482D01*
X152567Y317094D02*
X247910Y221752D01*
X247176Y219980D02*
X408748D01*
X155156Y312000D02*
X247176Y219980D01*
X246442Y218209D02*
X408015D01*
X157556Y307095D02*
X246442Y218209D01*
X245708Y216437D02*
X407281D01*
X160045Y302100D02*
X245708Y216437D01*
X244974Y214665D02*
X406547D01*
X162545Y297094D02*
X244974Y214665D01*
X244240Y212894D02*
X405813D01*
X164734Y292400D02*
X244240Y212894D01*
X243507Y211122D02*
X405079D01*
X167534Y287094D02*
X243507Y211122D01*
X242773Y209350D02*
X404345D01*
X170023Y282100D02*
X242773Y209350D01*
X242039Y207579D02*
X403612D01*
X172523Y277095D02*
X242039Y207579D01*
X130760Y327095D02*
X147578D01*
X112720Y321900D02*
X150267D01*
X130760Y317094D02*
X152567D01*
X143472Y348739D02*
X220636Y271574D01*
X220592Y269113D02*
X223287D01*
X141700Y348006D02*
X220592Y269113D01*
X141700Y348006D02*
Y356000D01*
X112820Y312000D02*
X155156D01*
X130760Y307095D02*
X157556D01*
X113020Y332200D02*
X144978D01*
X113020Y342200D02*
X139989D01*
X130760Y337094D02*
X142589D01*
X112920Y302100D02*
X160045D01*
X267960Y343686D02*
Y345600D01*
X271391Y349031D01*
X273360Y350213D02*
Y351000D01*
X271391Y349031D02*
X272179D01*
X273360Y350213D01*
X267369Y343096D02*
X267960Y343686D01*
X264613Y343096D02*
X267369D01*
X280840Y350695D02*
Y351000D01*
Y350695D02*
X286267Y345268D01*
Y343686D02*
Y345268D01*
Y343686D02*
X286858Y343096D01*
X289613D01*
X173922Y377710D02*
Y383278D01*
X172800Y378331D02*
Y386000D01*
X170500Y388300D02*
X172800Y386000D01*
X86900Y388300D02*
X170500D01*
X236154Y146788D02*
X243112D01*
X244000Y132300D02*
Y145900D01*
X243112Y146788D02*
X244000Y145900D01*
X229400Y139100D02*
X229405Y139105D01*
X223320Y139100D02*
X229400D01*
X184996Y67104D02*
X185700Y66400D01*
X184996Y67104D02*
Y71374D01*
X184400Y71970D02*
X184996Y71374D01*
X184400Y71970D02*
Y78400D01*
X180843Y81957D02*
X184400Y78400D01*
X226700Y56040D02*
X247166D01*
X104800Y16664D02*
Y50100D01*
X106572Y15931D02*
Y49366D01*
X140934Y83728D01*
X104800Y50100D02*
X140200Y85500D01*
X236154Y105494D02*
Y113521D01*
X66842Y446658D02*
X70400Y443100D01*
X59995Y446658D02*
X66842D01*
X70400Y404800D02*
Y443100D01*
Y404800D02*
X86900Y388300D01*
X431988Y169144D02*
Y179202D01*
X407281Y216437D02*
X441831Y181887D01*
X405079Y211122D02*
X435925Y180276D01*
X404345Y209350D02*
X433957Y179739D01*
X412418Y228838D02*
X455610Y185646D01*
X447736Y169144D02*
Y183498D01*
X410216Y223523D02*
X449705Y184035D01*
X415353Y235925D02*
X463484Y187794D01*
X467421Y169144D02*
Y188868D01*
X408748Y219980D02*
X445768Y182961D01*
X439862Y169144D02*
Y181350D01*
X457579Y169144D02*
Y186183D01*
X435925Y169144D02*
Y180276D01*
X455610Y169144D02*
Y185646D01*
X413152Y230610D02*
X457579Y186183D01*
X416087Y237697D02*
X465453Y188331D01*
X409482Y221752D02*
X447736Y183498D01*
X459547Y169144D02*
Y186720D01*
X463484Y169144D02*
Y187794D01*
X433957Y169144D02*
Y179739D01*
X413885Y232382D02*
X459547Y186720D01*
X411684Y227067D02*
X453642Y185109D01*
X403612Y207579D02*
X431988Y179202D01*
X414619Y234153D02*
X461516Y187257D01*
X465453Y169144D02*
Y188331D01*
X441831Y169144D02*
Y181887D01*
X451673Y169144D02*
Y184572D01*
X443799Y169144D02*
Y182424D01*
X453642Y169144D02*
Y185109D01*
X405813Y212894D02*
X437894Y180813D01*
X471358Y169144D02*
Y189942D01*
X408015Y218209D02*
X443799Y182424D01*
X418288Y243012D02*
X471358Y189942D01*
X469390Y169144D02*
Y189405D01*
X416821Y239468D02*
X467421Y188868D01*
X445768Y169144D02*
Y182961D01*
X449705Y169144D02*
Y184035D01*
X417555Y241240D02*
X469390Y189405D01*
X410950Y225295D02*
X451673Y184572D01*
X461516Y169144D02*
Y187257D01*
X406547Y214665D02*
X439862Y181350D01*
X437894Y169144D02*
Y180813D01*
X432255Y54134D02*
X438289Y48100D01*
X247166Y56040D02*
X249072Y54134D01*
X169547Y66853D02*
Y71823D01*
X169500Y71870D02*
X169547Y71823D01*
X174500Y66300D02*
Y71870D01*
Y77100D01*
X173187Y78413D02*
X174500Y77100D01*
X154200Y72840D02*
Y77722D01*
X138800Y72840D02*
Y79000D01*
X141757Y81957D01*
X168909Y72840D02*
X169500Y72250D01*
Y71870D02*
Y72250D01*
X161900Y72840D02*
X168909D01*
X189500Y71870D02*
Y79500D01*
X58740Y15972D02*
X104108D01*
X104800Y16664D01*
X194500Y71870D02*
Y79200D01*
X85595Y12253D02*
X102895D01*
X83631D02*
X85595D01*
X87050Y69811D02*
X93405Y76166D01*
X70811Y69811D02*
X87050D01*
X67637Y66637D02*
X70811Y69811D01*
X67637Y36700D02*
Y66637D01*
X43698Y28702D02*
Y32702D01*
X35900Y40500D02*
X43698Y32702D01*
X35900Y40500D02*
Y40500D01*
X41927Y20303D02*
Y31773D01*
X32600Y41100D02*
X41927Y31773D01*
X54700Y71583D02*
X86317D01*
X91634Y76900D01*
X59800Y36737D02*
Y61483D01*
X59700Y61583D02*
X59800Y61483D01*
X37400Y76300D02*
X39700Y74000D01*
Y61583D02*
Y74000D01*
X32200Y76300D02*
X37400D01*
X30000Y74100D02*
X32200Y76300D01*
X30000Y68800D02*
Y74100D01*
Y68800D02*
X32600Y66200D01*
Y41100D02*
Y66200D01*
X34700Y41700D02*
Y71583D01*
X64745Y21315D02*
Y22655D01*
X46400Y26000D02*
X61400D01*
X64745Y21315D02*
X66151Y19909D01*
X61400Y26000D02*
X64745Y22655D01*
X66151Y19909D02*
X75145D01*
X43698Y28702D02*
X46400Y26000D01*
X83040Y11663D02*
X83631Y12253D01*
X83040Y10876D02*
Y11663D01*
X67637Y36700D02*
X76463D01*
X59763D02*
X59800Y36737D01*
X34700Y41700D02*
X35900Y40500D01*
X41927Y20303D02*
X51260D01*
X257900Y81330D02*
Y84086D01*
X284973Y134702D02*
Y152241D01*
X62598Y168307D02*
X81201D01*
X75145Y19909D02*
X75560Y20324D01*
X102895Y12253D02*
X106572Y15931D01*
X212435Y142654D02*
X216689Y138400D01*
X212435Y142654D02*
Y143048D01*
X229405Y139105D02*
X236148D01*
X236154Y139111D01*
X252725Y128875D02*
X264500D01*
X252500Y129100D02*
X252725Y128875D01*
X266272Y113324D02*
X268076D01*
X264697D02*
X266272D01*
Y111488D02*
Y113324D01*
X266600Y111000D02*
Y111160D01*
X266272Y111488D02*
X266600Y111160D01*
X268076Y113324D02*
X270400Y111000D01*
X136834Y363372D02*
X143472Y356734D01*
Y348739D02*
Y356734D01*
X136100Y361600D02*
X141700Y356000D01*
X94966Y363372D02*
X136834D01*
X95700Y361600D02*
X136100D01*
X83040Y20324D02*
Y23960D01*
X263369Y107171D02*
X265540Y105000D01*
X109382Y338562D02*
X113020Y342200D01*
X109382Y328562D02*
X113020Y332200D01*
X109382Y278562D02*
X112920Y282100D01*
X170023D01*
X113220Y292400D02*
X164734D01*
X109382Y288562D02*
X113220Y292400D01*
X109382Y298562D02*
X112920Y302100D01*
X109382Y308562D02*
X112820Y312000D01*
X109382Y318562D02*
X112720Y321900D01*
X236188Y131400D02*
X243100D01*
X236154Y131434D02*
X236188Y131400D01*
X243100D02*
X244000Y132300D01*
X296358Y337600D02*
X303242D01*
X294358Y335600D02*
X296358Y337600D01*
X259400Y335600D02*
X294358D01*
X258283Y249283D02*
X259602Y247964D01*
X258283Y249283D02*
Y249283D01*
X229172Y278395D02*
X258283Y249283D01*
X246980Y98875D02*
Y114309D01*
X248752Y99609D02*
Y115043D01*
X362340Y248260D02*
X362500D01*
X362045Y247964D02*
X362340Y248260D01*
X269353Y298553D02*
X275627Y304827D01*
Y315900D01*
X273427Y318100D02*
X275627Y315900D01*
X264618Y318100D02*
X273427D01*
X280800D02*
X289609D01*
X289613Y318095D01*
X278600Y315900D02*
X280800Y318100D01*
X278600Y304827D02*
Y315900D01*
X284874Y293632D02*
Y298553D01*
X278600Y304827D02*
X284874Y298553D01*
X292158Y308095D02*
X292748Y307505D01*
Y293632D02*
Y307505D01*
X289613Y308095D02*
X292158D01*
X261858D02*
X264613D01*
X261252Y293632D02*
Y307490D01*
X261858Y308095D01*
X225628Y275972D02*
Y329928D01*
Y275972D02*
X229700Y271900D01*
X227400Y277244D02*
X232895Y271749D01*
X227400Y277244D02*
Y323700D01*
X229172Y278395D02*
Y318666D01*
X233300Y329600D02*
X257100D01*
X227400Y323700D02*
X233300Y329600D01*
X225628Y329928D02*
X237040Y341340D01*
X244500D01*
X229172Y318666D02*
X235306Y324800D01*
X244860D01*
X258100Y330600D02*
Y334300D01*
X257100Y329600D02*
X258100Y330600D01*
Y334300D02*
X259400Y335600D01*
X303242Y337600D02*
X304003Y338361D01*
Y338537D01*
X306806Y341340D01*
X307200D01*
X299800Y333860D02*
X307200D01*
X307200Y333860D01*
X295767Y340068D02*
X298527D01*
X289613Y338095D02*
X290153Y338635D01*
X298527Y340068D02*
X299800Y341340D01*
X290153Y338635D02*
X294335D01*
X295767Y340068D01*
X223287Y269113D02*
X223400Y269000D01*
X220894Y271574D02*
X221189Y271279D01*
X220636Y271574D02*
X220894D01*
X221189Y271279D02*
X221349D01*
X224833Y266501D02*
X234062D01*
X224812Y266480D02*
X224833Y266501D01*
X223800Y266367D02*
X223913Y266480D01*
X224812D01*
X226633Y264701D02*
X233356D01*
X226478Y264547D02*
X226633Y264701D01*
X225802Y264547D02*
X226478D01*
X225689Y264434D02*
X225802Y264547D01*
X227489Y262634D02*
X232917D01*
X229656Y260668D02*
X232378D01*
X229556Y260567D02*
X229656Y260668D01*
X231313Y258392D02*
X253780Y235925D01*
X109382Y248562D02*
X112920Y252100D01*
X182133Y264233D02*
X182200Y264300D01*
X179444Y264233D02*
X182133D01*
X130760Y267094D02*
X176583D01*
X179444Y264233D01*
X112867Y272047D02*
X174553D01*
X180300Y266300D01*
X113024Y262205D02*
X184395D01*
X184400Y262200D01*
X90772Y253272D02*
Y356672D01*
X95700Y361600D01*
X89000Y357405D02*
X94966Y363372D01*
X112788Y351969D02*
X135231D01*
X130760Y347094D02*
X137600D01*
X130760Y287094D02*
X167534D01*
X130760Y297094D02*
X162545D01*
X130760Y277095D02*
X172523D01*
X244778Y324882D02*
X244860Y324800D01*
X109382Y348562D02*
X112788Y351969D01*
X295600Y136358D02*
X295603Y136355D01*
X58740Y15972D02*
Y20724D01*
Y11276D02*
Y15972D01*
X408366Y169144D02*
Y178045D01*
X284875Y134603D02*
X284973Y134702D01*
X293851Y134603D02*
X295603Y136355D01*
X284875Y134603D02*
X293851D01*
X284875Y125784D02*
X294363D01*
X295603Y124544D01*
X979774Y279345D02*
X979900Y279471D01*
X979926Y279445D01*
X260465Y171493D02*
Y171887D01*
X254658Y165686D02*
X260465Y171493D01*
X238910Y170114D02*
X246882D01*
X248654Y171887D01*
X219816D02*
X221589Y170114D01*
X238910D01*
X259579Y136552D02*
X264500D01*
X257316Y138816D02*
X259579Y136552D01*
X257316Y155253D02*
X260465Y158402D01*
X257316Y138816D02*
Y155253D01*
X243830Y163226D02*
X244914Y162143D01*
X245308D01*
X248654Y158796D01*
Y158402D02*
Y158796D01*
X220799Y163226D02*
X231233D01*
X219816Y164209D02*
X220799Y163226D01*
X231233D02*
X243830D01*
X273851Y161060D02*
X277689D01*
X272276Y159485D02*
X273851Y161060D01*
X270013Y144229D02*
X272276Y146493D01*
Y159485D01*
X264500Y144229D02*
X270013D01*
X275426Y163716D02*
Y171887D01*
X277689Y161060D02*
Y161453D01*
X275426Y163716D02*
X277689Y161453D01*
X109382Y268562D02*
X112867Y272047D01*
X107925Y267094D02*
X109382Y268551D01*
Y268562D01*
X105169Y267094D02*
X107925D01*
X109382Y258562D02*
X113024Y262205D01*
X107925Y257095D02*
X109382Y258551D01*
Y258562D01*
X105169Y257095D02*
X107925D01*
X109382Y248551D02*
Y248562D01*
X107925Y247094D02*
X109382Y248551D01*
X105169Y247094D02*
X107925D01*
X109382Y348551D02*
Y348562D01*
X105169Y347094D02*
X107925D01*
X109382Y348551D01*
Y338551D02*
Y338562D01*
X105169Y337094D02*
X107925D01*
X109382Y338551D01*
Y328551D02*
Y328562D01*
X105169Y327095D02*
X107925D01*
X109382Y328551D01*
Y318551D02*
Y318562D01*
X105169Y317094D02*
X107925D01*
X109382Y318551D01*
Y308551D02*
Y308562D01*
X105169Y307095D02*
X107925D01*
X109382Y308551D01*
Y298551D02*
Y298562D01*
X105169Y297094D02*
X107925D01*
X109382Y298551D01*
Y288551D02*
Y288562D01*
X105169Y287094D02*
X107925D01*
X109382Y288551D01*
Y278551D02*
Y278562D01*
X105169Y277095D02*
X107925D01*
X109382Y278551D01*
X277493Y116965D02*
Y117359D01*
X264697Y131237D02*
X268930D01*
X264500Y131434D02*
X264697Y131237D01*
X277395Y125784D02*
Y126178D01*
X264500Y139111D02*
X269225D01*
X264500Y141670D02*
X270721D01*
X277395Y134603D02*
Y134997D01*
X270721Y141670D02*
X277395Y134997D01*
X250523Y100343D02*
Y115777D01*
X252295Y101077D02*
Y116511D01*
X254066Y101811D02*
Y116079D01*
X376870Y122137D02*
Y169144D01*
X242490Y126316D02*
X252295Y116511D01*
X236154Y118639D02*
X242650D01*
X246980Y114309D01*
X374902Y122674D02*
Y169144D01*
X236154Y121198D02*
X242597D01*
X248752Y115043D01*
X372933Y123211D02*
Y169144D01*
X242543Y123757D02*
X250523Y115777D01*
X370965Y123748D02*
Y169144D01*
X236154Y126316D02*
X242490D01*
X368996Y124285D02*
Y169144D01*
X392618D02*
Y183661D01*
X398524Y169144D02*
Y180261D01*
X117520Y215354D02*
Y218898D01*
X124232Y220866D02*
X128004Y217094D01*
X119488Y220866D02*
X124232D01*
X128004Y217094D02*
X130760D01*
X117520Y218898D02*
X119488Y220866D01*
X16929Y168307D02*
X31890D01*
X14764Y166142D02*
X16929Y168307D01*
X14764Y166142D02*
Y166240D01*
X219915Y143442D02*
X222079Y145606D01*
X229511Y146788D02*
X236154D01*
X225771Y143048D02*
X229511Y146788D01*
X219915Y143048D02*
X225771D01*
X263369Y107171D02*
Y109777D01*
X259973Y110469D02*
X262677D01*
X263369Y109777D01*
X258694Y111749D02*
X259973Y110469D01*
X258694Y111749D02*
Y114997D01*
X259776Y116079D01*
X264500D01*
D32*
X274663Y54134D02*
X296126D01*
X249072D02*
X274663D01*
X137796Y128769D02*
X139371Y127194D01*
X135109Y128769D02*
X137796D01*
X132378Y131500D02*
X135109Y128769D01*
X130016Y131500D02*
X132378D01*
X139371Y126800D02*
Y127194D01*
X264613Y323096D02*
X277113D01*
X264613Y333096D02*
X270009D01*
X252352Y317694D02*
X253926Y319268D01*
X296947Y328095D02*
X299848Y325194D01*
X277113Y323096D02*
X289613D01*
X277113D02*
Y331387D01*
X255768Y319268D02*
X257597Y321097D01*
X299848Y324671D02*
Y325194D01*
X264444Y322926D02*
X264613Y323096D01*
X289613Y328095D02*
X296947D01*
X253926Y319268D02*
X255768D01*
X252352Y317300D02*
Y317694D01*
X257597Y321097D02*
X259426Y322926D01*
X275404Y333096D02*
X277113Y331387D01*
X270009Y333096D02*
X275404D01*
X298274Y323096D02*
X299848Y324671D01*
X259426Y322926D02*
X264444D01*
X289613Y323096D02*
X298274D01*
X299848Y317300D02*
Y324671D01*
X133300Y66000D02*
X138160D01*
X130500D02*
X133300D01*
X126268D02*
X130500D01*
X108737Y14737D02*
Y48469D01*
X126268Y66000D01*
X485461Y54134D02*
X511052D01*
X540840Y54300D02*
X564091D01*
X921518Y308520D02*
X947882D01*
X955315Y315953D01*
X138160Y66000D02*
X138800Y65360D01*
X564091Y54300D02*
X564258Y54134D01*
X533194D02*
X533360Y54300D01*
X511052Y54134D02*
X533194D01*
X540840Y45200D02*
Y54300D01*
X461540Y54000D02*
X485327D01*
X485461Y54134D01*
X303740Y53900D02*
Y54000D01*
X327635Y53900D02*
X327868Y54134D01*
X303740Y53900D02*
X327635D01*
X296126Y54134D02*
X296260Y54000D01*
X564258Y54134D02*
X589848D01*
X406665D02*
X432255D01*
X327868D02*
X353459D01*
X170276D02*
X195866D01*
X211600Y48700D02*
X226560D01*
X226700Y48560D01*
X195866Y54134D02*
X206166D01*
X211600Y48700D01*
X721850Y54134D02*
X747441D01*
X721676Y53960D02*
X721850Y54134D01*
X705600Y53960D02*
X721676D01*
X680907Y54047D02*
X680994Y53960D01*
X668645Y54134D02*
X668732Y54047D01*
X680907D01*
X643054Y54134D02*
X668645D01*
X154200Y65360D02*
X161900D01*
X146500D02*
X154200D01*
X138800D02*
X146500D01*
X101300Y7300D02*
X108737Y14737D01*
X680994Y53960D02*
X689261D01*
X75560Y7300D02*
X101300D01*
X75560D02*
Y10876D01*
X66600Y7300D02*
X75560D01*
X51260D02*
X66600D01*
X47548D02*
X51260D01*
X42419Y12429D02*
X47548Y7300D01*
X66600D02*
Y12063D01*
X51260Y7300D02*
Y11276D01*
X41927Y12429D02*
X42419D01*
X364000Y349340D02*
Y354000D01*
X372450Y349340D02*
X380900D01*
X364000D02*
X372450D01*
X916400Y316000D02*
X921518D01*
X911282D02*
X916400D01*
X697529Y53960D02*
X705600D01*
D34*
X47244Y295276D02*
D03*
Y240158D02*
D03*
Y185039D02*
D03*
D35*
X31890Y278543D02*
D03*
X37402Y292323D02*
D03*
X57087D02*
D03*
X62598Y278543D02*
D03*
X47244Y275590D02*
D03*
X31890Y223425D02*
D03*
X37402Y237205D02*
D03*
X57087D02*
D03*
X62598Y223425D02*
D03*
X47244Y220472D02*
D03*
X31890Y168307D02*
D03*
X37402Y182087D02*
D03*
X57087D02*
D03*
X62598Y168307D02*
D03*
X47244Y165354D02*
D03*
D36*
X351008Y382839D02*
D03*
Y430903D02*
D03*
X207450D02*
D03*
X351008Y478968D02*
D03*
X207450D02*
D03*
Y382839D02*
D03*
D37*
X269791Y474094D02*
D03*
Y417574D02*
D03*
D38*
X221820Y495306D02*
D03*
X337032D02*
D03*
X221820Y366500D02*
D03*
X337032D02*
D03*
D39*
X1084291Y409882D02*
D03*
X1049646D02*
D03*
X852106D02*
D03*
X886752D02*
D03*
D40*
X1066969Y382323D02*
D03*
X1057126D02*
D03*
X1076811D02*
D03*
X879272D02*
D03*
X859587D02*
D03*
X869429D02*
D03*
X59995Y446658D02*
D03*
X59996Y428942D02*
D03*
X34404D02*
D03*
X747441Y54134D02*
D03*
X747441Y36417D02*
D03*
X721850D02*
D03*
X668645Y54134D02*
D03*
X668645Y36417D02*
D03*
X643054D02*
D03*
X589848Y54134D02*
D03*
X589849Y36417D02*
D03*
X564257D02*
D03*
X511052Y54134D02*
D03*
X511052Y36417D02*
D03*
X485461D02*
D03*
X432255Y54134D02*
D03*
X432256Y36417D02*
D03*
X406664D02*
D03*
X327868D02*
D03*
X353459D02*
D03*
X353459Y54134D02*
D03*
X249072Y36417D02*
D03*
X274663D02*
D03*
X274663Y54134D02*
D03*
X170275Y36417D02*
D03*
X195867D02*
D03*
X195866Y54134D02*
D03*
X856692Y298236D02*
D03*
X882284D02*
D03*
X882283Y315953D02*
D03*
X1079823D02*
D03*
X1079823Y298236D02*
D03*
X1054232D02*
D03*
X980905Y315953D02*
D03*
X980906Y298236D02*
D03*
X955315D02*
D03*
D41*
X34405Y446658D02*
D03*
X721850Y54134D02*
D03*
X643054D02*
D03*
X564258D02*
D03*
X485461D02*
D03*
X406665D02*
D03*
X327868D02*
D03*
X249072D02*
D03*
X170276D02*
D03*
X856693Y315953D02*
D03*
X1054232D02*
D03*
X955315D02*
D03*
D42*
X47200Y421658D02*
D03*
X734646Y29134D02*
D03*
X655849D02*
D03*
X577053D02*
D03*
X498256D02*
D03*
X419460D02*
D03*
X340664D02*
D03*
X261867D02*
D03*
X183071D02*
D03*
X869488Y290953D02*
D03*
X1067027D02*
D03*
X968110D02*
D03*
D43*
X67200Y96583D02*
D03*
X27200D02*
D03*
D44*
X34700Y71583D02*
D03*
X39700Y61583D02*
D03*
X44700Y71583D02*
D03*
X49700Y61583D02*
D03*
X54700Y71583D02*
D03*
X59700Y61583D02*
D03*
D45*
X112925Y357095D02*
D03*
X122925D02*
D03*
X112925Y347094D02*
D03*
X122925D02*
D03*
X112925Y337094D02*
D03*
X122925D02*
D03*
X112925Y327095D02*
D03*
X122925D02*
D03*
X112925Y317094D02*
D03*
X122925D02*
D03*
X112925Y307095D02*
D03*
X122925D02*
D03*
X112925Y297094D02*
D03*
X122925D02*
D03*
X112925Y287094D02*
D03*
X122925D02*
D03*
X112925Y277095D02*
D03*
X122925D02*
D03*
X112925Y267094D02*
D03*
X122925D02*
D03*
X112925Y257095D02*
D03*
X122925D02*
D03*
X112925Y247094D02*
D03*
X122925D02*
D03*
X112925Y237094D02*
D03*
X122925D02*
D03*
X112925Y227095D02*
D03*
Y217094D02*
D03*
X122925D02*
D03*
X112925Y207095D02*
D03*
X122925D02*
D03*
X112925Y197095D02*
D03*
X122925D02*
D03*
Y227095D02*
D03*
X324600Y495306D02*
D03*
X258245D02*
D03*
X284787D02*
D03*
X271516D02*
D03*
X298058D02*
D03*
X311329D02*
D03*
X271516Y366500D02*
D03*
X284787D02*
D03*
X298058D02*
D03*
X258245D02*
D03*
X324600D02*
D03*
X311329D02*
D03*
D46*
X119409Y462598D02*
D03*
X804961D02*
D03*
Y92244D02*
D03*
X121417Y92126D02*
D03*
X15800Y264900D02*
D03*
X1086600D02*
D03*
X851200Y488200D02*
D03*
Y264900D02*
D03*
X458900Y15800D02*
D03*
X300500D02*
D03*
X617300D02*
D03*
X851200D02*
D03*
X15800D02*
D03*
Y488200D02*
D03*
X1086600D02*
D03*
D47*
X958346Y439882D02*
D03*
X967953Y439872D02*
D03*
X978347Y439882D02*
D03*
X958346Y382382D02*
D03*
X978347D02*
D03*
D48*
X943937Y409882D02*
D03*
X991969D02*
D03*
D49*
X318850Y104000D02*
D03*
X221800Y89300D02*
D03*
X111800Y170500D02*
D03*
X101400D02*
D03*
X288200Y117100D02*
D03*
X290000Y178000D02*
D03*
X235300Y150700D02*
D03*
X223900Y158700D02*
D03*
X227000Y150600D02*
D03*
X216900Y120300D02*
D03*
X196700Y120400D02*
D03*
X194500Y85700D02*
D03*
X198000Y80800D02*
D03*
X215000Y74600D02*
D03*
X242500Y99900D02*
D03*
X208600D02*
D03*
X222000D02*
D03*
X194500D02*
D03*
X228870Y105056D02*
D03*
X229300Y120600D02*
D03*
X211400Y111600D02*
D03*
X268100Y177900D02*
D03*
X261500Y149400D02*
D03*
X249200Y129600D02*
D03*
X255500Y131600D02*
D03*
X277700Y148100D02*
D03*
X249200Y140900D02*
D03*
X88600Y234200D02*
D03*
Y244400D02*
D03*
X73100D02*
D03*
X63900D02*
D03*
X419894Y78960D02*
D03*
X415367Y83487D02*
D03*
X891600Y238800D02*
D03*
Y233600D02*
D03*
X99200Y175100D02*
D03*
X911000Y233600D02*
D03*
Y243800D02*
D03*
X142900Y245900D02*
D03*
X146500Y207800D02*
D03*
Y212300D02*
D03*
Y216800D02*
D03*
Y221300D02*
D03*
Y225800D02*
D03*
Y234800D02*
D03*
Y230300D02*
D03*
X139300Y243800D02*
D03*
Y230000D02*
D03*
Y234500D02*
D03*
Y239200D02*
D03*
X142900Y232400D02*
D03*
Y236900D02*
D03*
Y241400D02*
D03*
X183356Y197943D02*
D03*
X185700Y197649D02*
D03*
X190200D02*
D03*
X183295Y195582D02*
D03*
X179000Y197353D02*
D03*
X180933Y195582D02*
D03*
X179100Y186100D02*
D03*
X180700Y183900D02*
D03*
X369000Y204900D02*
D03*
X100300Y177700D02*
D03*
X103200Y179700D02*
D03*
X105600Y177600D02*
D03*
X108000Y179733D02*
D03*
X393642Y197942D02*
D03*
X388508Y198040D02*
D03*
X368772Y184739D02*
D03*
X368000Y178800D02*
D03*
X365451Y178833D02*
D03*
X365162Y203667D02*
D03*
X367000Y201600D02*
D03*
X361000Y186510D02*
D03*
X363100Y178600D02*
D03*
X349700Y336700D02*
D03*
X353003Y250031D02*
D03*
X169500Y332100D02*
D03*
X203000Y160000D02*
D03*
X202900Y144800D02*
D03*
X249200Y150600D02*
D03*
X222100Y147500D02*
D03*
X229400Y139100D02*
D03*
X285700Y422030D02*
D03*
X321691Y416500D02*
D03*
X328218D02*
D03*
X298331Y430830D02*
D03*
X324954Y416500D02*
D03*
X331481D02*
D03*
X322117Y425900D02*
D03*
X331908D02*
D03*
X328644D02*
D03*
X325381D02*
D03*
X253691Y419680D02*
D03*
X285491Y476200D02*
D03*
X285991Y428200D02*
D03*
X253691Y417318D02*
D03*
Y471300D02*
D03*
Y476200D02*
D03*
X285891Y480500D02*
D03*
X302891Y481900D02*
D03*
X130500Y66000D02*
D03*
X133300D02*
D03*
X55100Y23900D02*
D03*
X85595Y12253D02*
D03*
X270500Y313000D02*
D03*
X283700D02*
D03*
X268100Y163000D02*
D03*
X229300Y111700D02*
D03*
X260800Y99900D02*
D03*
X266600Y111000D02*
D03*
X270400D02*
D03*
X330175Y104000D02*
D03*
X341500D02*
D03*
X291300Y165000D02*
D03*
X291400Y144400D02*
D03*
X204800Y177800D02*
D03*
X226300D02*
D03*
X235000Y177700D02*
D03*
X267400Y149400D02*
D03*
X140100Y193300D02*
D03*
Y198800D02*
D03*
X145100Y193300D02*
D03*
X282000Y327100D02*
D03*
X138500Y353600D02*
D03*
X137000Y355500D02*
D03*
X83040Y23960D02*
D03*
X257600Y347900D02*
D03*
X271400Y105000D02*
D03*
X364000Y354000D02*
D03*
X268000Y251200D02*
D03*
X264700D02*
D03*
X261100D02*
D03*
X257597Y321097D02*
D03*
X270009Y333096D02*
D03*
X295400Y328100D02*
D03*
Y323100D02*
D03*
X119450Y127300D02*
D03*
X123000D02*
D03*
X115900D02*
D03*
X118600Y169400D02*
D03*
Y172500D02*
D03*
X94200Y348300D02*
D03*
Y351600D02*
D03*
Y354800D02*
D03*
X362500Y248260D02*
D03*
X376224Y245079D02*
D03*
X373862D02*
D03*
X371500D02*
D03*
X369138D02*
D03*
X232895Y271749D02*
D03*
X229700Y271900D02*
D03*
X223400Y269000D02*
D03*
X221349Y271279D02*
D03*
X223800Y266367D02*
D03*
X225689Y264434D02*
D03*
X227489Y262634D02*
D03*
X229556Y260567D02*
D03*
X231522Y258601D02*
D03*
X188100Y258400D02*
D03*
X186200Y260300D02*
D03*
X180300Y266300D02*
D03*
X182200Y264300D02*
D03*
X184400Y262200D02*
D03*
X400105Y205512D02*
D03*
X916400Y316000D02*
D03*
X402467Y205499D02*
D03*
D50*
X310553Y124557D02*
D03*
X334175Y140305D02*
D03*
X342049Y124557D02*
D03*
X326301D02*
D03*
X318427Y77313D02*
D03*
X223939D02*
D03*
X1042837Y486762D02*
D03*
X1034963Y471014D02*
D03*
X1042837Y455266D02*
D03*
X1034963Y439518D02*
D03*
X1042837Y423770D02*
D03*
X1034963Y408022D02*
D03*
Y376526D02*
D03*
X1042837Y360778D02*
D03*
X1034963Y345030D02*
D03*
X1042837Y329282D02*
D03*
Y297786D02*
D03*
X1034963Y282038D02*
D03*
X1042837Y266290D02*
D03*
X1027089Y486762D02*
D03*
X1019215Y471014D02*
D03*
X1027089Y455266D02*
D03*
X1019215Y439518D02*
D03*
X1027089Y423770D02*
D03*
X1019215Y408022D02*
D03*
Y376526D02*
D03*
X1027089Y360778D02*
D03*
X1019215Y345030D02*
D03*
X1027089Y329282D02*
D03*
Y297786D02*
D03*
X1019215Y282038D02*
D03*
X1027089Y266290D02*
D03*
X1011341Y486762D02*
D03*
X1003467Y471014D02*
D03*
X1011341Y455266D02*
D03*
X1003467Y439518D02*
D03*
X1011341Y423770D02*
D03*
X1003467Y408022D02*
D03*
Y376526D02*
D03*
X1011341Y360778D02*
D03*
X1003467Y345030D02*
D03*
X1011341Y329282D02*
D03*
Y297786D02*
D03*
X1003467Y282038D02*
D03*
X1011341Y266290D02*
D03*
X995593Y486762D02*
D03*
X987719Y471014D02*
D03*
X995593Y455266D02*
D03*
X987719Y439518D02*
D03*
X995593Y423770D02*
D03*
X987719Y376526D02*
D03*
X995593Y360778D02*
D03*
X987719Y345030D02*
D03*
X995593Y329282D02*
D03*
Y297786D02*
D03*
X987719Y282038D02*
D03*
X995593Y266290D02*
D03*
X979845Y486762D02*
D03*
X971971Y471014D02*
D03*
X979845Y455266D02*
D03*
X971971Y408022D02*
D03*
Y376526D02*
D03*
Y345030D02*
D03*
X964097Y486762D02*
D03*
X956223Y471014D02*
D03*
X964097Y423770D02*
D03*
X956223Y408022D02*
D03*
X964097Y360778D02*
D03*
X956223Y345030D02*
D03*
X964097Y329282D02*
D03*
Y297786D02*
D03*
X948349Y486762D02*
D03*
X940475Y471014D02*
D03*
Y439518D02*
D03*
X948349Y423770D02*
D03*
X940475Y376526D02*
D03*
X948349Y360778D02*
D03*
X940475Y345030D02*
D03*
X948349Y329282D02*
D03*
X940475Y282038D02*
D03*
X948349Y266290D02*
D03*
X932601Y486762D02*
D03*
X924727Y471014D02*
D03*
Y439518D02*
D03*
X932601Y423770D02*
D03*
X924727Y408022D02*
D03*
X932601Y360778D02*
D03*
Y329282D02*
D03*
Y297786D02*
D03*
X924727Y282038D02*
D03*
X932601Y266290D02*
D03*
X916852Y486762D02*
D03*
X908978Y471014D02*
D03*
Y439518D02*
D03*
X916852Y423770D02*
D03*
X908978Y408022D02*
D03*
X916852Y266290D02*
D03*
X901105Y486762D02*
D03*
X893231Y471014D02*
D03*
Y439518D02*
D03*
X901105Y423770D02*
D03*
X893231Y345030D02*
D03*
Y282038D02*
D03*
X885357Y486762D02*
D03*
X877483Y471014D02*
D03*
Y439518D02*
D03*
X885357Y423770D02*
D03*
X877483Y408022D02*
D03*
X885357Y360778D02*
D03*
X877483Y345030D02*
D03*
X885357Y329282D02*
D03*
X877483Y282038D02*
D03*
X885357Y266290D02*
D03*
X877483Y250542D02*
D03*
X869608Y486762D02*
D03*
X861734Y471014D02*
D03*
Y439518D02*
D03*
X869608Y423770D02*
D03*
X861734Y408022D02*
D03*
X869608Y360778D02*
D03*
X861734Y345030D02*
D03*
X869608Y329282D02*
D03*
Y297786D02*
D03*
X861734Y282038D02*
D03*
X869608Y266290D02*
D03*
X861734Y250542D02*
D03*
X845986Y471014D02*
D03*
X853860Y455266D02*
D03*
Y423770D02*
D03*
Y392274D02*
D03*
Y360778D02*
D03*
X845986Y345030D02*
D03*
X853860Y329282D02*
D03*
X845986Y313534D02*
D03*
Y282038D02*
D03*
Y250542D02*
D03*
X853860Y234794D02*
D03*
X830238Y471014D02*
D03*
X838112Y455266D02*
D03*
X830238Y439518D02*
D03*
X838112Y423770D02*
D03*
X830238Y408022D02*
D03*
X838112Y392274D02*
D03*
X830238Y376526D02*
D03*
X838112Y360778D02*
D03*
X830238Y345030D02*
D03*
X838112Y329282D02*
D03*
X830238Y313534D02*
D03*
X838112Y297786D02*
D03*
X830238Y282038D02*
D03*
Y250542D02*
D03*
X838112Y234794D02*
D03*
X830238Y219046D02*
D03*
X822364Y486762D02*
D03*
Y455266D02*
D03*
X814490Y439518D02*
D03*
X822364Y423770D02*
D03*
X814490Y408022D02*
D03*
X822364Y392274D02*
D03*
X814490Y376526D02*
D03*
X822364Y360778D02*
D03*
X814490Y345030D02*
D03*
X822364Y329282D02*
D03*
X814490Y313534D02*
D03*
X822364Y297786D02*
D03*
X814490Y282038D02*
D03*
X822364Y266290D02*
D03*
X814490Y250542D02*
D03*
X822364Y234794D02*
D03*
X814490Y219046D02*
D03*
X822364Y203298D02*
D03*
X814490Y187550D02*
D03*
Y156053D02*
D03*
Y124557D02*
D03*
X806616Y486762D02*
D03*
X798742Y439518D02*
D03*
X806616Y423770D02*
D03*
X798742Y408022D02*
D03*
X806616Y392274D02*
D03*
X798742Y376526D02*
D03*
X806616Y360778D02*
D03*
X798742Y345030D02*
D03*
X806616Y329282D02*
D03*
X798742Y313534D02*
D03*
X806616Y297786D02*
D03*
X798742Y282038D02*
D03*
X806616Y266290D02*
D03*
X798742Y250542D02*
D03*
X806616Y234794D02*
D03*
X798742Y219046D02*
D03*
X806616Y203298D02*
D03*
X798742Y187550D02*
D03*
X806616Y171801D02*
D03*
X798742Y156053D02*
D03*
X806616Y140305D02*
D03*
X798742Y124557D02*
D03*
X806616Y108809D02*
D03*
Y77313D02*
D03*
X798742Y30069D02*
D03*
X790868Y486762D02*
D03*
X782994Y471014D02*
D03*
X790868Y455266D02*
D03*
X782994Y439518D02*
D03*
X790868Y423770D02*
D03*
X782994Y408022D02*
D03*
X790868Y392274D02*
D03*
X782994Y376526D02*
D03*
X790868Y360778D02*
D03*
X782994Y345030D02*
D03*
X790868Y329282D02*
D03*
X782994Y313534D02*
D03*
X790868Y297786D02*
D03*
X782994Y282038D02*
D03*
X790868Y266290D02*
D03*
X782994Y250542D02*
D03*
X790868Y234794D02*
D03*
X782994Y219046D02*
D03*
X790868Y203298D02*
D03*
X782994Y187550D02*
D03*
X790868Y171801D02*
D03*
X782994Y156053D02*
D03*
X790868Y140305D02*
D03*
X782994Y124557D02*
D03*
X790868Y108809D02*
D03*
X782994Y93061D02*
D03*
X790868Y77313D02*
D03*
X782994Y30069D02*
D03*
X775120Y486762D02*
D03*
X767246Y471014D02*
D03*
X775120Y455266D02*
D03*
X767246Y439518D02*
D03*
X775120Y423770D02*
D03*
X767246Y408022D02*
D03*
X775120Y392274D02*
D03*
X767246Y376526D02*
D03*
X775120Y360778D02*
D03*
X767246Y345030D02*
D03*
X775120Y329282D02*
D03*
X767246Y313534D02*
D03*
X775120Y297786D02*
D03*
X767246Y282038D02*
D03*
X775120Y266290D02*
D03*
X767246Y250542D02*
D03*
X775120Y234794D02*
D03*
X767246Y219046D02*
D03*
X775120Y203298D02*
D03*
X767246Y187550D02*
D03*
X775120Y171801D02*
D03*
X767246Y156053D02*
D03*
X775120Y140305D02*
D03*
X767246Y124557D02*
D03*
X775120Y108809D02*
D03*
X767246Y93061D02*
D03*
X775120Y77313D02*
D03*
X767246Y30069D02*
D03*
X759372Y486762D02*
D03*
X751498Y471014D02*
D03*
X759372Y455266D02*
D03*
X751498Y439518D02*
D03*
X759372Y423770D02*
D03*
X751498Y408022D02*
D03*
X759372Y392274D02*
D03*
X751498Y376526D02*
D03*
X759372Y360778D02*
D03*
X751498Y345030D02*
D03*
X759372Y329282D02*
D03*
X751498Y313534D02*
D03*
X759372Y297786D02*
D03*
X751498Y282038D02*
D03*
X759372Y266290D02*
D03*
X751498Y250542D02*
D03*
X759372Y234794D02*
D03*
X751498Y219046D02*
D03*
X759372Y203298D02*
D03*
X751498Y187550D02*
D03*
X759372Y171801D02*
D03*
X751498Y156053D02*
D03*
X759372Y140305D02*
D03*
X751498Y124557D02*
D03*
X759372Y108809D02*
D03*
X751498Y93061D02*
D03*
X759372Y45817D02*
D03*
X751498Y30069D02*
D03*
X743624Y486762D02*
D03*
X735750Y471014D02*
D03*
X743624Y455266D02*
D03*
X735750Y439518D02*
D03*
X743624Y423770D02*
D03*
X735750Y408022D02*
D03*
X743624Y392274D02*
D03*
X735750Y376526D02*
D03*
X743624Y360778D02*
D03*
X735750Y345030D02*
D03*
X743624Y329282D02*
D03*
X735750Y313534D02*
D03*
X743624Y297786D02*
D03*
X735750Y282038D02*
D03*
X743624Y266290D02*
D03*
X735750Y250542D02*
D03*
X743624Y234794D02*
D03*
X735750Y219046D02*
D03*
X743624Y203298D02*
D03*
X735750Y187550D02*
D03*
X743624Y171801D02*
D03*
X735750Y156053D02*
D03*
X743624Y140305D02*
D03*
X735750Y124557D02*
D03*
X743624Y108809D02*
D03*
X735750Y93061D02*
D03*
X727876Y486762D02*
D03*
X720002Y471014D02*
D03*
X727876Y455266D02*
D03*
X720002Y439518D02*
D03*
X727876Y423770D02*
D03*
X720002Y408022D02*
D03*
X727876Y392274D02*
D03*
X720002Y376526D02*
D03*
X727876Y360778D02*
D03*
X720002Y345030D02*
D03*
X727876Y329282D02*
D03*
X720002Y313534D02*
D03*
X727876Y297786D02*
D03*
X720002Y282038D02*
D03*
X727876Y266290D02*
D03*
X720002Y250542D02*
D03*
X727876Y234794D02*
D03*
X720002Y219046D02*
D03*
X727876Y203298D02*
D03*
X720002Y187550D02*
D03*
X727876Y171801D02*
D03*
X720002Y156053D02*
D03*
X727876Y140305D02*
D03*
X720002Y124557D02*
D03*
X727876Y108809D02*
D03*
X720002Y93061D02*
D03*
X712128Y486762D02*
D03*
X704254Y471014D02*
D03*
X712128Y455266D02*
D03*
X704254Y439518D02*
D03*
X712128Y423770D02*
D03*
X704254Y408022D02*
D03*
X712128Y392274D02*
D03*
X704254Y376526D02*
D03*
X712128Y360778D02*
D03*
X704254Y345030D02*
D03*
X712128Y329282D02*
D03*
X704254Y313534D02*
D03*
X712128Y297786D02*
D03*
X704254Y282038D02*
D03*
X712128Y266290D02*
D03*
X704254Y250542D02*
D03*
X712128Y234794D02*
D03*
X704254Y219046D02*
D03*
X712128Y203298D02*
D03*
X704254Y187550D02*
D03*
X712128Y171801D02*
D03*
X704254Y156053D02*
D03*
X712128Y140305D02*
D03*
X704254Y124557D02*
D03*
X712128Y108809D02*
D03*
X704254Y93061D02*
D03*
X712128Y45817D02*
D03*
X704254Y30069D02*
D03*
X696380Y486762D02*
D03*
X688506Y471014D02*
D03*
X696380Y455266D02*
D03*
X688506Y439518D02*
D03*
X696380Y423770D02*
D03*
X688506Y408022D02*
D03*
X696380Y392274D02*
D03*
X688506Y376526D02*
D03*
X696380Y360778D02*
D03*
X688506Y345030D02*
D03*
X696380Y329282D02*
D03*
X688506Y313534D02*
D03*
X696380Y297786D02*
D03*
X688506Y282038D02*
D03*
X696380Y266290D02*
D03*
X688506Y250542D02*
D03*
X696380Y234794D02*
D03*
X688506Y219046D02*
D03*
X696380Y203298D02*
D03*
X688506Y187550D02*
D03*
X696380Y171801D02*
D03*
X688506Y156053D02*
D03*
X696380Y140305D02*
D03*
X688506Y124557D02*
D03*
X696380Y108809D02*
D03*
X688506Y93061D02*
D03*
X696380Y45817D02*
D03*
X688506Y30069D02*
D03*
X680632Y486762D02*
D03*
X672758Y471014D02*
D03*
X680632Y455266D02*
D03*
X672758Y439518D02*
D03*
X680632Y423770D02*
D03*
X672758Y408022D02*
D03*
X680632Y392274D02*
D03*
X672758Y376526D02*
D03*
X680632Y360778D02*
D03*
X672758Y345030D02*
D03*
X680632Y329282D02*
D03*
X672758Y313534D02*
D03*
X680632Y297786D02*
D03*
X672758Y282038D02*
D03*
X680632Y266290D02*
D03*
X672758Y250542D02*
D03*
X680632Y234794D02*
D03*
X672758Y219046D02*
D03*
X680632Y203298D02*
D03*
X672758Y187550D02*
D03*
X680632Y171801D02*
D03*
X672758Y156053D02*
D03*
X680632Y140305D02*
D03*
X672758Y124557D02*
D03*
X680632Y108809D02*
D03*
X672758Y93061D02*
D03*
X680632Y45817D02*
D03*
X672758Y30069D02*
D03*
X664884Y486762D02*
D03*
X657010Y471014D02*
D03*
X664884Y455266D02*
D03*
X657010Y439518D02*
D03*
X664884Y423770D02*
D03*
X657010Y408022D02*
D03*
X664884Y392274D02*
D03*
X657010Y376526D02*
D03*
X664884Y360778D02*
D03*
X657010Y345030D02*
D03*
X664884Y329282D02*
D03*
X657010Y313534D02*
D03*
X664884Y297786D02*
D03*
X657010Y282038D02*
D03*
X664884Y266290D02*
D03*
X657010Y250542D02*
D03*
X664884Y234794D02*
D03*
X657010Y219046D02*
D03*
X664884Y203298D02*
D03*
X657010Y187550D02*
D03*
X664884Y171801D02*
D03*
X657010Y156053D02*
D03*
X664884Y140305D02*
D03*
X657010Y124557D02*
D03*
X664884Y108809D02*
D03*
X657010Y93061D02*
D03*
X649136Y486762D02*
D03*
X641262Y471014D02*
D03*
X649136Y455266D02*
D03*
X641262Y439518D02*
D03*
X649136Y423770D02*
D03*
X641262Y408022D02*
D03*
X649136Y392274D02*
D03*
X641262Y376526D02*
D03*
X649136Y360778D02*
D03*
X641262Y345030D02*
D03*
X649136Y329282D02*
D03*
X641262Y313534D02*
D03*
X649136Y297786D02*
D03*
X641262Y282038D02*
D03*
X649136Y266290D02*
D03*
X641262Y250542D02*
D03*
X649136Y234794D02*
D03*
X641262Y219046D02*
D03*
X649136Y203298D02*
D03*
X641262Y187550D02*
D03*
X649136Y171801D02*
D03*
X641262Y156053D02*
D03*
X649136Y140305D02*
D03*
X641262Y124557D02*
D03*
X649136Y108809D02*
D03*
X641262Y93061D02*
D03*
X633388Y486762D02*
D03*
X625514Y471014D02*
D03*
X633388Y455266D02*
D03*
X625514Y439518D02*
D03*
X633388Y423770D02*
D03*
X625514Y408022D02*
D03*
X633388Y392274D02*
D03*
X625514Y376526D02*
D03*
X633388Y360778D02*
D03*
X625514Y345030D02*
D03*
X633388Y329282D02*
D03*
X625514Y313534D02*
D03*
X633388Y297786D02*
D03*
X625514Y282038D02*
D03*
X633388Y266290D02*
D03*
X625514Y250542D02*
D03*
X633388Y234794D02*
D03*
X625514Y219046D02*
D03*
X633388Y203298D02*
D03*
X625514Y187550D02*
D03*
X633388Y171801D02*
D03*
X625514Y156053D02*
D03*
X633388Y140305D02*
D03*
X625514Y124557D02*
D03*
X633388Y108809D02*
D03*
X625514Y93061D02*
D03*
X633388Y45817D02*
D03*
X625514Y30069D02*
D03*
X617640Y486762D02*
D03*
X609766Y471014D02*
D03*
X617640Y455266D02*
D03*
X609766Y439518D02*
D03*
X617640Y423770D02*
D03*
X609766Y408022D02*
D03*
X617640Y392274D02*
D03*
X609766Y376526D02*
D03*
X617640Y360778D02*
D03*
X609766Y345030D02*
D03*
X617640Y329282D02*
D03*
X609766Y313534D02*
D03*
X617640Y297786D02*
D03*
X609766Y282038D02*
D03*
X617640Y266290D02*
D03*
X609766Y250542D02*
D03*
X617640Y234794D02*
D03*
X609766Y219046D02*
D03*
X617640Y203298D02*
D03*
X609766Y187550D02*
D03*
X617640Y171801D02*
D03*
X609766Y156053D02*
D03*
X617640Y140305D02*
D03*
X609766Y124557D02*
D03*
X617640Y108809D02*
D03*
X609766Y93061D02*
D03*
X617640Y45817D02*
D03*
X609766Y30069D02*
D03*
X601892Y486762D02*
D03*
X594018Y471014D02*
D03*
X601892Y455266D02*
D03*
X594018Y439518D02*
D03*
X601892Y423770D02*
D03*
X594018Y408022D02*
D03*
X601892Y392274D02*
D03*
X594018Y376526D02*
D03*
X601892Y360778D02*
D03*
X594018Y345030D02*
D03*
X601892Y329282D02*
D03*
X594018Y313534D02*
D03*
X601892Y297786D02*
D03*
X594018Y282038D02*
D03*
X601892Y266290D02*
D03*
X594018Y250542D02*
D03*
X601892Y234794D02*
D03*
X594018Y219046D02*
D03*
X601892Y203298D02*
D03*
X594018Y187550D02*
D03*
X601892Y171801D02*
D03*
X594018Y156053D02*
D03*
X601892Y140305D02*
D03*
X594018Y124557D02*
D03*
X601892Y108809D02*
D03*
X594018Y93061D02*
D03*
X601892Y45817D02*
D03*
X594018Y30069D02*
D03*
X586144Y486762D02*
D03*
X578270Y471014D02*
D03*
X586144Y455266D02*
D03*
X578270Y439518D02*
D03*
X586144Y423770D02*
D03*
X578270Y408022D02*
D03*
X586144Y392274D02*
D03*
X578270Y376526D02*
D03*
X586144Y360778D02*
D03*
X578270Y345030D02*
D03*
X586144Y329282D02*
D03*
X578270Y313534D02*
D03*
X586144Y297786D02*
D03*
X578270Y282038D02*
D03*
X586144Y266290D02*
D03*
X578270Y250542D02*
D03*
X586144Y234794D02*
D03*
X578270Y219046D02*
D03*
X586144Y203298D02*
D03*
X578270Y187550D02*
D03*
X586144Y171801D02*
D03*
X578270Y156053D02*
D03*
X586144Y140305D02*
D03*
X578270Y124557D02*
D03*
X586144Y108809D02*
D03*
X578270Y93061D02*
D03*
X570396Y486762D02*
D03*
X562522Y471014D02*
D03*
X570396Y455266D02*
D03*
X562522Y439518D02*
D03*
X570396Y423770D02*
D03*
X562522Y408022D02*
D03*
X570396Y392274D02*
D03*
X562522Y376526D02*
D03*
X570396Y360778D02*
D03*
X562522Y345030D02*
D03*
X570396Y329282D02*
D03*
X562522Y313534D02*
D03*
X570396Y297786D02*
D03*
X562522Y282038D02*
D03*
X570396Y266290D02*
D03*
X562522Y250542D02*
D03*
X570396Y234794D02*
D03*
X562522Y219046D02*
D03*
X570396Y203298D02*
D03*
X562522Y187550D02*
D03*
X570396Y171801D02*
D03*
X562522Y156053D02*
D03*
X570396Y140305D02*
D03*
X562522Y124557D02*
D03*
X570396Y108809D02*
D03*
X562522Y93061D02*
D03*
X554648Y486762D02*
D03*
X546774Y471014D02*
D03*
X554648Y455266D02*
D03*
X546774Y439518D02*
D03*
X554648Y423770D02*
D03*
X546774Y408022D02*
D03*
X554648Y392274D02*
D03*
X546774Y376526D02*
D03*
X554648Y360778D02*
D03*
X546774Y345030D02*
D03*
X554648Y329282D02*
D03*
X546774Y313534D02*
D03*
X554648Y297786D02*
D03*
X546774Y282038D02*
D03*
X554648Y266290D02*
D03*
X546774Y250542D02*
D03*
X554648Y234794D02*
D03*
X546774Y219046D02*
D03*
X554648Y203298D02*
D03*
X546774Y187550D02*
D03*
X554648Y171801D02*
D03*
X546774Y156053D02*
D03*
X554648Y140305D02*
D03*
X546774Y124557D02*
D03*
X554648Y108809D02*
D03*
X546774Y93061D02*
D03*
X554648Y45817D02*
D03*
X546774Y30069D02*
D03*
X538900Y486762D02*
D03*
X531026Y471014D02*
D03*
X538900Y455266D02*
D03*
X531026Y439518D02*
D03*
X538900Y423770D02*
D03*
X531026Y408022D02*
D03*
X538900Y392274D02*
D03*
X531026Y376526D02*
D03*
X538900Y360778D02*
D03*
X531026Y345030D02*
D03*
X538900Y329282D02*
D03*
X531026Y313534D02*
D03*
X538900Y297786D02*
D03*
X531026Y282038D02*
D03*
X538900Y266290D02*
D03*
X531026Y250542D02*
D03*
X538900Y234794D02*
D03*
X531026Y219046D02*
D03*
X538900Y203298D02*
D03*
X531026Y187550D02*
D03*
X538900Y171801D02*
D03*
X531026Y156053D02*
D03*
X538900Y140305D02*
D03*
X531026Y124557D02*
D03*
X538900Y108809D02*
D03*
X531026Y93061D02*
D03*
Y30069D02*
D03*
X523152Y486762D02*
D03*
X515278Y471014D02*
D03*
X523152Y455266D02*
D03*
X515278Y439518D02*
D03*
X523152Y423770D02*
D03*
X515278Y408022D02*
D03*
X523152Y392274D02*
D03*
X515278Y376526D02*
D03*
X523152Y360778D02*
D03*
X515278Y345030D02*
D03*
X523152Y329282D02*
D03*
X515278Y313534D02*
D03*
X523152Y297786D02*
D03*
X515278Y282038D02*
D03*
X523152Y266290D02*
D03*
X515278Y250542D02*
D03*
X523152Y234794D02*
D03*
X515278Y219046D02*
D03*
X523152Y203298D02*
D03*
X515278Y187550D02*
D03*
X523152Y171801D02*
D03*
X515278Y156053D02*
D03*
X523152Y140305D02*
D03*
X515278Y124557D02*
D03*
X523152Y108809D02*
D03*
X515278Y93061D02*
D03*
Y30069D02*
D03*
X507404Y486762D02*
D03*
X499530Y471014D02*
D03*
X507404Y455266D02*
D03*
X499530Y439518D02*
D03*
X507404Y423770D02*
D03*
X499530Y408022D02*
D03*
X507404Y392274D02*
D03*
X499530Y376526D02*
D03*
X507404Y360778D02*
D03*
X499530Y345030D02*
D03*
X507404Y329282D02*
D03*
X499530Y313534D02*
D03*
X507404Y297786D02*
D03*
X499530Y282038D02*
D03*
X507404Y266290D02*
D03*
X499530Y250542D02*
D03*
X507404Y234794D02*
D03*
X499530Y219046D02*
D03*
X507404Y203298D02*
D03*
X499530Y187550D02*
D03*
X507404Y171801D02*
D03*
X499530Y156053D02*
D03*
X507404Y140305D02*
D03*
X499530Y124557D02*
D03*
X507404Y108809D02*
D03*
X499530Y93061D02*
D03*
X491656Y486762D02*
D03*
X483782Y471014D02*
D03*
X491656Y455266D02*
D03*
X483782Y439518D02*
D03*
X491656Y423770D02*
D03*
X483782Y408022D02*
D03*
X491656Y392274D02*
D03*
X483782Y376526D02*
D03*
X491656Y360778D02*
D03*
X483782Y345030D02*
D03*
X491656Y329282D02*
D03*
X483782Y313534D02*
D03*
X491656Y297786D02*
D03*
X483782Y282038D02*
D03*
X491656Y266290D02*
D03*
X483782Y250542D02*
D03*
X491656Y234794D02*
D03*
X483782Y219046D02*
D03*
X491656Y203298D02*
D03*
X483782Y187550D02*
D03*
X491656Y171801D02*
D03*
Y140305D02*
D03*
X483782Y124557D02*
D03*
X491656Y108809D02*
D03*
X483782Y93061D02*
D03*
X475908Y486762D02*
D03*
X468034Y471014D02*
D03*
X475908Y455266D02*
D03*
X468034Y439518D02*
D03*
X475908Y423770D02*
D03*
X468034Y408022D02*
D03*
X475908Y392274D02*
D03*
X468034Y376526D02*
D03*
X475908Y360778D02*
D03*
X468034Y345030D02*
D03*
X475908Y329282D02*
D03*
X468034Y313534D02*
D03*
X475908Y297786D02*
D03*
X468034Y282038D02*
D03*
X475908Y266290D02*
D03*
X468034Y250542D02*
D03*
X475908Y234794D02*
D03*
X468034Y219046D02*
D03*
X475908Y203298D02*
D03*
X468034Y156053D02*
D03*
X475908Y140305D02*
D03*
X468034Y124557D02*
D03*
X475908Y108809D02*
D03*
X468034Y93061D02*
D03*
Y30069D02*
D03*
X460160Y486762D02*
D03*
X452286Y471014D02*
D03*
X460160Y455266D02*
D03*
X452286Y439518D02*
D03*
X460160Y423770D02*
D03*
X452286Y408022D02*
D03*
X460160Y392274D02*
D03*
X452286Y376526D02*
D03*
X460160Y360778D02*
D03*
X452286Y345030D02*
D03*
X460160Y329282D02*
D03*
X452286Y313534D02*
D03*
X460160Y297786D02*
D03*
X452286Y282038D02*
D03*
X460160Y266290D02*
D03*
X452286Y250542D02*
D03*
X460160Y234794D02*
D03*
X452286Y219046D02*
D03*
Y156053D02*
D03*
X460160Y140305D02*
D03*
X452286Y124557D02*
D03*
X460160Y108809D02*
D03*
X452286Y93061D02*
D03*
Y30069D02*
D03*
X444412Y486762D02*
D03*
X436538Y471014D02*
D03*
X444412Y455266D02*
D03*
X436538Y439518D02*
D03*
X444412Y423770D02*
D03*
X436538Y408022D02*
D03*
X444412Y392274D02*
D03*
X436538Y376526D02*
D03*
X444412Y360778D02*
D03*
X436538Y345030D02*
D03*
X444412Y329282D02*
D03*
X436538Y313534D02*
D03*
X444412Y297786D02*
D03*
X436538Y282038D02*
D03*
X444412Y266290D02*
D03*
X436538Y250542D02*
D03*
X444412Y234794D02*
D03*
X436538Y156053D02*
D03*
X444412Y140305D02*
D03*
X436538Y124557D02*
D03*
X444412Y108809D02*
D03*
X436538Y93061D02*
D03*
Y30069D02*
D03*
X428664Y486762D02*
D03*
X420790Y471014D02*
D03*
X428664Y455266D02*
D03*
X420790Y439518D02*
D03*
Y376526D02*
D03*
X428664Y360778D02*
D03*
X420790Y345030D02*
D03*
X428664Y329282D02*
D03*
Y297786D02*
D03*
X420790Y282038D02*
D03*
X428664Y266290D02*
D03*
X420790Y250542D02*
D03*
Y156053D02*
D03*
X428664Y140305D02*
D03*
X420790Y124557D02*
D03*
X428664Y108809D02*
D03*
X420790Y93061D02*
D03*
X412916Y486762D02*
D03*
X405042Y471014D02*
D03*
X412916Y455266D02*
D03*
X405042Y439518D02*
D03*
Y376526D02*
D03*
X412916Y360778D02*
D03*
X405042Y345030D02*
D03*
X412916Y329282D02*
D03*
Y266290D02*
D03*
X405042Y250542D02*
D03*
X412916Y140305D02*
D03*
Y108809D02*
D03*
X397167Y486762D02*
D03*
X389294Y471014D02*
D03*
X397167Y455266D02*
D03*
X389294Y439518D02*
D03*
Y376526D02*
D03*
X397167Y360778D02*
D03*
X389294Y345030D02*
D03*
Y250542D02*
D03*
Y156053D02*
D03*
Y124557D02*
D03*
Y93061D02*
D03*
X397167Y77313D02*
D03*
Y45817D02*
D03*
X389294Y30069D02*
D03*
X381419Y486762D02*
D03*
X373546Y471014D02*
D03*
X381419Y455266D02*
D03*
X373546Y439518D02*
D03*
Y376526D02*
D03*
X381419Y360778D02*
D03*
Y108809D02*
D03*
X373546Y93061D02*
D03*
X381419Y77313D02*
D03*
Y45817D02*
D03*
X373546Y30069D02*
D03*
X365671Y486762D02*
D03*
X357798Y471014D02*
D03*
X365671Y455266D02*
D03*
X357798Y439518D02*
D03*
X365671Y360778D02*
D03*
X357798Y156053D02*
D03*
Y93061D02*
D03*
X365671Y77313D02*
D03*
Y45817D02*
D03*
X357798Y30069D02*
D03*
X342049Y471014D02*
D03*
X349923Y455266D02*
D03*
X342049Y439518D02*
D03*
Y408022D02*
D03*
X349923Y392274D02*
D03*
X342049Y376526D02*
D03*
X349923Y266290D02*
D03*
Y171801D02*
D03*
Y140305D02*
D03*
Y77313D02*
D03*
X334175Y486762D02*
D03*
X326301Y471014D02*
D03*
Y345030D02*
D03*
Y313534D02*
D03*
Y282038D02*
D03*
X334175Y171801D02*
D03*
X326301Y156053D02*
D03*
X334175Y77313D02*
D03*
X318427Y486762D02*
D03*
Y360778D02*
D03*
Y329282D02*
D03*
Y297786D02*
D03*
X310553Y282038D02*
D03*
X318427Y266290D02*
D03*
Y171801D02*
D03*
X310553Y156053D02*
D03*
X318427Y140305D02*
D03*
Y45817D02*
D03*
X310553Y30069D02*
D03*
X302679Y360778D02*
D03*
Y297786D02*
D03*
X294805Y282038D02*
D03*
X302679Y171801D02*
D03*
Y77313D02*
D03*
Y45817D02*
D03*
X294805Y30069D02*
D03*
X279057Y439518D02*
D03*
Y376526D02*
D03*
X286931Y360778D02*
D03*
X279057Y345030D02*
D03*
Y282038D02*
D03*
X286931Y266290D02*
D03*
Y77313D02*
D03*
Y45817D02*
D03*
X279057Y30069D02*
D03*
X271183Y455266D02*
D03*
X263309Y439518D02*
D03*
Y376526D02*
D03*
X271183Y360778D02*
D03*
X263309Y282038D02*
D03*
X271183Y266290D02*
D03*
Y77313D02*
D03*
X255435Y486762D02*
D03*
X247561Y376526D02*
D03*
X255435Y360778D02*
D03*
X247561Y282038D02*
D03*
X255435Y77313D02*
D03*
X239687Y486762D02*
D03*
X231813Y471014D02*
D03*
Y376526D02*
D03*
X239687Y360778D02*
D03*
Y297786D02*
D03*
Y77313D02*
D03*
Y45817D02*
D03*
X231813Y30069D02*
D03*
X223939Y486762D02*
D03*
X216065Y471014D02*
D03*
Y376526D02*
D03*
Y345030D02*
D03*
Y30069D02*
D03*
X208191Y360778D02*
D03*
X200317Y345030D02*
D03*
Y30069D02*
D03*
X184569Y345030D02*
D03*
Y219046D02*
D03*
X192443Y140305D02*
D03*
X168821Y439518D02*
D03*
X176695Y360778D02*
D03*
X168821Y219046D02*
D03*
X176695Y203298D02*
D03*
X168821Y156053D02*
D03*
Y124557D02*
D03*
X153073Y439518D02*
D03*
X160947Y423770D02*
D03*
Y203298D02*
D03*
X153073Y156053D02*
D03*
X160947Y140305D02*
D03*
X153073Y124557D02*
D03*
Y93061D02*
D03*
X160947Y45817D02*
D03*
X153073Y30069D02*
D03*
X145199Y486762D02*
D03*
X137325Y471014D02*
D03*
Y439518D02*
D03*
X145199Y423770D02*
D03*
X137325Y376526D02*
D03*
Y93061D02*
D03*
X145199Y45817D02*
D03*
X137325Y30069D02*
D03*
X129451Y486762D02*
D03*
X121577Y439518D02*
D03*
X129451Y423770D02*
D03*
X121577Y376526D02*
D03*
X129451Y108809D02*
D03*
Y45817D02*
D03*
X121577Y30069D02*
D03*
X113703Y486762D02*
D03*
X105829Y471014D02*
D03*
Y439518D02*
D03*
X113703Y423770D02*
D03*
X105829Y408022D02*
D03*
Y376526D02*
D03*
X113703Y108809D02*
D03*
Y77313D02*
D03*
X97955Y486762D02*
D03*
X90081Y471014D02*
D03*
X97955Y455266D02*
D03*
X90081Y439518D02*
D03*
X97955Y423770D02*
D03*
X90081Y408022D02*
D03*
Y61565D02*
D03*
X97955Y45817D02*
D03*
X90081Y30069D02*
D03*
X82207Y486762D02*
D03*
X74333Y471014D02*
D03*
X82207Y455266D02*
D03*
Y423770D02*
D03*
X74333Y376526D02*
D03*
X82207Y360778D02*
D03*
X74333Y345030D02*
D03*
X82207Y329282D02*
D03*
X74333Y313534D02*
D03*
X82207Y203298D02*
D03*
X74333Y156053D02*
D03*
X82207Y140305D02*
D03*
X74333Y124557D02*
D03*
X82207Y108809D02*
D03*
X74333Y61565D02*
D03*
X82207Y45817D02*
D03*
X66459Y486762D02*
D03*
X58585Y471014D02*
D03*
X66459Y455266D02*
D03*
X58585Y408022D02*
D03*
X66459Y392274D02*
D03*
X58585Y376526D02*
D03*
X66459Y360778D02*
D03*
X58585Y345030D02*
D03*
X66459Y329282D02*
D03*
X58585Y313534D02*
D03*
X66459Y297786D02*
D03*
Y203298D02*
D03*
X58585Y156053D02*
D03*
X66459Y140305D02*
D03*
X58585Y124557D02*
D03*
X66459Y108809D02*
D03*
X50711Y486762D02*
D03*
X42837Y471014D02*
D03*
X50711Y455266D02*
D03*
X42837Y408022D02*
D03*
X50711Y392274D02*
D03*
X42837Y376526D02*
D03*
X50711Y360778D02*
D03*
X42837Y345030D02*
D03*
X50711Y329282D02*
D03*
X42837Y313534D02*
D03*
X50711Y266290D02*
D03*
X42837Y250542D02*
D03*
X50711Y203298D02*
D03*
X42837Y156053D02*
D03*
X50711Y140305D02*
D03*
X42837Y124557D02*
D03*
X50711Y108809D02*
D03*
X42837Y93061D02*
D03*
X50711Y45817D02*
D03*
X34963Y486762D02*
D03*
X27089Y471014D02*
D03*
X34963Y455266D02*
D03*
X27089Y439518D02*
D03*
Y408022D02*
D03*
X34963Y392274D02*
D03*
X27089Y376526D02*
D03*
X34963Y360778D02*
D03*
X27089Y345030D02*
D03*
X34963Y329282D02*
D03*
X27089Y313534D02*
D03*
X34963Y266290D02*
D03*
X27089Y250542D02*
D03*
X34963Y203298D02*
D03*
X27089Y187550D02*
D03*
Y156053D02*
D03*
X34963Y140305D02*
D03*
X27089Y124557D02*
D03*
X34963Y108809D02*
D03*
X27089Y61565D02*
D03*
Y30069D02*
D03*
X11341Y471014D02*
D03*
X19215Y455266D02*
D03*
X11341Y439518D02*
D03*
X19215Y423770D02*
D03*
X11341Y408022D02*
D03*
X19215Y392274D02*
D03*
X11341Y376526D02*
D03*
X19215Y360778D02*
D03*
X11341Y345030D02*
D03*
X19215Y329282D02*
D03*
X11341Y250542D02*
D03*
X19215Y203298D02*
D03*
X11341Y156053D02*
D03*
X19215Y140305D02*
D03*
X11341Y124557D02*
D03*
X19215Y108809D02*
D03*
X11341Y93061D02*
D03*
X19215Y77313D02*
D03*
X11341Y61565D02*
D03*
X19215Y45817D02*
D03*
X11341Y30069D02*
D03*
D51*
X971900Y276700D02*
D03*
X979700D02*
D03*
X900514Y255900D02*
D03*
Y260000D02*
D03*
X185600Y170730D02*
D03*
X188000Y170768D02*
D03*
X183800Y169200D02*
D03*
X189739Y169169D02*
D03*
D52*
X284900Y110040D02*
D03*
Y102560D02*
D03*
X277500Y110040D02*
D03*
Y102560D02*
D03*
X187800Y126560D02*
D03*
Y134040D02*
D03*
X306791Y419540D02*
D03*
Y412060D02*
D03*
Y467560D02*
D03*
Y475040D02*
D03*
X161900Y72840D02*
D03*
Y65360D02*
D03*
X138800D02*
D03*
Y72840D02*
D03*
X154200D02*
D03*
Y65360D02*
D03*
X146500D02*
D03*
Y72840D02*
D03*
X216168Y55935D02*
D03*
Y48455D02*
D03*
X911282Y316000D02*
D03*
Y308520D02*
D03*
X680994Y61440D02*
D03*
Y53960D02*
D03*
X226700Y48560D02*
D03*
Y56040D02*
D03*
X921518Y308520D02*
D03*
Y316000D02*
D03*
X705600Y53960D02*
D03*
Y61440D02*
D03*
X239009Y163225D02*
D03*
Y155745D02*
D03*
X231135Y177694D02*
D03*
Y170213D02*
D03*
X187800Y114040D02*
D03*
Y106560D02*
D03*
X252600Y333860D02*
D03*
Y341340D02*
D03*
X299800D02*
D03*
Y333860D02*
D03*
X380900Y341860D02*
D03*
Y349340D02*
D03*
X372450D02*
D03*
Y341860D02*
D03*
X364000D02*
D03*
Y349340D02*
D03*
D53*
X221550Y130300D02*
D03*
X197850D02*
D03*
X221550Y110300D02*
D03*
X197850D02*
D03*
D54*
X979671Y267941D02*
D03*
X971797D02*
D03*
X963923D02*
D03*
X956049D02*
D03*
D55*
X946600Y245500D02*
D03*
X989120D02*
D03*
D56*
X260348Y390900D02*
D03*
X280033D02*
D03*
Y448200D02*
D03*
X260348D02*
D03*
D57*
X14800Y290539D02*
D03*
Y307861D02*
D03*
X80315Y276673D02*
D03*
Y293996D02*
D03*
X14800Y221358D02*
D03*
Y238681D02*
D03*
X80315Y221358D02*
D03*
Y238681D02*
D03*
X14764Y183465D02*
D03*
Y166142D02*
D03*
X80315Y183465D02*
D03*
Y166142D02*
D03*
D58*
X917400Y243818D02*
D03*
Y238700D02*
D03*
Y233582D02*
D03*
D59*
X141263Y221481D02*
D03*
X199137D02*
D03*
X302000Y271781D02*
D03*
X252000D02*
D03*
X197800Y356481D02*
D03*
X147800D02*
D03*
D60*
X150515Y244119D02*
D03*
X158389Y244119D02*
D03*
X166263D02*
D03*
X189885D02*
D03*
X182011D02*
D03*
X174137D02*
D03*
X292748Y293632D02*
D03*
X284874D02*
D03*
X277000D02*
D03*
X269126D02*
D03*
X261252D02*
D03*
X188548Y378331D02*
D03*
X180674D02*
D03*
X172800D02*
D03*
X164926D02*
D03*
X157052D02*
D03*
D61*
X339785Y271341D02*
D03*
Y279215D02*
D03*
Y287089D02*
D03*
Y294963D02*
D03*
Y302837D02*
D03*
Y310711D02*
D03*
Y318585D02*
D03*
Y326459D02*
D03*
X400415D02*
D03*
Y318585D02*
D03*
Y310711D02*
D03*
Y302837D02*
D03*
Y294963D02*
D03*
Y287089D02*
D03*
Y279215D02*
D03*
Y271341D02*
D03*
D62*
X326807Y408917D02*
D03*
Y386083D02*
D03*
X326791Y456317D02*
D03*
Y433483D02*
D03*
D63*
X242617Y456200D02*
D03*
X219783D02*
D03*
Y399200D02*
D03*
X242617D02*
D03*
D64*
X226769Y420400D02*
D03*
X238580D02*
D03*
Y434800D02*
D03*
X226769D02*
D03*
X291410Y383716D02*
D03*
X303222D02*
D03*
X295569Y104400D02*
D03*
X307380D02*
D03*
X248654Y171887D02*
D03*
X260465D02*
D03*
X229269Y94600D02*
D03*
X241080D02*
D03*
X248654Y158402D02*
D03*
X260465D02*
D03*
X215842Y153383D02*
D03*
X204031D02*
D03*
X275426Y171887D02*
D03*
X287237D02*
D03*
X291410Y440800D02*
D03*
X303222D02*
D03*
X118831Y163400D02*
D03*
X107020D02*
D03*
Y120100D02*
D03*
X118831D02*
D03*
D65*
X295603Y136355D02*
D03*
Y124544D02*
D03*
X349600Y343569D02*
D03*
Y355380D02*
D03*
D66*
X153600Y479795D02*
D03*
Y491606D02*
D03*
X162575D02*
D03*
Y479795D02*
D03*
X171550D02*
D03*
Y491606D02*
D03*
X180525D02*
D03*
Y479795D02*
D03*
X189500D02*
D03*
Y491606D02*
D03*
D67*
X259161Y466200D02*
D03*
Y471200D02*
D03*
Y476200D02*
D03*
Y481200D02*
D03*
X280421D02*
D03*
Y476200D02*
D03*
Y471200D02*
D03*
Y466200D02*
D03*
Y409680D02*
D03*
Y414680D02*
D03*
Y419680D02*
D03*
Y424680D02*
D03*
X259161D02*
D03*
Y419680D02*
D03*
Y414680D02*
D03*
Y409680D02*
D03*
X264613Y328095D02*
D03*
Y333096D02*
D03*
X289613D02*
D03*
Y328095D02*
D03*
X264613Y338095D02*
D03*
Y343096D02*
D03*
X289613D02*
D03*
Y338095D02*
D03*
X264613Y308095D02*
D03*
Y313096D02*
D03*
X289613D02*
D03*
Y308095D02*
D03*
X264613Y318095D02*
D03*
Y323096D02*
D03*
X289613D02*
D03*
Y318095D02*
D03*
D68*
X269791Y474094D02*
D03*
Y417574D02*
D03*
D69*
X248991Y439260D02*
D03*
Y446740D02*
D03*
Y416640D02*
D03*
Y409160D02*
D03*
Y465760D02*
D03*
Y473240D02*
D03*
X958300Y429840D02*
D03*
Y422360D02*
D03*
X978642Y422381D02*
D03*
Y429861D02*
D03*
X979900Y280260D02*
D03*
Y287740D02*
D03*
X956100D02*
D03*
Y280260D02*
D03*
X231233Y163225D02*
D03*
Y155745D02*
D03*
X238910Y177694D02*
D03*
Y170213D02*
D03*
X244500Y333860D02*
D03*
Y341340D02*
D03*
X307200D02*
D03*
Y333860D02*
D03*
X338500Y349340D02*
D03*
Y341860D02*
D03*
X215100Y85840D02*
D03*
Y78360D02*
D03*
D70*
X290851Y483100D02*
D03*
X298331D02*
D03*
Y427600D02*
D03*
X290851D02*
D03*
X461540Y54000D02*
D03*
X454060D02*
D03*
X540840Y54300D02*
D03*
X533360D02*
D03*
X689655Y54353D02*
D03*
X697135D02*
D03*
X533360Y45200D02*
D03*
X540840D02*
D03*
X296260Y54000D02*
D03*
X303740D02*
D03*
X1020258Y315935D02*
D03*
X1012778D02*
D03*
X284973Y116965D02*
D03*
X277493D02*
D03*
X219816Y171887D02*
D03*
X212335D02*
D03*
Y164209D02*
D03*
X219816D02*
D03*
X277395Y125784D02*
D03*
X284875D02*
D03*
Y134603D02*
D03*
X277395D02*
D03*
X284973Y152241D02*
D03*
X277493D02*
D03*
X252340Y324800D02*
D03*
X244860D02*
D03*
X415660Y318600D02*
D03*
X423140D02*
D03*
Y310700D02*
D03*
X415660D02*
D03*
Y302800D02*
D03*
X423140D02*
D03*
D71*
X300231Y451300D02*
D03*
X292751D02*
D03*
X300231Y395000D02*
D03*
X292751D02*
D03*
X258595Y105253D02*
D03*
X266076D02*
D03*
X243340Y105200D02*
D03*
X235860D02*
D03*
X219816Y143048D02*
D03*
X212335D02*
D03*
X284973Y161060D02*
D03*
X277493D02*
D03*
X284973Y143422D02*
D03*
X277493D02*
D03*
X299060Y324800D02*
D03*
X306540D02*
D03*
Y317300D02*
D03*
X299060D02*
D03*
X252340D02*
D03*
X244860D02*
D03*
X280840Y351000D02*
D03*
X273360D02*
D03*
X140160Y149000D02*
D03*
X147640D02*
D03*
Y134700D02*
D03*
X140160D02*
D03*
Y126800D02*
D03*
X147640D02*
D03*
D72*
X294391Y404707D02*
D03*
Y418093D02*
D03*
Y460207D02*
D03*
Y473593D02*
D03*
D73*
X236154Y113521D02*
D03*
Y116079D02*
D03*
Y118639D02*
D03*
Y121198D02*
D03*
Y123757D02*
D03*
Y126316D02*
D03*
Y128875D02*
D03*
Y131434D02*
D03*
Y133993D02*
D03*
Y136552D02*
D03*
Y139111D02*
D03*
Y141670D02*
D03*
Y144229D02*
D03*
Y146788D02*
D03*
X264501D02*
D03*
X264500Y144229D02*
D03*
Y141670D02*
D03*
Y139111D02*
D03*
Y136552D02*
D03*
Y133993D02*
D03*
Y131434D02*
D03*
Y128875D02*
D03*
Y126316D02*
D03*
Y123757D02*
D03*
Y121198D02*
D03*
Y118639D02*
D03*
Y116079D02*
D03*
Y113521D02*
D03*
D74*
X130760Y197095D02*
D03*
X105169D02*
D03*
X130760Y207095D02*
D03*
X105169D02*
D03*
X130760Y217094D02*
D03*
X105169D02*
D03*
X130760Y227095D02*
D03*
X105169D02*
D03*
X130760Y237094D02*
D03*
X105169D02*
D03*
X130760Y247094D02*
D03*
X105169D02*
D03*
X130760Y257095D02*
D03*
X105169D02*
D03*
X130760Y267094D02*
D03*
X105169D02*
D03*
X130760Y277095D02*
D03*
X105169D02*
D03*
X130760Y287094D02*
D03*
X105169D02*
D03*
X130760Y297094D02*
D03*
X105169D02*
D03*
X130760Y307095D02*
D03*
X105169D02*
D03*
X130760Y317094D02*
D03*
X105169D02*
D03*
X130760Y327095D02*
D03*
X105169D02*
D03*
X130760Y337094D02*
D03*
X105169D02*
D03*
X130760Y347094D02*
D03*
X105169D02*
D03*
X130760Y357095D02*
D03*
X105169D02*
D03*
D75*
X51260Y20724D02*
D03*
X75560Y20324D02*
D03*
X55000Y20724D02*
D03*
X58740D02*
D03*
Y11276D02*
D03*
X51260D02*
D03*
X79300Y20324D02*
D03*
X83040D02*
D03*
Y10876D02*
D03*
X75560D02*
D03*
D76*
X41927Y20303D02*
D03*
X66600Y19937D02*
D03*
X41927Y12429D02*
D03*
X66600Y12063D02*
D03*
D77*
X59763Y36700D02*
D03*
X67637D02*
D03*
X84337D02*
D03*
X76463D02*
D03*
D78*
X188626Y412400D02*
D03*
X154374D02*
D03*
X188726Y454800D02*
D03*
X154474D02*
D03*
D79*
X204500Y93130D02*
D03*
X199500D02*
D03*
X194500D02*
D03*
X189500D02*
D03*
X184500D02*
D03*
X179500D02*
D03*
X174500D02*
D03*
X169500D02*
D03*
Y71870D02*
D03*
X174500D02*
D03*
X179500D02*
D03*
X184500D02*
D03*
X189500D02*
D03*
X194500D02*
D03*
X199500D02*
D03*
X204500D02*
D03*
D80*
X412303Y169144D02*
D03*
X410335D02*
D03*
X471358D02*
D03*
X469390D02*
D03*
X467421D02*
D03*
X465453D02*
D03*
X463484D02*
D03*
X461516D02*
D03*
X459547D02*
D03*
X457579D02*
D03*
X455610D02*
D03*
X453642D02*
D03*
X451673D02*
D03*
X449705D02*
D03*
X447736D02*
D03*
X445768D02*
D03*
X443799D02*
D03*
X441831D02*
D03*
X439862D02*
D03*
X437894D02*
D03*
X435925D02*
D03*
X433957D02*
D03*
X431988D02*
D03*
X430020D02*
D03*
X428051D02*
D03*
X426083D02*
D03*
X424114D02*
D03*
X422146D02*
D03*
X420177D02*
D03*
X418209D02*
D03*
X416240D02*
D03*
X414272D02*
D03*
X408366D02*
D03*
X406398D02*
D03*
X404429D02*
D03*
X402461D02*
D03*
X400492D02*
D03*
X398524D02*
D03*
X396555D02*
D03*
X394587D02*
D03*
X392618D02*
D03*
X390650D02*
D03*
X388681D02*
D03*
X386713D02*
D03*
X384744D02*
D03*
X382776D02*
D03*
X380807D02*
D03*
X378839D02*
D03*
X376870D02*
D03*
X374902D02*
D03*
X372933D02*
D03*
X370965D02*
D03*
X368996D02*
D03*
X367028D02*
D03*
X365059D02*
D03*
X363090D02*
D03*
X361122D02*
D03*
X359154D02*
D03*
X357185D02*
D03*
X355217D02*
D03*
D81*
X106984Y141500D02*
D03*
D82*
X130016Y131500D02*
D03*
Y136500D02*
D03*
Y141500D02*
D03*
Y146500D02*
D03*
Y151500D02*
D03*
D83*
X348917Y160581D02*
D03*
X477658D02*
D03*
D84*
X74539Y204100D02*
D03*
X91861D02*
D03*
D85*
X911018Y233582D02*
X917400D01*
X911000Y233600D02*
X911018Y233582D01*
X911018Y243818D02*
X917400D01*
X911000Y243800D02*
X911018Y243818D01*
X280421Y414680D02*
X285663D01*
X290454Y419471D01*
X294391D01*
X280421Y471200D02*
X289283D01*
X293054Y474971D01*
X296991D01*
X1020276Y315953D02*
X1054232D01*
X980960Y315935D02*
X1012778D01*
D86*
X281902Y102276D02*
D03*
D87*
X259150Y469310D02*
D03*
Y412790D02*
D03*
D88*
X222900Y427700D02*
D03*
D89*
X206850Y404750D02*
D03*
D90*
X207400Y456250D02*
D03*
D91*
X316391Y456663D02*
D03*
D92*
X306841Y448277D02*
D03*
D93*
X326691Y411396D02*
D03*
X326907Y431004D02*
D03*
D94*
X306395Y394000D02*
D03*
D95*
X316391Y385100D02*
D03*
D96*
X258891Y399400D02*
D03*
D97*
X386800Y171350D02*
D03*
D98*
X419200Y172464D02*
D03*
D99*
X208200Y90500D02*
D03*
D100*
X174750Y473200D02*
D03*
D101*
X192800Y390200D02*
D03*
D102*
X344300Y334600D02*
D03*
D103*
X128400Y136250D02*
D03*
D104*
X119400Y126700D02*
D03*
D105*
X128500Y159350D02*
D03*
D106*
X189350Y436000D02*
D03*
D107*
X250495Y401850D02*
D03*
D108*
X250400Y456200D02*
D03*
M02*
