M48
;Layer_Color=9474304
;FILE_FORMAT=4:4
METRIC,TZ
;TYPE=PLATED
T1F00S00C0.2499
T2F00S00C0.2500
T3F00S00C0.6000
T4F00S00C0.7000
T5F00S00C0.9000
T6F00S00C1.0000
T7F00S00C1.0500
T8F00S00C1.1000
T9F00S00C1.7000
T10F00S00C2.4000
T11F00S00C3.0000
T12F00S00C3.2000
T13F00S00C3.5000
;TYPE=NON_PLATED
T14F00S00C1.0000
T15F00S00C1.2500
%
T01
X559250Y52500
X607500Y40500
X638000
X399000Y39000
Y33000
Y45000
X361000Y47750
X364750Y23000
X369750Y23000
X374750
Y17875
X369750
X364750
Y12750
X369750
X374750
Y7625
X369750
X364750
X249250Y47750
X234000Y37000
X68250Y70750
X33250Y63250
X27062
X20875
X14688
X8500
X24011Y119079
X30977Y118061
X37502Y120707
X37689Y127746
Y134786
X22911Y133075
Y126034
X18317Y138411
X11276
X7161Y144123
Y151164
X12637Y155589
X19678
X24576Y160647
X29555Y165626
X34534Y170604
X37293Y177082
Y184123
X31727Y188434
X27922Y194359
X26947Y201332
X29021Y208060
X33806Y213225
X40328Y215877
X46732Y215737
X53028Y212586
X57466Y207120
X59155Y200284
X57681Y193399
X53472Y187755
X48707Y182572
Y175531
X48074Y168518
X43359Y163289
X38381Y158310
X33402Y153332
X30839Y146774
X93250Y116500
Y105500
X100250Y222000
X108250
X107250Y267250
X97250Y261718
X91250Y259250
X85430Y255150
X52097Y286700
X45550Y284107
X38519Y284475
X32359Y287885
X28238Y293594
X26837Y300494
X28612Y307307
X33130Y312707
X37293Y318385
Y325426
X32315Y330405
X27336Y335384
X22357Y340362
X16878Y344411
X9840Y344592
X7161Y351103
X7189Y358144
X13329Y361589
X20182Y363206
X22911Y369696
Y376737
X27655Y381939
X35474Y381666
X37689Y374983
Y367942
X30977Y358256
X30839Y351217
X48500Y340250
X48627Y329754
X48707Y322714
Y315673
X54356Y311471
X58127Y305525
X59036Y298543
X56922Y291827
X90266Y334469
X105000Y334250
X97750Y346500
Y354250
X113000Y356500
X85500Y378750
X99000Y394500
X89750Y414750
X96500Y421500
X79500Y431500
Y438500
Y445500
X72500Y431500
X43000Y412000
X125750Y419500
X119000Y427000
X119003Y439500
X123060Y447751
X137000Y437000
Y427000
X147000
Y437000
X164500Y429500
X158250Y419500
X163750Y391750
Y384750
X149500Y380250
X134500
X118750Y381750
Y388750
Y395750
Y367750
X119000Y356500
X125000
X131000
X149500Y356750
X164750Y352250
X169421Y356402
X167750Y362253
X174250Y360253
X179848Y353994
X170500Y334438
X160500
X150500
X140500
X130500
X135500Y324469
X145500
X155500
X165500
X175500
X170500Y314500
X160500
X165500Y304531
X175500
X170500Y294562
X165500Y284593
X155500
X160500Y274624
X170500
X150500
X140500
X130500
X125500Y284593
Y324469
X204375Y321519
X224747Y331500
X242266Y331335
X252750Y331250
X250000Y337750
X249801Y346499
X256750Y346000
X262750Y349250
X264019Y355251
X241500Y360250
X230250Y358250
X234734Y399000
X234750Y404813
Y410625
Y416437
Y422250
X239750Y419250
Y413417
Y407583
Y401750
X269750Y390250
X299000Y384000
X305750
X326250Y388266
X332500Y390000
X338250Y387750
X345000Y385250
X348750Y390000
X354750
X378500Y382750
X419000Y379750
X408750Y355250
X429250
X432750Y308750
X432752Y301501
X434500Y291250
X433250Y280750
X433000Y271250
Y266250
Y261250
X432750Y251750
X433250Y240750
Y215500
X433000Y206000
X429250Y187250
X423020Y183287
X418000Y180000
X412750Y185250
X409198Y172448
X404250Y176000
X404018Y167750
X412986Y167569
X418985Y167500
X429250Y168250
X436524Y168335
X436187Y162344
X440767Y158468
X435314Y153368
X436500Y146941
X429000Y147000
X421500
X442500Y149500
X445500Y166500
X435212Y174189
X391500Y172750
X393777Y166930
X384000Y167250
X379500Y171250
X374250Y167250
X369250Y180000
X348500Y181250
X336000Y181125
X325875
X328500Y172500
X334500
X340500
X322500
X300250Y174000
X298455Y166980
X291250Y168500
X284000
X271500
X278500Y176500
X284000Y183000
X291577Y182983
X265500Y186000
X250060Y186500
X246750Y194750
X224261Y194314
X208000Y197500
X211500Y186250
Y161750
X212250Y148000
X212272Y136154
X218272
X224500Y136250
X230500
X240000Y134500
X246000
X254000
X258250Y138750
X249250Y139750
X244280Y118939
X263500Y120500
X270250Y106266
X286000Y105250
X312000
Y119000
X308250Y139500
X287250
X339000Y148250
X348215Y148076
X361000Y148250
X374500
X372000Y116000
X367000Y105250
X346250
X337750Y116000
X355250
X346750Y134500
X400750Y119750
X408500
X418000Y119250
X413000Y113996
X423538Y112993
X430640Y114501
X435250Y110500
X446000
X456000Y115750
X482250Y114000
X484758Y108549
X476500Y106750
X481750Y96250
X480500Y88500
X479101Y81031
X474101Y91000
Y71062
X479101Y61093
X469101
X459101
X449101
X439101
X429101
X434101Y71062
X424101Y76000
X429101Y81031
X424000Y87500
X489464Y120747
X494982
X500500
X485250Y135500
X468500Y149250
X462750Y207500
Y217500
X480250Y209750
X494500Y191250
X467529Y238971
X463000Y244250
X461000Y267250
Y275500
Y283500
X468000Y293500
X482500
X496500Y286250
X473000Y271500
X456750Y326500
X459250Y332000
X476250Y349250
X483000Y347250
X489766Y349234
X482500Y356500
X478000Y361000
X473500Y365500
X498500Y367750
X503750Y365250
X501500Y376500
X496250Y373500
X493250Y433000
Y439500
Y446000
X486750Y442750
Y436250
Y429750
X480250Y433000
Y439500
Y446000
X473750Y442750
Y436250
Y429750
Y449250
X486750
X301250Y430250
X304250Y355500
X293750
X346000
X354500
X348060Y301751
Y291751
X358060
X368060
Y301751
X378060Y291751
X388060
X383060Y281751
X373060
X363060
X368060Y271751
X378060
X388060
X393060Y281751
Y301751
Y261751
X388060Y251751
X378060
X368060
X373060Y241751
X383060
X393060
X388060Y231751
X378060
X368060
X358060
X348060
X338060
X328060
X318060
X308060
X298060
X288060
X293060Y241751
X303060
X313060
X323060
X333060
X343060
X353060
X363060
X363060Y261751
X373060Y221751
X383060
X348060
X328060
X308060
X308060Y251751
X298060
X288060
Y271751
X298060
X308060
X318060
X323060Y281751
X313060
X303060
X293060
X288060Y291751
X298060
X308060
Y301751
X328060
Y291751
X338060
X318060
X313060Y261751
X318060Y251751
X246250Y257500
X249480Y236734
X250750Y227500
X220250Y226500
X215250Y231250
X215500Y247500
X221500Y256750
X204500Y257000
X200250Y264500
X194250Y263500
X189750Y259000
X174250Y226750
X163514Y229065
X153250Y236500
X147028Y236500
X141257Y236511
X135250Y236500
X130750Y240750
X148009Y249686
X165750Y180750
X129500Y178000
X115000Y157250
X172250Y144250
X228500Y160000
X235250Y153250
X239500Y171480
X233250Y173750
X220679Y110771
X220750Y105000
Y99000
X231000Y91750
X237750
X244500
Y83500
X237750
X231000
Y75250
X237750
X244500Y75250
X251750Y68000
Y62000
X260750Y77000
Y83500
X259030Y97189
X251030Y103939
X208750Y86250
Y80750
X220750Y68000
Y62000
Y56000
X221500Y296500
X246034Y300824
X250250Y311500
X205750Y392000
X202000Y408500
Y415500
Y422500
X395750Y184250
X522250Y202000
X525750Y228659
X525500Y235250
X525000Y256250
X521540Y264824
X526195Y268235
X526750Y274250
X537821Y263218
X539000Y254479
Y248500
X568549Y236952
X568250Y231122
X564984Y225217
X568250Y220000
X575000Y219500
Y206750
X568250Y203750
Y209750
X564984Y214783
X567654Y197471
X575000Y194250
X571031Y189750
X575000Y185250
X584500Y176750
X589125Y172928
X593750Y176750
X602750
X601750Y169000
X595750Y169000
X616250Y175500
X623250Y169000
X636000
X643500
X649500
X655500
X639250Y175500
X624000Y142750
X618000Y141750
X606859Y137021
X589750Y141250
X580315Y140065
X569250Y142250
X551505Y133896
X549250Y95000
X559750Y87750
X582500Y80500
X588250
X594000
X599750
X605500
X611250
X617000
X622750
X628500
X634250
X636996Y76000
Y70250
Y64500
X608250
Y70250
X602500
Y76000
X608250
X596750
X591000
X585250
Y70250
X579500
Y76000
Y64500
X585250
X591000Y70250
X596750
X594000Y128250
X617250Y122750
X629531Y122756
X635406Y123909
X640757Y126071
X650246Y132047
X674250Y139753
X694995Y149611
X700445Y158250
X704929Y162734
X714247Y161245
X715406Y146242
X720111Y174980
X719745Y180739
X728480Y185621
X722740Y192257
X735016Y206303
Y223447
X752000Y228250
X765750Y203250
X752250Y177250
X745917Y176550
X740750Y173500
X736228Y169914
X751750Y149500
X746000Y139500
X787000Y145250
X806920Y144020
X817500Y139750
X822500Y173500
X830250
X838001
X830250Y181250
X822500
Y212252
Y220002
X830250
Y212252
X798250Y215750
X793250Y229000
X806000
X798250Y241750
X793250Y252000
X806000
X796750Y265250
X797750Y282250
X803256Y283979
X815500Y283223
X834000Y283000
X866250Y280250
X874000
X881750
X889500
X897750
X885750Y274500
Y267750
X888500Y261750
X867000Y262500
Y270250
X862500Y266250
Y304004
X854000
X880500Y317500
X892750
X864250Y357000
X854000
X843750
X833500
X823250
X813000
X782500Y322000
X775250Y314500
X767750Y307000
X750973Y306972
X750250Y295750
X750216Y289750
X744500Y267500
X722500Y263250
X717761Y274254
Y280025
X716782Y294935
X717495Y301246
X716995Y306995
X724000Y308500
X717373Y315504
X698337Y312559
X695532Y307515
X698337Y302472
X694513Y298150
X677835Y295500
X681777Y286991
X652500Y290500
X646250Y287000
X639750Y291500
X644459Y321541
X622420Y325739
X618250Y321750
X590271Y332245
X592500Y344500
X584250
X577250
X571250
Y356500
X577421Y356329
X570250Y362500
X562527Y360508
X545500Y360250
X535500
X525500
X549873Y369750
X531500Y403750
X525500
X518500
X512500
X593500Y387250
X613500Y376250
X624500Y386000
Y407500
X644250Y409500
X655250Y400250
X661250Y379250
X668750
X693511Y364222
X700665Y369318
X707005Y375011
X712000Y366750
X704745Y359797
X722850Y355746
X723839Y374191
X729048Y376675
X739750Y391750
X709750Y392000
X704500Y401250
X693000
X684000Y331250
X650000Y356500
X634250Y366500
X564250Y314750
X558250Y309000
X567943Y288357
X577443
X586943
X582250Y277000
X575000Y234250
X640500Y246500
X650750Y258750
X689245Y260000
X694213Y226418
X691729Y220500
X689245Y214750
X684084Y217333
X684500Y223500
X686750Y202000
Y195000
X684500Y115750
Y109500
X706250Y115750
X644500Y96500
X635250
X665750Y73750
X817250Y96500
X877250Y166250
X885250
X906750Y209250
X905500Y256250
X751098Y321186
X751473Y326944
X759134Y374159
X543000Y290000
X928500Y248500
X708250Y486750
X556500Y473250
X546500
X493250Y465500
Y459000
Y452500
X486750Y455750
Y462250
X480250Y459000
Y452500
Y465500
X453500Y463750
X453750Y474250
X446375
X439000
X352000Y458500
X325000
X299500
X128500Y459500
Y466500
X121500
X123060Y454751
X114500Y466500
X107500
X100500
X93500
X86500
X79500
Y459500
Y452500
T02
X938061Y21750
X928061Y41750
X888061
X868061
X878061Y21750
X898061
X758061
X738061
X718061
X698061
X678061
X658061
X638060
X598060
X278060
X258060
X238060
X218060
X198060
X178060
X188060Y41750
X138060Y21750
X58060
X68060Y41750
X108060Y121750
X88060Y161751
Y201751
X68060
X38060Y221751
X48060Y241751
X28060
X38060Y261751
X18060Y301751
X58060Y341751
X68060Y361751
Y401751
X18060Y381751
X208060Y361751
X248060
Y441751
X228060
X218060Y301751
X298060
X318060
X338060
X358060
X378060
Y261751
X358060Y221751
X338060
X318060
X298060
Y261751
X468750Y303250
Y309860
X478500Y321000
X468000Y348000
X503386Y186500
X278060Y61750
X138060
X168060Y121750
X188060
X198060Y141750
X178060
X516855Y193359
X517000Y199230
Y205000
X523809Y208160
X518250Y228659
Y235250
Y241841
X528778Y186180
X584500Y185250
Y194250
X594000
Y206750
X584500
Y219500
X594000
X603500
Y234250
X594000
X584500
X609750Y240750
X616000Y247250
X668061Y241751
X658061Y221751
X648061Y201751
X628060
X638060Y181751
X618060
X610250Y169000
X598936Y122409
X587496Y132770
X565000Y118250
X564500Y100750
X571170Y102947
X552250Y101000
X592469Y91048
X601750Y91000
X608750Y96512
X615012Y98974
X621000Y98750
X629470Y95187
X625500Y91000
X642770Y83690
X623500Y122750
X668750Y176750
X683500Y182250
X683488Y189000
X681250Y204750
X686761Y208250
X688500Y227750
X692750Y232000
X718428Y240072
X718000Y250000
X724000
X727383Y255867
X788061Y241751
Y201751
X808061
X798061Y181751
X805500Y155000
X811250Y158000
X857250Y157500
Y150625
X858061Y101750
X853500Y91125
Y80875
Y70625
X847000Y65625
X846500Y75875
Y85125
X839500Y80875
Y91125
X832500Y85125
Y75875
X833000Y65625
X839500Y70625
X825500
Y80875
Y91125
X860500Y85125
Y75875
X860000Y65625
X867500Y70625
Y80875
Y91125
X894500Y108926
X896500Y132750
X908061Y161751
X898061Y301751
X908061Y321751
X888061Y361751
X898061Y381751
X878061
X858061
X838061
X818061
X798061
X778061
X788061Y401751
X808061
X828061
X848061
X868061
X888061
X908061
X898061Y421751
X878061
X858061
X838061
X818061
X798061
X778061
X758061
X738061
X718061
X698061
X728061Y441751
X768061
X788061
X808061
X828061
X848061
X868061
X888061
X768061Y401751
X742359Y355500
X736250
X668061Y361751
Y441751
X598060Y421751
X548060Y401751
X545500Y335500
X535500
X568060Y281751
X572750Y277000
X683512Y296534
X765750Y139000
X771875
X778000
X918061Y141750
X938061
X958750Y139500
X964250Y135500
X969667Y139500
X975000Y135500
X980583Y139500
X985750Y135500
X986000Y126750
X991500Y122500
Y131000
Y139500
X948061Y161751
X938061Y181751
Y221751
Y261751
X918061
X928061Y281751
X938061Y301751
X948061Y321751
X928061
X938061Y341751
X918061
X928061Y401751
X938061Y421751
X958061
X978061
X988061Y441751
Y401751
X968061
X948061Y441751
X928061
X918061Y421751
X928061Y121750
X938061Y461751
X918061
X928061Y481751
X888061
X868061
X848061
X828061
X808061
X788061
X798061Y461751
X818061
X838061
X858061
X878061
X898061
X778061
X758061
X738061
X728061Y481751
X668061
X408060
X418060Y461751
X398060
X378060
X368060Y481751
X348060
X328060
X308060
X288060
X268060
X248060
X228060
X238060Y461751
X218060
X198060
X178060
X158060
X168060Y481751
X148060
X118060Y461751
X58060
X68060Y481751
T03
X142000Y432000
T04
X510720Y372750
X559520
X948250Y363250
Y383250
Y403250
Y423250
T05
X948250Y209750
Y229750
Y249750
Y269750
Y289750
T06
X651200Y36300
X676600
X702000
X727400
X752800
X363000Y438300
X337600
X312200
X286800
X261400
X651200Y61700
X676600
X702000
X727400
X752800
X363000Y463700
X337600
X312200
X286800
X261400
T07
X551750Y440750
X571750
X591750
X611750
X631750
X651750
Y460750
X631750
X611750
X591750
X571750
X551750
T08
X733000Y296850
Y322250
T09
X17600Y174600
X68400
Y225400
Y274600
X43000Y300000
X17600Y325400
X68400
X17600Y274600
Y225400
X43000Y200000
T10
X857500Y122850
T11
X453380Y83500
T12
X970000Y30000
X30000
X970000Y470000
X30000
T13
X142000Y301969
X341497Y263997
T14
X886000Y86000
T15
X811500Y86000
M30
