G04*
G04 #@! TF.GenerationSoftware,Altium Limited,Altium Designer,21.7.1 (17)*
G04*
G04 Layer_Color=16711935*
%FSLAX25Y25*%
%MOIN*%
G70*
G04*
G04 #@! TF.SameCoordinates,4C4A95DF-11EF-4B83-83A5-CF7285FCABA4*
G04*
G04*
G04 #@! TF.FilePolarity,Positive*
G04*
G01*
G75*
%ADD11C,0.01000*%
%ADD12C,0.00787*%
D11*
X361400Y384400D02*
X425200D01*
X361400Y423700D02*
X425200D01*
Y384400D02*
Y423700D01*
X361400Y384400D02*
Y423700D01*
D12*
X1086600Y230365D02*
X1087591Y230396D01*
X1088577Y230489D01*
X1089556Y230644D01*
X1090523Y230860D01*
X1091475Y231137D01*
X1092407Y231472D01*
X1093317Y231866D01*
X1094200Y232316D01*
X1095053Y232820D01*
X1095873Y233378D01*
X1096656Y233985D01*
X1097399Y234640D01*
X1098100Y235341D01*
X1098755Y236085D01*
X1099363Y236867D01*
X1099920Y237687D01*
X1100424Y238540D01*
X1100874Y239423D01*
X1101268Y240333D01*
X1101604Y241265D01*
X1101880Y242217D01*
X1102096Y243184D01*
X1102251Y244163D01*
X1102345Y245150D01*
X1102376Y246140D01*
X851153Y24D02*
X852144Y55D01*
X853131Y149D01*
X854109Y304D01*
X855077Y520D01*
X856028Y797D01*
X856961Y1132D01*
X857870Y1526D01*
X858753Y1976D01*
X859606Y2480D01*
X860426Y3037D01*
X861209Y3645D01*
X861952Y4300D01*
X862653Y5001D01*
X863309Y5744D01*
X863916Y6527D01*
X864473Y7347D01*
X864978Y8200D01*
X865427Y9083D01*
X865821Y9993D01*
X866157Y10925D01*
X866433Y11877D01*
X866650Y12844D01*
X866805Y13823D01*
X866898Y14809D01*
X866929Y15800D01*
X1102376Y488200D02*
X1102345Y489191D01*
X1102251Y490177D01*
X1102096Y491156D01*
X1101880Y492123D01*
X1101604Y493075D01*
X1101268Y494007D01*
X1100874Y494917D01*
X1100424Y495800D01*
X1099920Y496653D01*
X1099363Y497473D01*
X1098755Y498256D01*
X1098100Y498999D01*
X1097399Y499700D01*
X1096656Y500355D01*
X1095873Y500963D01*
X1095053Y501520D01*
X1094200Y502024D01*
X1093317Y502474D01*
X1092407Y502868D01*
X1091475Y503203D01*
X1090523Y503480D01*
X1089556Y503696D01*
X1088577Y503851D01*
X1087591Y503944D01*
X1086600Y503976D01*
X24Y15800D02*
X55Y14809D01*
X149Y13823D01*
X304Y12844D01*
X520Y11877D01*
X797Y10925D01*
X1132Y9993D01*
X1526Y9083D01*
X1976Y8200D01*
X2480Y7347D01*
X3037Y6527D01*
X3645Y5744D01*
X4300Y5001D01*
X5001Y4300D01*
X5744Y3645D01*
X6527Y3037D01*
X7347Y2480D01*
X8200Y1976D01*
X9083Y1526D01*
X9993Y1132D01*
X10925Y797D01*
X11877Y520D01*
X12844Y304D01*
X13823Y149D01*
X14809Y55D01*
X15800Y24D01*
Y503976D02*
X14809Y503944D01*
X13823Y503851D01*
X12844Y503696D01*
X11877Y503480D01*
X10925Y503203D01*
X9993Y502868D01*
X9083Y502474D01*
X8200Y502024D01*
X7347Y501520D01*
X6527Y500963D01*
X5744Y500355D01*
X5001Y499700D01*
X4300Y498999D01*
X3645Y498256D01*
X3037Y497473D01*
X2480Y496653D01*
X1976Y495800D01*
X1526Y494917D01*
X1132Y494007D01*
X797Y493075D01*
X520Y492123D01*
X304Y491156D01*
X149Y490177D01*
X55Y489190D01*
X24Y488200D01*
X968110Y230354D02*
X967111Y230350D01*
X966111Y230335D01*
X965112Y230310D01*
X964113Y230276D01*
X963114Y230231D01*
X962116Y230177D01*
X961119Y230113D01*
X960122Y230039D01*
X959126Y229955D01*
X958130Y229861D01*
X957136Y229758D01*
X956143Y229644D01*
X955151Y229521D01*
X954160Y229388D01*
X953171Y229246D01*
X952183Y229093D01*
X951197Y228931D01*
X950212Y228759D01*
X949229Y228577D01*
X948248Y228386D01*
X947269Y228185D01*
X946292Y227974D01*
X945317Y227754D01*
X944344Y227524D01*
X943374Y227284D01*
X942406Y227035D01*
X941440Y226776D01*
X940477Y226508D01*
X939517Y226230D01*
X938559Y225943D01*
X937605Y225646D01*
X936653Y225340D01*
X935705Y225025D01*
X934759Y224700D01*
X933817Y224366D01*
X932879Y224023D01*
X931943Y223670D01*
X931011Y223308D01*
X930083Y222937D01*
X929159Y222557D01*
X928238Y222167D01*
X927322Y221769D01*
X926409Y221361D01*
X925500Y220945D01*
X924596Y220519D01*
X923695Y220085D01*
X922799Y219642D01*
X921908Y219190D01*
X921021Y218729D01*
X920138Y218259D01*
X919261Y217781D01*
X918388Y217294D01*
X917519Y216799D01*
X916656Y216295D01*
X915798Y215782D01*
X914945Y215261D01*
X914097Y214732D01*
X913255Y214194D01*
X912417Y213648D01*
X911585Y213093D01*
X910759Y212531D01*
X909938Y211960D01*
X909123Y211382D01*
X908314Y210795D01*
X907511Y210200D01*
X906713Y209597D01*
X905922Y208987D01*
X905136Y208369D01*
X904357Y207743D01*
X903584Y207109D01*
X902817Y206468D01*
X902057Y205819D01*
X901303Y205163D01*
X900555Y204499D01*
X899814Y203828D01*
X899080Y203150D01*
X898353Y202464D01*
X897632Y201771D01*
X896918Y201072D01*
X896212Y200365D01*
X895512Y199651D01*
X894819Y198930D01*
X894133Y198203D01*
X893455Y197469D01*
X892784Y196728D01*
X892120Y195980D01*
X891464Y195226D01*
X890815Y194466D01*
X890174Y193699D01*
X889540Y192926D01*
X888914Y192147D01*
X888296Y191361D01*
X887686Y190570D01*
X887083Y189772D01*
X886488Y188969D01*
X885902Y188160D01*
X885323Y187345D01*
X884752Y186524D01*
X884190Y185697D01*
X883635Y184866D01*
X883089Y184028D01*
X882551Y183186D01*
X882022Y182338D01*
X881501Y181485D01*
X880989Y180627D01*
X880484Y179763D01*
X879989Y178895D01*
X879502Y178022D01*
X879024Y177145D01*
X878554Y176262D01*
X878093Y175375D01*
X877641Y174484D01*
X877198Y173588D01*
X876764Y172687D01*
X876338Y171783D01*
X875922Y170874D01*
X875514Y169961D01*
X875116Y169045D01*
X874727Y168124D01*
X874346Y167200D01*
X873975Y166271D01*
X873613Y165340D01*
X873261Y164404D01*
X872917Y163465D01*
X872583Y162523D01*
X872258Y161578D01*
X871943Y160629D01*
X871637Y159678D01*
X871340Y158723D01*
X871053Y157766D01*
X870775Y156806D01*
X870507Y155843D01*
X870248Y154877D01*
X869999Y153909D01*
X869760Y152939D01*
X869530Y151966D01*
X869309Y150991D01*
X869098Y150014D01*
X868898Y149035D01*
X868706Y148054D01*
X868524Y147071D01*
X868353Y146086D01*
X868190Y145100D01*
X868038Y144112D01*
X867895Y143122D01*
X867762Y142132D01*
X867639Y141140D01*
X867526Y140147D01*
X867422Y139152D01*
X867329Y138157D01*
X867245Y137161D01*
X867171Y136164D01*
X867107Y135167D01*
X867052Y134169D01*
X867008Y133170D01*
X866973Y132171D01*
X866949Y131172D01*
X866934Y130172D01*
X866929Y129173D01*
X968110Y230355D02*
X1086600D01*
X1102376Y246140D02*
X1102376Y488200D01*
X15800Y503976D02*
X1086600D01*
X24Y15800D02*
Y488200D01*
X15800Y24D02*
X851153D01*
X866929Y15800D02*
X866929Y129173D01*
M02*
