G04*
G04 #@! TF.GenerationSoftware,Altium Limited,Altium Designer,21.7.1 (17)*
G04*
G04 Layer_Color=32768*
%FSLAX25Y25*%
%MOIN*%
G70*
G04*
G04 #@! TF.SameCoordinates,4C4A95DF-11EF-4B83-83A5-CF7285FCABA4*
G04*
G04*
G04 #@! TF.FilePolarity,Positive*
G04*
G01*
G75*
%ADD10C,0.00394*%
%ADD147C,0.00197*%
D10*
X71319Y266870D02*
Y301575D01*
X23169D02*
X71319D01*
X23169Y266870D02*
Y301575D01*
Y266870D02*
X71319D01*
Y211752D02*
Y246457D01*
X23169D02*
X71319D01*
X23169Y211752D02*
Y246457D01*
Y211752D02*
X71319D01*
X202582Y214296D02*
Y251501D01*
X137818Y214296D02*
X202582D01*
X137818D02*
Y251501D01*
X202582D01*
X170200Y230832D02*
Y234769D01*
X168231Y232800D02*
X172169D01*
X327187Y261498D02*
X409470D01*
Y336302D01*
X327187D02*
X409470D01*
X327187Y261498D02*
Y336302D01*
Y261498D02*
X409470D01*
Y336302D01*
X327187D02*
X409470D01*
X327187Y261498D02*
Y336302D01*
X292422Y411400D02*
X296359D01*
X294391Y409432D02*
Y413369D01*
X302265Y399392D02*
Y423408D01*
X286517Y399392D02*
Y423408D01*
Y399392D02*
X302265D01*
X286517Y423408D02*
X302265D01*
X292422Y466900D02*
X296359D01*
X294391Y464931D02*
Y468868D01*
X302265Y454892D02*
Y478908D01*
X286517Y454892D02*
Y478908D01*
Y454892D02*
X302265D01*
X286517Y478908D02*
X302265D01*
X11767Y54677D02*
Y126307D01*
Y54677D02*
X82633D01*
Y126307D01*
X11767D02*
X82633D01*
X71319Y156634D02*
Y191339D01*
X23169D02*
X71319D01*
X23169Y156634D02*
Y191339D01*
Y156634D02*
X71319D01*
X275031Y283100D02*
X278969D01*
X277000Y281132D02*
Y285068D01*
X170832Y367800D02*
X174768D01*
X172800Y365831D02*
Y369769D01*
X118500Y139532D02*
Y143468D01*
X116532Y141500D02*
X120468D01*
X48110Y23874D02*
X61890D01*
X48110Y8126D02*
X61890D01*
X48110D02*
Y23874D01*
X61890Y8126D02*
Y23874D01*
X55000Y14031D02*
Y17968D01*
X53031Y16000D02*
X56968D01*
X72410Y23474D02*
X86190D01*
X72410Y7726D02*
X86190D01*
X72410D02*
Y23474D01*
X86190Y7726D02*
Y23474D01*
X79300Y13632D02*
Y17569D01*
X77332Y15600D02*
X81269D01*
X63700Y34732D02*
Y38669D01*
X61731Y36700D02*
X65668D01*
X57007Y33944D02*
Y39456D01*
X70393Y33944D02*
Y39456D01*
X57007Y33944D02*
X70393D01*
X57007Y39456D02*
X70393D01*
X39958Y16366D02*
X43895D01*
X41927Y14398D02*
Y18335D01*
X39171Y23059D02*
X44683D01*
X39171Y9673D02*
X44683D01*
X39171D02*
Y23059D01*
X44683Y9673D02*
Y23059D01*
X73707Y33944D02*
X87093D01*
X73707Y39456D02*
X87093D01*
X73707Y33944D02*
Y39456D01*
X87093Y33944D02*
Y39456D01*
X78431Y36700D02*
X82368D01*
X80400Y34732D02*
Y38669D01*
X69356Y9307D02*
Y22693D01*
X63844Y9307D02*
Y22693D01*
Y9307D02*
X69356D01*
X63844Y22693D02*
X69356D01*
X66600Y14031D02*
Y17968D01*
X64631Y16000D02*
X68568D01*
D147*
X247553Y373971D02*
X289482D01*
Y407829D01*
X247553D02*
X289482D01*
X247553Y373971D02*
Y407829D01*
Y431271D02*
Y465129D01*
X289482D01*
Y431271D02*
Y465129D01*
X247553Y431271D02*
X289482D01*
X23560Y285224D02*
Y313176D01*
X6040D02*
X23560D01*
X6040Y285224D02*
Y313176D01*
Y285224D02*
X23560D01*
X89075Y271358D02*
Y299311D01*
X71555D02*
X89075D01*
X71555Y271358D02*
Y299311D01*
Y271358D02*
X89075D01*
X23560Y216043D02*
Y243996D01*
X6040D02*
X23560D01*
X6040Y216043D02*
Y243996D01*
Y216043D02*
X23560D01*
X89075D02*
Y243996D01*
X71555D02*
X89075D01*
X71555Y216043D02*
Y243996D01*
Y216043D02*
X89075D01*
X312587Y380374D02*
X341028D01*
X312587D02*
Y414626D01*
X341028D01*
Y380374D02*
Y414626D01*
X312570Y427774D02*
Y462026D01*
Y427774D02*
X341011D01*
Y462026D01*
X312570D02*
X341011D01*
X214074Y441980D02*
Y470421D01*
X248326D01*
Y441980D02*
Y470421D01*
X214074Y441980D02*
X248326D01*
X214074Y384980D02*
X248326D01*
Y413420D01*
X214074D02*
X248326D01*
X214074Y384980D02*
Y413420D01*
X6004Y160827D02*
X23524D01*
X6004D02*
Y188779D01*
X23524D01*
Y160827D02*
Y188779D01*
X71555Y160827D02*
X89075D01*
X71555D02*
Y188779D01*
X89075D01*
Y160827D02*
Y188779D01*
X248654Y264694D02*
Y300915D01*
X305346Y264694D02*
Y300915D01*
X248654D02*
X305346D01*
X248654Y264694D02*
X305346D01*
X144454Y349394D02*
Y385615D01*
X201147Y349394D02*
Y385615D01*
X144454D02*
X201147D01*
X144454Y349394D02*
X201147D01*
X103047Y128114D02*
X133953D01*
X103047Y154886D02*
X133953D01*
X103047Y128114D02*
Y154886D01*
X133953Y128114D02*
Y154886D01*
X97176Y195340D02*
Y212860D01*
X69224Y195340D02*
X97176D01*
X69224D02*
Y212860D01*
X97176D01*
M02*
