M48
;Layer_Color=9474304
;FILE_FORMAT=2:5
INCH,TZ
;TYPE=PLATED
T1F00S00C0.00984
T2F00S00C0.02362
T4F00S00C0.03819
T5F00S00C0.03937
T6F00S00C0.04331
T7F00S00C0.04724
T8F00S00C0.06378
T11F00S00C0.09449
T12F00S00C0.12598
;TYPE=NON_PLATED
T13F00S00C0.03937
T14F00S00C0.04724
T15F00S00C0.13110
%
T01
X55100Y23900
X83040Y23960
X85595Y12253
X130500Y66000
X133300
X123000Y127300
X119450
X115900
X196700Y120400
X216900Y120300
X229300Y120600
Y111700
X228870Y105056
X222000Y99900
X221800Y89300
X215000Y74600
X198000Y80800
X194500Y85700
Y99900
X208600
X211400Y111600
X202900Y144800
X222100Y147500
X227000Y150600
X235300Y150700
X249200Y150600
Y140900
Y129600
X255500Y131600
X229400Y139100
X242500Y99900
X260800
X271400Y105000
X270400Y111000
X266600
X288200Y117100
X291400Y144400
X277700Y148100
X267400Y149400
X261500
X318850Y104000
X330175
X341500
X415367Y83487
X419894Y78960
X891600Y233600
Y238800
X911000Y243800
Y233600
X900514Y255900
Y260000
X971900Y276700
X979700
X376224Y245079
X373862
X371500
X369138
X362500Y248260
X353003Y250031
X365162Y203667
X367000Y201600
X369000Y204900
X368772Y184739
X368000Y178800
X365451Y178833
X363100Y178600
X361000Y186510
X388508Y198040
X393642Y197942
X400105Y205512
X402467Y205499
X290000Y178000
X291300Y165000
X268100Y163000
Y177900
X268000Y251200
X264700
X261100
X231522Y258601
X229556Y260567
X227489Y262634
X225689Y264434
X223800Y266367
X223400Y269000
X221349Y271279
X229700Y271900
X232895Y271749
X180300Y266300
X182200Y264300
X184400Y262200
X186200Y260300
X188100Y258400
X142900Y245900
Y241400
Y236900
Y232400
X146500Y230300
Y225800
Y221300
Y216800
Y212300
Y207800
X140100Y198800
Y193300
X145100
X179000Y197353
X180933Y195582
X183295
X183356Y197943
X185700Y197649
X190200
X179100Y186100
X180700Y183900
X183800Y169200
X185600Y170730
X188000Y170768
X189739Y169169
X203000Y160000
X204800Y177800
X226300
X235000Y177700
X223900Y158700
X118600Y169400
Y172500
X111800Y170500
X108000Y179733
X105600Y177600
X139300Y230000
Y234500
Y239200
Y243800
X146500Y234800
X88600Y234200
Y244400
X73100
X63900
X100300Y177700
X99200Y175100
X101400Y170500
X103200Y179700
X94200Y348300
Y351600
Y354800
X137000Y355500
X138500Y353600
X169500Y332100
X257597Y321097
X257600Y347900
X258245Y366500
X253691Y417318
Y419680
X285700Y422030
X285991Y428200
X298331Y430830
X322117Y425900
X325381
X328644
X331908
X331481Y416500
X328218
X324954
X321691
X324600Y366500
X311329
X298058
X284787
X271516
X270009Y333096
X282000Y327100
X295400Y328100
Y323100
X283700Y313000
X270500
X349700Y336700
X364000Y354000
X916400Y316000
X324600Y495306
X311329
X298058
X284787
X271516
X285891Y480500
X285491Y476200
X302891Y481900
X253691Y476200
Y471300
X258245Y495306
T02
X11341Y30069
X27089
X19215Y45817
X11341Y61565
X27089
X19215Y77313
X11341Y93061
X19215Y108809
X34963
X50711
X66459
X82207
X74333Y124557
X58585
X42837
X27089
X11341
X19215Y140305
X34963
X50711
X66459
X82207
X74333Y61565
X90081
X97955Y45817
X82207
X90081Y30069
X50711Y45817
X42837Y93061
X113703Y108809
X129451
X137325Y93061
X153073
Y124557
X168821
X160947Y140305
X192443
X223939Y77313
X239687
X255435
X239687Y45817
X231813Y30069
X216065
X200317
X153073
X137325
X121577
X129451Y45817
X145199
X160947
X113703Y77313
X271183
X286931
X302679
X318427
X334175
X349923
X365671
X381419
X397167
X389294Y93061
X373546
X357798
X381419Y108809
X389294Y124557
X412916Y140305
Y108809
X397167Y45817
X381419
X365671
X357798Y30069
X373546
X389294
X310553
X294805
X279057
X286931Y45817
X302679
X318427
X310553Y124557
X326301
X342049
X349923Y140305
X334175
X318427
X428664
X444412
X460160
X475908
X491656
X507404
X523152
X538900
X554648
X570396
X562522Y124557
X546774
X531026
X515278
X499530
X483782
X468034
X452286
X436538
X420790
X428664Y108809
X444412
X460160
X475908
X491656
X507404
X523152
X538900
X554648
X570396
X562522Y93061
X546774
X531026
X515278
X499530
X483782
X468034
X452286
X436538
X420790
X436538Y30069
X452286
X468034
X515278
X531026
X546774
X554648Y45817
X601892
X617640
X633388
X625514Y30069
X609766
X594018
Y93061
X609766
X625514
X641262
X657010
X672758
X688506
X704254
X720002
X727876Y108809
X712128
X696380
X680632
X664884
X649136
X633388
X617640
X601892
X586144
X578270Y124557
X594018
X609766
X625514
X641262
X657010
X672758
X688506
X704254
X720002
X727876Y140305
X712128
X696380
X680632
X664884
X649136
X633388
X617640
X601892
X586144
X578270Y93061
X680632Y45817
X696380
X712128
X704254Y30069
X688506
X672758
X751498
X767246
X782994
X798742
X806616Y77313
X790868
X775120
X767246Y93061
X782994
X790868Y108809
X806616
X798742Y124557
X814490
X806616Y140305
X790868
X775120
X759372
X743624
X735750Y124557
X751498
X767246
X782994
X775120Y108809
X759372
X743624
X735750Y93061
X751498
X759372Y45817
X1042837Y266290
Y297786
X1027089
X1011341
X995593
X987719Y282038
X1003467
X1019215
X1034963
X1027089Y266290
X1011341
X995593
X948349
X932601
X916852
X924727Y282038
X940475
X932601Y297786
X964097
X893231Y282038
X885357Y266290
X869608
X861734Y282038
X877483
X869608Y297786
X838112
X822364
X806616
X790868
X775120
X759372
X743624
X735750Y282038
X751498
X767246
X782994
X798742
X814490
X830238
X845986
Y250542
X861734
X877483
X853860Y234794
X838112
X822364
X806616
X790868
X775120
X759372
X743624
X735750Y250542
X751498
X767246
X782994
X798742
X814490
X830238
X822364Y266290
X806616
X790868
X775120
X759372
X743624
X735750Y219046
X751498
X767246
X782994
X798742
X814490
X830238
X822364Y203298
X806616
X790868
X775120
X759372
X743624
X735750Y187550
X751498
X767246
X782994
X798742
X814490
X806616Y171801
X790868
X775120
X759372
X743624
X735750Y156053
X751498
X767246
X782994
X798742
X814490
X720002
X704254
X688506
X672758
X657010
X641262
X625514
X609766
X594018
X578270
X586144Y171801
X601892
X617640
X633388
X649136
X664884
X680632
X696380
X712128
X727876
X720002Y187550
X704254
X688506
X672758
X657010
X641262
X625514
X609766
X594018
X578270
X586144Y203298
X601892
X617640
X633388
X649136
X664884
X680632
X696380
X712128
X727876
X720002Y219046
X704254
X688506
X672758
X657010
X641262
X625514
X609766
X594018
X578270
X586144Y234794
X601892
X617640
X633388
X649136
X664884
X680632
X696380
X712128
X727876
X720002Y250542
X704254
X688506
X672758
X657010
X641262
X625514
X609766
X594018
X578270
X586144Y266290
X601892
X617640
X633388
X649136
X664884
X680632
X696380
X712128
X727876
X720002Y282038
X704254
X688506
X672758
X657010
X641262
X625514
X609766
X594018
X578270
X586144Y297786
X601892
X617640
X633388
X649136
X664884
X680632
X696380
X712128
X727876
X570396
X554648
X538900
X523152
X507404
X491656
X475908
X460160
X444412
X428664
X420790Y282038
X436538
X452286
X468034
X483782
X499530
X515278
X531026
X546774
X562522
X570396Y266290
X554648
X538900
X523152
X507404
X491656
X475908
X460160
X444412
X428664
X420790Y250542
X436538
X452286
X468034
X483782
X499530
X515278
X531026
X546774
X562522
X570396Y234794
X554648
X538900
X523152
X507404
X491656
X475908
X460160
X444412
X452286Y219046
X468034
X483782
X499530
X515278
X531026
X546774
X562522
X570396Y203298
X554648
X538900
X523152
X507404
X491656
X475908
X483782Y187550
X499530
X515278
X531026
X546774
X562522
X570396Y171801
X554648
X538900
X523152
X507404
X491656
X499530Y156053
X515278
X531026
X546774
X562522
X468034
X452286
X436538
X420790
X389294
X357798
X349923Y171801
X334175
X318427
X302679
X310553Y156053
X326301
X318427Y266290
X310553Y282038
X326301
X318427Y297786
X302679
X294805Y282038
X279057
X263309
X271183Y266290
X286931
X349923
X389294Y250542
X405042
X412916Y266290
X247561Y282038
X239687Y297786
X184569Y219046
X168821
X176695Y203298
X160947
X153073Y156053
X168821
X74333
X58585
X42837
X27089
X11341
X27089Y187550
X34963Y203298
X50711
X66459
X82207
X19215
X11341Y250542
X27089
X42837
X50711Y266290
X34963
X66459Y297786
X58585Y313534
X74333
X82207Y329282
X66459
X50711
X34963
X19215
X11341Y345030
X27089
X42837
X58585
X74333
X82207Y360778
X66459
X50711
X34963
X19215
X11341Y376526
X27089
X42837
X58585
X74333
X66459Y392274
X50711
X34963
X19215
X11341Y408022
X27089
X42837
X58585
X90081
X97955Y423770
X82207
X90081Y439518
X97955Y455266
X82207
X66459
X50711
X34963
X19215
X11341Y439518
X27089
X19215Y423770
X27089Y313534
X42837
X105829Y376526
X121577
X137325
X176695Y360778
X184569Y345030
X200317
X216065
X208191Y360778
X216065Y376526
X231813
X247561
X255435Y360778
X239687
X160947Y423770
X145199
X129451
X113703
X105829Y439518
X121577
X137325
X153073
X168821
X105829Y408022
X263309Y439518
X279057
X271183Y455266
X349923
X365671
X381419
X397167
X412916
X405042Y439518
X389294
X373546
X357798
X342049
Y408022
X349923Y392274
X342049Y376526
X373546
X389294
X405042
X412916Y360778
X397167
X381419
X365671
X389294Y345030
X405042
X412916Y329282
X318427
X326301Y345030
X318427Y360778
X302679
X286931
X271183
X263309Y376526
X279057
Y345030
X326301Y313534
X436538
X452286
X468034
X483782
X499530
X515278
X531026
X546774
X562522
X570396Y329282
X554648
X538900
X523152
X507404
X491656
X475908
X460160
X444412
X428664
X420790Y345030
X436538
X452286
X468034
X483782
X499530
X515278
X531026
X546774
X562522
X570396Y360778
X554648
X538900
X523152
X507404
X491656
X475908
X460160
X444412
X428664
X420790Y376526
X436538
X452286
X468034
X483782
X499530
X515278
X531026
X546774
X562522
X570396Y392274
X554648
X538900
X523152
X507404
X491656
X475908
X460160
X444412
X436538Y408022
X452286
X468034
X483782
X499530
X515278
X531026
X546774
X562522
X570396Y423770
X554648
X538900
X523152
X507404
X491656
X475908
X460160
X444412
X436538Y439518
X452286
X468034
X483782
X499530
X515278
X531026
X546774
X562522
X570396Y455266
X554648
X538900
X523152
X507404
X491656
X475908
X460160
X444412
X428664
X420790Y439518
X578270
X594018
X609766
X625514
X641262
X657010
X672758
X688506
X704254
X720002
X727876Y455266
X712128
X696380
X680632
X664884
X649136
X633388
X617640
X601892
X586144
Y423770
X601892
X617640
X633388
X649136
X664884
X680632
X696380
X712128
X727876
X720002Y408022
X704254
X688506
X672758
X657010
X641262
X625514
X609766
X594018
X578270
X586144Y392274
X601892
X617640
X633388
X649136
X664884
X680632
X696380
X712128
X727876
X720002Y376526
X704254
X688506
X672758
X657010
X641262
X625514
X609766
X594018
X578270
X586144Y360778
X601892
X617640
X633388
X649136
X664884
X680632
X696380
X712128
X727876
X720002Y345030
X704254
X688506
X672758
X657010
X641262
X625514
X609766
X594018
X578270
X586144Y329282
X601892
X617640
X633388
X649136
X664884
X680632
X696380
X712128
X727876
X720002Y313534
X704254
X688506
X672758
X657010
X641262
X625514
X609766
X594018
X578270
X735750
X751498
X767246
X782994
X798742
X814490
X830238
X845986
X853860Y329282
X869608
X861734Y345030
X877483
X869608Y360778
X853860
X838112
X822364
X806616
X790868
X775120
X759372
X743624
X735750Y376526
X751498
X767246
X782994
X798742
X814490
X830238
X838112Y392274
X853860
X861734Y408022
X877483
X869608Y423770
X853860
X838112
X822364
X806616
X790868
X775120
X759372
X743624
X735750Y439518
X751498
X767246
X782994
X798742
X814490
X830238
X838112Y455266
X853860
X861734Y439518
X877483
X822364Y455266
X790868
X775120
X759372
X743624
X735750Y408022
X751498
X767246
X782994
X798742
X814490
X830238
X822364Y392274
X806616
X790868
X775120
X759372
X743624
X735750Y345030
X751498
X767246
X782994
X798742
X814490
X830238
X845986
X838112Y329282
X822364
X806616
X790868
X775120
X759372
X743624
X885357
X893231Y345030
X885357Y360778
X932601
X948349
X964097
X956223Y345030
X971971
X987719
X1003467
X1019215
X1034963
X1027089Y360778
X1011341
X995593
X987719Y376526
X1003467
X1019215
X1034963
Y408022
X1019215
X1003467
X1011341Y423770
X1027089
X1019215Y439518
X1034963
X1027089Y455266
X1011341
X995593
X979845
X987719Y439518
X1003467
X995593Y423770
X964097
X948349
X932601
X916852
X901105
X885357
X893231Y439518
X908978
X924727
X940475
X956223Y408022
X971971
Y376526
X940475
Y345030
X948349Y329282
X964097
X995593
X1011341
X1027089
X932601
X924727Y408022
X908978
X1042837Y423770
Y455266
Y360778
Y329282
Y486762
X1027089
X1011341
X995593
X979845
X964097
X948349
X932601
X916852
X901105
X885357
X893231Y471014
X908978
X924727
X940475
X956223
X971971
X987719
X1003467
X1019215
X1034963
X877483
X861734
X845986
X830238
X822364Y486762
X806616
X790868
X775120
X759372
X743624
X735750Y471014
X751498
X767246
X782994
X869608Y486762
X727876
X712128
X696380
X680632
X664884
X649136
X633388
X617640
X601892
X586144
X578270Y471014
X594018
X609766
X625514
X641262
X657010
X672758
X688506
X704254
X720002
X562522
X546774
X531026
X515278
X499530
X483782
X468034
X452286
X436538
X420790
X428664Y486762
X444412
X460160
X475908
X491656
X507404
X523152
X538900
X554648
X570396
X412916
X397167
X381419
X365671
X357798Y471014
X373546
X389294
X405042
X342049
X326301
X334175Y486762
X318427
X255435
X239687
X223939
X216065Y471014
X231813
X137325
X145199Y486762
X129451
X113703
X105829Y471014
X90081
X74333
X58585
X42837
X27089
X11341
X34963Y486762
X50711
X66459
X82207
X97955
T04
X39700Y61583
X49700
X59700
X54700Y71583
X44700
X34700
T05
X170275Y36417
X170276Y54134
X195866
X195867Y36417
X183071Y29134
X249072Y36417
X249072Y54134
X274663
X274663Y36417
X261867Y29134
X327868Y36417
X327868Y54134
X353459
X353459Y36417
X340664Y29134
X406664Y36417
X406665Y54134
X432255
X432256Y36417
X419460Y29134
X485461Y36417
X485461Y54134
X511052
X511052Y36417
X498256Y29134
X564257Y36417
X564258Y54134
X589848
X589849Y36417
X577053Y29134
X643054Y36417
X643054Y54134
X668645
X668645Y36417
X655849Y29134
X721850Y36417
X721850Y54134
X747441
X747441Y36417
X734646Y29134
X1054232Y298236
X1067027Y290953
X1079823Y298236
X980906
X968110Y290953
X955315Y298236
X882284
X869488Y290953
X856692Y298236
X59996Y428942
X59995Y446658
X34405
X34404Y428942
X47200Y421658
X856693Y315953
X882283
X955315
X980905
X1054232
X1079823
T06
X958346Y382382
X978347
Y439882
X967953Y439872
X958346Y439882
T07
X859587Y382323
X869429
X879272
X1057126
X1066969
X1076811
T08
X31890Y168307
X47244Y165354
X62598Y168307
X57087Y182087
X37402
X31890Y223425
X47244Y220472
X62598Y223425
X57087Y237205
X37402
X31890Y278543
X47244Y275590
X62598Y278543
X57087Y292323
X37402
T11
X269791Y417574
Y474094
T12
X15800Y15800
X121417Y92126
X300500Y15800
X458900
X617300
X851200
X804961Y92244
X1086600Y264900
X851200
X15800
X119409Y462598
X804961
X1086600Y488200
X851200
X15800
T13
X112925Y197095
Y207095
Y217094
Y227095
Y237094
Y247094
Y257095
Y267094
Y277095
Y287094
Y297094
Y307095
X122925
Y297094
Y287094
Y277095
Y267094
Y257095
Y247094
Y237094
Y227095
Y217094
Y207095
Y197095
Y317094
Y327095
Y337094
Y347094
Y357095
X112925
Y347094
Y337094
Y327095
Y317094
T14
X47244Y185039
Y240158
Y295276
T15
X27200Y96583
X67200
M30
