M48
;Layer_Color=9474304
;FILE_FORMAT=2:5
INCH,TZ
;TYPE=PLATED
T3F00S00C0.03150
;TYPE=NON_PLATED
%
G90
G05
T03
G00X219458Y366500
M15
G01X224182
M16
G00X207450Y380476
M15
G01Y385201
M16
G00X207450Y428541
M15
G01Y433265
M16
G00X351008Y428541
M15
G01Y433265
M16
G00X351008Y380476
M15
G01Y385201
M16
G00X334669Y366500
M15
G01X339394
M16
G00X351008Y476606
M15
G01Y481330
M16
G00X334669Y495306
M15
G01X339394
M16
G00X219458Y495306
M15
G01X224182
M16
G00X207450Y476606
M15
G01Y481330
M16
M17
M30
