M48
;Layer_Color=9474304
;FILE_FORMAT=4:4
METRIC,LZ
;TYPE=PLATED
T1F00S00C0.2500
T2F00S00C0.7000
T3F00S00C1.0000
T4F00S00C1.0500
T5F00S00C1.2000
T6F00S00C1.3000
T7F00S00C1.5000
T8F00S00C3.2000
%
T01
X01515199Y0005311
X01506199Y0007111
X01569199Y0005311
X01587199
X01605199
X01623199
X01632199Y0007111
X01614199
Y0003511
X01596199
X01578199
X01587199Y0001711
X01623199
X01641199Y0008911
X01659199
X01677199
X01686199Y0007111
X01578199Y0010711
X01569199Y0012511
X01578199Y0014311
X01569199Y0016111
X01578199Y0017911
X01569199Y0019711
X01578199Y0021511
X01569199Y0023311
X01587199
X01605199
X01578199Y0025111
X0155053Y00273538
X0154525Y00269318
X01536Y00291644
X01533199Y0030511
X01515199
X01503Y0031725
X0155375Y0030775
X015765
X01551199Y0034111
X01560199Y00359109
X01542199
X01533199Y00377109
X01551199
X01569199
X01587199
X01515199
X0151779Y00242928
X01510655Y00234563
X0150225Y002275
X0152356Y00229134
X01520986Y0021299
X01525Y0020575
X01510366Y001985
X01653Y0022825
X0166125Y00243
Y0025206
X0166472Y0025758
X01660091Y00261025
X0165925Y00266733
Y00272504
Y00278379
X01654062Y00280905
X01668385Y00279198
X0166025Y0029125
X016925Y0029675
Y00305
X016945Y0032075
X016575Y0033575
X0167725Y002285
X01497265Y002325
X0149275Y002445
X014845
X01475575Y00232864
X01473035Y00227683
X01478647Y00226342
X014705Y002225
X01467963Y00217163
X01472152Y00213195
X01465415Y00207959
X01462875Y00202778
X01460335Y00197413
X01468639Y00199361
X01479495Y002
X01474966Y0019114
X01487839Y00186915
X01468918Y0017775
X01455368Y001886
X0144452Y00176041
X01441643Y00198481
X0144182Y0020426
X0144175Y0021075
X0144429Y00215931
X0144099Y0022451
X01440345Y0023282
X01450139Y00239205
X014489Y0024484
X01454565Y00235502
X01449299Y0022325
X0143925Y002545
X01441765Y0026281
X0144175Y002735
X0144143Y00279261
X01441531Y0028503
X014415Y0029423
Y003
X01407199Y0030511
X01389199
X01371199
X01353199
X01362199Y0032311
X01380199
X01398199
X01389199Y0034111
X01371199
X01380199Y00359109
X01371199Y00377109
X01389199
X01299199
X01281199
X01263199
X01245199
X01254199Y00359109
X01272199
X01290199
X01308199
X01299199Y0034111
X01317199
X01308199Y0032311
X01290199
X01272199
X01254199
X01236199
X01227199Y0030511
X01245199
X01263199
X01281199
X01290199Y0028711
X01272199
X01254199
X01236199
X01227199Y0026911
X01245199
X01263199
X01281199
X01299199
X01317199
X01335199
X01353199
X01371199
X01389199
X0139325Y002515
Y0023325
Y0021525
Y00197
Y0017875
X0137711Y0014936
X0145806Y0015306
X0145552Y00158632
X01458091Y0014475
X0145552Y0013775
X0145575Y0012275
X0146948Y0014452
X01470199Y0007111
X01452199
X01443199Y0005311
X01461199
X01452199Y0003511
X01434199
X01416199
X01398199
X01380199
X01362199
X01344199
X01326199
X01308199
X01290199
X01272199
X01254199
X01236199
X01218199
X01200199
X01182199
X01164199
X01146199
X01128199
X01110199
X01119199Y0001711
X01137199
X01155199
X01173199
X01191199
X01209199
X01227199
X01245199
X01263199
X01281199
X01299199
X01317199
X01335199
X01353199
X01371199
X01389199
X01407199
X01425199
X01443199
X01461199
X01497199Y0005311
X01425199
X01407199
X0141925Y002
X01426765Y0024525
X01398199Y0028711
X01380199
X01362199
X01326199Y0025111
X01308199
X01290199
X01272199
X01254199
X01263199Y0023311
X01281199
X01299199
X01317199
X01290199Y0021511
X01272199
X01254199
X01236199
X01227199Y0019711
X01245199
X01263199
X01281199
X01254199Y0017911
X01236199
X01218199
X01200199
X01191199Y0016111
X01209199
X01191199Y0023311
X01173199
X01155199
X01137199
X01119199
X01128199Y0025111
X01146199
X01164199
X01182199
X01200199
X01191199Y0026911
X01209199
X01173199
X01155199
X01137199
X01119199
X01128199Y0028711
X01146199
X01164199
X01155199Y0030511
X01137199
X01119199
X01128199Y0032311
X01146199
X01164199
X01182199
X01173199Y0034111
X01191199
X01182199Y00359109
X01164199
X01146199
X01128199
X01119199Y00377109
X01137199
X01155199
X01173199
X01155199Y0034111
X01137199
X01119199
X01110199Y0032311
Y0028711
Y0021511
X01128199
X01146199
X01164199
X01155199Y0019711
X01137199
X01119199
X01128199Y0017911
X01110199
X01245199Y0034111
X01263199
X01281199
X0148875Y0031725
X0149275Y003055
X014845
X01101199Y0030511
X01092199Y0028711
X01083199Y0026911
X01101199
X01065199
X01047199
X01029199
X01011199
X00993199
X00975199
X00957199
X00939199
X00921199
X00903199
X00885199
X00867199
X008492
X00831199
X00813199
X007952
X00777199
X007592
X00741199
X00723199
X00732199Y0028711
X007502
X00768199
X007592Y0030511
X00741199
X00723199
X00732199Y0032311
X007502
X00768199
X00786199
X00777199Y0034111
X007952
X00786199Y00359109
X00768199
X007502
X00732199
X00723199Y00377109
X00741199
X007592
X00777199
X007952
X00867199
X00885199
X00903199
X00921199
X00912199Y00359109
X00894199
X00876199
X00858199
X008492Y0034111
X00867199
X00885199
X00903199
X00921199
X00939199
X00975199
X00993199
X01011199
X01029199
X01047199
X01065199
X01056199Y00359109
X01038199
X01020199
X01002199
X00984199
X00993199Y00377109
X01011199
X01029199
X01047199
X01083199
X01056199Y0032311
X01038199
X01020199
X01002199
X00984199
X00966199
X00975199Y0030511
X00993199
X01011199
X01020199Y0028711
X01002199
X00984199
X00966199
X00984199Y0025111
X01002199
X01020199
X01038199
X01056199
X01074199
X01047199Y0023311
X01029199
X01011199
X00993199
X01002199Y0021511
X01020199
X01038199
X01011199Y0019711
X00993199
X00975199
X00984199Y0021511
Y0017911
X01002199
X00993199Y0016111
X00957199
X00939199
X00948199Y0017911
X00966199
X00948199Y0014311
X00930199
X00912199Y0021511
X00894199
X00876199
X00858199
X008492Y0019711
X00867199
X00885199
X00876199Y0017911
X00858199
X008402
X00822199
X00813199Y0016111
X00831199
X00822199Y0014311
X008042
X007952Y0016111
X00786199Y0021511
X00768199
X007502
X00732199
X00723199Y0019711
X00741199
X007592
X007502Y0017911
X00732199
X007142
X007502Y0014311
X00741199Y0023311
X007592
X00777199
X007952
X008042Y0025111
X00822199
X00858199
X00876199
X00894199
X00912199
X00930199
X00948199
X00921199Y0023311
X00903199
X00885199
X00867199
X00876199Y0028711
X00894199
X00885199Y0030511
X00867199
X008492
X00831199
X008402Y0032311
X00858199
X00876199
X00894199
X00912199
X00858199Y0028711
X008402
X00786199Y0025111
X00768199
X007502
X00732199
X007142Y0028711
Y0032311
X00723199Y0034111
X00741199
X007592
X00831199Y0019711
X008402Y0003511
X00858199
X00876199
X00894199
X00912199
X00930199
X00948199
X00966199
X00984199
X01002199
X01020199
X01038199
X01056199
X01074199
X01092199
X01083199Y0001711
X01101199
X01065199
X01047199
X01029199
X01011199
X00993199
X00975199
X00957199
X00939199
X00921199
X00903199
X00885199
X00867199
X008492
X00831199
X00813199
X007952
X00777199
X007592
X00741199
X00723199
X00732199Y0003511
X007502
X00768199
X00786199
X008042
X00822199
X007142
X01065199Y0016111
X01083199
X01092199Y0017911
X01074199
X01101199Y0019711
X007052
X00696199Y0017911
X006872Y0016111
X007052
X00696199Y0014311
X006782
X006692Y0016111
X006242Y0017911
X006062
X005882
X005702
X005612Y0016111
X005432
X005522Y0014311
X005702
X005792Y0019711
X005972
X006152
X006332
X006422Y0021511
X006242
X006062
X006152Y0023311
X006332
X006512
X006692
X006782Y0025111
X006602
X006422
X006242
X006062
X005972Y0026911
X006152
X006332
X006512
X006692
X006872
X007052
Y0030511
X006602Y0032311
X006422
X006242
X006062
X005882
X005792Y0030511
X005972
X006152
X006332
X006422Y0028711
X006242
X006062
X005882
X005792Y0026911
X005612
X005432
X005252
X005072
X004892
X004712
X004532
X004352
X004172
X003992
X003812
X003632
X003452
X003272
X003362Y0028711
X003542
X003722
X003902
X003812Y0030511
X003632
X003452
X003272
X003362Y0032311
X003542
X003722
X003902
X004082
X003992Y0034111
X004172
X004082Y00359109
X003902
X003722
X003542
X003452Y00377109
X003632
X003812
X003992
X003812Y0034111
X003632
X003452
X003182Y0028711
X003542Y0025111
X003722
X003902
X004082
X004262
X004172Y0023311
X003992
X003812
X003632
X003452
X003542Y0021511
X003722
X003902
X003812Y0019711
X003632
X003452
X003272
X003362Y0021511
X003182Y0017911
X003632Y0016111
X004172
X004352
X004442Y0017911
X004622
X004802
X004712Y0019711
X004892
X005072
X005162Y0021511
X004982
X004802
X004622
X004532Y0019711
X004262Y0017911
Y0014311
X004442
X004082
X0047575Y001315
X004802Y0003511
X004982
X005162
X005342
X005522
X005702
X005882
X006062
X006242
X006422
X006602
X006782
X00696199
X006872Y0001711
X007052
X006692
X006512
X006332
X006152
X005972
X005792
X005612
X005432
X005252
X005072
X004892
X004712
X004532
X004352
X004172
X003992
X003812
X003632
X003452
X003542Y0003511
X003722
X003902
X004082
X004262
X004442
X004622
X003632Y0005311
X003452
X003362Y0003511
X004892Y0023311
X005072
X005252
X005432
X005522Y0025111
X005342
X005162
X004982
X004802
Y0028711
X004982
X005162
X005072Y0030511
X004892
X004712
X004532
X004622Y0032311
X004802
X004982
X005162
X005342
X005252Y0034111
X005432
X005342Y00359109
X005162
X004982
X004802
X004712Y00377109
X004892
X005072
X005252
X005072Y0034111
X004892
X004712
X004622Y0028711
X005972Y0034111
X006152
X006332
X006512
X006692
X006602Y00359109
X006422
X006242
X006062
X005972Y00377109
X006152
X006332
X006512
X006692
X003092
X002732
X002552
X002372
X002192
X002012
X001832
X001652
X001472
Y0034111
X001652
X001832
X002012
X002192
X002372
X002552
X002732
X002912
X002822Y00359109
X002642
X002462
Y0032311
X002642
X002822
X002642Y0028711
X002552Y0026911
X002732
X002912
X003092
X003002Y0025111
X002822
X002642
X002462
X002282
X002102
X001922
X001742
X001562
X001382
X001472Y0026911
X001562Y0028711
X001382
X001292Y0030511
X001472
X001652
X001562Y0032311
X001382
X001112Y0030511
X000932
X0009125Y0028025
X0005425Y0025
X000572Y0019711
X000752
X000932
X001112
X001292
X00134Y001295
X001225
X001202Y0007111
X001562
X002012Y0005311
X002102Y0003511
X002012Y0001711
X002192
X002372
X002552
X003092
X003002Y0007111
X002462
X001832Y0001711
X001652
X001112
X000842Y0003511
X000662Y0007111
X000122
X0004425Y0013475
X00055Y001295
X0008425Y00154
X000392Y0019711
X001832Y0023311
X002012
X002192
X002372
X002552
X002732
X002642Y0021511
X002462
X0021525Y0015725
X002912Y0016111
X003092
X003002Y0017911
X002372Y0030511
X002192
X002282Y0032311
X002102Y00359109
X001922
X001742
X001202
X001022
X0009125Y00397
Y00422
X001022Y00467109
X0009125Y00481
X001292Y00485109
X001472
X001652
X001832
X002012
X001922Y00467109
X001832Y00449109
X002552
X002732
X002822Y00467109
X002642
X002552Y00485109
X002732
X002912
X003002Y0050311
X002822
X002642
X002552Y00521109
X002732
X002912
X003092
X002642Y00539109
X002552Y00557109
X002732
X002822Y00575109
X002642
X002552Y00593109
X002732
X002912
X003002Y00611109
X002822
X002642
X002462
X002282
X002102
X001922
X001742
X001562
X001382
X001202
X001022
X000842
X000662
X000482
X000392Y00629109
X000572
X000752
X000932
X001112
X001292
X001472
X001652
X001832
X002012
X002192
X002372
X003092
X003002Y00755109
X002822
X002642
X002462
X002282
X002102
X001922
X001742
X001562
X001382
X001202
X001022
X000842
X00124Y007045
X001202Y00683109
X0008425Y0065875
X000482Y00683109
X000302
X000212Y00701109
X000572Y00593109
X0013525Y005615
X0016Y0056075
X001832Y00557109
X002012
X001652Y00521109
X001115Y00532
X001382Y00395109
X001562
X002282
X002462
X002642
X002822
X002552Y0041311
X002372
X002192
X002462Y0043111
X001922Y00683109
X001832Y00701109
X002012
X001645Y0065875
X003272Y00629109
X003182Y00611109
X003902
X004082
X004262
X004442
X004352Y00629109
X004532
X004172Y00593109
X003992
X003812
X003902Y00575109
X004082
X003992Y00557109
X003812
X003632
X003452
X003542Y00575109
X003722
Y00539109
X003902
X003812Y00521109
X003992
X004172
X004352
X004532
X004712
X004892
X005072
X005252
X005432
X005612
X005792
X005972
X006152
X006332
X006512
X006692
X006872
X007052
X006782Y0050311
X006602
X006422
X006242
X006332Y00485109
X006512
X006692
X006872
X006782Y00467109
X006602
X006422
X006242
X006062
X005972Y00449109
X006152
X006332
X006512
Y0041311
X006332
X006152
X005972
X005792
X005882Y0043111
X006062
X006242
Y00395109
X006422
X006602
X00696199
X007052Y0041311
Y00449109
X005792
X005522Y00467109
X005342
X005162
X004982
X004802
X004622
X004532Y00449109
X004712
X004892
X005072
X005252
Y00485109
X005432
X005522Y0050311
X005342
X005162
X004982
X005072Y00485109
X005162Y00539109
X005342
X005252Y00557109
X005072
X004892
X004712
X004802Y00575109
X004982
X005162
X005342
X005252Y00593109
X005432
X005612
X005702Y00611109
X005522
X005342
X005162
X005072Y00593109
X004982Y00539109
X004802
X004622
X004442
X004262Y0050311
X004082
X003902
X003722
X003542
X003452Y00521109
X003632
X003542Y00539109
X003362
X003182
X003272Y00521109
X003362Y00467109
X003542
X003722
X003902
X004082
X003992Y00485109
X004172
X003812
Y00449109
X003992
X003632
X003452
X003272
X003362Y0043111
X003542
X003722
X003632Y0041311
X003812
X003902Y00395109
X004082
X004442
X004622
X004802
X004982
X005162
X005342
X005252Y0041311
X005072
X004892
X004712
X004532
X004622Y0043111
X004802
X004982
X005702Y00395109
X005882
X006062
Y00539109
X006242
X006422
X006602
X006512Y00557109
X006332
X006152
X005972
X006062Y00575109
X006242
X006422
X006602
X006512Y00593109
X006692
X006872
X00696199Y00611109
X006782
X006602
X006422
X006332Y00593109
X006872Y00629109
X007052
X005792
X005612
X005702Y00539109
X005882
Y00755109
X006062
X006242
X006422
X006602
X006782
X00696199
X005702
X005522
X005342
X005162
X004982
X004802
X004622
X004442
X004262
X004082
X003902
X003722
X003542
X003362
X003182
Y0043111
X003272Y0041311
X003452
X003542Y00395109
X003722
X003362
X003182
X007142
X00732199
X007502
X00768199
X00786199
X00777199Y0041311
X007592
X00741199
X00723199
X00732199Y0043111
X007502
X00768199
X007592Y00449109
X00741199
X00723199
X00732199Y00467109
X007502
X00768199
X00786199
X008042
X007952Y00485109
X00813199
X008042Y0050311
X00786199
X00768199
X007502
X00741199Y00521109
X007592
X00777199
X007952
X00813199
X00831199
X008492
X00867199
X00885199
X00903199
X00921199
X00939199
X00957199
X00975199
X00993199
X01011199
X01029199
X01047199
X01065199
X01083199
X01101199
X01092199Y00539109
X01074199Y0050311
X01056199
X01038199
X01020199
X01002199
X01011199Y00485109
X01029199
X01047199
X01065199
X01056199Y00467109
X01038199
X01020199
X01002199
X00984199
X00975199Y00449109
X00993199
X01011199
X01029199
X01047199
X01020199Y0043111
X01002199
X00984199
X00966199
X00975199Y0041311
X00993199
X01011199
X01029199
X01038199Y00395109
X01056199
X01092199
X01101199Y0041311
X01092199Y0043111
X01101199Y00449109
X01020199Y00395109
X01002199
X00984199
X00966199
X00912199
X00894199
X00876199
X00858199
X008402
X00831199Y0041311
X008492
X00867199
X00885199
X00903199
X00894199Y0043111
X00876199
X00858199
X008402
X008492Y00449109
X00867199
X00885199
X00903199
X00921199
X00930199Y00467109
X00912199
X00894199
X00876199
X00858199
X00885199Y00485109
X00903199
X00921199
X00939199
X00930199Y0050311
X00912199
X00894199
X00876199
Y00539109
X00894199
X00912199
X00903199Y00557109
X00885199
X00867199
X008492
X00858199Y00539109
X008402
X00786199
X00768199
X007502
X00732199
X007142
X00723199Y00557109
X00741199
X007592
X00777199
X00786199Y00575109
X00768199
X007502
X007592Y00593109
X00777199
X007952
X00813199
X00822199Y00611109
X008042
X00786199
X00768199
X00723199Y00629109
X00831199
X008492
X00885199Y00593109
X00903199
X00921199
X00939199
X00948199Y00611109
X00966199
X00957199Y00629109
X00975199
X00930199Y00611109
X00912199
Y00575109
X00930199
X00894199
X00876199
X00975199Y00557109
X00993199
X01011199
X01029199
X01047199
X01056199Y00575109
X01038199
X01020199
X01002199
X01011199Y00593109
X01029199
X01047199
X01065199
X01074199Y00611109
X01092199
X01083199Y00629109
X01101199
X01056199Y00611109
X01038199
Y00539109
X01020199
X01002199
X00984199
X00966199
Y00755109
X00984199
X01002199
X01020199
X01038199
X01056199
X01074199
X01092199
X00948199
X00930199
X00912199
X00894199
X00876199
X00858199
X008402
X00822199
X008042
X00786199
X00768199
X007502
X00732199
X007142
X00723199Y00521109
X007592Y00485109
X00777199
X007952Y00449109
X007142Y0043111
X01110199
X01128199
X01146199
X01137199Y00449109
X01155199
X01173199
X01182199Y00467109
X01200199
X01191199Y00485109
X01173199
X01155199
X01164199Y0050311
X01182199
X01200199
X01191199Y00521109
X01209199
X01227199
X01245199
X01263199
X01281199
X01299199
X01317199
X01335199
X01353199
X01371199
X01389199
X01380199Y00539109
X01362199
X01344199
X01308199
X01290199
X01272199
X01254199
X01236199
X01218199
X01245199Y00557109
X01263199
X01281199
X01299199
X01308199Y00575109
X01290199
X01272199
X01254199
X01281199Y00593109
X01299199
X01317199
X01335199
X01344199Y00611109
X01326199
X01308199
X01290199
X01335199Y00629109
X01353199
X01371199
X01380199Y00575109
X01371199Y00557109
X01389199
X01380199Y0050311
X01389199Y00485109
Y00449109
X01371199
X01353199
X01362199Y0043111
X01380199
X01371199Y0041311
X01389199
X01380199Y00395109
X01362199
X01344199
X01353199Y0041311
X01308199Y00395109
X01290199
X01272199
X01254199
X01236199
X01218199
X01227199Y0041311
X01245199
X01263199
X01281199
X01272199Y0043111
X01254199
X01236199
X01227199Y00449109
X01245199
X01263199
X01281199
X01299199
X01308199Y00467109
X01326199
X01317199Y00485109
X01335199
X01326199Y0050311
X01308199
X01290199
X01272199
X01281199Y00485109
X01299199
X01290199Y00467109
X01272199
X01254199
X01164199
X01146199
X01128199
X01110199
X01119199Y00449109
Y0041311
X01137199
X01155199
X01164199Y00395109
X01182199
X01146199
X01128199
X01110199
X01128199Y0050311
X01146199
X01137199Y00521109
X01155199
X01173199
X01164199Y00539109
X01146199
X01128199
X01110199
X01119199Y00557109
X01137199
X01155199
X01173199
X01182199Y00575109
X01164199
X01146199
X01128199
X01155199Y00593109
X01173199
X01191199
X01200199Y00611109
X01218199
X01209199Y00629109
X01227199
X01182199Y00611109
X01164199
X01119199Y00521109
X01128199Y00755109
X01146199
X01164199
X01182199
X01200199
X01218199
X01236199
X01254199
X01272199
X01290199
X01308199
X01326199
X01344199
X01362199
X01380199
X01398199
X01410845Y00696405
X0141948Y00673909
X01433Y00667
X01488199Y00575109
X01479199Y00557109
X01497199
X01488199Y00539109
X01479199Y00521109
X01497199
X01488199Y0050311
X01479199Y00485109
X01497199
X01488199Y00467109
X01479199Y00449109
X01497199
X01110199Y00755109
X01524199
X01560199
X01614199
X01605199Y00737109
X01614199Y00719109
X01623199Y00701109
X01641199
X01632199Y00683109
X01614199
X01596199
X01578199
X01569199Y00701109
X01587199Y00665109
X01623199
X01641199
X016545Y0065875
X01632199Y00647109
X01623199Y00629109
X01626155Y00564623
X016235Y005595
X0162325Y0055225
Y00543
Y0053525
X01628996Y0053473
X0165375Y0051775
X016615
X0168775Y0053725
Y00543
X016865Y005765
X016625Y005785
X016555
X01610718Y00568655
X01602Y0056375
X015905Y00583
X015685
X01551199Y00593109
Y00557109
X015225Y00583
X01515199Y00485109
X01533199
X01542199Y00467109
X01524199
X01506199
X01533199Y00449109
X01551199
X01569199
X01578199Y00467109
X01596199
X01587199Y00485109
X01569199
X01560199Y0043111
X01542199
X01533199Y0041311
X01551199
X01569199
X01578199Y00395109
X01596199
X01542199
X01524199
X01506199
X01605199Y00449109
X01623199
X016945Y0059575
X016805Y00645
T02
X0153875Y0002525
X0155875
X0157875
X0159875
T03
X01642Y00022
X01635Y0004
X01642Y00058
X0166Y00065
X01678Y00058
X01685Y0004
X01678Y00022
X0166Y00015
X013916Y0010324
X013662
Y0015404
X013916
X0129
X012626
X012372
Y0010324
X012626
X0129
X01161
X011336
X011082
Y0015404
X011336
X01161
X01032
X010046
X009792
Y0010324
X010046
X01032
X00903
X008756
X008502
Y0015404
X008756
X00903
X00774
X007466
X007212
Y0010324
X007466
X00774
X00645
X006176
X005922
Y0015404
X006176
X00645
X00516
X004886
X004632
Y0010324
X004886
X00516
X00387
X0035955Y0012085
X0033415
Y0017165
X0035955
X00387Y0015404
X0025795Y0017165
X002299Y0018195
Y0020735
X001791
Y0018195
Y0015455
X001499Y001531
Y001277
X000991
Y001531
X000693
Y001277
X000185
Y001531
Y002293
X000693
X000991
X001499
X001791Y0028355
X002299
Y0015455
X0025795Y0012085
X002299Y0007835
Y0005295
X001791
Y0007835
X00058Y00058
X0004Y00065
X00022Y00058
X00015Y0004
X00022Y00022
X0004Y00015
X00058Y00022
X00065Y0004
X0006965Y0058245
X00098975
X00149775
X001791
X002299
Y0065865
Y0068405
X00258Y006835
X002834
Y006327
X00258
X001791Y0065865
Y0068405
X00149775
Y0065865
X00098975
Y0068405
X0006965
Y0065865
X0001885
Y0068405
X00022Y00717
X0004Y0071
X00058Y00717
X00065Y00735
X00058Y00753
X0004Y0076
X00022Y00753
X00015Y00735
X0001885Y0058245
X003596Y006327
X00387
X004124
Y006835
X00387
X003596
X004886
X00516
X005414
Y006327
X00516
X004886
X006176
X00645
X006704
Y006835
X00645
X006176
X007466
X00774
X007994
Y006327
X00774
X007466
X008756
X00903
X009284
Y006835
X00903
X008756
X010046
X01032Y0068354
X010574
Y0063274
X01032
X010046Y006327
X011336Y0063274
X0116095
X0118635
Y0068354
X0116095
X011336
X0126255
X0129
X013154
Y0063274
X0129
X0126255
X013916
Y0068354
X01642Y00717
X0166Y0071
X01678Y00717
X01685Y00735
X01678Y00753
X0166Y0076
X01642Y00753
X01635Y00735
T04
X01598Y0011
Y0013
Y0015
Y0017
Y0019
Y0021
X01618
Y0019
Y0017
Y0015
Y0013
Y0011
X0165925
X0167925
Y0013
Y0015
X0165925
Y0013
Y0017
Y0019
X0167925
Y0017
Y0021
X0165925
T05
X01225965Y00236228
X01198211Y00295095
X01225789Y00365457
X01354854
X01327277Y00295095
X01355031Y00236228
X01096677
X01068923Y00295095
X01096677Y00365457
X00967677
X00939923Y00295095
X00967677Y00236228
X00838677
X00810923Y00295095
X00838677Y00365457
X00709677
Y00236228
X00681923Y00295095
X00552923
X00580677Y00236228
X00451677
X00423923Y00295095
X00451677Y00365457
X00580677
X00322677
Y00236228
X00294923Y00295095
X003005Y0004225
X00114Y00043
X00294923Y00424323
Y00553198
X00322677Y00494332
X00451677
X00423923Y00553198
Y00424323
X00552923
X00580677Y00494332
X00552923Y00553198
X00681923
Y00424323
X00709677Y00494332
X00838677
X00810923Y00553198
Y00424323
X00939923
X00967677Y00494332
X00939923Y00553198
X01068923
X01096677Y00494332
X01068923Y00424323
X01198035
X01225965Y00494332
X01198211Y00553198
X013271Y00553375
X01354854Y00494508
X013271Y00424323
X01569Y0073
T06
X003259Y0001685
Y0006765
X002751
Y0001685
X001394Y000176
X000886
Y000684
X001394
X015436Y007046
X015944
Y007554
X015436
T07
X0165125Y005495
T08
X0166Y0004
X0004
Y00735
X0166
M30
