G04*
G04 #@! TF.GenerationSoftware,Altium Limited,Altium Designer,21.7.1 (17)*
G04*
G04 Layer_Physical_Order=2*
G04 Layer_Color=16711680*
%FSLAX44Y44*%
%MOMM*%
G71*
G04*
G04 #@! TF.SameCoordinates,6DA6EFF2-A010-467E-8A55-43E705FB17ED*
G04*
G04*
G04 #@! TF.FilePolarity,Positive*
G04*
G01*
G75*
%ADD13C,0.5000*%
%ADD25R,0.9000X1.3000*%
%ADD28R,1.3000X0.9000*%
%ADD31R,1.0000X1.0000*%
%ADD91C,0.7000*%
%ADD92C,0.1270*%
%ADD94C,0.6000*%
%ADD95C,0.4000*%
%ADD96C,0.9000*%
%ADD97C,0.4500*%
%ADD99C,1.0000*%
%ADD121C,1.5000*%
%ADD122O,1.5000X1.3000*%
%ADD123C,2.5000*%
%ADD124R,1.1000X1.1000*%
%ADD125C,1.1000*%
%ADD126C,1.5750*%
%ADD127R,1.5750X1.5750*%
%ADD128C,7.0000*%
%ADD129C,1.0000*%
%ADD130C,2.6000*%
%ADD131O,2.6000X1.8000*%
%ADD132O,2.6000X2.5000*%
%ADD133C,0.4500*%
G04:AMPARAMS|DCode=134|XSize=1mm|YSize=0.5mm|CornerRadius=0mm|HoleSize=0mm|Usage=FLASHONLY|Rotation=135.000|XOffset=0mm|YOffset=0mm|HoleType=Round|Shape=Rectangle|*
%AMROTATEDRECTD134*
4,1,4,0.5303,-0.1768,0.1768,-0.5303,-0.5303,0.1768,-0.1768,0.5303,0.5303,-0.1768,0.0*
%
%ADD134ROTATEDRECTD134*%

%ADD135C,0.8000*%
%ADD136C,1.1000*%
G36*
X1693607Y603702D02*
X1692412Y603544D01*
X1690466Y602738D01*
X1688794Y601456D01*
X1687512Y599785D01*
X1686706Y597838D01*
X1686500Y596274D01*
Y577750D01*
X1686431Y577681D01*
Y570656D01*
X1685258Y570170D01*
X1679178Y576250D01*
X1628349D01*
X1626622Y574523D01*
X1624434D01*
X1622235Y574086D01*
X1620371Y572841D01*
X1619032Y571501D01*
X1617534Y571799D01*
X1617269Y572437D01*
X1616067Y574004D01*
X1613821Y576250D01*
X1591948D01*
X1587565Y580633D01*
Y580633D01*
Y593867D01*
D01*
X1589029Y595331D01*
X1602883Y609185D01*
X1644668D01*
X1645907Y609699D01*
X1647474Y610901D01*
X1659849Y623276D01*
X1661051Y624843D01*
X1661807Y626667D01*
X1662065Y628625D01*
X1662065Y628625D01*
Y658750D01*
X1661807Y660708D01*
X1661051Y662532D01*
X1659849Y664099D01*
X1658282Y665301D01*
X1656458Y666057D01*
X1654500Y666315D01*
X1652542Y666057D01*
X1650718Y665301D01*
X1649151Y664099D01*
X1647949Y662532D01*
X1647193Y660708D01*
X1646935Y658750D01*
Y631758D01*
X1638992Y623815D01*
X1599250D01*
X1599250Y623815D01*
X1597292Y623557D01*
X1595468Y622801D01*
X1593901Y621599D01*
X1593901Y621599D01*
X1574651Y602349D01*
X1573449Y600782D01*
X1572693Y598958D01*
X1572435Y597000D01*
Y577500D01*
X1572693Y575542D01*
X1573449Y573718D01*
X1574651Y572151D01*
X1581151Y565651D01*
X1581151Y565651D01*
X1582718Y564449D01*
X1584542Y563693D01*
X1586500Y563435D01*
X1594729D01*
X1594937Y561857D01*
X1595667Y560094D01*
X1596829Y558579D01*
X1598344Y557417D01*
X1600107Y556687D01*
X1602000Y556437D01*
X1603893Y556687D01*
X1605656Y557417D01*
X1606422Y558005D01*
X1616384D01*
X1616437Y557607D01*
X1617063Y556096D01*
X1616917Y555906D01*
X1616187Y554143D01*
X1615938Y552250D01*
X1616187Y550357D01*
X1616917Y548594D01*
X1617661Y547625D01*
X1616917Y546656D01*
X1616187Y544893D01*
X1615938Y543000D01*
X1616187Y541107D01*
X1616917Y539344D01*
X1617085Y539125D01*
X1616917Y538906D01*
X1616187Y537143D01*
X1615938Y535250D01*
X1616187Y533357D01*
X1616917Y531594D01*
X1618079Y530079D01*
X1619594Y528917D01*
X1621357Y528187D01*
X1623250Y527938D01*
X1625143Y528187D01*
X1625495Y528333D01*
X1627104Y527667D01*
X1628996Y527417D01*
X1630889Y527667D01*
X1632653Y528397D01*
X1634167Y529559D01*
X1635329Y531074D01*
X1636060Y532837D01*
X1636309Y534730D01*
X1636060Y536623D01*
X1635730Y537420D01*
X1635745Y537500D01*
Y541500D01*
X1635745D01*
X1635745Y550495D01*
X1642250Y557000D01*
X1662750D01*
X1664255Y555495D01*
Y541500D01*
Y285168D01*
X1663284Y284423D01*
X1662906Y284712D01*
X1661143Y285443D01*
X1659558Y285651D01*
X1659233Y286076D01*
X1657718Y287238D01*
X1655955Y287968D01*
X1654062Y288218D01*
X1652169Y287968D01*
X1650406Y287238D01*
X1648891Y286076D01*
X1647729Y284561D01*
X1646999Y282798D01*
X1646937Y282330D01*
X1646910Y282265D01*
X1646670Y280438D01*
Y259580D01*
X1646910Y257753D01*
X1647616Y256050D01*
X1648737Y254588D01*
X1653181Y250144D01*
Y243000D01*
X1653456Y240912D01*
X1654262Y238965D01*
X1655544Y237294D01*
X1657216Y236012D01*
X1659162Y235206D01*
X1661250Y234931D01*
X1663338Y235206D01*
X1665284Y236012D01*
X1666956Y237294D01*
X1668238Y238965D01*
X1669044Y240912D01*
X1669319Y243000D01*
Y245419D01*
X1670590Y245945D01*
X1672052Y247068D01*
X1691597Y266612D01*
X1692337Y267577D01*
X1693607Y267146D01*
Y6393D01*
X2857D01*
X2500Y6750D01*
Y764714D01*
X6393Y767277D01*
Y768607D01*
X1693607D01*
Y603702D01*
D02*
G37*
%LPC*%
G36*
X1569000Y747585D02*
X1565569Y747247D01*
X1562271Y746246D01*
X1559230Y744621D01*
X1556566Y742434D01*
X1554379Y739770D01*
X1552754Y736729D01*
X1551753Y733431D01*
X1551415Y730000D01*
X1551753Y726569D01*
X1552754Y723271D01*
X1554379Y720230D01*
X1556566Y717566D01*
X1559230Y715379D01*
X1562271Y713754D01*
X1565569Y712753D01*
X1569000Y712415D01*
X1572431Y712753D01*
X1575729Y713754D01*
X1578770Y715379D01*
X1581434Y717566D01*
X1583621Y720230D01*
X1585246Y723271D01*
X1586247Y726569D01*
X1586585Y730000D01*
X1586247Y733431D01*
X1585246Y736729D01*
X1583621Y739770D01*
X1581434Y742434D01*
X1578770Y744621D01*
X1575729Y746246D01*
X1572431Y747247D01*
X1569000Y747585D01*
D02*
G37*
G36*
X1427595Y703970D02*
X1410845D01*
X1408887Y703712D01*
X1407063Y702956D01*
X1405496Y701754D01*
X1404294Y700187D01*
X1403538Y698363D01*
X1403280Y696405D01*
X1403538Y694447D01*
X1404294Y692623D01*
X1404500Y692354D01*
Y688379D01*
X1403230Y688127D01*
X1402519Y689844D01*
X1400515Y692455D01*
X1397904Y694459D01*
X1394863Y695718D01*
X1391600Y696148D01*
X1388337Y695718D01*
X1385296Y694459D01*
X1382685Y692455D01*
X1380681Y689844D01*
X1379422Y686803D01*
X1378992Y683540D01*
X1379422Y680277D01*
X1380681Y677236D01*
X1382685Y674625D01*
X1385296Y672621D01*
X1388337Y671362D01*
X1391600Y670932D01*
X1394863Y671362D01*
X1397904Y672621D01*
X1400515Y674625D01*
X1402519Y677236D01*
X1403230Y678953D01*
X1404500Y678701D01*
Y672000D01*
X1412423D01*
X1413147Y670253D01*
X1414309Y668738D01*
X1415824Y667576D01*
X1417020Y667081D01*
X1417408Y665672D01*
X1410572Y658836D01*
X1326750D01*
Y677250D01*
X1326750D01*
X1326487Y677643D01*
X1327578Y680277D01*
X1328008Y683540D01*
X1327578Y686803D01*
X1326319Y689844D01*
X1324315Y692455D01*
X1321704Y694459D01*
X1318663Y695718D01*
X1315400Y696148D01*
X1312137Y695718D01*
X1309096Y694459D01*
X1306485Y692455D01*
X1304481Y689844D01*
X1303352Y687117D01*
X1303350Y687117D01*
X1302050D01*
X1302048Y687117D01*
X1300919Y689844D01*
X1298915Y692455D01*
X1296304Y694459D01*
X1293263Y695718D01*
X1290000Y696148D01*
X1286737Y695718D01*
X1283696Y694459D01*
X1281085Y692455D01*
X1279081Y689844D01*
X1277822Y686803D01*
X1277392Y683540D01*
X1277822Y680277D01*
X1279081Y677236D01*
X1281085Y674625D01*
X1283696Y672621D01*
X1286737Y671362D01*
X1290000Y670932D01*
X1293263Y671362D01*
X1296304Y672621D01*
X1298915Y674625D01*
X1300919Y677236D01*
X1302048Y679963D01*
X1302050Y679963D01*
X1303350D01*
X1303352Y679963D01*
X1304198Y677920D01*
X1303750Y677250D01*
X1303750D01*
Y658836D01*
X1197850D01*
Y677250D01*
X1197850D01*
X1197495Y677782D01*
X1198528Y680277D01*
X1198958Y683540D01*
X1198528Y686803D01*
X1197269Y689844D01*
X1195265Y692455D01*
X1192654Y694459D01*
X1189613Y695718D01*
X1186350Y696148D01*
X1183087Y695718D01*
X1180046Y694459D01*
X1177435Y692455D01*
X1175431Y689844D01*
X1174302Y687117D01*
X1174300Y687117D01*
X1173000D01*
X1172998Y687117D01*
X1171869Y689844D01*
X1169865Y692455D01*
X1167254Y694459D01*
X1164213Y695718D01*
X1160950Y696148D01*
X1157687Y695718D01*
X1154646Y694459D01*
X1152035Y692455D01*
X1150031Y689844D01*
X1148772Y686803D01*
X1148342Y683540D01*
X1148772Y680277D01*
X1150031Y677236D01*
X1152035Y674625D01*
X1154646Y672621D01*
X1157687Y671362D01*
X1160950Y670932D01*
X1164213Y671362D01*
X1167254Y672621D01*
X1169865Y674625D01*
X1171869Y677236D01*
X1172998Y679963D01*
X1173000Y679963D01*
X1174300D01*
X1174302Y679963D01*
X1175205Y677782D01*
X1174850Y677250D01*
X1174850D01*
Y658836D01*
X1068900D01*
Y677250D01*
X1068900D01*
X1068545Y677782D01*
X1069578Y680277D01*
X1070008Y683540D01*
X1069578Y686803D01*
X1068319Y689844D01*
X1066315Y692455D01*
X1063704Y694459D01*
X1060663Y695718D01*
X1057400Y696148D01*
X1054137Y695718D01*
X1051096Y694459D01*
X1048485Y692455D01*
X1046481Y689844D01*
X1045352Y687117D01*
X1045350Y687117D01*
X1044050D01*
X1044048Y687117D01*
X1042919Y689844D01*
X1040915Y692455D01*
X1038304Y694459D01*
X1035263Y695718D01*
X1032000Y696148D01*
X1028737Y695718D01*
X1025696Y694459D01*
X1023085Y692455D01*
X1021081Y689844D01*
X1019822Y686803D01*
X1019392Y683540D01*
X1019822Y680277D01*
X1021081Y677236D01*
X1023085Y674625D01*
X1025696Y672621D01*
X1028737Y671362D01*
X1032000Y670932D01*
X1035263Y671362D01*
X1038304Y672621D01*
X1040915Y674625D01*
X1042919Y677236D01*
X1044048Y679963D01*
X1044050Y679963D01*
X1045350D01*
X1045352Y679963D01*
X1046255Y677782D01*
X1045900Y677250D01*
X1045900D01*
Y658836D01*
X939900D01*
Y677250D01*
X939900D01*
X939555Y677766D01*
X940578Y680237D01*
X941008Y683500D01*
X940578Y686763D01*
X939319Y689804D01*
X937315Y692415D01*
X934704Y694419D01*
X931663Y695678D01*
X928400Y696108D01*
X925137Y695678D01*
X922096Y694419D01*
X919485Y692415D01*
X917481Y689804D01*
X916352Y687077D01*
X916350Y687077D01*
X915050D01*
X915048Y687077D01*
X913919Y689804D01*
X911915Y692415D01*
X909304Y694419D01*
X906263Y695678D01*
X903000Y696108D01*
X899737Y695678D01*
X896696Y694419D01*
X894085Y692415D01*
X892081Y689804D01*
X890822Y686763D01*
X890392Y683500D01*
X890822Y680237D01*
X892081Y677196D01*
X894085Y674585D01*
X896696Y672581D01*
X899737Y671322D01*
X903000Y670892D01*
X906263Y671322D01*
X909304Y672581D01*
X911915Y674585D01*
X913919Y677196D01*
X915048Y679923D01*
X915050Y679923D01*
X916350D01*
X916352Y679923D01*
X917245Y677766D01*
X916900Y677250D01*
X916900D01*
Y658836D01*
X810900D01*
Y677250D01*
X810900D01*
X810555Y677766D01*
X811578Y680237D01*
X812008Y683500D01*
X811578Y686763D01*
X810319Y689804D01*
X808315Y692415D01*
X805704Y694419D01*
X802663Y695678D01*
X799400Y696108D01*
X796137Y695678D01*
X793096Y694419D01*
X790485Y692415D01*
X788481Y689804D01*
X787352Y687077D01*
X787350Y687077D01*
X786050D01*
X786048Y687077D01*
X784919Y689804D01*
X782915Y692415D01*
X780304Y694419D01*
X777263Y695678D01*
X774000Y696108D01*
X770737Y695678D01*
X767696Y694419D01*
X765085Y692415D01*
X763081Y689804D01*
X761822Y686763D01*
X761392Y683500D01*
X761822Y680237D01*
X763081Y677196D01*
X765085Y674585D01*
X767696Y672581D01*
X770737Y671322D01*
X774000Y670892D01*
X777263Y671322D01*
X780304Y672581D01*
X782915Y674585D01*
X784919Y677196D01*
X786048Y679923D01*
X786050Y679923D01*
X787350D01*
X787352Y679923D01*
X788245Y677766D01*
X787900Y677250D01*
X787900D01*
Y658836D01*
X681900D01*
Y677250D01*
X681900D01*
X681555Y677766D01*
X682578Y680237D01*
X683008Y683500D01*
X682578Y686763D01*
X681319Y689804D01*
X679315Y692415D01*
X676704Y694419D01*
X673663Y695678D01*
X670400Y696108D01*
X667137Y695678D01*
X664096Y694419D01*
X661485Y692415D01*
X659481Y689804D01*
X658352Y687077D01*
X658350Y687077D01*
X657050D01*
X657048Y687077D01*
X655919Y689804D01*
X653915Y692415D01*
X651304Y694419D01*
X648263Y695678D01*
X645000Y696108D01*
X641737Y695678D01*
X638696Y694419D01*
X636085Y692415D01*
X634081Y689804D01*
X632822Y686763D01*
X632392Y683500D01*
X632822Y680237D01*
X634081Y677196D01*
X636085Y674585D01*
X638696Y672581D01*
X641737Y671322D01*
X645000Y670892D01*
X648263Y671322D01*
X651304Y672581D01*
X653915Y674585D01*
X655919Y677196D01*
X657048Y679923D01*
X657050Y679923D01*
X658350D01*
X658352Y679923D01*
X659245Y677766D01*
X658900Y677250D01*
X658900D01*
Y658836D01*
X552900D01*
Y677250D01*
X552900D01*
X552555Y677766D01*
X553578Y680237D01*
X554008Y683500D01*
X553578Y686763D01*
X552319Y689804D01*
X550315Y692415D01*
X547704Y694419D01*
X544663Y695678D01*
X541400Y696108D01*
X538137Y695678D01*
X535096Y694419D01*
X532485Y692415D01*
X530481Y689804D01*
X529352Y687077D01*
X529350Y687077D01*
X528050D01*
X528048Y687077D01*
X526919Y689804D01*
X524915Y692415D01*
X522304Y694419D01*
X519263Y695678D01*
X516000Y696108D01*
X512737Y695678D01*
X509696Y694419D01*
X507085Y692415D01*
X505081Y689804D01*
X503822Y686763D01*
X503392Y683500D01*
X503822Y680237D01*
X505081Y677196D01*
X507085Y674585D01*
X509696Y672581D01*
X512737Y671322D01*
X516000Y670892D01*
X519263Y671322D01*
X522304Y672581D01*
X524915Y674585D01*
X526919Y677196D01*
X528048Y679923D01*
X528050Y679923D01*
X529350D01*
X529352Y679923D01*
X530245Y677766D01*
X529900Y677250D01*
X529900D01*
Y658836D01*
X423900D01*
Y677250D01*
X423900D01*
X423555Y677766D01*
X424578Y680237D01*
X425008Y683500D01*
X424578Y686763D01*
X423319Y689804D01*
X421315Y692415D01*
X418704Y694419D01*
X415663Y695678D01*
X412400Y696108D01*
X409137Y695678D01*
X406096Y694419D01*
X403485Y692415D01*
X401481Y689804D01*
X400352Y687077D01*
X400350Y687077D01*
X399050D01*
X399048Y687077D01*
X397919Y689804D01*
X395915Y692415D01*
X393304Y694419D01*
X390263Y695678D01*
X387000Y696108D01*
X383737Y695678D01*
X380696Y694419D01*
X378085Y692415D01*
X376081Y689804D01*
X374822Y686763D01*
X374392Y683500D01*
X374822Y680237D01*
X376081Y677196D01*
X378085Y674585D01*
X380696Y672581D01*
X383737Y671322D01*
X387000Y670892D01*
X390263Y671322D01*
X393304Y672581D01*
X395915Y674585D01*
X397919Y677196D01*
X399048Y679923D01*
X399050Y679923D01*
X400350D01*
X400352Y679923D01*
X401245Y677766D01*
X400900Y677250D01*
X400900D01*
Y658836D01*
X294900D01*
Y677250D01*
X294900D01*
X294555Y677766D01*
X295578Y680237D01*
X296008Y683500D01*
X295578Y686763D01*
X294319Y689804D01*
X292315Y692415D01*
X289704Y694419D01*
X286663Y695678D01*
X283400Y696108D01*
X280137Y695678D01*
X277096Y694419D01*
X274485Y692415D01*
X272481Y689804D01*
X271352Y687077D01*
X271350Y687077D01*
X270050D01*
X270048Y687077D01*
X268919Y689804D01*
X266915Y692415D01*
X264304Y694419D01*
X261263Y695678D01*
X258000Y696108D01*
X254737Y695678D01*
X251696Y694419D01*
X249085Y692415D01*
X247081Y689804D01*
X245822Y686763D01*
X245392Y683500D01*
X245822Y680237D01*
X247081Y677196D01*
X249085Y674585D01*
X251696Y672581D01*
X254737Y671322D01*
X258000Y670892D01*
X261263Y671322D01*
X264304Y672581D01*
X266915Y674585D01*
X268919Y677196D01*
X270048Y679923D01*
X270050Y679923D01*
X271350D01*
X271352Y679923D01*
X272245Y677766D01*
X271900Y677250D01*
X271900D01*
Y658836D01*
X246250D01*
X243761Y658509D01*
X243590Y658528D01*
X242414Y659360D01*
X242078Y661913D01*
X240819Y664954D01*
X238815Y667565D01*
X236204Y669569D01*
X233477Y670698D01*
X233477Y670700D01*
Y672000D01*
X233477Y672002D01*
X236204Y673131D01*
X238815Y675135D01*
X240819Y677746D01*
X242078Y680787D01*
X242508Y684050D01*
X242078Y687313D01*
X240819Y690354D01*
X238815Y692965D01*
X236204Y694969D01*
X233163Y696228D01*
X229900Y696658D01*
X226637Y696228D01*
X223596Y694969D01*
X220985Y692965D01*
X218981Y690354D01*
X217722Y687313D01*
X217292Y684050D01*
X217722Y680787D01*
X218981Y677746D01*
X220985Y675135D01*
X223596Y673131D01*
X226323Y672002D01*
X226323Y672000D01*
Y670700D01*
X226323Y670698D01*
X224751Y670047D01*
X223500Y670000D01*
X223500Y670000D01*
X223500Y670000D01*
X205770D01*
X204500Y670000D01*
Y670000D01*
X204500D01*
Y670000D01*
X185500D01*
X185500Y670000D01*
Y670000D01*
X184249Y670047D01*
X182363Y670828D01*
X179100Y671258D01*
X175837Y670828D01*
X172796Y669569D01*
X170185Y667565D01*
X168181Y664954D01*
X166922Y661913D01*
X166492Y658650D01*
X166922Y655387D01*
X167644Y653642D01*
X166939Y652586D01*
X161936D01*
X161231Y653642D01*
X161953Y655387D01*
X162383Y658650D01*
X161953Y661913D01*
X160694Y664954D01*
X158690Y667565D01*
X156079Y669569D01*
X153352Y670698D01*
X153352Y670700D01*
Y672000D01*
X153352Y672002D01*
X156079Y673131D01*
X158690Y675135D01*
X160694Y677746D01*
X161953Y680787D01*
X162383Y684050D01*
X161953Y687313D01*
X160694Y690354D01*
X158690Y692965D01*
X156079Y694969D01*
X153038Y696228D01*
X149775Y696658D01*
X146512Y696228D01*
X143471Y694969D01*
X140860Y692965D01*
X138856Y690354D01*
X137597Y687313D01*
X137167Y684050D01*
X137597Y680787D01*
X138856Y677746D01*
X140860Y675135D01*
X143471Y673131D01*
X146198Y672002D01*
X146198Y672000D01*
Y670700D01*
X146198Y670698D01*
X144520Y670003D01*
X143250Y670250D01*
Y670250D01*
X143250Y670250D01*
X125520D01*
X124250Y670250D01*
Y670250D01*
X124250D01*
Y670250D01*
X105250D01*
Y670250D01*
X104632Y669837D01*
X102238Y670828D01*
X98975Y671258D01*
X95712Y670828D01*
X92671Y669569D01*
X90060Y667565D01*
X88056Y664954D01*
X86797Y661913D01*
X86367Y658650D01*
X86797Y655387D01*
X87519Y653642D01*
X86814Y652586D01*
X81811D01*
X81106Y653642D01*
X81828Y655387D01*
X82258Y658650D01*
X81828Y661913D01*
X80569Y664954D01*
X78565Y667565D01*
X75954Y669569D01*
X73227Y670698D01*
X73227Y670700D01*
Y672000D01*
X73227Y672002D01*
X75954Y673131D01*
X78565Y675135D01*
X80569Y677746D01*
X81828Y680787D01*
X82258Y684050D01*
X81828Y687313D01*
X80569Y690354D01*
X78565Y692965D01*
X75954Y694969D01*
X72913Y696228D01*
X69650Y696658D01*
X66387Y696228D01*
X63346Y694969D01*
X60735Y692965D01*
X58731Y690354D01*
X57472Y687313D01*
X57042Y684050D01*
X57472Y680787D01*
X58731Y677746D01*
X60735Y675135D01*
X63346Y673131D01*
X66073Y672002D01*
X66073Y672000D01*
Y670700D01*
X66073Y670698D01*
X64520Y670055D01*
X63250Y670150D01*
X63250Y670150D01*
X63250Y670150D01*
X45520D01*
X44250Y670150D01*
Y670150D01*
X44250D01*
Y670150D01*
X25250D01*
X25250Y670150D01*
Y670150D01*
X23980Y670055D01*
X22113Y670828D01*
X18850Y671258D01*
X15587Y670828D01*
X12546Y669569D01*
X9935Y667565D01*
X8250Y665369D01*
Y651931D01*
X9935Y649735D01*
X12546Y647731D01*
X15587Y646472D01*
X16943Y646293D01*
X27868Y635368D01*
X29957Y633765D01*
X32390Y632757D01*
X35000Y632414D01*
X240000D01*
X242610Y632757D01*
X245043Y633765D01*
X247132Y635368D01*
X250428Y638664D01*
X271197D01*
X271903Y637608D01*
X271222Y635963D01*
X270792Y632700D01*
X271222Y629437D01*
X272481Y626396D01*
X274485Y623785D01*
X277096Y621781D01*
X280137Y620522D01*
X283400Y620092D01*
X286663Y620522D01*
X289704Y621781D01*
X292315Y623785D01*
X294319Y626396D01*
X295578Y629437D01*
X296008Y632700D01*
X295578Y635963D01*
X294897Y637608D01*
X295603Y638664D01*
X347397D01*
X348103Y637608D01*
X347422Y635963D01*
X346992Y632700D01*
X347422Y629437D01*
X348681Y626396D01*
X350685Y623785D01*
X353296Y621781D01*
X356337Y620522D01*
X359600Y620092D01*
X362863Y620522D01*
X365904Y621781D01*
X368515Y623785D01*
X370519Y626396D01*
X371778Y629437D01*
X372208Y632700D01*
X371778Y635963D01*
X371097Y637608D01*
X371803Y638664D01*
X400197D01*
X400903Y637608D01*
X400222Y635963D01*
X399792Y632700D01*
X400222Y629437D01*
X401481Y626396D01*
X403485Y623785D01*
X406096Y621781D01*
X409137Y620522D01*
X412400Y620092D01*
X415663Y620522D01*
X418704Y621781D01*
X421315Y623785D01*
X423319Y626396D01*
X424578Y629437D01*
X425008Y632700D01*
X424578Y635963D01*
X423897Y637608D01*
X424603Y638664D01*
X476397D01*
X477103Y637608D01*
X476422Y635963D01*
X475992Y632700D01*
X476422Y629437D01*
X477681Y626396D01*
X479685Y623785D01*
X482296Y621781D01*
X485337Y620522D01*
X488600Y620092D01*
X491863Y620522D01*
X494904Y621781D01*
X497515Y623785D01*
X499519Y626396D01*
X500778Y629437D01*
X501208Y632700D01*
X500778Y635963D01*
X500097Y637608D01*
X500803Y638664D01*
X529197D01*
X529903Y637608D01*
X529222Y635963D01*
X528792Y632700D01*
X529222Y629437D01*
X530481Y626396D01*
X532485Y623785D01*
X535096Y621781D01*
X538137Y620522D01*
X541400Y620092D01*
X544663Y620522D01*
X547704Y621781D01*
X550315Y623785D01*
X552319Y626396D01*
X553578Y629437D01*
X554008Y632700D01*
X553578Y635963D01*
X552897Y637608D01*
X553603Y638664D01*
X605397D01*
X606103Y637608D01*
X605422Y635963D01*
X604992Y632700D01*
X605422Y629437D01*
X606681Y626396D01*
X608685Y623785D01*
X611296Y621781D01*
X614337Y620522D01*
X617600Y620092D01*
X620863Y620522D01*
X623904Y621781D01*
X626515Y623785D01*
X628519Y626396D01*
X629778Y629437D01*
X630208Y632700D01*
X629778Y635963D01*
X629097Y637608D01*
X629803Y638664D01*
X658197D01*
X658903Y637608D01*
X658222Y635963D01*
X657792Y632700D01*
X658222Y629437D01*
X659481Y626396D01*
X661485Y623785D01*
X664096Y621781D01*
X667137Y620522D01*
X670400Y620092D01*
X673663Y620522D01*
X676704Y621781D01*
X679315Y623785D01*
X681319Y626396D01*
X682578Y629437D01*
X683008Y632700D01*
X682578Y635963D01*
X681897Y637608D01*
X682603Y638664D01*
X734397D01*
X735103Y637608D01*
X734422Y635963D01*
X733992Y632700D01*
X734422Y629437D01*
X735681Y626396D01*
X737685Y623785D01*
X740296Y621781D01*
X743337Y620522D01*
X746600Y620092D01*
X749863Y620522D01*
X752904Y621781D01*
X755515Y623785D01*
X757519Y626396D01*
X758778Y629437D01*
X759208Y632700D01*
X758778Y635963D01*
X758097Y637608D01*
X758803Y638664D01*
X787197D01*
X787903Y637608D01*
X787222Y635963D01*
X786792Y632700D01*
X787222Y629437D01*
X788481Y626396D01*
X790485Y623785D01*
X793096Y621781D01*
X796137Y620522D01*
X799400Y620092D01*
X802663Y620522D01*
X805704Y621781D01*
X808315Y623785D01*
X810319Y626396D01*
X811578Y629437D01*
X812008Y632700D01*
X811578Y635963D01*
X810897Y637608D01*
X811603Y638664D01*
X863397D01*
X864103Y637608D01*
X863422Y635963D01*
X862992Y632700D01*
X863422Y629437D01*
X864681Y626396D01*
X866685Y623785D01*
X869296Y621781D01*
X872337Y620522D01*
X875600Y620092D01*
X878863Y620522D01*
X881904Y621781D01*
X884515Y623785D01*
X886519Y626396D01*
X887778Y629437D01*
X888208Y632700D01*
X887778Y635963D01*
X887097Y637608D01*
X887803Y638664D01*
X916197D01*
X916903Y637608D01*
X916222Y635963D01*
X915792Y632700D01*
X916222Y629437D01*
X917481Y626396D01*
X919485Y623785D01*
X922096Y621781D01*
X925137Y620522D01*
X928400Y620092D01*
X931663Y620522D01*
X934704Y621781D01*
X937315Y623785D01*
X939319Y626396D01*
X940578Y629437D01*
X941008Y632700D01*
X940578Y635963D01*
X939897Y637608D01*
X940603Y638664D01*
X992397D01*
X993103Y637608D01*
X992422Y635963D01*
X991992Y632700D01*
X992422Y629437D01*
X993681Y626396D01*
X995685Y623785D01*
X998296Y621781D01*
X1001337Y620522D01*
X1004600Y620092D01*
X1007863Y620522D01*
X1010904Y621781D01*
X1013515Y623785D01*
X1015519Y626396D01*
X1016778Y629437D01*
X1017208Y632700D01*
X1016778Y635963D01*
X1016097Y637608D01*
X1016803Y638664D01*
X1045181D01*
X1045886Y637608D01*
X1045222Y636003D01*
X1044792Y632740D01*
X1045222Y629477D01*
X1046481Y626436D01*
X1048485Y623825D01*
X1051096Y621821D01*
X1054137Y620562D01*
X1057400Y620132D01*
X1060663Y620562D01*
X1063704Y621821D01*
X1066315Y623825D01*
X1068319Y626436D01*
X1069578Y629477D01*
X1070008Y632740D01*
X1069578Y636003D01*
X1068914Y637608D01*
X1069619Y638664D01*
X1121381D01*
X1122086Y637608D01*
X1121422Y636003D01*
X1120992Y632740D01*
X1121422Y629477D01*
X1122681Y626436D01*
X1124685Y623825D01*
X1127296Y621821D01*
X1130337Y620562D01*
X1133600Y620132D01*
X1136863Y620562D01*
X1139904Y621821D01*
X1142515Y623825D01*
X1144519Y626436D01*
X1145778Y629477D01*
X1146208Y632740D01*
X1145778Y636003D01*
X1145114Y637608D01*
X1145819Y638664D01*
X1174131D01*
X1174836Y637608D01*
X1174172Y636003D01*
X1173742Y632740D01*
X1174172Y629477D01*
X1175431Y626436D01*
X1177435Y623825D01*
X1180046Y621821D01*
X1183087Y620562D01*
X1186350Y620132D01*
X1189613Y620562D01*
X1192654Y621821D01*
X1195265Y623825D01*
X1197269Y626436D01*
X1198528Y629477D01*
X1198958Y632740D01*
X1198528Y636003D01*
X1197864Y637608D01*
X1198569Y638664D01*
X1250331D01*
X1251036Y637608D01*
X1250372Y636003D01*
X1249942Y632740D01*
X1250372Y629477D01*
X1251631Y626436D01*
X1253635Y623825D01*
X1256246Y621821D01*
X1259287Y620562D01*
X1262550Y620132D01*
X1265813Y620562D01*
X1268854Y621821D01*
X1271465Y623825D01*
X1273469Y626436D01*
X1274728Y629477D01*
X1275158Y632740D01*
X1274728Y636003D01*
X1274064Y637608D01*
X1274769Y638664D01*
X1303181D01*
X1303886Y637608D01*
X1303222Y636003D01*
X1302792Y632740D01*
X1303222Y629477D01*
X1304481Y626436D01*
X1306485Y623825D01*
X1309096Y621821D01*
X1312137Y620562D01*
X1315400Y620132D01*
X1318663Y620562D01*
X1321704Y621821D01*
X1324315Y623825D01*
X1326319Y626436D01*
X1327578Y629477D01*
X1328008Y632740D01*
X1327578Y636003D01*
X1326914Y637608D01*
X1327619Y638664D01*
X1379381D01*
X1380086Y637608D01*
X1379422Y636003D01*
X1378992Y632740D01*
X1379422Y629477D01*
X1380681Y626436D01*
X1382685Y623825D01*
X1385296Y621821D01*
X1388337Y620562D01*
X1391600Y620132D01*
X1394863Y620562D01*
X1397904Y621821D01*
X1400515Y623825D01*
X1402519Y626436D01*
X1403778Y629477D01*
X1404208Y632740D01*
X1403778Y636003D01*
X1403114Y637608D01*
X1403819Y638664D01*
X1414750D01*
X1417361Y639007D01*
X1419793Y640015D01*
X1421882Y641618D01*
X1440132Y659868D01*
X1441735Y661957D01*
X1442743Y664389D01*
X1443086Y667000D01*
X1442743Y669611D01*
X1442039Y671310D01*
X1442500Y672000D01*
X1442500D01*
Y695000D01*
X1439384D01*
X1438349Y696349D01*
X1432944Y701754D01*
X1431377Y702956D01*
X1429553Y703712D01*
X1427595Y703970D01*
D02*
G37*
G36*
X1262550Y696148D02*
X1259287Y695718D01*
X1256246Y694459D01*
X1253635Y692455D01*
X1251631Y689844D01*
X1250372Y686803D01*
X1249942Y683540D01*
X1250372Y680277D01*
X1251631Y677236D01*
X1253635Y674625D01*
X1256246Y672621D01*
X1259287Y671362D01*
X1262550Y670932D01*
X1265813Y671362D01*
X1268854Y672621D01*
X1271465Y674625D01*
X1273469Y677236D01*
X1274728Y680277D01*
X1275158Y683540D01*
X1274728Y686803D01*
X1273469Y689844D01*
X1271465Y692455D01*
X1268854Y694459D01*
X1265813Y695718D01*
X1262550Y696148D01*
D02*
G37*
G36*
X1133600D02*
X1130337Y695718D01*
X1127296Y694459D01*
X1124685Y692455D01*
X1122681Y689844D01*
X1121422Y686803D01*
X1120992Y683540D01*
X1121422Y680277D01*
X1122681Y677236D01*
X1124685Y674625D01*
X1127296Y672621D01*
X1130337Y671362D01*
X1133600Y670932D01*
X1136863Y671362D01*
X1139904Y672621D01*
X1142515Y674625D01*
X1144519Y677236D01*
X1145778Y680277D01*
X1146208Y683540D01*
X1145778Y686803D01*
X1144519Y689844D01*
X1142515Y692455D01*
X1139904Y694459D01*
X1136863Y695718D01*
X1133600Y696148D01*
D02*
G37*
G36*
X1004600Y696108D02*
X1001337Y695678D01*
X998296Y694419D01*
X995685Y692415D01*
X993681Y689804D01*
X992422Y686763D01*
X991992Y683500D01*
X992422Y680237D01*
X993681Y677196D01*
X995685Y674585D01*
X998296Y672581D01*
X1001337Y671322D01*
X1004600Y670892D01*
X1007863Y671322D01*
X1010904Y672581D01*
X1013515Y674585D01*
X1015519Y677196D01*
X1016778Y680237D01*
X1017208Y683500D01*
X1016778Y686763D01*
X1015519Y689804D01*
X1013515Y692415D01*
X1010904Y694419D01*
X1007863Y695678D01*
X1004600Y696108D01*
D02*
G37*
G36*
X875600D02*
X872337Y695678D01*
X869296Y694419D01*
X866685Y692415D01*
X864681Y689804D01*
X863422Y686763D01*
X862992Y683500D01*
X863422Y680237D01*
X864681Y677196D01*
X866685Y674585D01*
X869296Y672581D01*
X872337Y671322D01*
X875600Y670892D01*
X878863Y671322D01*
X881904Y672581D01*
X884515Y674585D01*
X886519Y677196D01*
X887778Y680237D01*
X888208Y683500D01*
X887778Y686763D01*
X886519Y689804D01*
X884515Y692415D01*
X881904Y694419D01*
X878863Y695678D01*
X875600Y696108D01*
D02*
G37*
G36*
X746600D02*
X743337Y695678D01*
X740296Y694419D01*
X737685Y692415D01*
X735681Y689804D01*
X734422Y686763D01*
X733992Y683500D01*
X734422Y680237D01*
X735681Y677196D01*
X737685Y674585D01*
X740296Y672581D01*
X743337Y671322D01*
X746600Y670892D01*
X749863Y671322D01*
X752904Y672581D01*
X755515Y674585D01*
X757519Y677196D01*
X758778Y680237D01*
X759208Y683500D01*
X758778Y686763D01*
X757519Y689804D01*
X755515Y692415D01*
X752904Y694419D01*
X749863Y695678D01*
X746600Y696108D01*
D02*
G37*
G36*
X617600D02*
X614337Y695678D01*
X611296Y694419D01*
X608685Y692415D01*
X606681Y689804D01*
X605422Y686763D01*
X604992Y683500D01*
X605422Y680237D01*
X606681Y677196D01*
X608685Y674585D01*
X611296Y672581D01*
X614337Y671322D01*
X617600Y670892D01*
X620863Y671322D01*
X623904Y672581D01*
X626515Y674585D01*
X628519Y677196D01*
X629778Y680237D01*
X630208Y683500D01*
X629778Y686763D01*
X628519Y689804D01*
X626515Y692415D01*
X623904Y694419D01*
X620863Y695678D01*
X617600Y696108D01*
D02*
G37*
G36*
X488600D02*
X485337Y695678D01*
X482296Y694419D01*
X479685Y692415D01*
X477681Y689804D01*
X476422Y686763D01*
X475992Y683500D01*
X476422Y680237D01*
X477681Y677196D01*
X479685Y674585D01*
X482296Y672581D01*
X485337Y671322D01*
X488600Y670892D01*
X491863Y671322D01*
X494904Y672581D01*
X497515Y674585D01*
X499519Y677196D01*
X500778Y680237D01*
X501208Y683500D01*
X500778Y686763D01*
X499519Y689804D01*
X497515Y692415D01*
X494904Y694419D01*
X491863Y695678D01*
X488600Y696108D01*
D02*
G37*
G36*
X359600D02*
X356337Y695678D01*
X353296Y694419D01*
X350685Y692415D01*
X348681Y689804D01*
X347422Y686763D01*
X346992Y683500D01*
X347422Y680237D01*
X348681Y677196D01*
X350685Y674585D01*
X353296Y672581D01*
X356337Y671322D01*
X359600Y670892D01*
X362863Y671322D01*
X365904Y672581D01*
X368515Y674585D01*
X370519Y677196D01*
X371778Y680237D01*
X372208Y683500D01*
X371778Y686763D01*
X370519Y689804D01*
X368515Y692415D01*
X365904Y694419D01*
X362863Y695678D01*
X359600Y696108D01*
D02*
G37*
G36*
X229900Y595058D02*
X226637Y594628D01*
X223596Y593369D01*
X220985Y591365D01*
X218981Y588754D01*
X217722Y585713D01*
X217292Y582450D01*
X217722Y579187D01*
X218981Y576146D01*
X220985Y573535D01*
X223596Y571531D01*
X226637Y570272D01*
X229900Y569842D01*
X233163Y570272D01*
X236204Y571531D01*
X238815Y573535D01*
X240819Y576146D01*
X242078Y579187D01*
X242508Y582450D01*
X242078Y585713D01*
X240819Y588754D01*
X238815Y591365D01*
X236204Y593369D01*
X233163Y594628D01*
X229900Y595058D01*
D02*
G37*
G36*
X179100D02*
X175837Y594628D01*
X172796Y593369D01*
X170185Y591365D01*
X168181Y588754D01*
X166922Y585713D01*
X166492Y582450D01*
X166922Y579187D01*
X168181Y576146D01*
X170185Y573535D01*
X172796Y571531D01*
X175837Y570272D01*
X179100Y569842D01*
X182363Y570272D01*
X185404Y571531D01*
X188015Y573535D01*
X190019Y576146D01*
X191278Y579187D01*
X191708Y582450D01*
X191278Y585713D01*
X190019Y588754D01*
X188015Y591365D01*
X185404Y593369D01*
X182363Y594628D01*
X179100Y595058D01*
D02*
G37*
G36*
X149775D02*
X146512Y594628D01*
X143471Y593369D01*
X140860Y591365D01*
X138856Y588754D01*
X137597Y585713D01*
X137167Y582450D01*
X137597Y579187D01*
X138856Y576146D01*
X140860Y573535D01*
X143471Y571531D01*
X146512Y570272D01*
X149775Y569842D01*
X153038Y570272D01*
X156079Y571531D01*
X158690Y573535D01*
X160694Y576146D01*
X161953Y579187D01*
X162383Y582450D01*
X161953Y585713D01*
X160694Y588754D01*
X158690Y591365D01*
X156079Y593369D01*
X153038Y594628D01*
X149775Y595058D01*
D02*
G37*
G36*
X98975D02*
X95712Y594628D01*
X92671Y593369D01*
X90060Y591365D01*
X88056Y588754D01*
X86797Y585713D01*
X86367Y582450D01*
X86797Y579187D01*
X88056Y576146D01*
X90060Y573535D01*
X92671Y571531D01*
X95712Y570272D01*
X98975Y569842D01*
X102238Y570272D01*
X105279Y571531D01*
X107890Y573535D01*
X109894Y576146D01*
X111153Y579187D01*
X111583Y582450D01*
X111153Y585713D01*
X109894Y588754D01*
X107890Y591365D01*
X105279Y593369D01*
X102238Y594628D01*
X98975Y595058D01*
D02*
G37*
G36*
X69650D02*
X66387Y594628D01*
X63346Y593369D01*
X60735Y591365D01*
X58731Y588754D01*
X57472Y585713D01*
X57042Y582450D01*
X57472Y579187D01*
X58731Y576146D01*
X60735Y573535D01*
X63346Y571531D01*
X66387Y570272D01*
X69650Y569842D01*
X72913Y570272D01*
X75954Y571531D01*
X78565Y573535D01*
X80569Y576146D01*
X81828Y579187D01*
X82258Y582450D01*
X81828Y585713D01*
X80569Y588754D01*
X78565Y591365D01*
X75954Y593369D01*
X72913Y594628D01*
X69650Y595058D01*
D02*
G37*
G36*
X18850D02*
X15587Y594628D01*
X12546Y593369D01*
X9935Y591365D01*
X8250Y589169D01*
Y575731D01*
X9935Y573535D01*
X12546Y571531D01*
X15587Y570272D01*
X18850Y569842D01*
X22113Y570272D01*
X25154Y571531D01*
X27765Y573535D01*
X29769Y576146D01*
X31028Y579187D01*
X31458Y582450D01*
X31028Y585713D01*
X29769Y588754D01*
X27765Y591365D01*
X25154Y593369D01*
X22113Y594628D01*
X18850Y595058D01*
D02*
G37*
G36*
X1327100Y570960D02*
X1323669Y570622D01*
X1320370Y569621D01*
X1317330Y567996D01*
X1314666Y565809D01*
X1312479Y563144D01*
X1310854Y560104D01*
X1309853Y556806D01*
X1309515Y553375D01*
X1309853Y549944D01*
X1310854Y546646D01*
X1312479Y543605D01*
X1314666Y540941D01*
X1317330Y538754D01*
X1320370Y537129D01*
X1323669Y536128D01*
X1327100Y535790D01*
X1330530Y536128D01*
X1333829Y537129D01*
X1336869Y538754D01*
X1339534Y540941D01*
X1341721Y543605D01*
X1343346Y546646D01*
X1344347Y549944D01*
X1344684Y553375D01*
X1344347Y556806D01*
X1343346Y560104D01*
X1341721Y563144D01*
X1339534Y565809D01*
X1336869Y567996D01*
X1333829Y569621D01*
X1330530Y570622D01*
X1327100Y570960D01*
D02*
G37*
G36*
X1198211Y570783D02*
X1194781Y570445D01*
X1191482Y569444D01*
X1188442Y567819D01*
X1185777Y565632D01*
X1183590Y562968D01*
X1181965Y559927D01*
X1180965Y556629D01*
X1180627Y553198D01*
X1180965Y549768D01*
X1181965Y546469D01*
X1183590Y543429D01*
X1185777Y540764D01*
X1188442Y538577D01*
X1191482Y536952D01*
X1194781Y535951D01*
X1198211Y535614D01*
X1201642Y535951D01*
X1204941Y536952D01*
X1207981Y538577D01*
X1210646Y540764D01*
X1212832Y543429D01*
X1214457Y546469D01*
X1215458Y549768D01*
X1215796Y553198D01*
X1215458Y556629D01*
X1214457Y559927D01*
X1212832Y562968D01*
X1210646Y565632D01*
X1207981Y567819D01*
X1204941Y569444D01*
X1201642Y570445D01*
X1198211Y570783D01*
D02*
G37*
G36*
X1068923D02*
X1065492Y570445D01*
X1062194Y569444D01*
X1059154Y567819D01*
X1056489Y565632D01*
X1054302Y562968D01*
X1052677Y559927D01*
X1051676Y556629D01*
X1051338Y553198D01*
X1051676Y549768D01*
X1052677Y546469D01*
X1054302Y543429D01*
X1056489Y540764D01*
X1059154Y538577D01*
X1062194Y536952D01*
X1065492Y535951D01*
X1068923Y535614D01*
X1072354Y535951D01*
X1075652Y536952D01*
X1078692Y538577D01*
X1081357Y540764D01*
X1083544Y543429D01*
X1085169Y546469D01*
X1086170Y549768D01*
X1086508Y553198D01*
X1086170Y556629D01*
X1085169Y559927D01*
X1083544Y562968D01*
X1081357Y565632D01*
X1078692Y567819D01*
X1075652Y569444D01*
X1072354Y570445D01*
X1068923Y570783D01*
D02*
G37*
G36*
X939923D02*
X936492Y570445D01*
X933194Y569444D01*
X930154Y567819D01*
X927489Y565632D01*
X925302Y562968D01*
X923677Y559927D01*
X922676Y556629D01*
X922338Y553198D01*
X922676Y549768D01*
X923677Y546469D01*
X925302Y543429D01*
X927489Y540764D01*
X930154Y538577D01*
X933194Y536952D01*
X936492Y535951D01*
X939923Y535614D01*
X943354Y535951D01*
X946652Y536952D01*
X949693Y538577D01*
X952357Y540764D01*
X954544Y543429D01*
X956169Y546469D01*
X957170Y549768D01*
X957508Y553198D01*
X957170Y556629D01*
X956169Y559927D01*
X954544Y562968D01*
X952357Y565632D01*
X949693Y567819D01*
X946652Y569444D01*
X943354Y570445D01*
X939923Y570783D01*
D02*
G37*
G36*
X810923D02*
X807492Y570445D01*
X804194Y569444D01*
X801153Y567819D01*
X798489Y565632D01*
X796302Y562968D01*
X794677Y559927D01*
X793676Y556629D01*
X793338Y553198D01*
X793676Y549768D01*
X794677Y546469D01*
X796302Y543429D01*
X798489Y540764D01*
X801153Y538577D01*
X804194Y536952D01*
X807492Y535951D01*
X810923Y535614D01*
X814354Y535951D01*
X817652Y536952D01*
X820693Y538577D01*
X823357Y540764D01*
X825544Y543429D01*
X827169Y546469D01*
X828170Y549768D01*
X828508Y553198D01*
X828170Y556629D01*
X827169Y559927D01*
X825544Y562968D01*
X823357Y565632D01*
X820693Y567819D01*
X817652Y569444D01*
X814354Y570445D01*
X810923Y570783D01*
D02*
G37*
G36*
X681923D02*
X678492Y570445D01*
X675194Y569444D01*
X672153Y567819D01*
X669489Y565632D01*
X667302Y562968D01*
X665677Y559927D01*
X664676Y556629D01*
X664338Y553198D01*
X664676Y549768D01*
X665677Y546469D01*
X667302Y543429D01*
X669489Y540764D01*
X672153Y538577D01*
X675194Y536952D01*
X678492Y535951D01*
X681923Y535614D01*
X685354Y535951D01*
X688652Y536952D01*
X691693Y538577D01*
X694357Y540764D01*
X696544Y543429D01*
X698169Y546469D01*
X699170Y549768D01*
X699508Y553198D01*
X699170Y556629D01*
X698169Y559927D01*
X696544Y562968D01*
X694357Y565632D01*
X691693Y567819D01*
X688652Y569444D01*
X685354Y570445D01*
X681923Y570783D01*
D02*
G37*
G36*
X552923D02*
X549492Y570445D01*
X546194Y569444D01*
X543153Y567819D01*
X540489Y565632D01*
X538302Y562968D01*
X536677Y559927D01*
X535676Y556629D01*
X535338Y553198D01*
X535676Y549768D01*
X536677Y546469D01*
X538302Y543429D01*
X540489Y540764D01*
X543153Y538577D01*
X546194Y536952D01*
X549492Y535951D01*
X552923Y535614D01*
X556354Y535951D01*
X559652Y536952D01*
X562692Y538577D01*
X565357Y540764D01*
X567544Y543429D01*
X569169Y546469D01*
X570170Y549768D01*
X570508Y553198D01*
X570170Y556629D01*
X569169Y559927D01*
X567544Y562968D01*
X565357Y565632D01*
X562692Y567819D01*
X559652Y569444D01*
X556354Y570445D01*
X552923Y570783D01*
D02*
G37*
G36*
X423923D02*
X420492Y570445D01*
X417194Y569444D01*
X414154Y567819D01*
X411489Y565632D01*
X409302Y562968D01*
X407677Y559927D01*
X406676Y556629D01*
X406338Y553198D01*
X406676Y549768D01*
X407677Y546469D01*
X409302Y543429D01*
X411489Y540764D01*
X414154Y538577D01*
X417194Y536952D01*
X420492Y535951D01*
X423923Y535614D01*
X427354Y535951D01*
X430652Y536952D01*
X433693Y538577D01*
X436357Y540764D01*
X438544Y543429D01*
X440169Y546469D01*
X441170Y549768D01*
X441508Y553198D01*
X441170Y556629D01*
X440169Y559927D01*
X438544Y562968D01*
X436357Y565632D01*
X433693Y567819D01*
X430652Y569444D01*
X427354Y570445D01*
X423923Y570783D01*
D02*
G37*
G36*
X294923D02*
X291492Y570445D01*
X288194Y569444D01*
X285154Y567819D01*
X282489Y565632D01*
X280302Y562968D01*
X278677Y559927D01*
X277676Y556629D01*
X277338Y553198D01*
X277676Y549768D01*
X278677Y546469D01*
X280302Y543429D01*
X282489Y540764D01*
X285154Y538577D01*
X288194Y536952D01*
X291492Y535951D01*
X294923Y535614D01*
X298354Y535951D01*
X301652Y536952D01*
X304692Y538577D01*
X307357Y540764D01*
X309544Y543429D01*
X311169Y546469D01*
X312170Y549768D01*
X312508Y553198D01*
X312170Y556629D01*
X311169Y559927D01*
X309544Y562968D01*
X307357Y565632D01*
X304692Y567819D01*
X301652Y569444D01*
X298354Y570445D01*
X294923Y570783D01*
D02*
G37*
G36*
X1354854Y512093D02*
X1351423Y511755D01*
X1348124Y510755D01*
X1345084Y509129D01*
X1342419Y506943D01*
X1340233Y504278D01*
X1338608Y501238D01*
X1337607Y497939D01*
X1337269Y494508D01*
X1337607Y491078D01*
X1338608Y487779D01*
X1340233Y484739D01*
X1342419Y482074D01*
X1345084Y479887D01*
X1348124Y478262D01*
X1351423Y477262D01*
X1354854Y476924D01*
X1358284Y477262D01*
X1361583Y478262D01*
X1364623Y479887D01*
X1367288Y482074D01*
X1369475Y484739D01*
X1371100Y487779D01*
X1372101Y491078D01*
X1372438Y494508D01*
X1372101Y497939D01*
X1371100Y501238D01*
X1369475Y504278D01*
X1367288Y506943D01*
X1364623Y509129D01*
X1361583Y510755D01*
X1358284Y511755D01*
X1354854Y512093D01*
D02*
G37*
G36*
X1225965Y511916D02*
X1222535Y511578D01*
X1219236Y510578D01*
X1216196Y508953D01*
X1213531Y506766D01*
X1211344Y504101D01*
X1209719Y501061D01*
X1208718Y497762D01*
X1208381Y494332D01*
X1208718Y490901D01*
X1209719Y487602D01*
X1211344Y484562D01*
X1213531Y481897D01*
X1216196Y479710D01*
X1219236Y478085D01*
X1222535Y477085D01*
X1225965Y476747D01*
X1229396Y477085D01*
X1232695Y478085D01*
X1235735Y479710D01*
X1238400Y481897D01*
X1240586Y484562D01*
X1242212Y487602D01*
X1243212Y490901D01*
X1243550Y494332D01*
X1243212Y497762D01*
X1242212Y501061D01*
X1240586Y504101D01*
X1238400Y506766D01*
X1235735Y508953D01*
X1232695Y510578D01*
X1229396Y511578D01*
X1225965Y511916D01*
D02*
G37*
G36*
X1096677D02*
X1093246Y511578D01*
X1089948Y510578D01*
X1086908Y508953D01*
X1084243Y506766D01*
X1082056Y504101D01*
X1080431Y501061D01*
X1079430Y497762D01*
X1079092Y494332D01*
X1079430Y490901D01*
X1080431Y487602D01*
X1082056Y484562D01*
X1084243Y481897D01*
X1086908Y479710D01*
X1089948Y478085D01*
X1093246Y477085D01*
X1096677Y476747D01*
X1100108Y477085D01*
X1103406Y478085D01*
X1106447Y479710D01*
X1109111Y481897D01*
X1111298Y484562D01*
X1112923Y487602D01*
X1113924Y490901D01*
X1114262Y494332D01*
X1113924Y497762D01*
X1112923Y501061D01*
X1111298Y504101D01*
X1109111Y506766D01*
X1106447Y508953D01*
X1103406Y510578D01*
X1100108Y511578D01*
X1096677Y511916D01*
D02*
G37*
G36*
X967677D02*
X964246Y511578D01*
X960948Y510578D01*
X957907Y508953D01*
X955243Y506766D01*
X953056Y504101D01*
X951431Y501061D01*
X950430Y497762D01*
X950092Y494332D01*
X950430Y490901D01*
X951431Y487602D01*
X953056Y484562D01*
X955243Y481897D01*
X957907Y479710D01*
X960948Y478085D01*
X964246Y477085D01*
X967677Y476747D01*
X971107Y477085D01*
X974406Y478085D01*
X977446Y479710D01*
X980111Y481897D01*
X982298Y484562D01*
X983923Y487602D01*
X984924Y490901D01*
X985262Y494332D01*
X984924Y497762D01*
X983923Y501061D01*
X982298Y504101D01*
X980111Y506766D01*
X977446Y508953D01*
X974406Y510578D01*
X971107Y511578D01*
X967677Y511916D01*
D02*
G37*
G36*
X838677D02*
X835246Y511578D01*
X831948Y510578D01*
X828907Y508953D01*
X826243Y506766D01*
X824056Y504101D01*
X822431Y501061D01*
X821430Y497762D01*
X821092Y494332D01*
X821430Y490901D01*
X822431Y487602D01*
X824056Y484562D01*
X826243Y481897D01*
X828907Y479710D01*
X831948Y478085D01*
X835246Y477085D01*
X838677Y476747D01*
X842107Y477085D01*
X845406Y478085D01*
X848446Y479710D01*
X851111Y481897D01*
X853298Y484562D01*
X854923Y487602D01*
X855924Y490901D01*
X856262Y494332D01*
X855924Y497762D01*
X854923Y501061D01*
X853298Y504101D01*
X851111Y506766D01*
X848446Y508953D01*
X845406Y510578D01*
X842107Y511578D01*
X838677Y511916D01*
D02*
G37*
G36*
X709677D02*
X706246Y511578D01*
X702948Y510578D01*
X699907Y508953D01*
X697243Y506766D01*
X695056Y504101D01*
X693431Y501061D01*
X692430Y497762D01*
X692092Y494332D01*
X692430Y490901D01*
X693431Y487602D01*
X695056Y484562D01*
X697243Y481897D01*
X699907Y479710D01*
X702948Y478085D01*
X706246Y477085D01*
X709677Y476747D01*
X713108Y477085D01*
X716406Y478085D01*
X719446Y479710D01*
X722111Y481897D01*
X724298Y484562D01*
X725923Y487602D01*
X726924Y490901D01*
X727262Y494332D01*
X726924Y497762D01*
X725923Y501061D01*
X724298Y504101D01*
X722111Y506766D01*
X719446Y508953D01*
X716406Y510578D01*
X713108Y511578D01*
X709677Y511916D01*
D02*
G37*
G36*
X580677D02*
X577246Y511578D01*
X573948Y510578D01*
X570907Y508953D01*
X568243Y506766D01*
X566056Y504101D01*
X564431Y501061D01*
X563430Y497762D01*
X563092Y494332D01*
X563430Y490901D01*
X564431Y487602D01*
X566056Y484562D01*
X568243Y481897D01*
X570907Y479710D01*
X573948Y478085D01*
X577246Y477085D01*
X580677Y476747D01*
X584108Y477085D01*
X587406Y478085D01*
X590446Y479710D01*
X593111Y481897D01*
X595298Y484562D01*
X596923Y487602D01*
X597924Y490901D01*
X598262Y494332D01*
X597924Y497762D01*
X596923Y501061D01*
X595298Y504101D01*
X593111Y506766D01*
X590446Y508953D01*
X587406Y510578D01*
X584108Y511578D01*
X580677Y511916D01*
D02*
G37*
G36*
X451677D02*
X448246Y511578D01*
X444948Y510578D01*
X441907Y508953D01*
X439243Y506766D01*
X437056Y504101D01*
X435431Y501061D01*
X434430Y497762D01*
X434092Y494332D01*
X434430Y490901D01*
X435431Y487602D01*
X437056Y484562D01*
X439243Y481897D01*
X441907Y479710D01*
X444948Y478085D01*
X448246Y477085D01*
X451677Y476747D01*
X455107Y477085D01*
X458406Y478085D01*
X461446Y479710D01*
X464111Y481897D01*
X466298Y484562D01*
X467923Y487602D01*
X468924Y490901D01*
X469262Y494332D01*
X468924Y497762D01*
X467923Y501061D01*
X466298Y504101D01*
X464111Y506766D01*
X461446Y508953D01*
X458406Y510578D01*
X455107Y511578D01*
X451677Y511916D01*
D02*
G37*
G36*
X322677D02*
X319246Y511578D01*
X315948Y510578D01*
X312908Y508953D01*
X310243Y506766D01*
X308056Y504101D01*
X306431Y501061D01*
X305430Y497762D01*
X305092Y494332D01*
X305430Y490901D01*
X306431Y487602D01*
X308056Y484562D01*
X310243Y481897D01*
X312908Y479710D01*
X315948Y478085D01*
X319246Y477085D01*
X322677Y476747D01*
X326108Y477085D01*
X329406Y478085D01*
X332447Y479710D01*
X335111Y481897D01*
X337298Y484562D01*
X338923Y487602D01*
X339924Y490901D01*
X340262Y494332D01*
X339924Y497762D01*
X338923Y501061D01*
X337298Y504101D01*
X335111Y506766D01*
X332447Y508953D01*
X329406Y510578D01*
X326108Y511578D01*
X322677Y511916D01*
D02*
G37*
G36*
X1327100Y441908D02*
X1323669Y441570D01*
X1320370Y440569D01*
X1317330Y438944D01*
X1314666Y436758D01*
X1312479Y434093D01*
X1310854Y431053D01*
X1309853Y427754D01*
X1309515Y424323D01*
X1309853Y420893D01*
X1310854Y417594D01*
X1312479Y414554D01*
X1314666Y411889D01*
X1317330Y409702D01*
X1320370Y408077D01*
X1323669Y407076D01*
X1327100Y406739D01*
X1330530Y407076D01*
X1333829Y408077D01*
X1336869Y409702D01*
X1339534Y411889D01*
X1341721Y414554D01*
X1343346Y417594D01*
X1344347Y420893D01*
X1344684Y424323D01*
X1344347Y427754D01*
X1343346Y431053D01*
X1341721Y434093D01*
X1339534Y436758D01*
X1336869Y438944D01*
X1333829Y440569D01*
X1330530Y441570D01*
X1327100Y441908D01*
D02*
G37*
G36*
X1198035D02*
X1194604Y441570D01*
X1191305Y440569D01*
X1188265Y438944D01*
X1185600Y436758D01*
X1183413Y434093D01*
X1181788Y431053D01*
X1180788Y427754D01*
X1180450Y424323D01*
X1180788Y420893D01*
X1181788Y417594D01*
X1183413Y414554D01*
X1185600Y411889D01*
X1188265Y409702D01*
X1191305Y408077D01*
X1194604Y407076D01*
X1198035Y406739D01*
X1201465Y407076D01*
X1204764Y408077D01*
X1207804Y409702D01*
X1210469Y411889D01*
X1212656Y414554D01*
X1214281Y417594D01*
X1215281Y420893D01*
X1215619Y424323D01*
X1215281Y427754D01*
X1214281Y431053D01*
X1212656Y434093D01*
X1210469Y436758D01*
X1207804Y438944D01*
X1204764Y440569D01*
X1201465Y441570D01*
X1198035Y441908D01*
D02*
G37*
G36*
X1068923D02*
X1065492Y441570D01*
X1062194Y440569D01*
X1059154Y438944D01*
X1056489Y436758D01*
X1054302Y434093D01*
X1052677Y431053D01*
X1051676Y427754D01*
X1051338Y424323D01*
X1051676Y420893D01*
X1052677Y417594D01*
X1054302Y414554D01*
X1056489Y411889D01*
X1059154Y409702D01*
X1062194Y408077D01*
X1065492Y407076D01*
X1068923Y406739D01*
X1072354Y407076D01*
X1075652Y408077D01*
X1078692Y409702D01*
X1081357Y411889D01*
X1083544Y414554D01*
X1085169Y417594D01*
X1086170Y420893D01*
X1086508Y424323D01*
X1086170Y427754D01*
X1085169Y431053D01*
X1083544Y434093D01*
X1081357Y436758D01*
X1078692Y438944D01*
X1075652Y440569D01*
X1072354Y441570D01*
X1068923Y441908D01*
D02*
G37*
G36*
X939923D02*
X936492Y441570D01*
X933194Y440569D01*
X930154Y438944D01*
X927489Y436758D01*
X925302Y434093D01*
X923677Y431053D01*
X922676Y427754D01*
X922338Y424323D01*
X922676Y420893D01*
X923677Y417594D01*
X925302Y414554D01*
X927489Y411889D01*
X930154Y409702D01*
X933194Y408077D01*
X936492Y407076D01*
X939923Y406739D01*
X943354Y407076D01*
X946652Y408077D01*
X949693Y409702D01*
X952357Y411889D01*
X954544Y414554D01*
X956169Y417594D01*
X957170Y420893D01*
X957508Y424323D01*
X957170Y427754D01*
X956169Y431053D01*
X954544Y434093D01*
X952357Y436758D01*
X949693Y438944D01*
X946652Y440569D01*
X943354Y441570D01*
X939923Y441908D01*
D02*
G37*
G36*
X810923D02*
X807492Y441570D01*
X804194Y440569D01*
X801153Y438944D01*
X798489Y436758D01*
X796302Y434093D01*
X794677Y431053D01*
X793676Y427754D01*
X793338Y424323D01*
X793676Y420893D01*
X794677Y417594D01*
X796302Y414554D01*
X798489Y411889D01*
X801153Y409702D01*
X804194Y408077D01*
X807492Y407076D01*
X810923Y406739D01*
X814354Y407076D01*
X817652Y408077D01*
X820693Y409702D01*
X823357Y411889D01*
X825544Y414554D01*
X827169Y417594D01*
X828170Y420893D01*
X828508Y424323D01*
X828170Y427754D01*
X827169Y431053D01*
X825544Y434093D01*
X823357Y436758D01*
X820693Y438944D01*
X817652Y440569D01*
X814354Y441570D01*
X810923Y441908D01*
D02*
G37*
G36*
X681923D02*
X678492Y441570D01*
X675194Y440569D01*
X672153Y438944D01*
X669489Y436758D01*
X667302Y434093D01*
X665677Y431053D01*
X664676Y427754D01*
X664338Y424323D01*
X664676Y420893D01*
X665677Y417594D01*
X667302Y414554D01*
X669489Y411889D01*
X672153Y409702D01*
X675194Y408077D01*
X678492Y407076D01*
X681923Y406739D01*
X685354Y407076D01*
X688652Y408077D01*
X691693Y409702D01*
X694357Y411889D01*
X696544Y414554D01*
X698169Y417594D01*
X699170Y420893D01*
X699508Y424323D01*
X699170Y427754D01*
X698169Y431053D01*
X696544Y434093D01*
X694357Y436758D01*
X691693Y438944D01*
X688652Y440569D01*
X685354Y441570D01*
X681923Y441908D01*
D02*
G37*
G36*
X552923D02*
X549492Y441570D01*
X546194Y440569D01*
X543153Y438944D01*
X540489Y436758D01*
X538302Y434093D01*
X536677Y431053D01*
X535676Y427754D01*
X535338Y424323D01*
X535676Y420893D01*
X536677Y417594D01*
X538302Y414554D01*
X540489Y411889D01*
X543153Y409702D01*
X546194Y408077D01*
X549492Y407076D01*
X552923Y406739D01*
X556354Y407076D01*
X559652Y408077D01*
X562692Y409702D01*
X565357Y411889D01*
X567544Y414554D01*
X569169Y417594D01*
X570170Y420893D01*
X570508Y424323D01*
X570170Y427754D01*
X569169Y431053D01*
X567544Y434093D01*
X565357Y436758D01*
X562692Y438944D01*
X559652Y440569D01*
X556354Y441570D01*
X552923Y441908D01*
D02*
G37*
G36*
X423923D02*
X420492Y441570D01*
X417194Y440569D01*
X414154Y438944D01*
X411489Y436758D01*
X409302Y434093D01*
X407677Y431053D01*
X406676Y427754D01*
X406338Y424323D01*
X406676Y420893D01*
X407677Y417594D01*
X409302Y414554D01*
X411489Y411889D01*
X414154Y409702D01*
X417194Y408077D01*
X420492Y407076D01*
X423923Y406739D01*
X427354Y407076D01*
X430652Y408077D01*
X433693Y409702D01*
X436357Y411889D01*
X438544Y414554D01*
X440169Y417594D01*
X441170Y420893D01*
X441508Y424323D01*
X441170Y427754D01*
X440169Y431053D01*
X438544Y434093D01*
X436357Y436758D01*
X433693Y438944D01*
X430652Y440569D01*
X427354Y441570D01*
X423923Y441908D01*
D02*
G37*
G36*
X294923D02*
X291492Y441570D01*
X288194Y440569D01*
X285154Y438944D01*
X282489Y436758D01*
X280302Y434093D01*
X278677Y431053D01*
X277676Y427754D01*
X277338Y424323D01*
X277676Y420893D01*
X278677Y417594D01*
X280302Y414554D01*
X282489Y411889D01*
X285154Y409702D01*
X288194Y408077D01*
X291492Y407076D01*
X294923Y406739D01*
X298354Y407076D01*
X301652Y408077D01*
X304692Y409702D01*
X307357Y411889D01*
X309544Y414554D01*
X311169Y417594D01*
X312170Y420893D01*
X312508Y424323D01*
X312170Y427754D01*
X311169Y431053D01*
X309544Y434093D01*
X307357Y436758D01*
X304692Y438944D01*
X301652Y440569D01*
X298354Y441570D01*
X294923Y441908D01*
D02*
G37*
G36*
X1327277Y312680D02*
X1323846Y312342D01*
X1320547Y311341D01*
X1317507Y309716D01*
X1314842Y307529D01*
X1312655Y304864D01*
X1311030Y301824D01*
X1310030Y298526D01*
X1309692Y295095D01*
X1310030Y291664D01*
X1311030Y288366D01*
X1312655Y285325D01*
X1314842Y282661D01*
X1317507Y280474D01*
X1320547Y278849D01*
X1323846Y277848D01*
X1327277Y277510D01*
X1330707Y277848D01*
X1334006Y278849D01*
X1337046Y280474D01*
X1339711Y282661D01*
X1341898Y285325D01*
X1343523Y288366D01*
X1344523Y291664D01*
X1344861Y295095D01*
X1344523Y298526D01*
X1343523Y301824D01*
X1341898Y304864D01*
X1339711Y307529D01*
X1337046Y309716D01*
X1334006Y311341D01*
X1330707Y312342D01*
X1327277Y312680D01*
D02*
G37*
G36*
X1198211D02*
X1194781Y312342D01*
X1191482Y311341D01*
X1188442Y309716D01*
X1185777Y307529D01*
X1183590Y304864D01*
X1181965Y301824D01*
X1180965Y298526D01*
X1180627Y295095D01*
X1180965Y291664D01*
X1181965Y288366D01*
X1183590Y285325D01*
X1185777Y282661D01*
X1188442Y280474D01*
X1191482Y278849D01*
X1194781Y277848D01*
X1198211Y277510D01*
X1201642Y277848D01*
X1204941Y278849D01*
X1207981Y280474D01*
X1210646Y282661D01*
X1212832Y285325D01*
X1214457Y288366D01*
X1215458Y291664D01*
X1215796Y295095D01*
X1215458Y298526D01*
X1214457Y301824D01*
X1212832Y304864D01*
X1210646Y307529D01*
X1207981Y309716D01*
X1204941Y311341D01*
X1201642Y312342D01*
X1198211Y312680D01*
D02*
G37*
G36*
X1068923D02*
X1065492Y312342D01*
X1062194Y311341D01*
X1059154Y309716D01*
X1056489Y307529D01*
X1054302Y304864D01*
X1052677Y301824D01*
X1051676Y298526D01*
X1051338Y295095D01*
X1051676Y291664D01*
X1052677Y288366D01*
X1054302Y285325D01*
X1056489Y282661D01*
X1059154Y280474D01*
X1062194Y278849D01*
X1065492Y277848D01*
X1068923Y277510D01*
X1072354Y277848D01*
X1075652Y278849D01*
X1078692Y280474D01*
X1081357Y282661D01*
X1083544Y285325D01*
X1085169Y288366D01*
X1086170Y291664D01*
X1086508Y295095D01*
X1086170Y298526D01*
X1085169Y301824D01*
X1083544Y304864D01*
X1081357Y307529D01*
X1078692Y309716D01*
X1075652Y311341D01*
X1072354Y312342D01*
X1068923Y312680D01*
D02*
G37*
G36*
X939923D02*
X936492Y312342D01*
X933194Y311341D01*
X930154Y309716D01*
X927489Y307529D01*
X925302Y304864D01*
X923677Y301824D01*
X922676Y298526D01*
X922338Y295095D01*
X922676Y291664D01*
X923677Y288366D01*
X925302Y285325D01*
X927489Y282661D01*
X930154Y280474D01*
X933194Y278849D01*
X936492Y277848D01*
X939923Y277510D01*
X943354Y277848D01*
X946652Y278849D01*
X949693Y280474D01*
X952357Y282661D01*
X954544Y285325D01*
X956169Y288366D01*
X957170Y291664D01*
X957508Y295095D01*
X957170Y298526D01*
X956169Y301824D01*
X954544Y304864D01*
X952357Y307529D01*
X949693Y309716D01*
X946652Y311341D01*
X943354Y312342D01*
X939923Y312680D01*
D02*
G37*
G36*
X810923D02*
X807492Y312342D01*
X804194Y311341D01*
X801153Y309716D01*
X798489Y307529D01*
X796302Y304864D01*
X794677Y301824D01*
X793676Y298526D01*
X793338Y295095D01*
X793676Y291664D01*
X794677Y288366D01*
X796302Y285325D01*
X798489Y282661D01*
X801153Y280474D01*
X804194Y278849D01*
X807492Y277848D01*
X810923Y277510D01*
X814354Y277848D01*
X817652Y278849D01*
X820693Y280474D01*
X823357Y282661D01*
X825544Y285325D01*
X827169Y288366D01*
X828170Y291664D01*
X828508Y295095D01*
X828170Y298526D01*
X827169Y301824D01*
X825544Y304864D01*
X823357Y307529D01*
X820693Y309716D01*
X817652Y311341D01*
X814354Y312342D01*
X810923Y312680D01*
D02*
G37*
G36*
X681923D02*
X678492Y312342D01*
X675194Y311341D01*
X672153Y309716D01*
X669489Y307529D01*
X667302Y304864D01*
X665677Y301824D01*
X664676Y298526D01*
X664338Y295095D01*
X664676Y291664D01*
X665677Y288366D01*
X667302Y285325D01*
X669489Y282661D01*
X672153Y280474D01*
X675194Y278849D01*
X678492Y277848D01*
X681923Y277510D01*
X685354Y277848D01*
X688652Y278849D01*
X691693Y280474D01*
X694357Y282661D01*
X696544Y285325D01*
X698169Y288366D01*
X699170Y291664D01*
X699508Y295095D01*
X699170Y298526D01*
X698169Y301824D01*
X696544Y304864D01*
X694357Y307529D01*
X691693Y309716D01*
X688652Y311341D01*
X685354Y312342D01*
X681923Y312680D01*
D02*
G37*
G36*
X552923D02*
X549492Y312342D01*
X546194Y311341D01*
X543153Y309716D01*
X540489Y307529D01*
X538302Y304864D01*
X536677Y301824D01*
X535676Y298526D01*
X535338Y295095D01*
X535676Y291664D01*
X536677Y288366D01*
X538302Y285325D01*
X540489Y282661D01*
X543153Y280474D01*
X546194Y278849D01*
X549492Y277848D01*
X552923Y277510D01*
X556354Y277848D01*
X559652Y278849D01*
X562692Y280474D01*
X565357Y282661D01*
X567544Y285325D01*
X569169Y288366D01*
X570170Y291664D01*
X570508Y295095D01*
X570170Y298526D01*
X569169Y301824D01*
X567544Y304864D01*
X565357Y307529D01*
X562692Y309716D01*
X559652Y311341D01*
X556354Y312342D01*
X552923Y312680D01*
D02*
G37*
G36*
X423923D02*
X420492Y312342D01*
X417194Y311341D01*
X414154Y309716D01*
X411489Y307529D01*
X409302Y304864D01*
X407677Y301824D01*
X406676Y298526D01*
X406338Y295095D01*
X406676Y291664D01*
X407677Y288366D01*
X409302Y285325D01*
X411489Y282661D01*
X414154Y280474D01*
X417194Y278849D01*
X420492Y277848D01*
X423923Y277510D01*
X427354Y277848D01*
X430652Y278849D01*
X433693Y280474D01*
X436357Y282661D01*
X438544Y285325D01*
X440169Y288366D01*
X441170Y291664D01*
X441508Y295095D01*
X441170Y298526D01*
X440169Y301824D01*
X438544Y304864D01*
X436357Y307529D01*
X433693Y309716D01*
X430652Y311341D01*
X427354Y312342D01*
X423923Y312680D01*
D02*
G37*
G36*
X294923D02*
X291492Y312342D01*
X288194Y311341D01*
X285154Y309716D01*
X282489Y307529D01*
X280302Y304864D01*
X278677Y301824D01*
X277676Y298526D01*
X277338Y295095D01*
X277676Y291664D01*
X278677Y288366D01*
X280302Y285325D01*
X282489Y282661D01*
X285154Y280474D01*
X288194Y278849D01*
X291492Y277848D01*
X294923Y277510D01*
X298354Y277848D01*
X301652Y278849D01*
X304692Y280474D01*
X307357Y282661D01*
X309544Y285325D01*
X311169Y288366D01*
X312170Y291664D01*
X312508Y295095D01*
X312170Y298526D01*
X311169Y301824D01*
X309544Y304864D01*
X307357Y307529D01*
X304692Y309716D01*
X301652Y311341D01*
X298354Y312342D01*
X294923Y312680D01*
D02*
G37*
G36*
X229900Y296158D02*
X226637Y295728D01*
X223596Y294469D01*
X220985Y292465D01*
X218981Y289854D01*
X217722Y286813D01*
X217292Y283550D01*
X217722Y280287D01*
X218981Y277246D01*
X220985Y274635D01*
X223596Y272631D01*
X226637Y271372D01*
X229900Y270942D01*
X233163Y271372D01*
X236204Y272631D01*
X238815Y274635D01*
X240819Y277246D01*
X242078Y280287D01*
X242508Y283550D01*
X242078Y286813D01*
X240819Y289854D01*
X238815Y292465D01*
X236204Y294469D01*
X233163Y295728D01*
X229900Y296158D01*
D02*
G37*
G36*
X179100D02*
X175837Y295728D01*
X172796Y294469D01*
X170185Y292465D01*
X168181Y289854D01*
X166922Y286813D01*
X166492Y283550D01*
X166922Y280287D01*
X168181Y277246D01*
X170185Y274635D01*
X172796Y272631D01*
X175837Y271372D01*
X179100Y270942D01*
X182363Y271372D01*
X185404Y272631D01*
X188015Y274635D01*
X190019Y277246D01*
X191278Y280287D01*
X191708Y283550D01*
X191278Y286813D01*
X190019Y289854D01*
X188015Y292465D01*
X185404Y294469D01*
X182363Y295728D01*
X179100Y296158D01*
D02*
G37*
G36*
X1441500Y307313D02*
X1439607Y307063D01*
X1439369Y306965D01*
X1436234D01*
X1434406Y306724D01*
X1432703Y306019D01*
X1431241Y304897D01*
X1421772Y295428D01*
X1420650Y293966D01*
X1419945Y292263D01*
X1419705Y290436D01*
Y263750D01*
X1413750D01*
Y243750D01*
X1419650D01*
X1419702Y243357D01*
X1419705Y243350D01*
Y210439D01*
X1415601Y206336D01*
X1415594Y206333D01*
X1414079Y205171D01*
X1412917Y203656D01*
X1412187Y201893D01*
X1411938Y200000D01*
X1412187Y198107D01*
X1412190Y198100D01*
Y189928D01*
X1412430Y188101D01*
X1413136Y186398D01*
X1413839Y185481D01*
X1413465Y185107D01*
X1427607Y170965D01*
X1433508Y176866D01*
X1436727Y173647D01*
X1436727Y173647D01*
X1438023Y172782D01*
X1438187Y172385D01*
X1439349Y170871D01*
X1440864Y169709D01*
X1442627Y168978D01*
X1444520Y168729D01*
X1444550Y168733D01*
X1445505Y167895D01*
Y136144D01*
X1445942Y133945D01*
X1447187Y132081D01*
X1450005Y129264D01*
Y127952D01*
X1449572Y127573D01*
X1384675D01*
Y149360D01*
X1384417Y151318D01*
X1383661Y153142D01*
X1382459Y154709D01*
X1380892Y155911D01*
X1379068Y156667D01*
X1378451Y156748D01*
X1378378Y157303D01*
X1377119Y160344D01*
X1375115Y162955D01*
X1372504Y164959D01*
X1369463Y166218D01*
X1366200Y166648D01*
X1362937Y166218D01*
X1359896Y164959D01*
X1357285Y162955D01*
X1355281Y160344D01*
X1354022Y157303D01*
X1353592Y154040D01*
X1354022Y150777D01*
X1354853Y148770D01*
X1354500Y147500D01*
X1354500D01*
Y129086D01*
X1248700D01*
Y147500D01*
X1248700Y147500D01*
X1248700D01*
X1248547Y148770D01*
X1249378Y150777D01*
X1249808Y154040D01*
X1249378Y157303D01*
X1248119Y160344D01*
X1246115Y162955D01*
X1243504Y164959D01*
X1240463Y166218D01*
X1237200Y166648D01*
X1233937Y166218D01*
X1230896Y164959D01*
X1228285Y162955D01*
X1226281Y160344D01*
X1225022Y157303D01*
X1224592Y154040D01*
X1225022Y150777D01*
X1225853Y148770D01*
X1225700Y147500D01*
X1225700D01*
X1225700Y147500D01*
Y129086D01*
X1119700D01*
Y147500D01*
X1119700Y147500D01*
X1119700D01*
X1119547Y148770D01*
X1120378Y150777D01*
X1120808Y154040D01*
X1120378Y157303D01*
X1119119Y160344D01*
X1117115Y162955D01*
X1114504Y164959D01*
X1111463Y166218D01*
X1108200Y166648D01*
X1104937Y166218D01*
X1101896Y164959D01*
X1099285Y162955D01*
X1097281Y160344D01*
X1096022Y157303D01*
X1095592Y154040D01*
X1096022Y150777D01*
X1096853Y148770D01*
X1096700Y147500D01*
X1096700D01*
X1096700Y147500D01*
Y129086D01*
X990700D01*
Y147500D01*
X990700Y147500D01*
X990700D01*
X990547Y148770D01*
X991378Y150777D01*
X991808Y154040D01*
X991378Y157303D01*
X990119Y160344D01*
X988115Y162955D01*
X985504Y164959D01*
X982463Y166218D01*
X979200Y166648D01*
X975937Y166218D01*
X972896Y164959D01*
X970285Y162955D01*
X968281Y160344D01*
X967022Y157303D01*
X966592Y154040D01*
X967022Y150777D01*
X967853Y148770D01*
X967700Y147500D01*
X967700D01*
X967700Y147500D01*
Y129086D01*
X861700D01*
Y147500D01*
X861700Y147500D01*
X861700D01*
X861547Y148770D01*
X862378Y150777D01*
X862808Y154040D01*
X862378Y157303D01*
X861119Y160344D01*
X859115Y162955D01*
X856504Y164959D01*
X853463Y166218D01*
X850200Y166648D01*
X846937Y166218D01*
X843896Y164959D01*
X841285Y162955D01*
X839281Y160344D01*
X838022Y157303D01*
X837592Y154040D01*
X838022Y150777D01*
X838853Y148770D01*
X838700Y147500D01*
X838700D01*
X838700Y147500D01*
Y129086D01*
X732700D01*
Y147500D01*
X732700Y147500D01*
X732700D01*
X732547Y148770D01*
X733378Y150777D01*
X733808Y154040D01*
X733378Y157303D01*
X732119Y160344D01*
X730115Y162955D01*
X727504Y164959D01*
X724463Y166218D01*
X721200Y166648D01*
X717937Y166218D01*
X714896Y164959D01*
X712285Y162955D01*
X710281Y160344D01*
X709022Y157303D01*
X708592Y154040D01*
X709022Y150777D01*
X709853Y148770D01*
X709700Y147500D01*
X709700D01*
X709700Y147500D01*
Y129086D01*
X603700D01*
Y147500D01*
X603700Y147500D01*
X603700D01*
X603547Y148770D01*
X604378Y150777D01*
X604808Y154040D01*
X604378Y157303D01*
X603119Y160344D01*
X601115Y162955D01*
X598504Y164959D01*
X595463Y166218D01*
X592200Y166648D01*
X588937Y166218D01*
X585896Y164959D01*
X583285Y162955D01*
X581281Y160344D01*
X580022Y157303D01*
X579592Y154040D01*
X580022Y150777D01*
X580853Y148770D01*
X580700Y147500D01*
X580700D01*
X580700Y147500D01*
Y129086D01*
X474700D01*
Y147500D01*
X474700Y147500D01*
X474700D01*
X474547Y148770D01*
X475378Y150777D01*
X475808Y154040D01*
X475378Y157303D01*
X474119Y160344D01*
X472115Y162955D01*
X469504Y164959D01*
X466463Y166218D01*
X463200Y166648D01*
X459937Y166218D01*
X456896Y164959D01*
X454285Y162955D01*
X452281Y160344D01*
X451022Y157303D01*
X450592Y154040D01*
X451022Y150777D01*
X451853Y148770D01*
X451700Y147500D01*
X451700D01*
X451700Y147500D01*
Y129086D01*
X399178D01*
X387984Y140281D01*
X388439Y141622D01*
X390263Y141862D01*
X393304Y143121D01*
X395915Y145125D01*
X397919Y147736D01*
X399178Y150777D01*
X399608Y154040D01*
X399178Y157303D01*
X397919Y160344D01*
X395915Y162955D01*
X393304Y164959D01*
X390263Y166218D01*
X387000Y166648D01*
X383737Y166218D01*
X380696Y164959D01*
X378085Y162955D01*
X376081Y160344D01*
X374822Y157303D01*
X374416Y154223D01*
X373382Y153277D01*
X372860Y153493D01*
X370250Y153836D01*
X347750D01*
X346705Y153699D01*
X345750Y154536D01*
Y165000D01*
X345750D01*
X345451Y166270D01*
X346328Y168387D01*
X346758Y171650D01*
X346328Y174913D01*
X345069Y177954D01*
X343065Y180565D01*
X340454Y182569D01*
X337413Y183828D01*
X334150Y184258D01*
X330887Y183828D01*
X327846Y182569D01*
X325235Y180565D01*
X323231Y177954D01*
X321972Y174913D01*
X321542Y171650D01*
X321972Y168387D01*
X322849Y166270D01*
X322750Y165000D01*
X322750Y165000D01*
X322750Y165000D01*
Y146586D01*
X240981D01*
X240419Y147725D01*
X240819Y148246D01*
X242078Y151287D01*
X242508Y154550D01*
X242078Y157813D01*
X240819Y160854D01*
X238815Y163465D01*
X236204Y165469D01*
X233163Y166728D01*
X229900Y167158D01*
X226637Y166728D01*
X223596Y165469D01*
X220985Y163465D01*
X218981Y160854D01*
X217722Y157813D01*
X217292Y154550D01*
X217722Y151287D01*
X218981Y148246D01*
X219381Y147725D01*
X218819Y146586D01*
X214428D01*
X212213Y148801D01*
Y186374D01*
X211869Y188984D01*
X210861Y191417D01*
X209259Y193505D01*
X208187Y194577D01*
X208673Y195750D01*
X223250D01*
Y195750D01*
X224520Y196049D01*
X226637Y195172D01*
X229900Y194742D01*
X233163Y195172D01*
X236204Y196431D01*
X238815Y198435D01*
X240819Y201046D01*
X242078Y204087D01*
X242508Y207350D01*
X242078Y210613D01*
X240819Y213654D01*
X238815Y216265D01*
X236204Y218269D01*
X233163Y219528D01*
X229900Y219958D01*
X226637Y219528D01*
X224520Y218651D01*
X223250Y218750D01*
X223250Y218750D01*
X223250Y218750D01*
X205520D01*
X204250Y218750D01*
Y218750D01*
X204250D01*
Y218750D01*
X185250D01*
Y218750D01*
X184864Y218492D01*
X182363Y219528D01*
X179100Y219958D01*
X175837Y219528D01*
X172796Y218269D01*
X171711Y217436D01*
X165350D01*
X162740Y217093D01*
X160307Y216085D01*
X158218Y214482D01*
X126572Y182836D01*
X24358D01*
X21747Y182493D01*
X19315Y181485D01*
X17226Y179882D01*
X11368Y174024D01*
X9765Y171935D01*
X8757Y169503D01*
X8414Y166892D01*
Y160489D01*
X8413Y160488D01*
X8250Y160469D01*
Y120331D01*
X8413Y120312D01*
X9585Y118785D01*
X12196Y116781D01*
X15237Y115522D01*
X18500Y115092D01*
X21763Y115522D01*
X24804Y116781D01*
X27415Y118785D01*
X29419Y121396D01*
X30678Y124437D01*
X31108Y127700D01*
X30678Y130963D01*
X29419Y134004D01*
X27415Y136615D01*
X24804Y138619D01*
X22077Y139748D01*
X22077Y139750D01*
Y141050D01*
X22077Y141052D01*
X23730Y141736D01*
X25000Y141500D01*
Y141500D01*
X25000Y141500D01*
X42730D01*
X44000Y141500D01*
Y141500D01*
X44000D01*
Y141500D01*
X63000D01*
Y141500D01*
X63628Y141920D01*
X66037Y140922D01*
X69300Y140492D01*
X72563Y140922D01*
X75604Y142181D01*
X78215Y144185D01*
X80219Y146796D01*
X81478Y149837D01*
X81908Y153100D01*
X81478Y156363D01*
X80219Y159404D01*
X78692Y161394D01*
X79318Y162664D01*
X89014D01*
Y160489D01*
X88181Y159404D01*
X86922Y156363D01*
X86492Y153100D01*
X86922Y149837D01*
X88181Y146796D01*
X90185Y144185D01*
X92796Y142181D01*
X95523Y141052D01*
X95523Y141050D01*
Y139750D01*
X95523Y139748D01*
X92796Y138619D01*
X90185Y136615D01*
X88181Y134004D01*
X86922Y130963D01*
X86492Y127700D01*
X86922Y124437D01*
X88181Y121396D01*
X90185Y118785D01*
X92796Y116781D01*
X95837Y115522D01*
X99100Y115092D01*
X102363Y115522D01*
X105404Y116781D01*
X108015Y118785D01*
X110019Y121396D01*
X111278Y124437D01*
X111708Y127700D01*
X111278Y130963D01*
X110019Y134004D01*
X108015Y136615D01*
X105404Y138619D01*
X102677Y139748D01*
X102677Y139750D01*
Y141050D01*
X102677Y141052D01*
X104230Y141695D01*
X105500Y141500D01*
Y141500D01*
X105500Y141500D01*
X123230D01*
X124500Y141500D01*
Y141500D01*
X124500D01*
Y141500D01*
X143500D01*
X143500Y141500D01*
Y141500D01*
X144770Y141695D01*
X146637Y140922D01*
X149900Y140492D01*
X153163Y140922D01*
X156204Y142181D01*
X158815Y144185D01*
X160819Y146796D01*
X162078Y149837D01*
X162508Y153100D01*
X162078Y156363D01*
X160819Y159404D01*
X158815Y162015D01*
X156204Y164019D01*
X153163Y165278D01*
X149900Y165708D01*
X146637Y165278D01*
X144768Y164504D01*
X143500Y164500D01*
X143500Y164500D01*
X143500Y164500D01*
X138262D01*
X138237Y164573D01*
X138034Y165770D01*
X169528Y197264D01*
X171711D01*
X172796Y196431D01*
X175523Y195302D01*
X175523Y195300D01*
Y194000D01*
X175523Y193998D01*
X172796Y192869D01*
X170185Y190865D01*
X168181Y188254D01*
X166922Y185213D01*
X166492Y181950D01*
X166922Y178687D01*
X168181Y175646D01*
X170185Y173035D01*
X172796Y171031D01*
X175837Y169772D01*
X179100Y169342D01*
X182363Y169772D01*
X185404Y171031D01*
X188015Y173035D01*
X190019Y175646D01*
X190770Y177460D01*
X192040Y177208D01*
Y159292D01*
X190770Y159040D01*
X190019Y160854D01*
X188015Y163465D01*
X185404Y165469D01*
X182363Y166728D01*
X179100Y167158D01*
X175837Y166728D01*
X172796Y165469D01*
X170185Y163465D01*
X168181Y160854D01*
X166922Y157813D01*
X166492Y154550D01*
X166922Y151287D01*
X168181Y148246D01*
X170185Y145635D01*
X172796Y143631D01*
X175837Y142372D01*
X179100Y141942D01*
X182363Y142372D01*
X185404Y143631D01*
X188015Y145635D01*
X190019Y148246D01*
X190770Y150060D01*
X192040Y149808D01*
Y144623D01*
X192384Y142013D01*
X193392Y139580D01*
X194995Y137491D01*
X203118Y129368D01*
X205207Y127765D01*
X207640Y126757D01*
X210250Y126414D01*
X245582D01*
X246287Y125358D01*
X245772Y124113D01*
X245342Y120850D01*
X245772Y117587D01*
X247031Y114546D01*
X249035Y111935D01*
X251646Y109931D01*
X254687Y108672D01*
X257950Y108242D01*
X261213Y108672D01*
X264254Y109931D01*
X266865Y111935D01*
X268869Y114546D01*
X270128Y117587D01*
X270558Y120850D01*
X270128Y124113D01*
X269613Y125358D01*
X270318Y126414D01*
X321782D01*
X322487Y125358D01*
X321972Y124113D01*
X321542Y120850D01*
X321972Y117587D01*
X323231Y114546D01*
X325235Y111935D01*
X327846Y109931D01*
X330887Y108672D01*
X334150Y108242D01*
X337413Y108672D01*
X340454Y109931D01*
X343065Y111935D01*
X345069Y114546D01*
X346198Y117273D01*
X346200Y117273D01*
X347500D01*
X347502Y117273D01*
X348631Y114546D01*
X350635Y111935D01*
X353246Y109931D01*
X356287Y108672D01*
X359550Y108242D01*
X362813Y108672D01*
X365854Y109931D01*
X368465Y111935D01*
X370469Y114546D01*
X371728Y117587D01*
X372158Y120850D01*
X371728Y124113D01*
X370469Y127154D01*
X369423Y128517D01*
X370379Y129356D01*
X383176Y116560D01*
X382878Y115062D01*
X380696Y114159D01*
X378085Y112155D01*
X376081Y109544D01*
X374822Y106503D01*
X374392Y103240D01*
X374822Y99977D01*
X376081Y96936D01*
X378085Y94325D01*
X380696Y92321D01*
X383737Y91062D01*
X387000Y90632D01*
X390263Y91062D01*
X393304Y92321D01*
X395915Y94325D01*
X397919Y96936D01*
X399178Y99977D01*
X399608Y103240D01*
X399178Y106503D01*
X398617Y107858D01*
X399323Y108914D01*
X450877D01*
X451583Y107858D01*
X451022Y106503D01*
X450592Y103240D01*
X451022Y99977D01*
X452281Y96936D01*
X454285Y94325D01*
X456896Y92321D01*
X459937Y91062D01*
X463200Y90632D01*
X466463Y91062D01*
X469504Y92321D01*
X472115Y94325D01*
X474119Y96936D01*
X475248Y99663D01*
X475250Y99663D01*
X476550D01*
X476552Y99663D01*
X477681Y96936D01*
X479685Y94325D01*
X482296Y92321D01*
X485337Y91062D01*
X488600Y90632D01*
X491863Y91062D01*
X494904Y92321D01*
X497515Y94325D01*
X499519Y96936D01*
X500778Y99977D01*
X501208Y103240D01*
X500778Y106503D01*
X500217Y107858D01*
X500923Y108914D01*
X503677D01*
X504383Y107858D01*
X503822Y106503D01*
X503392Y103240D01*
X503822Y99977D01*
X505081Y96936D01*
X507085Y94325D01*
X509696Y92321D01*
X512737Y91062D01*
X516000Y90632D01*
X519263Y91062D01*
X522304Y92321D01*
X524915Y94325D01*
X526919Y96936D01*
X528178Y99977D01*
X528608Y103240D01*
X528178Y106503D01*
X527617Y107858D01*
X528323Y108914D01*
X579877D01*
X580583Y107858D01*
X580022Y106503D01*
X579592Y103240D01*
X580022Y99977D01*
X581281Y96936D01*
X583285Y94325D01*
X585896Y92321D01*
X588937Y91062D01*
X592200Y90632D01*
X595463Y91062D01*
X598504Y92321D01*
X601115Y94325D01*
X603119Y96936D01*
X604248Y99663D01*
X604250Y99663D01*
X605550D01*
X605552Y99663D01*
X606681Y96936D01*
X608685Y94325D01*
X611296Y92321D01*
X614337Y91062D01*
X617600Y90632D01*
X620863Y91062D01*
X623904Y92321D01*
X626515Y94325D01*
X628519Y96936D01*
X629778Y99977D01*
X630208Y103240D01*
X629778Y106503D01*
X629217Y107858D01*
X629923Y108914D01*
X632677D01*
X633383Y107858D01*
X632822Y106503D01*
X632392Y103240D01*
X632822Y99977D01*
X634081Y96936D01*
X636085Y94325D01*
X638696Y92321D01*
X641737Y91062D01*
X645000Y90632D01*
X648263Y91062D01*
X651304Y92321D01*
X653915Y94325D01*
X655919Y96936D01*
X657178Y99977D01*
X657608Y103240D01*
X657178Y106503D01*
X656617Y107858D01*
X657323Y108914D01*
X708877D01*
X709583Y107858D01*
X709022Y106503D01*
X708592Y103240D01*
X709022Y99977D01*
X710281Y96936D01*
X712285Y94325D01*
X714896Y92321D01*
X717937Y91062D01*
X721200Y90632D01*
X724463Y91062D01*
X727504Y92321D01*
X730115Y94325D01*
X732119Y96936D01*
X733248Y99663D01*
X733250Y99663D01*
X734550D01*
X734552Y99663D01*
X735681Y96936D01*
X737685Y94325D01*
X740296Y92321D01*
X743337Y91062D01*
X746600Y90632D01*
X749863Y91062D01*
X752904Y92321D01*
X755515Y94325D01*
X757519Y96936D01*
X758778Y99977D01*
X759208Y103240D01*
X758778Y106503D01*
X758217Y107858D01*
X758923Y108914D01*
X761677D01*
X762383Y107858D01*
X761822Y106503D01*
X761392Y103240D01*
X761822Y99977D01*
X763081Y96936D01*
X765085Y94325D01*
X767696Y92321D01*
X770737Y91062D01*
X774000Y90632D01*
X777263Y91062D01*
X780304Y92321D01*
X782915Y94325D01*
X784919Y96936D01*
X786178Y99977D01*
X786608Y103240D01*
X786178Y106503D01*
X785617Y107858D01*
X786323Y108914D01*
X837877D01*
X838583Y107858D01*
X838022Y106503D01*
X837592Y103240D01*
X838022Y99977D01*
X839281Y96936D01*
X841285Y94325D01*
X843896Y92321D01*
X846937Y91062D01*
X850200Y90632D01*
X853463Y91062D01*
X856504Y92321D01*
X859115Y94325D01*
X861119Y96936D01*
X862248Y99663D01*
X862250Y99663D01*
X863550D01*
X863552Y99663D01*
X864681Y96936D01*
X866685Y94325D01*
X869296Y92321D01*
X872337Y91062D01*
X875600Y90632D01*
X878863Y91062D01*
X881904Y92321D01*
X884515Y94325D01*
X886519Y96936D01*
X887778Y99977D01*
X888208Y103240D01*
X887778Y106503D01*
X887217Y107858D01*
X887923Y108914D01*
X890677D01*
X891383Y107858D01*
X890822Y106503D01*
X890392Y103240D01*
X890822Y99977D01*
X892081Y96936D01*
X894085Y94325D01*
X896696Y92321D01*
X899737Y91062D01*
X903000Y90632D01*
X906263Y91062D01*
X909304Y92321D01*
X911915Y94325D01*
X913919Y96936D01*
X915178Y99977D01*
X915608Y103240D01*
X915178Y106503D01*
X914617Y107858D01*
X915323Y108914D01*
X966877D01*
X967583Y107858D01*
X967022Y106503D01*
X966592Y103240D01*
X967022Y99977D01*
X968281Y96936D01*
X970285Y94325D01*
X972896Y92321D01*
X975937Y91062D01*
X979200Y90632D01*
X982463Y91062D01*
X985504Y92321D01*
X988115Y94325D01*
X990119Y96936D01*
X991248Y99663D01*
X991250Y99663D01*
X992550D01*
X992552Y99663D01*
X993681Y96936D01*
X995685Y94325D01*
X998296Y92321D01*
X1001337Y91062D01*
X1004600Y90632D01*
X1007863Y91062D01*
X1010904Y92321D01*
X1013515Y94325D01*
X1015519Y96936D01*
X1016778Y99977D01*
X1017208Y103240D01*
X1016778Y106503D01*
X1016217Y107858D01*
X1016923Y108914D01*
X1019677D01*
X1020383Y107858D01*
X1019822Y106503D01*
X1019392Y103240D01*
X1019822Y99977D01*
X1021081Y96936D01*
X1023085Y94325D01*
X1025696Y92321D01*
X1028737Y91062D01*
X1032000Y90632D01*
X1035263Y91062D01*
X1038304Y92321D01*
X1040915Y94325D01*
X1042919Y96936D01*
X1044178Y99977D01*
X1044608Y103240D01*
X1044178Y106503D01*
X1043617Y107858D01*
X1044323Y108914D01*
X1095877D01*
X1096583Y107858D01*
X1096022Y106503D01*
X1095592Y103240D01*
X1096022Y99977D01*
X1097281Y96936D01*
X1099285Y94325D01*
X1101896Y92321D01*
X1104937Y91062D01*
X1108200Y90632D01*
X1111463Y91062D01*
X1114504Y92321D01*
X1117115Y94325D01*
X1119119Y96936D01*
X1120248Y99663D01*
X1120250Y99663D01*
X1121550D01*
X1121552Y99663D01*
X1122681Y96936D01*
X1124685Y94325D01*
X1127296Y92321D01*
X1130337Y91062D01*
X1133600Y90632D01*
X1136863Y91062D01*
X1139904Y92321D01*
X1142515Y94325D01*
X1144519Y96936D01*
X1145778Y99977D01*
X1146208Y103240D01*
X1145778Y106503D01*
X1145217Y107858D01*
X1145923Y108914D01*
X1148677D01*
X1149383Y107858D01*
X1148822Y106503D01*
X1148392Y103240D01*
X1148822Y99977D01*
X1150081Y96936D01*
X1152085Y94325D01*
X1154696Y92321D01*
X1157737Y91062D01*
X1161000Y90632D01*
X1164263Y91062D01*
X1167304Y92321D01*
X1169915Y94325D01*
X1171919Y96936D01*
X1173178Y99977D01*
X1173608Y103240D01*
X1173178Y106503D01*
X1172617Y107858D01*
X1173323Y108914D01*
X1224877D01*
X1225583Y107858D01*
X1225022Y106503D01*
X1224592Y103240D01*
X1225022Y99977D01*
X1226281Y96936D01*
X1228285Y94325D01*
X1230896Y92321D01*
X1233937Y91062D01*
X1237200Y90632D01*
X1240463Y91062D01*
X1243504Y92321D01*
X1246115Y94325D01*
X1248119Y96936D01*
X1249248Y99663D01*
X1249250Y99663D01*
X1250550D01*
X1250552Y99663D01*
X1251681Y96936D01*
X1253685Y94325D01*
X1256296Y92321D01*
X1259337Y91062D01*
X1262600Y90632D01*
X1265863Y91062D01*
X1268904Y92321D01*
X1271515Y94325D01*
X1273519Y96936D01*
X1274778Y99977D01*
X1275208Y103240D01*
X1274778Y106503D01*
X1274217Y107858D01*
X1274923Y108914D01*
X1277677D01*
X1278383Y107858D01*
X1277822Y106503D01*
X1277392Y103240D01*
X1277822Y99977D01*
X1279081Y96936D01*
X1281085Y94325D01*
X1283696Y92321D01*
X1286737Y91062D01*
X1290000Y90632D01*
X1293263Y91062D01*
X1296304Y92321D01*
X1298915Y94325D01*
X1300919Y96936D01*
X1302178Y99977D01*
X1302608Y103240D01*
X1302178Y106503D01*
X1301617Y107858D01*
X1302323Y108914D01*
X1353877D01*
X1354583Y107858D01*
X1354022Y106503D01*
X1353592Y103240D01*
X1354022Y99977D01*
X1355281Y96936D01*
X1357285Y94325D01*
X1359896Y92321D01*
X1362937Y91062D01*
X1366200Y90632D01*
X1369463Y91062D01*
X1372504Y92321D01*
X1375115Y94325D01*
X1377119Y96936D01*
X1378248Y99663D01*
X1378250Y99663D01*
X1379550D01*
X1379552Y99663D01*
X1380681Y96936D01*
X1382685Y94325D01*
X1385296Y92321D01*
X1388337Y91062D01*
X1391600Y90632D01*
X1394863Y91062D01*
X1397904Y92321D01*
X1400515Y94325D01*
X1402519Y96936D01*
X1403778Y99977D01*
X1404208Y103240D01*
X1403778Y106503D01*
X1402679Y109157D01*
X1403295Y110427D01*
X1446021D01*
X1446780Y109668D01*
X1448555Y108305D01*
X1450623Y107449D01*
X1452842Y107157D01*
X1460880D01*
X1463098Y107449D01*
X1465166Y108305D01*
X1466942Y109668D01*
X1474312Y117038D01*
X1475675Y118814D01*
X1476531Y120882D01*
X1476823Y123101D01*
Y129449D01*
X1482812Y135438D01*
X1484175Y137213D01*
X1485031Y139281D01*
X1485323Y141500D01*
Y161949D01*
X1501062Y177688D01*
X1502425Y179463D01*
X1503281Y181531D01*
X1503573Y183750D01*
Y193356D01*
X1504843Y193787D01*
X1505195Y193329D01*
X1506709Y192167D01*
X1508473Y191437D01*
X1510366Y191187D01*
X1512258Y191437D01*
X1514022Y192167D01*
X1515536Y193329D01*
X1516511Y194600D01*
X1527239D01*
X1529438Y195037D01*
X1531301Y196282D01*
X1534467Y199449D01*
X1534468Y199449D01*
X1535713Y201313D01*
X1536150Y203511D01*
Y230313D01*
X1535713Y232512D01*
X1534468Y234376D01*
X1524979Y243864D01*
X1524853Y244821D01*
X1524123Y246584D01*
X1522961Y248099D01*
X1521446Y249261D01*
X1519683Y249991D01*
X1517790Y250241D01*
X1515897Y249991D01*
X1514134Y249261D01*
X1512619Y248099D01*
X1511803Y247035D01*
X1506790D01*
X1504591Y246598D01*
X1502727Y245353D01*
X1502715Y245340D01*
X1469753D01*
X1469753Y245340D01*
X1467554Y244903D01*
X1465690Y243658D01*
X1465690Y243657D01*
X1462794Y240762D01*
X1462122Y241121D01*
X1461812Y241328D01*
X1461685Y241448D01*
Y250690D01*
X1461248Y252889D01*
X1460002Y254753D01*
X1456745Y258010D01*
Y267216D01*
X1458015Y268102D01*
X1459250Y267940D01*
X1538119D01*
X1538187Y267425D01*
X1538917Y265662D01*
X1540079Y264147D01*
X1541594Y262985D01*
X1541923Y262849D01*
X1543155Y261903D01*
X1544858Y261198D01*
X1546686Y260957D01*
X1552817D01*
X1554644Y261198D01*
X1556347Y261903D01*
X1557809Y263025D01*
X1561043Y266259D01*
X1562165Y267721D01*
X1562870Y269424D01*
X1563111Y271251D01*
Y275824D01*
X1562870Y277652D01*
X1562165Y279354D01*
X1561043Y280817D01*
X1556597Y285262D01*
X1555135Y286385D01*
X1553432Y287090D01*
X1551604Y287330D01*
X1544174D01*
X1543156Y288349D01*
Y290455D01*
X1543313Y291644D01*
X1543063Y293536D01*
X1542333Y295300D01*
X1541171Y296815D01*
X1539656Y297977D01*
X1537893Y298707D01*
X1536000Y298956D01*
X1534107Y298707D01*
X1532344Y297977D01*
X1530829Y296815D01*
X1529667Y295300D01*
X1528937Y293536D01*
X1528687Y291644D01*
X1528937Y289751D01*
X1529035Y289513D01*
Y285424D01*
X1529276Y283597D01*
X1529475Y283116D01*
X1528769Y282060D01*
X1462175D01*
X1461965Y282269D01*
Y288631D01*
X1461725Y290459D01*
X1461019Y292162D01*
X1459897Y293624D01*
X1453886Y299636D01*
X1448625Y304897D01*
X1447162Y306019D01*
X1445459Y306724D01*
X1443632Y306965D01*
X1443631D01*
X1443393Y307063D01*
X1441500Y307313D01*
D02*
G37*
G36*
X1607780Y225525D02*
X1605581Y225088D01*
X1603717Y223843D01*
X1602109Y222234D01*
X1601361Y222544D01*
X1598000Y222986D01*
X1594639Y222544D01*
X1591507Y221246D01*
X1588817Y219182D01*
X1586754Y216493D01*
X1585456Y213361D01*
X1585014Y210000D01*
X1585456Y206639D01*
X1586754Y203507D01*
X1588817Y200817D01*
X1589055Y200635D01*
Y199365D01*
X1588817Y199182D01*
X1586754Y196493D01*
X1585456Y193361D01*
X1585014Y190000D01*
X1585456Y186639D01*
X1586754Y183507D01*
X1588817Y180817D01*
X1589055Y180635D01*
Y179365D01*
X1588817Y179182D01*
X1586754Y176493D01*
X1585456Y173361D01*
X1585014Y170000D01*
X1585456Y166639D01*
X1586754Y163507D01*
X1588817Y160817D01*
X1589055Y160635D01*
Y159365D01*
X1588817Y159183D01*
X1586754Y156493D01*
X1585456Y153361D01*
X1585014Y150000D01*
X1585456Y146639D01*
X1586754Y143507D01*
X1588817Y140817D01*
X1589055Y140635D01*
Y139365D01*
X1588817Y139183D01*
X1586754Y136493D01*
X1585456Y133361D01*
X1585014Y130000D01*
X1585456Y126639D01*
X1586754Y123507D01*
X1588817Y120817D01*
X1591507Y118754D01*
X1594639Y117456D01*
X1598000Y117014D01*
X1601361Y117456D01*
X1604493Y118754D01*
X1607183Y120817D01*
X1607365Y121055D01*
X1608635D01*
X1608817Y120817D01*
X1611507Y118754D01*
X1614639Y117456D01*
X1618000Y117014D01*
X1621361Y117456D01*
X1624493Y118754D01*
X1627183Y120817D01*
X1629246Y123507D01*
X1629556Y124255D01*
X1631870D01*
X1639967Y116157D01*
X1641831Y114912D01*
X1644030Y114475D01*
X1644030Y114475D01*
X1669470D01*
X1671669Y114912D01*
X1673533Y116157D01*
X1675141Y117766D01*
X1675889Y117456D01*
X1679250Y117014D01*
X1682611Y117456D01*
X1685743Y118754D01*
X1688433Y120817D01*
X1690496Y123507D01*
X1691794Y126639D01*
X1692236Y130000D01*
X1691794Y133361D01*
X1690496Y136493D01*
X1688433Y139183D01*
X1688195Y139365D01*
Y140635D01*
X1688433Y140817D01*
X1690496Y143507D01*
X1691794Y146639D01*
X1692236Y150000D01*
X1691794Y153361D01*
X1690496Y156493D01*
X1688433Y159183D01*
X1688195Y159365D01*
Y160635D01*
X1688433Y160817D01*
X1690496Y163507D01*
X1691794Y166639D01*
X1692236Y170000D01*
X1691794Y173361D01*
X1690496Y176493D01*
X1688433Y179182D01*
X1688195Y179365D01*
Y180635D01*
X1688433Y180817D01*
X1690496Y183507D01*
X1691794Y186639D01*
X1692236Y190000D01*
X1691794Y193361D01*
X1690496Y196493D01*
X1688433Y199182D01*
X1688195Y199365D01*
Y200635D01*
X1688433Y200817D01*
X1690496Y203507D01*
X1691794Y206639D01*
X1692236Y210000D01*
X1691794Y213361D01*
X1690496Y216493D01*
X1688433Y219182D01*
X1685743Y221246D01*
X1682611Y222544D01*
X1679250Y222986D01*
X1675889Y222544D01*
X1672757Y221246D01*
X1670067Y219182D01*
X1669885Y218945D01*
X1668615D01*
X1668433Y219182D01*
X1665743Y221246D01*
X1662611Y222544D01*
X1659250Y222986D01*
X1655889Y222544D01*
X1652757Y221246D01*
X1650067Y219182D01*
X1648004Y216493D01*
X1647694Y215745D01*
X1646130D01*
X1638033Y223843D01*
X1636169Y225088D01*
X1633970Y225525D01*
X1607780D01*
X1607780Y225525D01*
D02*
G37*
G36*
X1355031Y253813D02*
X1351600Y253475D01*
X1348301Y252474D01*
X1345261Y250849D01*
X1342596Y248662D01*
X1340409Y245998D01*
X1338784Y242958D01*
X1337784Y239659D01*
X1337446Y236228D01*
X1337784Y232798D01*
X1338784Y229499D01*
X1340409Y226459D01*
X1342596Y223794D01*
X1345261Y221607D01*
X1348301Y219982D01*
X1351600Y218981D01*
X1355031Y218644D01*
X1358461Y218981D01*
X1361760Y219982D01*
X1364800Y221607D01*
X1367465Y223794D01*
X1369652Y226459D01*
X1371277Y229499D01*
X1372277Y232798D01*
X1372615Y236228D01*
X1372277Y239659D01*
X1371277Y242958D01*
X1369652Y245998D01*
X1367465Y248662D01*
X1364800Y250849D01*
X1361760Y252474D01*
X1358461Y253475D01*
X1355031Y253813D01*
D02*
G37*
G36*
X1225965D02*
X1222535Y253475D01*
X1219236Y252474D01*
X1216196Y250849D01*
X1213531Y248662D01*
X1211344Y245998D01*
X1209719Y242958D01*
X1208718Y239659D01*
X1208381Y236228D01*
X1208718Y232798D01*
X1209719Y229499D01*
X1211344Y226459D01*
X1213531Y223794D01*
X1216196Y221607D01*
X1219236Y219982D01*
X1222535Y218981D01*
X1225965Y218644D01*
X1229396Y218981D01*
X1232695Y219982D01*
X1235735Y221607D01*
X1238400Y223794D01*
X1240586Y226459D01*
X1242212Y229499D01*
X1243212Y232798D01*
X1243550Y236228D01*
X1243212Y239659D01*
X1242212Y242958D01*
X1240586Y245998D01*
X1238400Y248662D01*
X1235735Y250849D01*
X1232695Y252474D01*
X1229396Y253475D01*
X1225965Y253813D01*
D02*
G37*
G36*
X1096677D02*
X1093246Y253475D01*
X1089948Y252474D01*
X1086908Y250849D01*
X1084243Y248662D01*
X1082056Y245998D01*
X1080431Y242958D01*
X1079430Y239659D01*
X1079092Y236228D01*
X1079430Y232798D01*
X1080431Y229499D01*
X1082056Y226459D01*
X1084243Y223794D01*
X1086908Y221607D01*
X1089948Y219982D01*
X1093246Y218981D01*
X1096677Y218644D01*
X1100108Y218981D01*
X1103406Y219982D01*
X1106447Y221607D01*
X1109111Y223794D01*
X1111298Y226459D01*
X1112923Y229499D01*
X1113924Y232798D01*
X1114262Y236228D01*
X1113924Y239659D01*
X1112923Y242958D01*
X1111298Y245998D01*
X1109111Y248662D01*
X1106447Y250849D01*
X1103406Y252474D01*
X1100108Y253475D01*
X1096677Y253813D01*
D02*
G37*
G36*
X967677D02*
X964246Y253475D01*
X960948Y252474D01*
X957907Y250849D01*
X955243Y248662D01*
X953056Y245998D01*
X951431Y242958D01*
X950430Y239659D01*
X950092Y236228D01*
X950430Y232798D01*
X951431Y229499D01*
X953056Y226459D01*
X955243Y223794D01*
X957907Y221607D01*
X960948Y219982D01*
X964246Y218981D01*
X967677Y218644D01*
X971107Y218981D01*
X974406Y219982D01*
X977446Y221607D01*
X980111Y223794D01*
X982298Y226459D01*
X983923Y229499D01*
X984924Y232798D01*
X985262Y236228D01*
X984924Y239659D01*
X983923Y242958D01*
X982298Y245998D01*
X980111Y248662D01*
X977446Y250849D01*
X974406Y252474D01*
X971107Y253475D01*
X967677Y253813D01*
D02*
G37*
G36*
X838677D02*
X835246Y253475D01*
X831948Y252474D01*
X828907Y250849D01*
X826243Y248662D01*
X824056Y245998D01*
X822431Y242958D01*
X821430Y239659D01*
X821092Y236228D01*
X821430Y232798D01*
X822431Y229499D01*
X824056Y226459D01*
X826243Y223794D01*
X828907Y221607D01*
X831948Y219982D01*
X835246Y218981D01*
X838677Y218644D01*
X842107Y218981D01*
X845406Y219982D01*
X848446Y221607D01*
X851111Y223794D01*
X853298Y226459D01*
X854923Y229499D01*
X855924Y232798D01*
X856262Y236228D01*
X855924Y239659D01*
X854923Y242958D01*
X853298Y245998D01*
X851111Y248662D01*
X848446Y250849D01*
X845406Y252474D01*
X842107Y253475D01*
X838677Y253813D01*
D02*
G37*
G36*
X709677D02*
X706246Y253475D01*
X702948Y252474D01*
X699907Y250849D01*
X697243Y248662D01*
X695056Y245998D01*
X693431Y242958D01*
X692430Y239659D01*
X692092Y236228D01*
X692430Y232798D01*
X693431Y229499D01*
X695056Y226459D01*
X697243Y223794D01*
X699907Y221607D01*
X702948Y219982D01*
X706246Y218981D01*
X709677Y218644D01*
X713108Y218981D01*
X716406Y219982D01*
X719446Y221607D01*
X722111Y223794D01*
X724298Y226459D01*
X725923Y229499D01*
X726924Y232798D01*
X727262Y236228D01*
X726924Y239659D01*
X725923Y242958D01*
X724298Y245998D01*
X722111Y248662D01*
X719446Y250849D01*
X716406Y252474D01*
X713108Y253475D01*
X709677Y253813D01*
D02*
G37*
G36*
X580677D02*
X577246Y253475D01*
X573948Y252474D01*
X570907Y250849D01*
X568243Y248662D01*
X566056Y245998D01*
X564431Y242958D01*
X563430Y239659D01*
X563092Y236228D01*
X563430Y232798D01*
X564431Y229499D01*
X566056Y226459D01*
X568243Y223794D01*
X570907Y221607D01*
X573948Y219982D01*
X577246Y218981D01*
X580677Y218644D01*
X584108Y218981D01*
X587406Y219982D01*
X590446Y221607D01*
X593111Y223794D01*
X595298Y226459D01*
X596923Y229499D01*
X597924Y232798D01*
X598262Y236228D01*
X597924Y239659D01*
X596923Y242958D01*
X595298Y245998D01*
X593111Y248662D01*
X590446Y250849D01*
X587406Y252474D01*
X584108Y253475D01*
X580677Y253813D01*
D02*
G37*
G36*
X451677D02*
X448246Y253475D01*
X444948Y252474D01*
X441907Y250849D01*
X439243Y248662D01*
X437056Y245998D01*
X435431Y242958D01*
X434430Y239659D01*
X434092Y236228D01*
X434430Y232798D01*
X435431Y229499D01*
X437056Y226459D01*
X439243Y223794D01*
X441907Y221607D01*
X444948Y219982D01*
X448246Y218981D01*
X451677Y218644D01*
X455107Y218981D01*
X458406Y219982D01*
X461446Y221607D01*
X464111Y223794D01*
X466298Y226459D01*
X467923Y229499D01*
X468924Y232798D01*
X469262Y236228D01*
X468924Y239659D01*
X467923Y242958D01*
X466298Y245998D01*
X464111Y248662D01*
X461446Y250849D01*
X458406Y252474D01*
X455107Y253475D01*
X451677Y253813D01*
D02*
G37*
G36*
X322677D02*
X319246Y253475D01*
X315948Y252474D01*
X312908Y250849D01*
X310243Y248662D01*
X308056Y245998D01*
X306431Y242958D01*
X305430Y239659D01*
X305092Y236228D01*
X305430Y232798D01*
X306431Y229499D01*
X308056Y226459D01*
X310243Y223794D01*
X312908Y221607D01*
X315948Y219982D01*
X319246Y218981D01*
X322677Y218644D01*
X326108Y218981D01*
X329406Y219982D01*
X332447Y221607D01*
X335111Y223794D01*
X337298Y226459D01*
X338923Y229499D01*
X339924Y232798D01*
X340262Y236228D01*
X339924Y239659D01*
X338923Y242958D01*
X337298Y245998D01*
X335111Y248662D01*
X332447Y250849D01*
X329406Y252474D01*
X326108Y253475D01*
X322677Y253813D01*
D02*
G37*
G36*
X149900Y241908D02*
X146637Y241478D01*
X143596Y240219D01*
X140985Y238215D01*
X138981Y235604D01*
X137722Y232563D01*
X137292Y229300D01*
X137722Y226037D01*
X138981Y222996D01*
X140985Y220385D01*
X143596Y218381D01*
X146637Y217122D01*
X149900Y216692D01*
X153163Y217122D01*
X156204Y218381D01*
X158815Y220385D01*
X160819Y222996D01*
X162078Y226037D01*
X162508Y229300D01*
X162078Y232563D01*
X160819Y235604D01*
X158815Y238215D01*
X156204Y240219D01*
X153163Y241478D01*
X149900Y241908D01*
D02*
G37*
G36*
X99100D02*
X95837Y241478D01*
X92796Y240219D01*
X90185Y238215D01*
X88181Y235604D01*
X86922Y232563D01*
X86492Y229300D01*
X86922Y226037D01*
X88181Y222996D01*
X90185Y220385D01*
X92796Y218381D01*
X95837Y217122D01*
X99100Y216692D01*
X102363Y217122D01*
X105404Y218381D01*
X108015Y220385D01*
X110019Y222996D01*
X111278Y226037D01*
X111708Y229300D01*
X111278Y232563D01*
X110019Y235604D01*
X108015Y238215D01*
X105404Y240219D01*
X102363Y241478D01*
X99100Y241908D01*
D02*
G37*
G36*
X69300D02*
X66037Y241478D01*
X62996Y240219D01*
X60385Y238215D01*
X58381Y235604D01*
X57122Y232563D01*
X56692Y229300D01*
X57122Y226037D01*
X58381Y222996D01*
X60385Y220385D01*
X62996Y218381D01*
X66037Y217122D01*
X69300Y216692D01*
X72563Y217122D01*
X75604Y218381D01*
X78215Y220385D01*
X80219Y222996D01*
X81478Y226037D01*
X81908Y229300D01*
X81478Y232563D01*
X80219Y235604D01*
X78215Y238215D01*
X75604Y240219D01*
X72563Y241478D01*
X69300Y241908D01*
D02*
G37*
G36*
X18500D02*
X15237Y241478D01*
X12196Y240219D01*
X9585Y238215D01*
X8413Y236688D01*
X8250Y236669D01*
Y221931D01*
X8413Y221912D01*
X9585Y220385D01*
X12196Y218381D01*
X15237Y217122D01*
X18500Y216692D01*
X21763Y217122D01*
X24804Y218381D01*
X27415Y220385D01*
X29419Y222996D01*
X30678Y226037D01*
X31108Y229300D01*
X30678Y232563D01*
X29419Y235604D01*
X27415Y238215D01*
X24804Y240219D01*
X21763Y241478D01*
X18500Y241908D01*
D02*
G37*
G36*
X257950Y184258D02*
X254687Y183828D01*
X251646Y182569D01*
X249035Y180565D01*
X247031Y177954D01*
X245772Y174913D01*
X245342Y171650D01*
X245772Y168387D01*
X247031Y165346D01*
X249035Y162735D01*
X251646Y160731D01*
X254687Y159472D01*
X257950Y159042D01*
X261213Y159472D01*
X264254Y160731D01*
X266865Y162735D01*
X268869Y165346D01*
X270128Y168387D01*
X270558Y171650D01*
X270128Y174913D01*
X268869Y177954D01*
X266865Y180565D01*
X264254Y182569D01*
X261213Y183828D01*
X257950Y184258D01*
D02*
G37*
G36*
X1290000Y166648D02*
X1286737Y166218D01*
X1283696Y164959D01*
X1281085Y162955D01*
X1279081Y160344D01*
X1277822Y157303D01*
X1277392Y154040D01*
X1277822Y150777D01*
X1279081Y147736D01*
X1281085Y145125D01*
X1283696Y143121D01*
X1286737Y141862D01*
X1290000Y141432D01*
X1293263Y141862D01*
X1296304Y143121D01*
X1298915Y145125D01*
X1300919Y147736D01*
X1302178Y150777D01*
X1302608Y154040D01*
X1302178Y157303D01*
X1300919Y160344D01*
X1298915Y162955D01*
X1296304Y164959D01*
X1293263Y166218D01*
X1290000Y166648D01*
D02*
G37*
G36*
X1161000D02*
X1157737Y166218D01*
X1154696Y164959D01*
X1152085Y162955D01*
X1150081Y160344D01*
X1148822Y157303D01*
X1148392Y154040D01*
X1148822Y150777D01*
X1150081Y147736D01*
X1152085Y145125D01*
X1154696Y143121D01*
X1157737Y141862D01*
X1161000Y141432D01*
X1164263Y141862D01*
X1167304Y143121D01*
X1169915Y145125D01*
X1171919Y147736D01*
X1173178Y150777D01*
X1173608Y154040D01*
X1173178Y157303D01*
X1171919Y160344D01*
X1169915Y162955D01*
X1167304Y164959D01*
X1164263Y166218D01*
X1161000Y166648D01*
D02*
G37*
G36*
X1032000D02*
X1028737Y166218D01*
X1025696Y164959D01*
X1023085Y162955D01*
X1021081Y160344D01*
X1019822Y157303D01*
X1019392Y154040D01*
X1019822Y150777D01*
X1021081Y147736D01*
X1023085Y145125D01*
X1025696Y143121D01*
X1028737Y141862D01*
X1032000Y141432D01*
X1035263Y141862D01*
X1038304Y143121D01*
X1040915Y145125D01*
X1042919Y147736D01*
X1044178Y150777D01*
X1044608Y154040D01*
X1044178Y157303D01*
X1042919Y160344D01*
X1040915Y162955D01*
X1038304Y164959D01*
X1035263Y166218D01*
X1032000Y166648D01*
D02*
G37*
G36*
X903000D02*
X899737Y166218D01*
X896696Y164959D01*
X894085Y162955D01*
X892081Y160344D01*
X890822Y157303D01*
X890392Y154040D01*
X890822Y150777D01*
X892081Y147736D01*
X894085Y145125D01*
X896696Y143121D01*
X899737Y141862D01*
X903000Y141432D01*
X906263Y141862D01*
X909304Y143121D01*
X911915Y145125D01*
X913919Y147736D01*
X915178Y150777D01*
X915608Y154040D01*
X915178Y157303D01*
X913919Y160344D01*
X911915Y162955D01*
X909304Y164959D01*
X906263Y166218D01*
X903000Y166648D01*
D02*
G37*
G36*
X774000D02*
X770737Y166218D01*
X767696Y164959D01*
X765085Y162955D01*
X763081Y160344D01*
X761822Y157303D01*
X761392Y154040D01*
X761822Y150777D01*
X763081Y147736D01*
X765085Y145125D01*
X767696Y143121D01*
X770737Y141862D01*
X774000Y141432D01*
X777263Y141862D01*
X780304Y143121D01*
X782915Y145125D01*
X784919Y147736D01*
X786178Y150777D01*
X786608Y154040D01*
X786178Y157303D01*
X784919Y160344D01*
X782915Y162955D01*
X780304Y164959D01*
X777263Y166218D01*
X774000Y166648D01*
D02*
G37*
G36*
X645000D02*
X641737Y166218D01*
X638696Y164959D01*
X636085Y162955D01*
X634081Y160344D01*
X632822Y157303D01*
X632392Y154040D01*
X632822Y150777D01*
X634081Y147736D01*
X636085Y145125D01*
X638696Y143121D01*
X641737Y141862D01*
X645000Y141432D01*
X648263Y141862D01*
X651304Y143121D01*
X653915Y145125D01*
X655919Y147736D01*
X657178Y150777D01*
X657608Y154040D01*
X657178Y157303D01*
X655919Y160344D01*
X653915Y162955D01*
X651304Y164959D01*
X648263Y166218D01*
X645000Y166648D01*
D02*
G37*
G36*
X516000D02*
X512737Y166218D01*
X509696Y164959D01*
X507085Y162955D01*
X505081Y160344D01*
X503822Y157303D01*
X503392Y154040D01*
X503822Y150777D01*
X505081Y147736D01*
X507085Y145125D01*
X509696Y143121D01*
X512737Y141862D01*
X516000Y141432D01*
X519263Y141862D01*
X522304Y143121D01*
X524915Y145125D01*
X526919Y147736D01*
X528178Y150777D01*
X528608Y154040D01*
X528178Y157303D01*
X526919Y160344D01*
X524915Y162955D01*
X522304Y164959D01*
X519263Y166218D01*
X516000Y166648D01*
D02*
G37*
G36*
X229900Y90958D02*
X226637Y90528D01*
X224059Y89460D01*
X224000Y89500D01*
Y89500D01*
X206270D01*
X205000Y89500D01*
Y89500D01*
X205000D01*
Y89500D01*
X186000D01*
Y89500D01*
X184730Y88880D01*
X183102Y89554D01*
X180100Y89949D01*
X178100D01*
X175098Y89554D01*
X172300Y88395D01*
X169898Y86552D01*
X168055Y84150D01*
X166896Y81352D01*
X166501Y78350D01*
X166896Y75348D01*
X168055Y72550D01*
X169898Y70148D01*
X172300Y68305D01*
X175098Y67146D01*
X177434Y66838D01*
X178464Y66259D01*
Y66258D01*
D01*
X178515Y65481D01*
X178449Y65472D01*
X175837Y65128D01*
X172796Y63869D01*
X170185Y61865D01*
X168181Y59254D01*
X166922Y56213D01*
X166492Y52950D01*
X166922Y49687D01*
X168181Y46646D01*
X170185Y44035D01*
X172796Y42031D01*
X175837Y40772D01*
X179100Y40342D01*
X182363Y40772D01*
X185404Y42031D01*
X188015Y44035D01*
X190019Y46646D01*
X191278Y49687D01*
X191708Y52950D01*
X191278Y56213D01*
X190019Y59254D01*
X188015Y61865D01*
X185404Y63869D01*
X182363Y65128D01*
X179751Y65472D01*
X179685Y65481D01*
X179736Y66259D01*
X180766Y66838D01*
X183102Y67146D01*
X184730Y67820D01*
X186000Y66972D01*
Y66500D01*
X203730D01*
X205000Y66500D01*
Y66500D01*
X205000D01*
Y66500D01*
X224000D01*
Y66500D01*
X224706Y66972D01*
X226323Y66302D01*
X226323Y66300D01*
Y65000D01*
X226323Y64998D01*
X223596Y63869D01*
X220985Y61865D01*
X218981Y59254D01*
X217722Y56213D01*
X217292Y52950D01*
X217722Y49687D01*
X218981Y46646D01*
X220985Y44035D01*
X223596Y42031D01*
X226637Y40772D01*
X229900Y40342D01*
X233163Y40772D01*
X236204Y42031D01*
X238815Y44035D01*
X240819Y46646D01*
X242078Y49687D01*
X242508Y52950D01*
X242078Y56213D01*
X240819Y59254D01*
X238815Y61865D01*
X236204Y63869D01*
X233477Y64998D01*
X233477Y65000D01*
Y66300D01*
X233477Y66302D01*
X236204Y67431D01*
X238815Y69435D01*
X240819Y72046D01*
X242078Y75087D01*
X242508Y78350D01*
X242078Y81613D01*
X240819Y84654D01*
X238815Y87265D01*
X236204Y89269D01*
X233163Y90528D01*
X229900Y90958D01*
D02*
G37*
G36*
X114000Y60585D02*
X110569Y60247D01*
X107271Y59246D01*
X104230Y57621D01*
X101566Y55434D01*
X99379Y52769D01*
X97754Y49729D01*
X96753Y46431D01*
X96415Y43000D01*
X96753Y39569D01*
X97754Y36271D01*
X99379Y33231D01*
X101566Y30566D01*
X104230Y28379D01*
X107271Y26754D01*
X110569Y25753D01*
X114000Y25415D01*
X117431Y25753D01*
X120729Y26754D01*
X123770Y28379D01*
X126434Y30566D01*
X128621Y33231D01*
X130246Y36271D01*
X131247Y39569D01*
X131585Y43000D01*
X131247Y46431D01*
X130246Y49729D01*
X128621Y52769D01*
X126434Y55434D01*
X123770Y57621D01*
X120729Y59246D01*
X117431Y60247D01*
X114000Y60585D01*
D02*
G37*
G36*
X300500Y59835D02*
X297069Y59497D01*
X293771Y58496D01*
X290730Y56871D01*
X288066Y54684D01*
X285879Y52020D01*
X284254Y48979D01*
X283253Y45681D01*
X282915Y42250D01*
X283253Y38819D01*
X284254Y35521D01*
X285879Y32480D01*
X288066Y29816D01*
X290730Y27629D01*
X293771Y26004D01*
X297069Y25003D01*
X300500Y24665D01*
X303931Y25003D01*
X307229Y26004D01*
X310270Y27629D01*
X312934Y29816D01*
X315121Y32480D01*
X316746Y35521D01*
X317747Y38819D01*
X318085Y42250D01*
X317747Y45681D01*
X316746Y48979D01*
X315121Y52020D01*
X312934Y54684D01*
X310270Y56871D01*
X307229Y58496D01*
X303931Y59497D01*
X300500Y59835D01*
D02*
G37*
G36*
X1558750Y35841D02*
X1538750D01*
X1536009Y35480D01*
X1533455Y34422D01*
X1531261Y32739D01*
X1529578Y30545D01*
X1528520Y27991D01*
X1528159Y25250D01*
X1528520Y22509D01*
X1529578Y19955D01*
X1531261Y17761D01*
X1533455Y16078D01*
X1536009Y15020D01*
X1538750Y14659D01*
X1558750D01*
X1561491Y15020D01*
X1564045Y16078D01*
X1566239Y17761D01*
X1567922Y19955D01*
X1568980Y22509D01*
X1569341Y25250D01*
X1568980Y27991D01*
X1567922Y30545D01*
X1566239Y32739D01*
X1564045Y34422D01*
X1561491Y35480D01*
X1558750Y35841D01*
D02*
G37*
%LPD*%
D13*
X1433000Y683500D02*
Y691000D01*
X1410845Y696405D02*
X1427595D01*
X1433000Y691000D01*
X1642125Y616250D02*
X1654500Y628625D01*
Y658750D01*
X1580000Y597000D02*
X1599250Y616250D01*
X1642125D01*
X1580000Y577500D02*
Y597000D01*
X1586500Y571000D02*
X1608373D01*
X1580000Y577500D02*
X1586500Y571000D01*
X1608373D02*
X1610718Y568655D01*
X1377110Y119000D02*
Y149360D01*
X1377110Y119000D02*
X1377110Y119000D01*
X1366000Y119000D02*
X1368000D01*
X1365750D02*
X1366000D01*
D25*
X134000Y153000D02*
D03*
X53500D02*
D03*
X213750Y207250D02*
D03*
X195500Y78000D02*
D03*
X133750Y658750D02*
D03*
X114750D02*
D03*
X115000Y153000D02*
D03*
X214000Y658500D02*
D03*
X195000D02*
D03*
X194750Y207250D02*
D03*
X34750Y658650D02*
D03*
X53750D02*
D03*
X34500Y153000D02*
D03*
X214500Y78000D02*
D03*
X1433000Y683500D02*
D03*
X1414000D02*
D03*
D28*
X334250Y155500D02*
D03*
X463200Y138000D02*
D03*
X592200D02*
D03*
X721200D02*
D03*
X850200D02*
D03*
X979200D02*
D03*
X1108200D02*
D03*
X1237200D02*
D03*
X1366000D02*
D03*
X283400Y667750D02*
D03*
Y648750D02*
D03*
X334250Y136500D02*
D03*
X412400Y667750D02*
D03*
Y648750D02*
D03*
X463200Y119000D02*
D03*
X541400Y667750D02*
D03*
Y648750D02*
D03*
X592200Y119000D02*
D03*
X670400Y667750D02*
D03*
Y648750D02*
D03*
X721200Y119000D02*
D03*
X799400Y667750D02*
D03*
Y648750D02*
D03*
X850200Y119000D02*
D03*
X928400Y667750D02*
D03*
Y648750D02*
D03*
X979200Y119000D02*
D03*
X1057400Y667750D02*
D03*
Y648750D02*
D03*
X1108200Y119000D02*
D03*
X1186350Y667750D02*
D03*
Y648750D02*
D03*
X1237200Y119000D02*
D03*
X1315250Y667750D02*
D03*
Y648750D02*
D03*
X1366000Y119000D02*
D03*
D31*
X1407750Y253750D02*
D03*
X1423750D02*
D03*
D91*
X1476750Y165500D02*
X1495000Y183750D01*
X1468250Y133000D02*
X1476750Y141500D01*
Y165500D01*
X1495000Y183750D02*
Y201649D01*
X1499100Y205750D01*
X1525000D01*
X1468250Y123101D02*
Y133000D01*
X1449572Y119000D02*
X1452842Y115730D01*
X1460880D02*
X1468250Y123101D01*
X1377110Y119000D02*
X1449572D01*
X1452842Y115730D02*
X1460880D01*
X1368000Y119000D02*
X1377110D01*
X98975Y642725D02*
Y658650D01*
X98750Y642500D02*
X98975Y642725D01*
X99025Y658700D02*
X114700D01*
X114750Y658750D01*
X98975Y658650D02*
X99025Y658700D01*
X179100Y642600D02*
Y658650D01*
X179000Y642500D02*
X179100Y642600D01*
X194925Y658575D02*
X195000Y658500D01*
X179100Y658650D02*
X179175Y658575D01*
X194925D01*
X1433000Y667000D02*
Y683500D01*
D92*
X1517790Y242928D02*
X1530405Y230313D01*
Y203511D02*
Y230313D01*
X1517540Y235154D02*
X1523560Y229134D01*
X1513552Y241290D02*
X1517540Y237302D01*
Y235154D02*
Y237302D01*
X1521010Y213013D02*
Y225740D01*
X1515000Y231750D02*
X1521010Y225740D01*
X1515000Y231750D02*
Y236250D01*
X1520986Y212990D02*
X1521010Y213013D01*
X1527239Y200345D02*
X1530405Y203511D01*
X1510366Y198500D02*
X1510880D01*
X1512725Y200345D02*
X1527239D01*
X1510880Y198500D02*
X1512725Y200345D01*
X1505095Y239595D02*
X1506790Y241290D01*
X1513552D01*
X1512500Y238750D02*
X1515000Y236250D01*
X1507842Y238750D02*
X1512500D01*
X1506111Y237019D02*
X1507842Y238750D01*
X1507718Y232500D02*
X1509781Y234563D01*
X1497265Y232500D02*
X1507718D01*
X1509781Y234563D02*
X1510655D01*
X1470769Y237019D02*
X1506111D01*
X1469753Y239595D02*
X1505095D01*
X1682700Y273223D02*
Y561011D01*
X1667557Y258079D02*
X1682700Y273223D01*
X1680160Y274275D02*
Y559958D01*
X1667620Y261735D02*
X1680160Y274275D01*
X1677620Y275327D02*
Y558906D01*
X1669027Y266733D02*
X1677620Y275327D01*
X1675080Y276379D02*
Y557854D01*
X1671205Y272504D02*
X1675080Y276379D01*
X1659250Y272504D02*
X1671205D01*
X1672540Y277431D02*
Y556802D01*
X1670153Y275044D02*
X1672540Y277431D01*
X1662586Y275044D02*
X1670153D01*
X1668385Y279198D02*
Y279942D01*
X1453905Y172519D02*
X1455520Y170903D01*
X1453905Y172519D02*
Y176187D01*
X1455520Y158632D02*
Y170903D01*
X1458060Y153060D02*
Y153804D01*
X1459675Y155419D01*
Y170341D01*
X1461448Y231290D02*
X1469753Y239595D01*
X1440790Y177710D02*
X1442161D01*
X1443830Y176041D02*
X1444520D01*
X1425250Y193250D02*
X1440790Y177710D01*
X1442161D02*
X1443830Y176041D01*
X1446250Y180250D02*
X1451250Y175250D01*
X1427790Y194302D02*
X1441842Y180250D01*
X1446250D01*
X1451250Y136144D02*
X1455750Y131644D01*
X1451250Y136144D02*
Y175250D01*
X1455750Y122750D02*
Y131644D01*
X1468021Y178647D02*
X1468918Y177750D01*
X1468021Y178647D02*
Y198743D01*
X1464490Y176302D02*
X1467295Y173497D01*
X1464490Y176302D02*
Y199134D01*
X1467295Y147124D02*
Y173497D01*
X1464755Y147822D02*
Y172445D01*
X1461525Y175675D02*
X1464755Y172445D01*
X1461525Y175675D02*
Y179343D01*
X1460335Y180533D02*
X1461525Y179343D01*
X1458985Y174623D02*
X1462215Y171393D01*
Y148874D02*
Y171393D01*
X1458985Y174623D02*
Y178291D01*
X1455927Y181349D02*
X1458985Y178291D01*
X1456445Y173571D02*
Y177239D01*
Y173571D02*
X1459675Y170341D01*
X1449750Y183934D02*
X1456445Y177239D01*
X1449750Y183934D02*
X1449750Y183934D01*
X1449750Y183934D02*
Y201408D01*
X1447210Y182882D02*
X1453905Y176187D01*
X1467295Y147124D02*
X1469480Y144939D01*
X1464755Y144755D02*
Y147822D01*
X1464755Y147822D01*
X1460335Y180533D02*
Y197413D01*
X1455927Y181349D02*
Y188041D01*
X1447210Y182882D02*
Y202460D01*
X1627405Y539405D02*
Y546937D01*
X1623250Y535250D02*
X1627405Y539405D01*
Y546937D02*
X1629945Y549477D01*
X1628996Y534730D02*
X1629615Y535348D01*
X1630000Y537500D02*
Y545940D01*
X1629615Y535348D02*
Y537114D01*
X1630000Y537500D01*
X1632485Y548425D02*
Y550709D01*
X1630000Y545940D02*
X1632485Y548425D01*
X1602000Y563750D02*
X1619406D01*
X1624434Y568778D01*
X1629002D01*
X1634464Y574240D02*
X1673063D01*
X1629002Y568778D02*
X1634464Y574240D01*
X1626155Y564623D02*
X1626681Y565149D01*
X1628965D02*
X1635516Y571700D01*
X1672010D01*
X1626681Y565149D02*
X1628965D01*
X1623500Y559500D02*
X1626908D01*
X1636568Y569160D01*
X1670958D01*
X1623250Y552250D02*
X1637620Y566620D01*
X1669906D01*
X1638672Y564080D02*
X1668854D01*
X1627405Y552813D02*
X1638672Y564080D01*
X1629945Y549477D02*
Y551761D01*
X1639724Y561540D01*
X1667802D01*
X1640776Y559000D02*
X1666750D01*
X1632485Y550709D02*
X1640776Y559000D01*
X1673063Y574240D02*
X1685240Y562063D01*
Y546366D02*
Y562063D01*
X1672010Y571700D02*
X1682700Y561011D01*
X1670958Y569160D02*
X1680160Y559958D01*
X1669906Y566620D02*
X1677620Y558906D01*
X1668854Y564080D02*
X1675080Y557854D01*
X1667802Y561540D02*
X1672540Y556802D01*
X1670000Y281558D02*
Y555750D01*
X1666750Y559000D02*
X1670000Y555750D01*
X1448460Y254578D02*
Y274540D01*
X1444252Y278748D02*
X1448460Y274540D01*
X1441944Y278748D02*
X1444252D01*
X1441430Y279261D02*
X1441944Y278748D01*
X1458303Y138303D02*
X1464755Y144755D01*
X1455520Y137750D02*
X1456073Y138303D01*
X1458303D01*
X1458091Y144750D02*
Y144750D01*
X1462215Y148874D01*
X1443750Y289500D02*
X1448893Y294643D01*
X1450552Y231290D02*
X1461448D01*
X1462500Y228750D02*
X1470769Y237019D01*
X1449500Y228750D02*
X1462500D01*
X1447210Y202460D02*
X1467207Y222457D01*
X1441820Y204260D02*
X1442379D01*
X1444179Y202460D01*
X1447210D01*
X1474492Y224621D02*
Y225352D01*
X1476307Y211181D02*
Y222806D01*
X1473035Y226809D02*
X1474492Y225352D01*
Y224621D02*
X1476307Y222806D01*
X1479784Y200000D02*
X1502250Y222466D01*
X1479495Y200000D02*
X1479784D01*
X1502250Y222466D02*
Y227500D01*
X1470811Y194062D02*
X1472794Y196044D01*
Y207668D01*
X1470811Y189419D02*
Y194062D01*
X1474966Y191140D02*
X1475334Y191507D01*
Y206616D01*
X1478847Y210129D01*
X1472794Y207668D02*
X1476307Y211181D01*
X1468021Y198743D02*
X1468639Y199361D01*
X1478647Y226342D02*
X1478847Y226142D01*
Y210129D02*
Y226142D01*
X1469805Y205555D02*
Y208271D01*
X1467646Y203396D02*
X1469805Y205555D01*
X1463493Y203396D02*
X1467646D01*
X1469805Y208271D02*
X1471772Y210238D01*
Y212815D02*
X1472152Y213195D01*
X1471772Y210238D02*
Y212815D01*
X1473035Y226809D02*
Y227683D01*
X1468841D02*
X1473035D01*
X1633970Y219780D02*
X1643750Y210000D01*
X1607780Y219780D02*
X1633970D01*
X1643750Y210000D02*
X1659250D01*
X1685240Y546366D02*
X1687750Y543856D01*
Y543000D02*
Y543856D01*
X1668385Y279942D02*
X1670000Y281558D01*
X1659250Y278379D02*
X1662586Y275044D01*
X1659250Y266733D02*
X1669027D01*
X1662450Y261735D02*
X1667620D01*
X1665219Y258079D02*
X1667557D01*
X1664720Y257580D02*
X1665219Y258079D01*
X1660091Y261025D02*
X1660709Y261643D01*
X1662359D01*
X1662450Y261735D01*
X1445750Y297787D02*
Y298500D01*
X1441596Y299904D02*
X1441793Y299707D01*
X1441500Y300000D02*
X1441596Y299904D01*
X1443829Y299707D02*
X1444543D01*
X1441793D02*
X1443829D01*
X1436000Y204124D02*
X1441643Y198481D01*
X1437108Y193946D02*
X1441643Y198481D01*
X1436446Y193946D02*
X1437108D01*
X1441643Y198481D02*
X1441643D01*
X1427790Y199425D02*
X1433460Y205095D01*
X1427790Y194302D02*
Y199425D01*
X1425250Y200478D02*
X1430920Y206147D01*
X1425250Y193250D02*
Y200478D01*
X1433460Y205095D02*
Y254586D01*
X1430920Y206147D02*
Y255638D01*
X1434735Y259453D01*
X1436000Y251250D02*
X1439250Y254500D01*
X1448900Y244840D02*
Y250545D01*
X1437529Y258655D02*
X1445920D01*
X1441765Y262810D02*
Y267609D01*
X1445920Y258655D02*
Y268741D01*
X1451000Y255630D02*
Y278405D01*
X1444092Y237750D02*
X1450552Y231290D01*
X1445430Y232820D02*
X1449500Y228750D01*
X1447165Y224510D02*
X1448425Y223250D01*
X1449299D01*
X1440990Y224510D02*
X1447165D01*
X1453431Y215931D02*
X1470364Y232864D01*
X1444290Y215931D02*
X1453431D01*
X1436000Y237750D02*
Y251250D01*
Y204124D02*
Y237750D01*
X1444092D01*
X1454565Y240038D02*
X1455939Y241413D01*
X1454565Y235502D02*
Y240038D01*
X1455939Y241413D02*
Y250690D01*
X1451000Y255630D02*
X1455939Y250690D01*
X1440345Y232820D02*
X1445430D01*
X1470457Y222457D02*
X1470500Y222500D01*
X1467963Y216383D02*
Y217163D01*
X1470364Y232864D02*
X1475575D01*
X1450139Y239205D02*
X1453400Y242465D01*
Y249638D01*
X1433460Y254586D02*
X1437529Y258655D01*
X1434735Y259453D02*
Y287802D01*
X1470811Y189419D02*
X1473315Y186915D01*
X1487839D01*
X1463493Y200131D02*
Y202160D01*
Y200131D02*
X1464490Y199134D01*
X1462875Y202778D02*
X1463493Y202160D01*
X1440025Y289500D02*
X1443750D01*
X1437275Y286750D02*
X1440025Y289500D01*
X1444543Y299707D02*
X1445750Y298500D01*
X1441163Y294230D02*
X1441500D01*
X1434735Y287802D02*
X1441163Y294230D01*
X1444993Y284412D02*
X1451000Y278405D01*
X1442149Y284412D02*
X1444993D01*
X1441531Y285030D02*
X1442149Y284412D01*
X1437275Y272099D02*
Y286750D01*
Y272099D02*
X1441765Y267609D01*
X1445920Y253526D02*
Y258655D01*
X1441750Y272911D02*
X1445920Y268741D01*
Y253526D02*
X1448900Y250545D01*
X1448460Y254578D02*
X1453400Y249638D01*
X1462875Y202778D02*
X1463493Y203396D01*
X1455368Y188600D02*
X1455927Y188041D01*
X1441750Y210750D02*
X1451908D01*
X1449750Y201408D02*
X1456301Y207959D01*
X1451908Y210750D02*
X1468841Y227683D01*
X1465415Y208915D02*
Y213835D01*
X1465000Y208500D02*
X1465415Y208915D01*
X1456301Y207959D02*
X1464459D01*
X1465415Y213835D02*
X1467963Y216383D01*
X1465415Y207959D02*
Y208085D01*
X1464459Y207959D02*
X1465000Y208500D01*
X1465415Y208085D01*
X1469480Y144520D02*
Y144939D01*
X1441750Y272911D02*
Y273500D01*
X1467207Y222457D02*
X1470457D01*
X1623250Y543000D02*
Y546374D01*
X1627405Y550529D02*
Y552813D01*
X1623250Y546374D02*
X1627405Y550529D01*
X1644030Y120220D02*
X1669470D01*
X1679250Y130000D01*
X1634250D02*
X1644030Y120220D01*
X1618000Y130000D02*
X1634250D01*
X1633970Y139780D02*
X1643750Y130000D01*
X1598000D02*
X1607780Y139780D01*
X1643750Y130000D02*
X1659250D01*
X1607780Y139780D02*
X1633970D01*
X1634250Y150000D02*
X1644030Y140220D01*
X1669470D01*
X1618000Y150000D02*
X1634250D01*
X1669470Y140220D02*
X1679250Y150000D01*
X1644000D02*
X1659250D01*
X1607780Y159780D02*
X1634220D01*
X1598000Y150000D02*
X1607780Y159780D01*
X1634220D02*
X1644000Y150000D01*
X1669470Y160220D02*
X1679250Y170000D01*
X1618000D02*
X1633500D01*
X1643280Y160220D02*
X1669470D01*
X1633500Y170000D02*
X1643280Y160220D01*
X1669470Y180220D02*
X1679250Y190000D01*
X1643780Y180220D02*
X1669470D01*
X1634000Y190000D02*
X1643780Y180220D01*
X1618000Y190000D02*
X1634000D01*
X1607780Y199780D02*
X1633970D01*
X1598000Y190000D02*
X1607780Y199780D01*
X1643750Y190000D02*
X1659250D01*
X1633970Y199780D02*
X1643750Y190000D01*
X1669470Y200220D02*
X1679250Y210000D01*
X1634000D02*
X1643780Y200220D01*
X1618000Y210000D02*
X1634000D01*
X1643780Y200220D02*
X1669470D01*
X1598000Y210000D02*
X1607780Y219780D01*
D94*
X1492750Y244500D02*
Y249250D01*
X1484500Y244500D02*
Y249250D01*
X1661250Y243000D02*
Y252060D01*
X1694500Y320750D02*
Y595750D01*
D95*
X1419480Y673909D02*
Y674044D01*
X1419250Y674274D02*
X1419480Y674044D01*
X1419250Y674274D02*
Y676250D01*
X1414000Y681500D02*
X1419250Y676250D01*
X1414000Y681500D02*
Y683500D01*
X1536096Y285424D02*
X1541250Y280270D01*
X1536096Y285424D02*
Y291548D01*
X1536000Y291644D02*
X1536096Y291548D01*
X1541250Y280270D02*
X1551604D01*
X1556050Y275824D01*
Y271251D02*
Y275824D01*
X1552817Y268018D02*
X1556050Y271251D01*
X1546686Y268018D02*
X1552817D01*
X1545385Y269318D02*
X1546686Y268018D01*
X1545250Y269318D02*
X1545385D01*
X1459250Y275000D02*
X1548933D01*
X1550395Y273538D01*
X1550530D01*
X1454905Y279345D02*
X1459250Y275000D01*
X1686605Y271605D02*
Y535970D01*
X1667060Y252060D02*
X1686605Y271605D01*
X1454905Y279345D02*
Y288631D01*
X1445750Y297787D02*
X1448893Y294643D01*
X1454905Y288631D01*
X1687750Y537250D02*
Y543000D01*
Y537115D02*
Y537250D01*
X1426765Y245250D02*
Y290436D01*
X1686605Y535970D02*
X1687750Y537115D01*
X1661250Y252060D02*
X1667060D01*
X1653730Y280438D02*
X1654062Y280770D01*
Y280905D01*
X1653730Y259580D02*
Y280438D01*
Y259580D02*
X1661250Y252060D01*
X1443829Y299707D02*
X1445750Y297787D01*
X1443632Y299904D02*
X1443829Y299707D01*
X1441596Y299904D02*
X1443632D01*
X1419250Y189928D02*
X1425839Y183339D01*
X1419250Y189928D02*
Y200000D01*
X1425839Y183339D02*
Y183339D01*
X1426765Y207515D02*
Y245250D01*
Y290436D02*
X1436234Y299904D01*
X1441404D02*
X1441500Y300000D01*
X1436234Y299904D02*
X1441404D01*
X1419250Y200000D02*
X1426765Y207515D01*
X195150Y78350D02*
X195500Y78000D01*
X179100Y78350D02*
X195150D01*
X53600Y153100D02*
X69300D01*
X53500Y153000D02*
X53600Y153100D01*
X134100D02*
X149900D01*
X134000Y153000D02*
X134100Y153100D01*
X213750Y207250D02*
X213850Y207350D01*
X229900D01*
X334150Y155600D02*
Y171650D01*
Y155600D02*
X334250Y155500D01*
X463200Y138000D02*
Y154040D01*
X592200Y138000D02*
Y154040D01*
X721200Y138000D02*
Y154040D01*
X850200Y138000D02*
Y154040D01*
X979200Y138000D02*
Y154040D01*
X1108200Y138000D02*
Y154040D01*
X1237200Y138000D02*
Y154040D01*
X1366200Y138200D02*
Y154040D01*
X1366000Y138000D02*
X1366200Y138200D01*
X1315400Y667900D02*
Y683540D01*
X1315250Y667750D02*
X1315400Y667900D01*
X1186350Y667750D02*
Y683540D01*
X1057400Y667750D02*
Y683540D01*
X928400Y667750D02*
Y683500D01*
X799400Y667750D02*
Y683500D01*
X670400Y667750D02*
Y683500D01*
X541400Y667750D02*
Y683500D01*
X133850Y658650D02*
X149775D01*
X133750Y658750D02*
X133850Y658650D01*
X214000Y658500D02*
X214150Y658650D01*
X229900D01*
X412400Y667750D02*
Y683500D01*
X283400Y667750D02*
Y683500D01*
X53750Y658650D02*
X69650D01*
D96*
X18850D02*
X34750D01*
D97*
X1692500Y72500D02*
Y296750D01*
Y305000D01*
X1678000Y58000D02*
X1692500Y72500D01*
X1660000Y40000D02*
X1678000Y58000D01*
D99*
X1365750Y103690D02*
Y119000D01*
X18500Y153100D02*
X18550Y153050D01*
X99100Y153100D02*
X99150Y153050D01*
X334200Y136450D02*
X334250Y136500D01*
X334150Y120850D02*
X334200Y120900D01*
Y136450D01*
X1315325Y632815D02*
Y648675D01*
X1315250Y648750D02*
X1315325Y648675D01*
Y632815D02*
X1315400Y632740D01*
X1186350D02*
Y648750D01*
X1057400Y632740D02*
Y648750D01*
X928400Y632700D02*
Y648750D01*
X799400Y632700D02*
Y648750D01*
X670400Y632700D02*
Y648750D01*
X541400Y632700D02*
Y648750D01*
X412400Y632700D02*
Y648750D01*
X283400Y632700D02*
Y648750D01*
X98750Y642500D02*
X179000D01*
X35000D02*
X98750D01*
X179000D02*
X240000D01*
X18850Y658650D02*
X35000Y642500D01*
X335750Y136500D02*
X340500D01*
X347750Y143750D02*
X370250D01*
X340500Y136500D02*
X347750Y143750D01*
X370250D02*
X395000Y119000D01*
X463200D01*
X210250Y136500D02*
X334250D01*
X202127Y144623D02*
X210250Y136500D01*
X202127Y144623D02*
Y186374D01*
X1414750Y648750D02*
X1433000Y667000D01*
X1315250Y648750D02*
X1414750D01*
X463200Y103240D02*
Y119000D01*
X99000Y172750D02*
X99100Y172650D01*
Y153100D02*
Y172650D01*
X130750Y172750D02*
X165350Y207350D01*
X99000Y172750D02*
X130750D01*
X334150Y120850D02*
X335503D01*
X24358Y172750D02*
X99000D01*
X18500Y166892D02*
X24358Y172750D01*
X18500Y153100D02*
Y166892D01*
X1365750Y103690D02*
X1366200Y103240D01*
X1186350Y648750D02*
X1315250D01*
X1057400D02*
X1186350D01*
X928400D02*
X1057400D01*
X1108200Y103240D02*
Y119000D01*
X1237200Y103240D02*
Y119000D01*
X979200Y103240D02*
Y119000D01*
X850200Y103240D02*
Y119000D01*
X721200Y103240D02*
Y119000D01*
X592200Y103240D02*
Y119000D01*
X1237200D02*
X1365750D01*
X1108200D02*
X1237200D01*
X979200D02*
X1108200D01*
X850200D02*
X979200D01*
X721200D02*
X850200D01*
X592200D02*
X721200D01*
X463200D02*
X592200D01*
X179100Y207350D02*
X194650D01*
X165350D02*
X179100D01*
X194750Y193750D02*
X202127Y186374D01*
X194750Y193750D02*
Y207250D01*
X412400Y648750D02*
X541400D01*
X240000Y642500D02*
X246250Y648750D01*
X799400D02*
X928400D01*
X670400D02*
X799400D01*
X541400D02*
X670400D01*
X283400D02*
X412400D01*
X246250D02*
X283400D01*
D121*
X18500Y127700D02*
D03*
Y153100D02*
D03*
Y229300D02*
D03*
X69300D02*
D03*
Y153100D02*
D03*
Y127700D02*
D03*
X18850Y684050D02*
D03*
Y658650D02*
D03*
Y582450D02*
D03*
X69650D02*
D03*
Y658650D02*
D03*
Y684050D02*
D03*
X179100Y52950D02*
D03*
Y154550D02*
D03*
X229900D02*
D03*
Y78350D02*
D03*
Y52950D02*
D03*
X149900Y127700D02*
D03*
Y153100D02*
D03*
Y229300D02*
D03*
X99100D02*
D03*
Y153100D02*
D03*
Y127700D02*
D03*
X149775Y684050D02*
D03*
Y658650D02*
D03*
Y582450D02*
D03*
X98975D02*
D03*
Y658650D02*
D03*
Y684050D02*
D03*
X1391600Y154040D02*
D03*
X1366200D02*
D03*
X1290000D02*
D03*
Y103240D02*
D03*
X1366200D02*
D03*
X1391600D02*
D03*
X1290000Y683540D02*
D03*
X1315400D02*
D03*
X1391600D02*
D03*
Y632740D02*
D03*
X1315400D02*
D03*
X1290000D02*
D03*
X1262600Y154040D02*
D03*
X1237200D02*
D03*
X1161000D02*
D03*
Y103240D02*
D03*
X1237200D02*
D03*
X1262600D02*
D03*
X1160950Y683540D02*
D03*
X1186350D02*
D03*
X1262550D02*
D03*
Y632740D02*
D03*
X1186350D02*
D03*
X1160950D02*
D03*
X1133600Y154040D02*
D03*
X1108200D02*
D03*
X1032000D02*
D03*
Y103240D02*
D03*
X1108200D02*
D03*
X1133600D02*
D03*
X1032000Y683540D02*
D03*
X1057400D02*
D03*
X1133600D02*
D03*
Y632740D02*
D03*
X1057400D02*
D03*
X1032000D02*
D03*
X1004600Y154040D02*
D03*
X979200D02*
D03*
X903000D02*
D03*
Y103240D02*
D03*
X979200D02*
D03*
X1004600D02*
D03*
X903000Y683500D02*
D03*
X928400D02*
D03*
X1004600D02*
D03*
Y632700D02*
D03*
X928400D02*
D03*
X903000D02*
D03*
X875600Y154040D02*
D03*
X850200D02*
D03*
X774000D02*
D03*
Y103240D02*
D03*
X850200D02*
D03*
X875600D02*
D03*
X774000Y683500D02*
D03*
X799400D02*
D03*
X875600D02*
D03*
Y632700D02*
D03*
X799400D02*
D03*
X774000D02*
D03*
X746600Y154040D02*
D03*
X721200D02*
D03*
X645000D02*
D03*
Y103240D02*
D03*
X721200D02*
D03*
X746600D02*
D03*
X645000Y683500D02*
D03*
X670400D02*
D03*
X746600D02*
D03*
Y632700D02*
D03*
X670400D02*
D03*
X645000D02*
D03*
X617600Y154040D02*
D03*
X592200D02*
D03*
X516000D02*
D03*
Y103240D02*
D03*
X592200D02*
D03*
X617600D02*
D03*
X516000Y683500D02*
D03*
X541400D02*
D03*
X617600D02*
D03*
Y632700D02*
D03*
X541400D02*
D03*
X516000D02*
D03*
X488600Y154040D02*
D03*
X463200D02*
D03*
X387000D02*
D03*
Y103240D02*
D03*
X463200D02*
D03*
X488600D02*
D03*
X387000Y683500D02*
D03*
X412400D02*
D03*
X488600D02*
D03*
Y632700D02*
D03*
X412400D02*
D03*
X387000D02*
D03*
X359550Y171650D02*
D03*
X334150D02*
D03*
X257950D02*
D03*
Y120850D02*
D03*
X334150D02*
D03*
X359550D02*
D03*
X258000Y683500D02*
D03*
X283400D02*
D03*
X359600D02*
D03*
Y632700D02*
D03*
X283400D02*
D03*
X258000D02*
D03*
X229900Y181950D02*
D03*
Y207350D02*
D03*
Y283550D02*
D03*
X179100D02*
D03*
Y207350D02*
D03*
Y181950D02*
D03*
X229900Y684050D02*
D03*
Y658650D02*
D03*
Y582450D02*
D03*
X179100D02*
D03*
Y658650D02*
D03*
Y684050D02*
D03*
X1651250Y549500D02*
D03*
D122*
X179100Y78350D02*
D03*
D123*
X1198035Y424323D02*
D03*
X1225789Y365457D02*
D03*
X709677D02*
D03*
X681923Y424323D02*
D03*
X709677Y236228D02*
D03*
X681923Y295095D02*
D03*
Y553198D02*
D03*
X709677Y494332D02*
D03*
X552923Y424323D02*
D03*
X580677Y365457D02*
D03*
X552923Y295095D02*
D03*
X580677Y236228D02*
D03*
Y494332D02*
D03*
X552923Y553198D02*
D03*
X451677Y365457D02*
D03*
X423923Y424323D02*
D03*
X451677Y236228D02*
D03*
X423923Y295095D02*
D03*
Y553198D02*
D03*
X451677Y494332D02*
D03*
X294923Y424323D02*
D03*
X322677Y365457D02*
D03*
X294923Y295095D02*
D03*
X322677Y236228D02*
D03*
Y494332D02*
D03*
X294923Y553198D02*
D03*
X967677Y365457D02*
D03*
X939923Y424323D02*
D03*
X967677Y236228D02*
D03*
X939923Y295095D02*
D03*
Y553198D02*
D03*
X967677Y494332D02*
D03*
X810923Y424323D02*
D03*
X838677Y365457D02*
D03*
X810923Y295095D02*
D03*
X838677Y236228D02*
D03*
Y494332D02*
D03*
X810923Y553198D02*
D03*
X1327100Y424323D02*
D03*
X1354854Y365457D02*
D03*
X1327277Y295095D02*
D03*
X1355031Y236228D02*
D03*
X1354854Y494508D02*
D03*
X1327100Y553375D02*
D03*
X1225965Y236228D02*
D03*
X1198211Y295095D02*
D03*
Y553198D02*
D03*
X1225965Y494332D02*
D03*
X1068923Y424323D02*
D03*
X1096677Y365457D02*
D03*
X1068923Y295095D02*
D03*
X1096677Y236228D02*
D03*
Y494332D02*
D03*
X1068923Y553198D02*
D03*
X300500Y42250D02*
D03*
X1569000Y730000D02*
D03*
X114000Y43000D02*
D03*
D124*
X1598750Y25250D02*
D03*
D125*
X1578750D02*
D03*
X1558750D02*
D03*
X1538750D02*
D03*
D126*
X1618000Y210000D02*
D03*
X1598000D02*
D03*
X1618000Y190000D02*
D03*
X1598000D02*
D03*
X1618000Y170000D02*
D03*
X1598000D02*
D03*
X1618000Y150000D02*
D03*
X1598000D02*
D03*
X1618000Y130000D02*
D03*
X1598000D02*
D03*
X1618000Y110000D02*
D03*
X1679250D02*
D03*
X1659250Y130000D02*
D03*
X1679250D02*
D03*
X1659250Y150000D02*
D03*
X1679250D02*
D03*
X1659250Y170000D02*
D03*
X1679250D02*
D03*
X1659250Y190000D02*
D03*
X1679250D02*
D03*
X1659250Y210000D02*
D03*
X1679250D02*
D03*
D127*
X1598000Y110000D02*
D03*
X1659250D02*
D03*
D128*
X1660000Y735000D02*
D03*
X40000D02*
D03*
X1660000Y40000D02*
D03*
X40000D02*
D03*
D129*
X1642000Y717000D02*
D03*
X1678000Y753000D02*
D03*
X1642000D02*
D03*
X1678000Y717000D02*
D03*
X1660000Y760000D02*
D03*
Y710000D02*
D03*
X1635000Y735000D02*
D03*
X1685000D02*
D03*
X22000Y717000D02*
D03*
X58000Y753000D02*
D03*
X22000D02*
D03*
X58000Y717000D02*
D03*
X40000Y760000D02*
D03*
Y710000D02*
D03*
X15000Y735000D02*
D03*
X65000D02*
D03*
X1685000Y40000D02*
D03*
X1635000D02*
D03*
X1660000Y15000D02*
D03*
Y65000D02*
D03*
X1678000Y22000D02*
D03*
X1642000Y58000D02*
D03*
X1678000D02*
D03*
X1642000Y22000D02*
D03*
X22000D02*
D03*
X58000Y58000D02*
D03*
X22000D02*
D03*
X58000Y22000D02*
D03*
X40000Y65000D02*
D03*
Y15000D02*
D03*
X15000Y40000D02*
D03*
X65000D02*
D03*
D130*
X325900Y67650D02*
D03*
Y16850D02*
D03*
X1594400Y755400D02*
D03*
Y704600D02*
D03*
X88600Y17600D02*
D03*
D131*
X275100Y16850D02*
D03*
Y67650D02*
D03*
X1543600Y704600D02*
D03*
Y755400D02*
D03*
X139400Y68400D02*
D03*
Y17600D02*
D03*
D132*
X88600Y68400D02*
D03*
D133*
X1520986Y212990D02*
D03*
X1523560Y229134D02*
D03*
X1517790Y242928D02*
D03*
X1510366Y198500D02*
D03*
X1510655Y234563D02*
D03*
X1568500Y583000D02*
D03*
X1522500D02*
D03*
X1590500D02*
D03*
X1410845Y696405D02*
D03*
X1419480Y673909D02*
D03*
X1536000Y291644D02*
D03*
X1550530Y273538D02*
D03*
X1545250Y269318D02*
D03*
X164500Y658750D02*
D03*
X1393250Y178750D02*
D03*
Y197000D02*
D03*
Y215250D02*
D03*
Y233250D02*
D03*
Y251500D02*
D03*
X475750Y131500D02*
D03*
X215250Y157250D02*
D03*
X84250Y154000D02*
D03*
Y658750D02*
D03*
X124000Y704500D02*
D03*
X54250Y250000D02*
D03*
X44250Y134750D02*
D03*
X55000Y129500D02*
D03*
X134000D02*
D03*
X122500D02*
D03*
X160000Y560750D02*
D03*
X135250Y561500D02*
D03*
X111500Y532000D02*
D03*
X91250Y481000D02*
D03*
Y280250D02*
D03*
Y397000D02*
D03*
Y422000D02*
D03*
X1503000Y317250D02*
D03*
X1488750D02*
D03*
X1553750Y307750D02*
D03*
X1576500D02*
D03*
X1653000Y228250D02*
D03*
X1677250Y228500D02*
D03*
X1660250Y291250D02*
D03*
X1677199Y89110D02*
D03*
X1686199Y71110D02*
D03*
X1659199Y89110D02*
D03*
X1641199Y701109D02*
D03*
Y665109D02*
D03*
Y89110D02*
D03*
X1623199Y701109D02*
D03*
X1632199Y683109D02*
D03*
X1623199Y665109D02*
D03*
X1632199Y647109D02*
D03*
X1623199Y629109D02*
D03*
Y449109D02*
D03*
X1632199Y71110D02*
D03*
X1623199Y53110D02*
D03*
Y17110D02*
D03*
X1614199Y755109D02*
D03*
X1605199Y737109D02*
D03*
X1614199Y719109D02*
D03*
Y683109D02*
D03*
X1605199Y449109D02*
D03*
Y233110D02*
D03*
X1614199Y71110D02*
D03*
X1605199Y53110D02*
D03*
X1614199Y35110D02*
D03*
X1596199Y683109D02*
D03*
X1587199Y665109D02*
D03*
Y485109D02*
D03*
X1596199Y467109D02*
D03*
Y395109D02*
D03*
X1587199Y377109D02*
D03*
Y233110D02*
D03*
Y53110D02*
D03*
X1596199Y35110D02*
D03*
X1587199Y17110D02*
D03*
X1569199Y701109D02*
D03*
X1578199Y683109D02*
D03*
X1569199Y485109D02*
D03*
X1578199Y467109D02*
D03*
X1569199Y449109D02*
D03*
Y413110D02*
D03*
X1578199Y395109D02*
D03*
X1569199Y377109D02*
D03*
X1578199Y251110D02*
D03*
X1569199Y233110D02*
D03*
X1578199Y215110D02*
D03*
X1569199Y197110D02*
D03*
X1578199Y179110D02*
D03*
X1569199Y161110D02*
D03*
X1578199Y143110D02*
D03*
X1569199Y125110D02*
D03*
X1578199Y107110D02*
D03*
X1569199Y53110D02*
D03*
X1578199Y35110D02*
D03*
X1560199Y755109D02*
D03*
X1551199Y593109D02*
D03*
Y557109D02*
D03*
Y449109D02*
D03*
X1560199Y431110D02*
D03*
X1551199Y413110D02*
D03*
Y377109D02*
D03*
X1560199Y359109D02*
D03*
X1551199Y341110D02*
D03*
X1533199Y485109D02*
D03*
X1542199Y467109D02*
D03*
X1533199Y449109D02*
D03*
X1542199Y431110D02*
D03*
X1533199Y413110D02*
D03*
X1542199Y395109D02*
D03*
X1533199Y377109D02*
D03*
X1542199Y359109D02*
D03*
X1533199Y305110D02*
D03*
X1524199Y755109D02*
D03*
X1515199Y485109D02*
D03*
X1524199Y467109D02*
D03*
Y395109D02*
D03*
X1515199Y377109D02*
D03*
Y305110D02*
D03*
Y53110D02*
D03*
X1497199Y557109D02*
D03*
Y521109D02*
D03*
Y485109D02*
D03*
X1506199Y467109D02*
D03*
X1497199Y449109D02*
D03*
X1506199Y395109D02*
D03*
Y71110D02*
D03*
X1497199Y53110D02*
D03*
X1488199Y575109D02*
D03*
X1479199Y557109D02*
D03*
X1488199Y539109D02*
D03*
X1479199Y521109D02*
D03*
X1488199Y503110D02*
D03*
X1479199Y485109D02*
D03*
X1488199Y467109D02*
D03*
X1479199Y449109D02*
D03*
X1470199Y71110D02*
D03*
X1461199Y53110D02*
D03*
Y17110D02*
D03*
X1452199Y71110D02*
D03*
X1443199Y53110D02*
D03*
X1452199Y35110D02*
D03*
X1443199Y17110D02*
D03*
X1425199Y53110D02*
D03*
X1434199Y35110D02*
D03*
X1425199Y17110D02*
D03*
X1407199Y305110D02*
D03*
Y53110D02*
D03*
X1416199Y35110D02*
D03*
X1407199Y17110D02*
D03*
X1398199Y755109D02*
D03*
X1389199Y557109D02*
D03*
Y521109D02*
D03*
Y485109D02*
D03*
Y449109D02*
D03*
Y413110D02*
D03*
Y377109D02*
D03*
Y341110D02*
D03*
X1398199Y323110D02*
D03*
X1389199Y305110D02*
D03*
X1398199Y287110D02*
D03*
X1389199Y269110D02*
D03*
X1398199Y35110D02*
D03*
X1389199Y17110D02*
D03*
X1380199Y755109D02*
D03*
X1371199Y629109D02*
D03*
X1380199Y575109D02*
D03*
X1371199Y557109D02*
D03*
X1380199Y539109D02*
D03*
X1371199Y521109D02*
D03*
X1380199Y503110D02*
D03*
X1371199Y449109D02*
D03*
X1380199Y431110D02*
D03*
X1371199Y413110D02*
D03*
X1380199Y395109D02*
D03*
X1371199Y377109D02*
D03*
X1380199Y359109D02*
D03*
X1371199Y341110D02*
D03*
X1380199Y323110D02*
D03*
X1371199Y305110D02*
D03*
X1380199Y287110D02*
D03*
X1371199Y269110D02*
D03*
X1380199Y35110D02*
D03*
X1371199Y17110D02*
D03*
X1362199Y755109D02*
D03*
X1353199Y629109D02*
D03*
X1362199Y539109D02*
D03*
X1353199Y521109D02*
D03*
Y449109D02*
D03*
X1362199Y431110D02*
D03*
X1353199Y413110D02*
D03*
X1362199Y395109D02*
D03*
Y323110D02*
D03*
X1353199Y305110D02*
D03*
X1362199Y287110D02*
D03*
X1353199Y269110D02*
D03*
X1362199Y35110D02*
D03*
X1353199Y17110D02*
D03*
X1344199Y755109D02*
D03*
X1335199Y629109D02*
D03*
X1344199Y611109D02*
D03*
X1335199Y593109D02*
D03*
X1344199Y539109D02*
D03*
X1335199Y521109D02*
D03*
Y485109D02*
D03*
X1344199Y395109D02*
D03*
X1335199Y269110D02*
D03*
X1344199Y35110D02*
D03*
X1335199Y17110D02*
D03*
X1326199Y755109D02*
D03*
Y611109D02*
D03*
X1317199Y593109D02*
D03*
Y521109D02*
D03*
X1326199Y503110D02*
D03*
X1317199Y485109D02*
D03*
X1326199Y467109D02*
D03*
X1317199Y341110D02*
D03*
Y269110D02*
D03*
X1326199Y251110D02*
D03*
X1317199Y233110D02*
D03*
X1326199Y35110D02*
D03*
X1317199Y17110D02*
D03*
X1308199Y755109D02*
D03*
Y611109D02*
D03*
X1299199Y593109D02*
D03*
X1308199Y575109D02*
D03*
X1299199Y557109D02*
D03*
X1308199Y539109D02*
D03*
X1299199Y521109D02*
D03*
X1308199Y503110D02*
D03*
X1299199Y485109D02*
D03*
X1308199Y467109D02*
D03*
X1299199Y449109D02*
D03*
X1308199Y395109D02*
D03*
X1299199Y377109D02*
D03*
X1308199Y359109D02*
D03*
X1299199Y341110D02*
D03*
X1308199Y323110D02*
D03*
X1299199Y269110D02*
D03*
X1308199Y251110D02*
D03*
X1299199Y233110D02*
D03*
X1308199Y35110D02*
D03*
X1299199Y17110D02*
D03*
X1290199Y755109D02*
D03*
Y611109D02*
D03*
X1281199Y593109D02*
D03*
X1290199Y575109D02*
D03*
X1281199Y557109D02*
D03*
X1290199Y539109D02*
D03*
X1281199Y521109D02*
D03*
X1290199Y503110D02*
D03*
X1281199Y485109D02*
D03*
X1290199Y467109D02*
D03*
X1281199Y449109D02*
D03*
Y413110D02*
D03*
X1290199Y395109D02*
D03*
X1281199Y377109D02*
D03*
X1290199Y359109D02*
D03*
X1281199Y341110D02*
D03*
X1290199Y323110D02*
D03*
X1281199Y305110D02*
D03*
X1290199Y287110D02*
D03*
X1281199Y269110D02*
D03*
X1290199Y251110D02*
D03*
X1281199Y233110D02*
D03*
X1290199Y215110D02*
D03*
X1281199Y197110D02*
D03*
X1290199Y35110D02*
D03*
X1281199Y17110D02*
D03*
X1272199Y755109D02*
D03*
Y575109D02*
D03*
X1263199Y557109D02*
D03*
X1272199Y539109D02*
D03*
X1263199Y521109D02*
D03*
X1272199Y503110D02*
D03*
Y467109D02*
D03*
X1263199Y449109D02*
D03*
X1272199Y431110D02*
D03*
X1263199Y413110D02*
D03*
X1272199Y395109D02*
D03*
X1263199Y377109D02*
D03*
X1272199Y359109D02*
D03*
X1263199Y341110D02*
D03*
X1272199Y323110D02*
D03*
X1263199Y305110D02*
D03*
X1272199Y287110D02*
D03*
X1263199Y269110D02*
D03*
X1272199Y251110D02*
D03*
X1263199Y233110D02*
D03*
X1272199Y215110D02*
D03*
X1263199Y197110D02*
D03*
X1272199Y35110D02*
D03*
X1263199Y17110D02*
D03*
X1254199Y755109D02*
D03*
Y575109D02*
D03*
X1245199Y557109D02*
D03*
X1254199Y539109D02*
D03*
X1245199Y521109D02*
D03*
X1254199Y467109D02*
D03*
X1245199Y449109D02*
D03*
X1254199Y431110D02*
D03*
X1245199Y413110D02*
D03*
X1254199Y395109D02*
D03*
X1245199Y377109D02*
D03*
X1254199Y359109D02*
D03*
X1245199Y341110D02*
D03*
X1254199Y323110D02*
D03*
X1245199Y305110D02*
D03*
X1254199Y287110D02*
D03*
X1245199Y269110D02*
D03*
X1254199Y251110D02*
D03*
Y215110D02*
D03*
X1245199Y197110D02*
D03*
X1254199Y179110D02*
D03*
Y35110D02*
D03*
X1245199Y17110D02*
D03*
X1236199Y755109D02*
D03*
X1227199Y629109D02*
D03*
X1236199Y539109D02*
D03*
X1227199Y521109D02*
D03*
Y449109D02*
D03*
X1236199Y431110D02*
D03*
X1227199Y413110D02*
D03*
X1236199Y395109D02*
D03*
Y323110D02*
D03*
X1227199Y305110D02*
D03*
X1236199Y287110D02*
D03*
X1227199Y269110D02*
D03*
X1236199Y215110D02*
D03*
X1227199Y197110D02*
D03*
X1236199Y179110D02*
D03*
Y35110D02*
D03*
X1227199Y17110D02*
D03*
X1218199Y755109D02*
D03*
X1209199Y629109D02*
D03*
X1218199Y611109D02*
D03*
Y539109D02*
D03*
X1209199Y521109D02*
D03*
X1218199Y395109D02*
D03*
X1209199Y269110D02*
D03*
X1218199Y179110D02*
D03*
X1209199Y161110D02*
D03*
X1218199Y35110D02*
D03*
X1209199Y17110D02*
D03*
X1200199Y755109D02*
D03*
Y611109D02*
D03*
X1191199Y593109D02*
D03*
Y521109D02*
D03*
X1200199Y503110D02*
D03*
X1191199Y485109D02*
D03*
X1200199Y467109D02*
D03*
X1191199Y341110D02*
D03*
Y269110D02*
D03*
X1200199Y251110D02*
D03*
X1191199Y233110D02*
D03*
X1200199Y179110D02*
D03*
X1191199Y161110D02*
D03*
X1200199Y35110D02*
D03*
X1191199Y17110D02*
D03*
X1182199Y755109D02*
D03*
Y611109D02*
D03*
X1173199Y593109D02*
D03*
X1182199Y575109D02*
D03*
X1173199Y557109D02*
D03*
Y521109D02*
D03*
X1182199Y503110D02*
D03*
X1173199Y485109D02*
D03*
X1182199Y467109D02*
D03*
X1173199Y449109D02*
D03*
X1182199Y395109D02*
D03*
X1173199Y377109D02*
D03*
X1182199Y359109D02*
D03*
X1173199Y341110D02*
D03*
X1182199Y323110D02*
D03*
X1173199Y269110D02*
D03*
X1182199Y251110D02*
D03*
X1173199Y233110D02*
D03*
X1182199Y35110D02*
D03*
X1173199Y17110D02*
D03*
X1164199Y755109D02*
D03*
Y611109D02*
D03*
X1155199Y593109D02*
D03*
X1164199Y575109D02*
D03*
X1155199Y557109D02*
D03*
X1164199Y539109D02*
D03*
X1155199Y521109D02*
D03*
X1164199Y503110D02*
D03*
X1155199Y485109D02*
D03*
X1164199Y467109D02*
D03*
X1155199Y449109D02*
D03*
Y413110D02*
D03*
X1164199Y395109D02*
D03*
X1155199Y377109D02*
D03*
X1164199Y359109D02*
D03*
X1155199Y341110D02*
D03*
X1164199Y323110D02*
D03*
X1155199Y305110D02*
D03*
X1164199Y287110D02*
D03*
X1155199Y269110D02*
D03*
X1164199Y251110D02*
D03*
X1155199Y233110D02*
D03*
X1164199Y215110D02*
D03*
X1155199Y197110D02*
D03*
X1164199Y35110D02*
D03*
X1155199Y17110D02*
D03*
X1146199Y755109D02*
D03*
Y575109D02*
D03*
X1137199Y557109D02*
D03*
X1146199Y539109D02*
D03*
X1137199Y521109D02*
D03*
X1146199Y503110D02*
D03*
Y467109D02*
D03*
X1137199Y449109D02*
D03*
X1146199Y431110D02*
D03*
X1137199Y413110D02*
D03*
X1146199Y395109D02*
D03*
X1137199Y377109D02*
D03*
X1146199Y359109D02*
D03*
X1137199Y341110D02*
D03*
X1146199Y323110D02*
D03*
X1137199Y305110D02*
D03*
X1146199Y287110D02*
D03*
X1137199Y269110D02*
D03*
X1146199Y251110D02*
D03*
X1137199Y233110D02*
D03*
X1146199Y215110D02*
D03*
X1137199Y197110D02*
D03*
X1146199Y35110D02*
D03*
X1137199Y17110D02*
D03*
X1128199Y755109D02*
D03*
Y575109D02*
D03*
X1119199Y557109D02*
D03*
X1128199Y539109D02*
D03*
X1119199Y521109D02*
D03*
X1128199Y503110D02*
D03*
Y467109D02*
D03*
X1119199Y449109D02*
D03*
X1128199Y431110D02*
D03*
X1119199Y413110D02*
D03*
X1128199Y395109D02*
D03*
X1119199Y377109D02*
D03*
X1128199Y359109D02*
D03*
X1119199Y341110D02*
D03*
X1128199Y323110D02*
D03*
X1119199Y305110D02*
D03*
X1128199Y287110D02*
D03*
X1119199Y269110D02*
D03*
X1128199Y251110D02*
D03*
X1119199Y233110D02*
D03*
X1128199Y215110D02*
D03*
X1119199Y197110D02*
D03*
X1128199Y179110D02*
D03*
Y35110D02*
D03*
X1119199Y17110D02*
D03*
X1110199Y755109D02*
D03*
X1101199Y629109D02*
D03*
X1110199Y539109D02*
D03*
X1101199Y521109D02*
D03*
X1110199Y467109D02*
D03*
X1101199Y449109D02*
D03*
X1110199Y431110D02*
D03*
X1101199Y413110D02*
D03*
X1110199Y395109D02*
D03*
Y323110D02*
D03*
X1101199Y305110D02*
D03*
X1110199Y287110D02*
D03*
X1101199Y269110D02*
D03*
X1110199Y215110D02*
D03*
X1101199Y197110D02*
D03*
X1110199Y179110D02*
D03*
Y35110D02*
D03*
X1101199Y17110D02*
D03*
X1092199Y755109D02*
D03*
X1083199Y629109D02*
D03*
X1092199Y611109D02*
D03*
Y539109D02*
D03*
X1083199Y521109D02*
D03*
X1092199Y431110D02*
D03*
Y395109D02*
D03*
X1083199Y377109D02*
D03*
X1092199Y287110D02*
D03*
X1083199Y269110D02*
D03*
X1092199Y179110D02*
D03*
X1083199Y161110D02*
D03*
X1092199Y35110D02*
D03*
X1083199Y17110D02*
D03*
X1074199Y755109D02*
D03*
Y611109D02*
D03*
X1065199Y593109D02*
D03*
Y521109D02*
D03*
X1074199Y503110D02*
D03*
X1065199Y485109D02*
D03*
Y341110D02*
D03*
Y269110D02*
D03*
X1074199Y251110D02*
D03*
Y179110D02*
D03*
X1065199Y161110D02*
D03*
X1074199Y35110D02*
D03*
X1065199Y17110D02*
D03*
X1056199Y755109D02*
D03*
Y611109D02*
D03*
X1047199Y593109D02*
D03*
X1056199Y575109D02*
D03*
X1047199Y557109D02*
D03*
Y521109D02*
D03*
X1056199Y503110D02*
D03*
X1047199Y485109D02*
D03*
X1056199Y467109D02*
D03*
X1047199Y449109D02*
D03*
X1056199Y395109D02*
D03*
X1047199Y377109D02*
D03*
X1056199Y359109D02*
D03*
X1047199Y341110D02*
D03*
X1056199Y323110D02*
D03*
X1047199Y269110D02*
D03*
X1056199Y251110D02*
D03*
X1047199Y233110D02*
D03*
X1056199Y35110D02*
D03*
X1047199Y17110D02*
D03*
X1038199Y755109D02*
D03*
Y611109D02*
D03*
X1029199Y593109D02*
D03*
X1038199Y575109D02*
D03*
X1029199Y557109D02*
D03*
X1038199Y539109D02*
D03*
X1029199Y521109D02*
D03*
X1038199Y503110D02*
D03*
X1029199Y485109D02*
D03*
X1038199Y467109D02*
D03*
X1029199Y449109D02*
D03*
Y413110D02*
D03*
X1038199Y395109D02*
D03*
X1029199Y377109D02*
D03*
X1038199Y359109D02*
D03*
X1029199Y341110D02*
D03*
X1038199Y323110D02*
D03*
X1029199Y269110D02*
D03*
X1038199Y251110D02*
D03*
X1029199Y233110D02*
D03*
X1038199Y215110D02*
D03*
Y35110D02*
D03*
X1029199Y17110D02*
D03*
X1020199Y755109D02*
D03*
X1011199Y593109D02*
D03*
X1020199Y575109D02*
D03*
X1011199Y557109D02*
D03*
X1020199Y539109D02*
D03*
X1011199Y521109D02*
D03*
X1020199Y503110D02*
D03*
X1011199Y485109D02*
D03*
X1020199Y467109D02*
D03*
X1011199Y449109D02*
D03*
X1020199Y431110D02*
D03*
X1011199Y413110D02*
D03*
X1020199Y395109D02*
D03*
X1011199Y377109D02*
D03*
X1020199Y359109D02*
D03*
X1011199Y341110D02*
D03*
X1020199Y323110D02*
D03*
X1011199Y305110D02*
D03*
X1020199Y287110D02*
D03*
X1011199Y269110D02*
D03*
X1020199Y251110D02*
D03*
X1011199Y233110D02*
D03*
X1020199Y215110D02*
D03*
X1011199Y197110D02*
D03*
X1020199Y35110D02*
D03*
X1011199Y17110D02*
D03*
X1002199Y755109D02*
D03*
Y575109D02*
D03*
X993199Y557109D02*
D03*
X1002199Y539109D02*
D03*
X993199Y521109D02*
D03*
X1002199Y503110D02*
D03*
Y467109D02*
D03*
X993199Y449109D02*
D03*
X1002199Y431110D02*
D03*
X993199Y413110D02*
D03*
X1002199Y395109D02*
D03*
X993199Y377109D02*
D03*
X1002199Y359109D02*
D03*
X993199Y341110D02*
D03*
X1002199Y323110D02*
D03*
X993199Y305110D02*
D03*
X1002199Y287110D02*
D03*
X993199Y269110D02*
D03*
X1002199Y251110D02*
D03*
X993199Y233110D02*
D03*
X1002199Y215110D02*
D03*
X993199Y197110D02*
D03*
X1002199Y179110D02*
D03*
X993199Y161110D02*
D03*
X1002199Y35110D02*
D03*
X993199Y17110D02*
D03*
X984199Y755109D02*
D03*
X975199Y629109D02*
D03*
Y557109D02*
D03*
X984199Y539109D02*
D03*
X975199Y521109D02*
D03*
X984199Y467109D02*
D03*
X975199Y449109D02*
D03*
X984199Y431110D02*
D03*
X975199Y413110D02*
D03*
X984199Y395109D02*
D03*
Y359109D02*
D03*
X975199Y341110D02*
D03*
X984199Y323110D02*
D03*
X975199Y305110D02*
D03*
X984199Y287110D02*
D03*
X975199Y269110D02*
D03*
X984199Y251110D02*
D03*
Y215110D02*
D03*
X975199Y197110D02*
D03*
X984199Y179110D02*
D03*
Y35110D02*
D03*
X975199Y17110D02*
D03*
X966199Y755109D02*
D03*
X957199Y629109D02*
D03*
X966199Y611109D02*
D03*
Y539109D02*
D03*
X957199Y521109D02*
D03*
X966199Y431110D02*
D03*
Y395109D02*
D03*
Y323110D02*
D03*
Y287110D02*
D03*
X957199Y269110D02*
D03*
X966199Y179110D02*
D03*
X957199Y161110D02*
D03*
X966199Y35110D02*
D03*
X957199Y17110D02*
D03*
X948199Y755109D02*
D03*
Y611109D02*
D03*
X939199Y593109D02*
D03*
Y521109D02*
D03*
Y485109D02*
D03*
Y341110D02*
D03*
Y269110D02*
D03*
X948199Y251110D02*
D03*
Y179110D02*
D03*
X939199Y161110D02*
D03*
X948199Y143110D02*
D03*
Y35110D02*
D03*
X939199Y17110D02*
D03*
X930199Y755109D02*
D03*
Y611109D02*
D03*
X921199Y593109D02*
D03*
X930199Y575109D02*
D03*
X921199Y521109D02*
D03*
X930199Y503110D02*
D03*
X921199Y485109D02*
D03*
X930199Y467109D02*
D03*
X921199Y449109D02*
D03*
Y377109D02*
D03*
Y341110D02*
D03*
Y269110D02*
D03*
X930199Y251110D02*
D03*
X921199Y233110D02*
D03*
X930199Y143110D02*
D03*
Y35110D02*
D03*
X921199Y17110D02*
D03*
X912199Y755109D02*
D03*
Y611109D02*
D03*
X903199Y593109D02*
D03*
X912199Y575109D02*
D03*
X903199Y557109D02*
D03*
X912199Y539109D02*
D03*
X903199Y521109D02*
D03*
X912199Y503110D02*
D03*
X903199Y485109D02*
D03*
X912199Y467109D02*
D03*
X903199Y449109D02*
D03*
Y413110D02*
D03*
X912199Y395109D02*
D03*
X903199Y377109D02*
D03*
X912199Y359109D02*
D03*
X903199Y341110D02*
D03*
X912199Y323110D02*
D03*
X903199Y269110D02*
D03*
X912199Y251110D02*
D03*
X903199Y233110D02*
D03*
X912199Y215110D02*
D03*
Y35110D02*
D03*
X903199Y17110D02*
D03*
X894199Y755109D02*
D03*
X885199Y593109D02*
D03*
X894199Y575109D02*
D03*
X885199Y557109D02*
D03*
X894199Y539109D02*
D03*
X885199Y521109D02*
D03*
X894199Y503110D02*
D03*
X885199Y485109D02*
D03*
X894199Y467109D02*
D03*
X885199Y449109D02*
D03*
X894199Y431110D02*
D03*
X885199Y413110D02*
D03*
X894199Y395109D02*
D03*
X885199Y377109D02*
D03*
X894199Y359109D02*
D03*
X885199Y341110D02*
D03*
X894199Y323110D02*
D03*
X885199Y305110D02*
D03*
X894199Y287110D02*
D03*
X885199Y269110D02*
D03*
X894199Y251110D02*
D03*
X885199Y233110D02*
D03*
X894199Y215110D02*
D03*
X885199Y197110D02*
D03*
X894199Y35110D02*
D03*
X885199Y17110D02*
D03*
X876199Y755109D02*
D03*
Y575109D02*
D03*
X867199Y557109D02*
D03*
X876199Y539109D02*
D03*
X867199Y521109D02*
D03*
X876199Y503110D02*
D03*
Y467109D02*
D03*
X867199Y449109D02*
D03*
X876199Y431110D02*
D03*
X867199Y413110D02*
D03*
X876199Y395109D02*
D03*
X867199Y377109D02*
D03*
X876199Y359109D02*
D03*
X867199Y341110D02*
D03*
X876199Y323110D02*
D03*
X867199Y305110D02*
D03*
X876199Y287110D02*
D03*
X867199Y269110D02*
D03*
X876199Y251110D02*
D03*
X867199Y233110D02*
D03*
X876199Y215110D02*
D03*
X867199Y197110D02*
D03*
X876199Y179110D02*
D03*
Y35110D02*
D03*
X867199Y17110D02*
D03*
X858199Y755109D02*
D03*
X849200Y629109D02*
D03*
Y557109D02*
D03*
X858199Y539109D02*
D03*
X849200Y521109D02*
D03*
X858199Y467109D02*
D03*
X849200Y449109D02*
D03*
X858199Y431110D02*
D03*
X849200Y413110D02*
D03*
X858199Y395109D02*
D03*
Y359109D02*
D03*
X849200Y341110D02*
D03*
X858199Y323110D02*
D03*
X849200Y305110D02*
D03*
X858199Y287110D02*
D03*
X849200Y269110D02*
D03*
X858199Y251110D02*
D03*
Y215110D02*
D03*
X849200Y197110D02*
D03*
X858199Y179110D02*
D03*
Y35110D02*
D03*
X849200Y17110D02*
D03*
X840200Y755109D02*
D03*
X831199Y629109D02*
D03*
X840200Y539109D02*
D03*
X831199Y521109D02*
D03*
X840200Y431110D02*
D03*
X831199Y413110D02*
D03*
X840200Y395109D02*
D03*
Y323110D02*
D03*
X831199Y305110D02*
D03*
X840200Y287110D02*
D03*
X831199Y269110D02*
D03*
Y197110D02*
D03*
X840200Y179110D02*
D03*
X831199Y161110D02*
D03*
X840200Y35110D02*
D03*
X831199Y17110D02*
D03*
X822199Y755109D02*
D03*
Y611109D02*
D03*
X813199Y593109D02*
D03*
Y521109D02*
D03*
Y485109D02*
D03*
Y269110D02*
D03*
X822199Y251110D02*
D03*
Y179110D02*
D03*
X813199Y161110D02*
D03*
X822199Y143110D02*
D03*
Y35110D02*
D03*
X813199Y17110D02*
D03*
X804200Y755109D02*
D03*
Y611109D02*
D03*
X795200Y593109D02*
D03*
Y521109D02*
D03*
X804200Y503110D02*
D03*
X795200Y485109D02*
D03*
X804200Y467109D02*
D03*
X795200Y449109D02*
D03*
Y377109D02*
D03*
Y341110D02*
D03*
Y269110D02*
D03*
X804200Y251110D02*
D03*
X795200Y233110D02*
D03*
Y161110D02*
D03*
X804200Y143110D02*
D03*
Y35110D02*
D03*
X795200Y17110D02*
D03*
X786199Y755109D02*
D03*
Y611109D02*
D03*
X777199Y593109D02*
D03*
X786199Y575109D02*
D03*
X777199Y557109D02*
D03*
X786199Y539109D02*
D03*
X777199Y521109D02*
D03*
X786199Y503110D02*
D03*
X777199Y485109D02*
D03*
X786199Y467109D02*
D03*
X777199Y413110D02*
D03*
X786199Y395109D02*
D03*
X777199Y377109D02*
D03*
X786199Y359109D02*
D03*
X777199Y341110D02*
D03*
X786199Y323110D02*
D03*
X777199Y269110D02*
D03*
X786199Y251110D02*
D03*
X777199Y233110D02*
D03*
X786199Y215110D02*
D03*
Y35110D02*
D03*
X777199Y17110D02*
D03*
X768199Y755109D02*
D03*
Y611109D02*
D03*
X759200Y593109D02*
D03*
X768199Y575109D02*
D03*
X759200Y557109D02*
D03*
X768199Y539109D02*
D03*
X759200Y521109D02*
D03*
X768199Y503110D02*
D03*
X759200Y485109D02*
D03*
X768199Y467109D02*
D03*
X759200Y449109D02*
D03*
X768199Y431110D02*
D03*
X759200Y413110D02*
D03*
X768199Y395109D02*
D03*
X759200Y377109D02*
D03*
X768199Y359109D02*
D03*
X759200Y341110D02*
D03*
X768199Y323110D02*
D03*
X759200Y305110D02*
D03*
X768199Y287110D02*
D03*
X759200Y269110D02*
D03*
X768199Y251110D02*
D03*
X759200Y233110D02*
D03*
X768199Y215110D02*
D03*
X759200Y197110D02*
D03*
X768199Y35110D02*
D03*
X759200Y17110D02*
D03*
X750200Y755109D02*
D03*
Y575109D02*
D03*
X741199Y557109D02*
D03*
X750200Y539109D02*
D03*
X741199Y521109D02*
D03*
X750200Y503110D02*
D03*
Y467109D02*
D03*
X741199Y449109D02*
D03*
X750200Y431110D02*
D03*
X741199Y413110D02*
D03*
X750200Y395109D02*
D03*
X741199Y377109D02*
D03*
X750200Y359109D02*
D03*
X741199Y341110D02*
D03*
X750200Y323110D02*
D03*
X741199Y305110D02*
D03*
X750200Y287110D02*
D03*
X741199Y269110D02*
D03*
X750200Y251110D02*
D03*
X741199Y233110D02*
D03*
X750200Y215110D02*
D03*
X741199Y197110D02*
D03*
X750200Y179110D02*
D03*
Y143110D02*
D03*
Y35110D02*
D03*
X741199Y17110D02*
D03*
X732199Y755109D02*
D03*
X723199Y629109D02*
D03*
Y557109D02*
D03*
X732199Y539109D02*
D03*
X723199Y521109D02*
D03*
X732199Y467109D02*
D03*
X723199Y449109D02*
D03*
X732199Y431110D02*
D03*
X723199Y413110D02*
D03*
X732199Y395109D02*
D03*
X723199Y377109D02*
D03*
X732199Y359109D02*
D03*
X723199Y341110D02*
D03*
X732199Y323110D02*
D03*
X723199Y305110D02*
D03*
X732199Y287110D02*
D03*
X723199Y269110D02*
D03*
X732199Y251110D02*
D03*
Y215110D02*
D03*
X723199Y197110D02*
D03*
X732199Y179110D02*
D03*
Y35110D02*
D03*
X723199Y17110D02*
D03*
X714200Y755109D02*
D03*
X705200Y629109D02*
D03*
X714200Y539109D02*
D03*
X705200Y521109D02*
D03*
Y449109D02*
D03*
X714200Y431110D02*
D03*
X705200Y413110D02*
D03*
X714200Y395109D02*
D03*
Y323110D02*
D03*
X705200Y305110D02*
D03*
X714200Y287110D02*
D03*
X705200Y269110D02*
D03*
Y197110D02*
D03*
X714200Y179110D02*
D03*
X705200Y161110D02*
D03*
X714200Y35110D02*
D03*
X705200Y17110D02*
D03*
X696199Y755109D02*
D03*
X687200Y629109D02*
D03*
X696199Y611109D02*
D03*
X687200Y593109D02*
D03*
Y521109D02*
D03*
Y485109D02*
D03*
X696199Y395109D02*
D03*
X687200Y269110D02*
D03*
X696199Y179110D02*
D03*
X687200Y161110D02*
D03*
X696199Y143110D02*
D03*
Y35110D02*
D03*
X687200Y17110D02*
D03*
X678200Y755109D02*
D03*
Y611109D02*
D03*
X669200Y593109D02*
D03*
Y521109D02*
D03*
X678200Y503110D02*
D03*
X669200Y485109D02*
D03*
X678200Y467109D02*
D03*
X669200Y377109D02*
D03*
Y341110D02*
D03*
Y269110D02*
D03*
X678200Y251110D02*
D03*
X669200Y233110D02*
D03*
Y161110D02*
D03*
X678200Y143110D02*
D03*
Y35110D02*
D03*
X669200Y17110D02*
D03*
X660200Y755109D02*
D03*
Y611109D02*
D03*
X651200Y593109D02*
D03*
X660200Y575109D02*
D03*
X651200Y557109D02*
D03*
X660200Y539109D02*
D03*
X651200Y521109D02*
D03*
X660200Y503110D02*
D03*
X651200Y485109D02*
D03*
X660200Y467109D02*
D03*
X651200Y449109D02*
D03*
Y413110D02*
D03*
X660200Y395109D02*
D03*
X651200Y377109D02*
D03*
X660200Y359109D02*
D03*
X651200Y341110D02*
D03*
X660200Y323110D02*
D03*
X651200Y269110D02*
D03*
X660200Y251110D02*
D03*
X651200Y233110D02*
D03*
X660200Y35110D02*
D03*
X651200Y17110D02*
D03*
X642200Y755109D02*
D03*
Y611109D02*
D03*
X633200Y593109D02*
D03*
X642200Y575109D02*
D03*
X633200Y557109D02*
D03*
X642200Y539109D02*
D03*
X633200Y521109D02*
D03*
X642200Y503110D02*
D03*
X633200Y485109D02*
D03*
X642200Y467109D02*
D03*
X633200Y449109D02*
D03*
Y413110D02*
D03*
X642200Y395109D02*
D03*
X633200Y377109D02*
D03*
X642200Y359109D02*
D03*
X633200Y341110D02*
D03*
X642200Y323110D02*
D03*
X633200Y305110D02*
D03*
X642200Y287110D02*
D03*
X633200Y269110D02*
D03*
X642200Y251110D02*
D03*
X633200Y233110D02*
D03*
X642200Y215110D02*
D03*
X633200Y197110D02*
D03*
X642200Y35110D02*
D03*
X633200Y17110D02*
D03*
X624200Y755109D02*
D03*
Y575109D02*
D03*
X615200Y557109D02*
D03*
X624200Y539109D02*
D03*
X615200Y521109D02*
D03*
X624200Y503110D02*
D03*
Y467109D02*
D03*
X615200Y449109D02*
D03*
X624200Y431110D02*
D03*
X615200Y413110D02*
D03*
X624200Y395109D02*
D03*
X615200Y377109D02*
D03*
X624200Y359109D02*
D03*
X615200Y341110D02*
D03*
X624200Y323110D02*
D03*
X615200Y305110D02*
D03*
X624200Y287110D02*
D03*
X615200Y269110D02*
D03*
X624200Y251110D02*
D03*
X615200Y233110D02*
D03*
X624200Y215110D02*
D03*
X615200Y197110D02*
D03*
X624200Y179110D02*
D03*
Y35110D02*
D03*
X615200Y17110D02*
D03*
X606200Y755109D02*
D03*
Y575109D02*
D03*
X597200Y557109D02*
D03*
X606200Y539109D02*
D03*
X597200Y521109D02*
D03*
X606200Y467109D02*
D03*
X597200Y449109D02*
D03*
X606200Y431110D02*
D03*
X597200Y413110D02*
D03*
X606200Y395109D02*
D03*
X597200Y377109D02*
D03*
X606200Y359109D02*
D03*
X597200Y341110D02*
D03*
X606200Y323110D02*
D03*
X597200Y305110D02*
D03*
X606200Y287110D02*
D03*
X597200Y269110D02*
D03*
X606200Y251110D02*
D03*
Y215110D02*
D03*
X597200Y197110D02*
D03*
X606200Y179110D02*
D03*
Y35110D02*
D03*
X597200Y17110D02*
D03*
X588200Y755109D02*
D03*
X579200Y629109D02*
D03*
X588200Y539109D02*
D03*
X579200Y521109D02*
D03*
Y449109D02*
D03*
X588200Y431110D02*
D03*
X579200Y413110D02*
D03*
X588200Y395109D02*
D03*
Y323110D02*
D03*
X579200Y305110D02*
D03*
X588200Y287110D02*
D03*
X579200Y269110D02*
D03*
Y197110D02*
D03*
X588200Y179110D02*
D03*
Y35110D02*
D03*
X579200Y17110D02*
D03*
X570200Y755109D02*
D03*
X561200Y629109D02*
D03*
X570200Y611109D02*
D03*
X561200Y593109D02*
D03*
X570200Y539109D02*
D03*
X561200Y521109D02*
D03*
X570200Y395109D02*
D03*
X561200Y269110D02*
D03*
X570200Y179110D02*
D03*
X561200Y161110D02*
D03*
X570200Y143110D02*
D03*
Y35110D02*
D03*
X561200Y17110D02*
D03*
X552200Y755109D02*
D03*
Y611109D02*
D03*
X543200Y593109D02*
D03*
Y521109D02*
D03*
X552200Y503110D02*
D03*
X543200Y485109D02*
D03*
X552200Y467109D02*
D03*
X543200Y341110D02*
D03*
Y269110D02*
D03*
X552200Y251110D02*
D03*
X543200Y233110D02*
D03*
Y161110D02*
D03*
X552200Y143110D02*
D03*
Y35110D02*
D03*
X543200Y17110D02*
D03*
X534200Y755109D02*
D03*
Y611109D02*
D03*
X525200Y593109D02*
D03*
X534200Y575109D02*
D03*
X525200Y557109D02*
D03*
X534200Y539109D02*
D03*
X525200Y521109D02*
D03*
X534200Y503110D02*
D03*
X525200Y485109D02*
D03*
X534200Y467109D02*
D03*
X525200Y449109D02*
D03*
Y413110D02*
D03*
X534200Y395109D02*
D03*
X525200Y377109D02*
D03*
X534200Y359109D02*
D03*
X525200Y341110D02*
D03*
X534200Y323110D02*
D03*
X525200Y269110D02*
D03*
X534200Y251110D02*
D03*
X525200Y233110D02*
D03*
X534200Y35110D02*
D03*
X525200Y17110D02*
D03*
X516200Y755109D02*
D03*
Y611109D02*
D03*
X507200Y593109D02*
D03*
X516200Y575109D02*
D03*
X507200Y557109D02*
D03*
X516200Y539109D02*
D03*
X507200Y521109D02*
D03*
X516200Y503110D02*
D03*
X507200Y485109D02*
D03*
X516200Y467109D02*
D03*
X507200Y449109D02*
D03*
Y413110D02*
D03*
X516200Y395109D02*
D03*
X507200Y377109D02*
D03*
X516200Y359109D02*
D03*
X507200Y341110D02*
D03*
X516200Y323110D02*
D03*
X507200Y305110D02*
D03*
X516200Y287110D02*
D03*
X507200Y269110D02*
D03*
X516200Y251110D02*
D03*
X507200Y233110D02*
D03*
X516200Y215110D02*
D03*
X507200Y197110D02*
D03*
X516200Y35110D02*
D03*
X507200Y17110D02*
D03*
X498200Y755109D02*
D03*
Y575109D02*
D03*
X489200Y557109D02*
D03*
X498200Y539109D02*
D03*
X489200Y521109D02*
D03*
X498200Y503110D02*
D03*
Y467109D02*
D03*
X489200Y449109D02*
D03*
X498200Y431110D02*
D03*
X489200Y413110D02*
D03*
X498200Y395109D02*
D03*
X489200Y377109D02*
D03*
X498200Y359109D02*
D03*
X489200Y341110D02*
D03*
X498200Y323110D02*
D03*
X489200Y305110D02*
D03*
X498200Y287110D02*
D03*
X489200Y269110D02*
D03*
X498200Y251110D02*
D03*
X489200Y233110D02*
D03*
X498200Y215110D02*
D03*
X489200Y197110D02*
D03*
X498200Y35110D02*
D03*
X489200Y17110D02*
D03*
X480200Y755109D02*
D03*
Y575109D02*
D03*
X471200Y557109D02*
D03*
X480200Y539109D02*
D03*
X471200Y521109D02*
D03*
X480200Y467109D02*
D03*
X471200Y449109D02*
D03*
X480200Y431110D02*
D03*
X471200Y413110D02*
D03*
X480200Y395109D02*
D03*
X471200Y377109D02*
D03*
X480200Y359109D02*
D03*
X471200Y341110D02*
D03*
X480200Y323110D02*
D03*
X471200Y305110D02*
D03*
X480200Y287110D02*
D03*
X471200Y269110D02*
D03*
X480200Y251110D02*
D03*
Y215110D02*
D03*
X471200Y197110D02*
D03*
X480200Y179110D02*
D03*
Y35110D02*
D03*
X471200Y17110D02*
D03*
X462200Y755109D02*
D03*
X453200Y629109D02*
D03*
X462200Y539109D02*
D03*
X453200Y521109D02*
D03*
X462200Y467109D02*
D03*
X453200Y449109D02*
D03*
X462200Y431110D02*
D03*
X453200Y413110D02*
D03*
X462200Y395109D02*
D03*
Y323110D02*
D03*
X453200Y305110D02*
D03*
X462200Y287110D02*
D03*
X453200Y269110D02*
D03*
X462200Y215110D02*
D03*
X453200Y197110D02*
D03*
X462200Y179110D02*
D03*
Y35110D02*
D03*
X453200Y17110D02*
D03*
X444200Y755109D02*
D03*
X435200Y629109D02*
D03*
X444200Y611109D02*
D03*
Y539109D02*
D03*
X435200Y521109D02*
D03*
X444200Y395109D02*
D03*
X435200Y269110D02*
D03*
X444200Y179110D02*
D03*
X435200Y161110D02*
D03*
X444200Y143110D02*
D03*
Y35110D02*
D03*
X435200Y17110D02*
D03*
X426200Y755109D02*
D03*
Y611109D02*
D03*
X417200Y593109D02*
D03*
Y521109D02*
D03*
X426200Y503110D02*
D03*
X417200Y485109D02*
D03*
Y341110D02*
D03*
Y269110D02*
D03*
X426200Y251110D02*
D03*
X417200Y233110D02*
D03*
X426200Y179110D02*
D03*
X417200Y161110D02*
D03*
X426200Y143110D02*
D03*
Y35110D02*
D03*
X417200Y17110D02*
D03*
X408200Y755109D02*
D03*
Y611109D02*
D03*
X399200Y593109D02*
D03*
X408200Y575109D02*
D03*
X399200Y557109D02*
D03*
Y521109D02*
D03*
X408200Y503110D02*
D03*
X399200Y485109D02*
D03*
X408200Y467109D02*
D03*
X399200Y449109D02*
D03*
X408200Y395109D02*
D03*
X399200Y377109D02*
D03*
X408200Y359109D02*
D03*
X399200Y341110D02*
D03*
X408200Y323110D02*
D03*
X399200Y269110D02*
D03*
X408200Y251110D02*
D03*
X399200Y233110D02*
D03*
X408200Y143110D02*
D03*
Y35110D02*
D03*
X399200Y17110D02*
D03*
X390200Y755109D02*
D03*
Y611109D02*
D03*
X381200Y593109D02*
D03*
X390200Y575109D02*
D03*
X381200Y557109D02*
D03*
X390200Y539109D02*
D03*
X381200Y521109D02*
D03*
X390200Y503110D02*
D03*
X381200Y485109D02*
D03*
X390200Y467109D02*
D03*
X381200Y449109D02*
D03*
Y413110D02*
D03*
X390200Y395109D02*
D03*
X381200Y377109D02*
D03*
X390200Y359109D02*
D03*
X381200Y341110D02*
D03*
X390200Y323110D02*
D03*
X381200Y305110D02*
D03*
X390200Y287110D02*
D03*
X381200Y269110D02*
D03*
X390200Y251110D02*
D03*
X381200Y233110D02*
D03*
X390200Y215110D02*
D03*
X381200Y197110D02*
D03*
X390200Y35110D02*
D03*
X381200Y17110D02*
D03*
X372200Y755109D02*
D03*
Y575109D02*
D03*
X363200Y557109D02*
D03*
X372200Y539109D02*
D03*
X363200Y521109D02*
D03*
X372200Y503110D02*
D03*
Y467109D02*
D03*
X363200Y449109D02*
D03*
X372200Y431110D02*
D03*
X363200Y413110D02*
D03*
X372200Y395109D02*
D03*
X363200Y377109D02*
D03*
X372200Y359109D02*
D03*
X363200Y341110D02*
D03*
X372200Y323110D02*
D03*
X363200Y305110D02*
D03*
X372200Y287110D02*
D03*
X363200Y269110D02*
D03*
X372200Y251110D02*
D03*
X363200Y233110D02*
D03*
X372200Y215110D02*
D03*
X363200Y197110D02*
D03*
Y161110D02*
D03*
Y53110D02*
D03*
X372200Y35110D02*
D03*
X363200Y17110D02*
D03*
X354200Y755109D02*
D03*
Y575109D02*
D03*
X345200Y557109D02*
D03*
X354200Y539109D02*
D03*
X345200Y521109D02*
D03*
X354200Y503110D02*
D03*
Y467109D02*
D03*
X345200Y449109D02*
D03*
X354200Y431110D02*
D03*
X345200Y413110D02*
D03*
X354200Y395109D02*
D03*
X345200Y377109D02*
D03*
X354200Y359109D02*
D03*
X345200Y341110D02*
D03*
X354200Y323110D02*
D03*
X345200Y305110D02*
D03*
X354200Y287110D02*
D03*
X345200Y269110D02*
D03*
X354200Y251110D02*
D03*
X345200Y233110D02*
D03*
X354200Y215110D02*
D03*
X345200Y197110D02*
D03*
Y53110D02*
D03*
X354200Y35110D02*
D03*
X345200Y17110D02*
D03*
X336200Y755109D02*
D03*
X327200Y629109D02*
D03*
X336200Y539109D02*
D03*
X327200Y521109D02*
D03*
X336200Y467109D02*
D03*
X327200Y449109D02*
D03*
X336200Y431110D02*
D03*
X327200Y413110D02*
D03*
X336200Y395109D02*
D03*
Y323110D02*
D03*
X327200Y305110D02*
D03*
X336200Y287110D02*
D03*
X327200Y269110D02*
D03*
X336200Y215110D02*
D03*
X327200Y197110D02*
D03*
X336200Y35110D02*
D03*
X318200Y755109D02*
D03*
X309200Y629109D02*
D03*
X318200Y611109D02*
D03*
Y539109D02*
D03*
X309200Y521109D02*
D03*
X318200Y431110D02*
D03*
Y395109D02*
D03*
X309200Y377109D02*
D03*
X318200Y287110D02*
D03*
X309200Y269110D02*
D03*
X318200Y179110D02*
D03*
X309200Y161110D02*
D03*
Y17110D02*
D03*
X300200Y755109D02*
D03*
Y611109D02*
D03*
X291200Y593109D02*
D03*
Y521109D02*
D03*
X300200Y503110D02*
D03*
X291200Y485109D02*
D03*
Y341110D02*
D03*
Y269110D02*
D03*
X300200Y251110D02*
D03*
Y179110D02*
D03*
X291200Y161110D02*
D03*
X300200Y71110D02*
D03*
X282200Y755109D02*
D03*
Y611109D02*
D03*
X273200Y593109D02*
D03*
X282200Y575109D02*
D03*
X273200Y557109D02*
D03*
Y521109D02*
D03*
X282200Y503110D02*
D03*
X273200Y485109D02*
D03*
X282200Y467109D02*
D03*
X273200Y449109D02*
D03*
X282200Y395109D02*
D03*
X273200Y377109D02*
D03*
X282200Y359109D02*
D03*
X273200Y341110D02*
D03*
X282200Y323110D02*
D03*
X273200Y269110D02*
D03*
X282200Y251110D02*
D03*
X273200Y233110D02*
D03*
X264200Y755109D02*
D03*
Y611109D02*
D03*
X255200Y593109D02*
D03*
X264200Y575109D02*
D03*
X255200Y557109D02*
D03*
X264200Y539109D02*
D03*
X255200Y521109D02*
D03*
X264200Y503110D02*
D03*
X255200Y485109D02*
D03*
X264200Y467109D02*
D03*
X255200Y449109D02*
D03*
Y413110D02*
D03*
X264200Y395109D02*
D03*
X255200Y377109D02*
D03*
X264200Y359109D02*
D03*
X255200Y341110D02*
D03*
X264200Y323110D02*
D03*
Y287110D02*
D03*
X255200Y269110D02*
D03*
X264200Y251110D02*
D03*
X255200Y233110D02*
D03*
X264200Y215110D02*
D03*
X255200Y17110D02*
D03*
X246200Y755109D02*
D03*
X237200Y629109D02*
D03*
X246200Y611109D02*
D03*
Y431110D02*
D03*
X237200Y413110D02*
D03*
X246200Y395109D02*
D03*
X237200Y377109D02*
D03*
X246200Y359109D02*
D03*
X237200Y341110D02*
D03*
X246200Y323110D02*
D03*
X237200Y305110D02*
D03*
X246200Y251110D02*
D03*
X237200Y233110D02*
D03*
X246200Y215110D02*
D03*
Y71110D02*
D03*
X237200Y17110D02*
D03*
X228200Y755109D02*
D03*
X219200Y629109D02*
D03*
X228200Y611109D02*
D03*
X219200Y413110D02*
D03*
X228200Y395109D02*
D03*
X219200Y377109D02*
D03*
Y341110D02*
D03*
X228200Y323110D02*
D03*
X219200Y305110D02*
D03*
X228200Y251110D02*
D03*
X219200Y233110D02*
D03*
Y17110D02*
D03*
X210200Y755109D02*
D03*
X201200Y701109D02*
D03*
Y629109D02*
D03*
X210200Y611109D02*
D03*
X201200Y557109D02*
D03*
Y485109D02*
D03*
Y377109D02*
D03*
X210200Y359109D02*
D03*
X201200Y341110D02*
D03*
X210200Y251110D02*
D03*
X201200Y233110D02*
D03*
Y53110D02*
D03*
X210200Y35110D02*
D03*
X201200Y17110D02*
D03*
X192200Y755109D02*
D03*
X183200Y701109D02*
D03*
X192200Y683109D02*
D03*
X183200Y629109D02*
D03*
X192200Y611109D02*
D03*
X183200Y557109D02*
D03*
Y485109D02*
D03*
X192200Y467109D02*
D03*
X183200Y449109D02*
D03*
Y377109D02*
D03*
X192200Y359109D02*
D03*
X183200Y341110D02*
D03*
X192200Y251110D02*
D03*
X183200Y233110D02*
D03*
Y17110D02*
D03*
X174200Y755109D02*
D03*
X165200Y629109D02*
D03*
X174200Y611109D02*
D03*
X165200Y521109D02*
D03*
Y485109D02*
D03*
Y377109D02*
D03*
X174200Y359109D02*
D03*
X165200Y341110D02*
D03*
Y305110D02*
D03*
X174200Y251110D02*
D03*
X165200Y17110D02*
D03*
X156200Y755109D02*
D03*
X147200Y629109D02*
D03*
X156200Y611109D02*
D03*
X147200Y485109D02*
D03*
X156200Y395109D02*
D03*
X147200Y377109D02*
D03*
Y341110D02*
D03*
X156200Y323110D02*
D03*
X147200Y305110D02*
D03*
X156200Y287110D02*
D03*
X147200Y269110D02*
D03*
X156200Y251110D02*
D03*
Y71110D02*
D03*
X138200Y755109D02*
D03*
X129200Y629109D02*
D03*
X138200Y611109D02*
D03*
X129200Y485109D02*
D03*
X138200Y395109D02*
D03*
Y323110D02*
D03*
X129200Y305110D02*
D03*
X138200Y287110D02*
D03*
Y251110D02*
D03*
X129200Y197110D02*
D03*
X120200Y755109D02*
D03*
Y683109D02*
D03*
X111200Y629109D02*
D03*
X120200Y611109D02*
D03*
Y359109D02*
D03*
X111200Y305110D02*
D03*
Y197110D02*
D03*
X120200Y71110D02*
D03*
X111200Y17110D02*
D03*
X102200Y755109D02*
D03*
X93200Y629109D02*
D03*
X102200Y611109D02*
D03*
Y467109D02*
D03*
Y359109D02*
D03*
X93200Y305110D02*
D03*
Y197110D02*
D03*
X84200Y755109D02*
D03*
X75200Y629109D02*
D03*
X84200Y611109D02*
D03*
X75200Y197110D02*
D03*
X84200Y35110D02*
D03*
X57200Y629109D02*
D03*
X66200Y611109D02*
D03*
X57200Y593109D02*
D03*
Y197110D02*
D03*
X66200Y71110D02*
D03*
X48200Y683109D02*
D03*
X39200Y629109D02*
D03*
X48200Y611109D02*
D03*
X39200Y197110D02*
D03*
X21200Y701109D02*
D03*
X30200Y683109D02*
D03*
X12200Y71110D02*
D03*
X1668385Y279198D02*
D03*
X1455520Y158632D02*
D03*
X1458060Y153060D02*
D03*
X1455750Y122750D02*
D03*
X1525000Y205750D02*
D03*
X1468918Y177750D02*
D03*
X1444520Y176041D02*
D03*
X1654500Y658750D02*
D03*
X1623250Y535250D02*
D03*
X1628996Y534730D02*
D03*
X1626155Y564623D02*
D03*
X1686500Y576500D02*
D03*
X1662500Y578500D02*
D03*
X1655500D02*
D03*
X1680500Y645000D02*
D03*
X1657500Y335750D02*
D03*
X1661500Y517750D02*
D03*
X1653750D02*
D03*
X1484500Y305500D02*
D03*
X1492750D02*
D03*
X1497265Y232500D02*
D03*
X1492750Y244500D02*
D03*
X1484500D02*
D03*
X1377110Y149360D02*
D03*
X1468639Y199361D02*
D03*
X1479495Y200000D02*
D03*
X1478647Y226342D02*
D03*
X1472152Y213195D02*
D03*
X1610718Y568655D02*
D03*
X1602000Y563750D02*
D03*
X1692500Y305000D02*
D03*
Y296750D02*
D03*
X1654062Y280905D02*
D03*
X1659250Y278379D02*
D03*
Y272504D02*
D03*
Y266733D02*
D03*
X1660091Y261025D02*
D03*
X1664720Y257580D02*
D03*
X1661250Y252060D02*
D03*
Y243000D02*
D03*
X1694500Y320750D02*
D03*
X1502250Y227500D02*
D03*
X1441820Y204260D02*
D03*
X1439250Y254500D02*
D03*
X1448900Y244840D02*
D03*
X1441765Y262810D02*
D03*
X1426765Y245250D02*
D03*
X1449299Y223250D02*
D03*
X1444290Y215931D02*
D03*
X1454565Y235502D02*
D03*
X1470500Y222500D02*
D03*
X1467963Y217163D02*
D03*
X1475575Y232864D02*
D03*
X1440990Y224510D02*
D03*
X1450139Y239205D02*
D03*
X1473035Y227683D02*
D03*
X1440345Y232820D02*
D03*
X1419250Y200000D02*
D03*
X1487839Y186915D02*
D03*
X1474966Y191140D02*
D03*
X1441531Y285030D02*
D03*
X1441430Y279261D02*
D03*
X1441500Y294230D02*
D03*
X1441643Y198481D02*
D03*
X1462875Y202778D02*
D03*
X1455368Y188600D02*
D03*
X1441750Y210750D02*
D03*
X1458091Y144750D02*
D03*
X1460335Y197413D02*
D03*
X1465415Y207959D02*
D03*
X1469480Y144520D02*
D03*
X1455520Y137750D02*
D03*
X1441500Y300000D02*
D03*
X1687750Y537250D02*
D03*
Y543000D02*
D03*
X1694500Y595750D02*
D03*
X1623250Y552250D02*
D03*
Y543000D02*
D03*
X1623500Y559500D02*
D03*
X1441750Y273500D02*
D03*
X1433000Y667000D02*
D03*
D134*
X1436446Y193946D02*
D03*
X1425839Y183339D02*
D03*
D135*
X229725Y78175D02*
X229900Y78350D01*
X214500Y78000D02*
X214675Y78175D01*
X229725D01*
X18550Y153050D02*
X34450D01*
X99150D02*
X114950D01*
D136*
X1538750Y25250D02*
X1558750D01*
M02*
