G04*
G04 #@! TF.GenerationSoftware,Altium Limited,Altium Designer,21.7.1 (17)*
G04*
G04 Layer_Color=16711935*
%FSLAX44Y44*%
%MOMM*%
G71*
G04*
G04 #@! TF.SameCoordinates,003C428C-6323-4237-91BB-275CBF4B30E0*
G04*
G04*
G04 #@! TF.FilePolarity,Negative*
G04*
G01*
G75*
%ADD72R,1.0500X1.4500*%
%ADD87R,1.4500X0.8500*%
%ADD88R,1.1500X0.6500*%
%ADD90R,0.6500X1.1500*%
%ADD118R,1.4500X1.0500*%
%ADD120R,0.8500X1.4500*%
%ADD122R,2.1500X3.7500*%
%ADD124R,1.5000X1.5000*%
%ADD125C,1.5000*%
%ADD126C,1.2500*%
%ADD127R,1.2500X1.2500*%
%ADD128R,1.7250X1.7250*%
%ADD129C,1.7250*%
%ADD130O,1.5500X1.7250*%
%ADD131C,3.6500*%
%ADD132C,4.1500*%
%ADD133C,1.1500*%
%ADD134R,1.6500X1.6500*%
%ADD135C,1.7500*%
%ADD136C,1.2500*%
%ADD137C,1.0000*%
%ADD138C,1.3500*%
%ADD139O,1.4500X1.5500*%
%ADD140C,2.6500*%
%ADD141C,2.7500*%
%ADD142C,5.1500*%
%ADD239R,4.5000X2.3000*%
%ADD240R,2.7062X1.4544*%
%ADD241R,3.2000X1.7200*%
%ADD313R,1.3500X2.1500*%
%ADD314R,5.9500X6.0000*%
%ADD315R,5.7000X6.5000*%
%ADD316R,1.1500X1.9000*%
%ADD317R,1.6200X1.2800*%
G04:AMPARAMS|DCode=318|XSize=3.3mm|YSize=1.95mm|CornerRadius=0.129mm|HoleSize=0mm|Usage=FLASHONLY|Rotation=0.000|XOffset=0mm|YOffset=0mm|HoleType=Round|Shape=RoundedRectangle|*
%AMROUNDEDRECTD318*
21,1,3.3000,1.6920,0,0,0.0*
21,1,3.0420,1.9500,0,0,0.0*
1,1,0.2580,1.5210,-0.8460*
1,1,0.2580,-1.5210,-0.8460*
1,1,0.2580,-1.5210,0.8460*
1,1,0.2580,1.5210,0.8460*
%
%ADD318ROUNDEDRECTD318*%
G04:AMPARAMS|DCode=319|XSize=0.75mm|YSize=1.95mm|CornerRadius=0.126mm|HoleSize=0mm|Usage=FLASHONLY|Rotation=0.000|XOffset=0mm|YOffset=0mm|HoleType=Round|Shape=RoundedRectangle|*
%AMROUNDEDRECTD319*
21,1,0.7500,1.6980,0,0,0.0*
21,1,0.4980,1.9500,0,0,0.0*
1,1,0.2520,0.2490,-0.8490*
1,1,0.2520,-0.2490,-0.8490*
1,1,0.2520,-0.2490,0.8490*
1,1,0.2520,0.2490,0.8490*
%
%ADD319ROUNDEDRECTD319*%
G04:AMPARAMS|DCode=320|XSize=0.7mm|YSize=0.95mm|CornerRadius=0.1245mm|HoleSize=0mm|Usage=FLASHONLY|Rotation=180.000|XOffset=0mm|YOffset=0mm|HoleType=Round|Shape=RoundedRectangle|*
%AMROUNDEDRECTD320*
21,1,0.7000,0.7010,0,0,180.0*
21,1,0.4510,0.9500,0,0,180.0*
1,1,0.2490,-0.2255,0.3505*
1,1,0.2490,0.2255,0.3505*
1,1,0.2490,0.2255,-0.3505*
1,1,0.2490,-0.2255,-0.3505*
%
%ADD320ROUNDEDRECTD320*%
%ADD321R,2.1500X2.3500*%
%ADD322R,1.1500X1.1500*%
%ADD323R,0.8000X1.2000*%
%ADD324R,2.3500X3.4500*%
%ADD325R,0.4500X1.3500*%
%ADD326R,1.6500X1.3500*%
%ADD327R,2.3500X2.1500*%
G04:AMPARAMS|DCode=328|XSize=1.45mm|YSize=1.05mm|CornerRadius=0mm|HoleSize=0mm|Usage=FLASHONLY|Rotation=315.000|XOffset=0mm|YOffset=0mm|HoleType=Round|Shape=Rectangle|*
%AMROTATEDRECTD328*
4,1,4,-0.8839,0.1414,-0.1414,0.8839,0.8839,-0.1414,0.1414,-0.8839,-0.8839,0.1414,0.0*
%
%ADD328ROTATEDRECTD328*%

G04:AMPARAMS|DCode=329|XSize=1.45mm|YSize=1.05mm|CornerRadius=0mm|HoleSize=0mm|Usage=FLASHONLY|Rotation=225.000|XOffset=0mm|YOffset=0mm|HoleType=Round|Shape=Rectangle|*
%AMROTATEDRECTD329*
4,1,4,0.1414,0.8839,0.8839,0.1414,-0.1414,-0.8839,-0.8839,-0.1414,0.1414,0.8839,0.0*
%
%ADD329ROTATEDRECTD329*%

%ADD330R,1.2800X1.6200*%
G04:AMPARAMS|DCode=331|XSize=0.7mm|YSize=0.95mm|CornerRadius=0.1245mm|HoleSize=0mm|Usage=FLASHONLY|Rotation=90.000|XOffset=0mm|YOffset=0mm|HoleType=Round|Shape=RoundedRectangle|*
%AMROUNDEDRECTD331*
21,1,0.7000,0.7010,0,0,90.0*
21,1,0.4510,0.9500,0,0,90.0*
1,1,0.2490,0.3505,0.2255*
1,1,0.2490,0.3505,-0.2255*
1,1,0.2490,-0.3505,-0.2255*
1,1,0.2490,-0.3505,0.2255*
%
%ADD331ROUNDEDRECTD331*%
G04:AMPARAMS|DCode=332|XSize=3.3mm|YSize=1.95mm|CornerRadius=0.129mm|HoleSize=0mm|Usage=FLASHONLY|Rotation=270.000|XOffset=0mm|YOffset=0mm|HoleType=Round|Shape=RoundedRectangle|*
%AMROUNDEDRECTD332*
21,1,3.3000,1.6920,0,0,270.0*
21,1,3.0420,1.9500,0,0,270.0*
1,1,0.2580,-0.8460,-1.5210*
1,1,0.2580,-0.8460,1.5210*
1,1,0.2580,0.8460,1.5210*
1,1,0.2580,0.8460,-1.5210*
%
%ADD332ROUNDEDRECTD332*%
G04:AMPARAMS|DCode=333|XSize=0.75mm|YSize=1.95mm|CornerRadius=0.126mm|HoleSize=0mm|Usage=FLASHONLY|Rotation=270.000|XOffset=0mm|YOffset=0mm|HoleType=Round|Shape=RoundedRectangle|*
%AMROUNDEDRECTD333*
21,1,0.7500,1.6980,0,0,270.0*
21,1,0.4980,1.9500,0,0,270.0*
1,1,0.2520,-0.8490,-0.2490*
1,1,0.2520,-0.8490,0.2490*
1,1,0.2520,0.8490,0.2490*
1,1,0.2520,0.8490,-0.2490*
%
%ADD333ROUNDEDRECTD333*%
D72*
X472750Y305500D02*
D03*
X491750D02*
D03*
X428500Y131250D02*
D03*
X409500D02*
D03*
X183500Y228000D02*
D03*
X202500D02*
D03*
X476500Y131250D02*
D03*
X457500D02*
D03*
X519250Y217500D02*
D03*
X500250D02*
D03*
X824750Y216000D02*
D03*
X805750D02*
D03*
Y242500D02*
D03*
X824750D02*
D03*
X550750Y486500D02*
D03*
X569750D02*
D03*
X462000Y227750D02*
D03*
X443000D02*
D03*
X223000Y314500D02*
D03*
X242000D02*
D03*
X222750Y246000D02*
D03*
X241750D02*
D03*
X491750Y321750D02*
D03*
X472750D02*
D03*
X269500Y157750D02*
D03*
X288500D02*
D03*
X443000Y193500D02*
D03*
X462000D02*
D03*
X222750Y211500D02*
D03*
X241750D02*
D03*
X178500Y84000D02*
D03*
X197500D02*
D03*
X223000Y280250D02*
D03*
X242000D02*
D03*
X491750Y338000D02*
D03*
X472750D02*
D03*
X773000Y200000D02*
D03*
X754000D02*
D03*
X337250Y370250D02*
D03*
X318250D02*
D03*
X754000Y216000D02*
D03*
X773000D02*
D03*
X184250Y266000D02*
D03*
X165250D02*
D03*
X76000Y411750D02*
D03*
X57000D02*
D03*
X14000D02*
D03*
X33000D02*
D03*
X207500Y404750D02*
D03*
X226500D02*
D03*
X166750D02*
D03*
X185750D02*
D03*
X136500Y167000D02*
D03*
X155500D02*
D03*
X118500Y149000D02*
D03*
X99500D02*
D03*
Y131000D02*
D03*
X118500D02*
D03*
X195000Y167000D02*
D03*
X176000D02*
D03*
X569000Y16750D02*
D03*
X588000D02*
D03*
X805750Y261250D02*
D03*
X824750D02*
D03*
D87*
X372000Y401000D02*
D03*
Y420000D02*
D03*
X285500Y420000D02*
D03*
Y401000D02*
D03*
X328750D02*
D03*
Y420000D02*
D03*
X558375Y302997D02*
D03*
Y321997D02*
D03*
X654750Y97000D02*
D03*
Y78000D02*
D03*
X676750Y97000D02*
D03*
Y78000D02*
D03*
X456750Y169000D02*
D03*
Y150000D02*
D03*
X350375Y420000D02*
D03*
Y401000D02*
D03*
X307125D02*
D03*
Y420000D02*
D03*
X547500Y281500D02*
D03*
Y262500D02*
D03*
X232000Y48750D02*
D03*
Y67750D02*
D03*
X698250Y78000D02*
D03*
Y97000D02*
D03*
D88*
X649750Y295250D02*
D03*
Y280250D02*
D03*
X674000Y299750D02*
D03*
Y284750D02*
D03*
D90*
X510000Y202500D02*
D03*
X495000D02*
D03*
D118*
X330500Y61750D02*
D03*
Y42750D02*
D03*
X155000Y186500D02*
D03*
Y205500D02*
D03*
X137000D02*
D03*
Y186500D02*
D03*
X477000Y150000D02*
D03*
Y169000D02*
D03*
X531750Y132500D02*
D03*
Y113500D02*
D03*
X536500Y302997D02*
D03*
Y321997D02*
D03*
X514000Y152000D02*
D03*
Y133000D02*
D03*
X514750Y302997D02*
D03*
Y321997D02*
D03*
X580250D02*
D03*
Y302997D02*
D03*
X250750Y158750D02*
D03*
Y177750D02*
D03*
X496000Y152000D02*
D03*
Y133000D02*
D03*
X464000Y481250D02*
D03*
Y462250D02*
D03*
X375250Y196000D02*
D03*
Y215000D02*
D03*
X558000Y413500D02*
D03*
Y394500D02*
D03*
X388000Y61750D02*
D03*
Y42750D02*
D03*
X357250Y179000D02*
D03*
Y160000D02*
D03*
X594750Y57750D02*
D03*
Y38750D02*
D03*
X311250Y179000D02*
D03*
Y160000D02*
D03*
X521750Y42750D02*
D03*
Y61750D02*
D03*
X199000Y103500D02*
D03*
Y122500D02*
D03*
X447500Y286750D02*
D03*
Y305750D02*
D03*
X199000Y64500D02*
D03*
Y45500D02*
D03*
X285500Y378500D02*
D03*
Y359500D02*
D03*
X232000Y119250D02*
D03*
Y100250D02*
D03*
X99000Y361500D02*
D03*
Y380500D02*
D03*
X96000Y289500D02*
D03*
Y270500D02*
D03*
Y229500D02*
D03*
Y248500D02*
D03*
X80250Y132250D02*
D03*
Y151250D02*
D03*
X157500Y83250D02*
D03*
Y102250D02*
D03*
D120*
X391500Y131250D02*
D03*
X372500D02*
D03*
X652500Y188000D02*
D03*
X671500D02*
D03*
X136500Y149000D02*
D03*
X155500D02*
D03*
X514750Y109250D02*
D03*
X495750D02*
D03*
X136500Y131000D02*
D03*
X155500D02*
D03*
X495750Y91000D02*
D03*
X514750D02*
D03*
D122*
X52250Y78750D02*
D03*
X18250D02*
D03*
D124*
X948250Y289750D02*
D03*
D125*
Y269750D02*
D03*
Y249750D02*
D03*
Y229750D02*
D03*
Y209750D02*
D03*
D126*
Y363250D02*
D03*
Y383250D02*
D03*
Y403250D02*
D03*
D127*
Y423250D02*
D03*
D128*
X651750Y440750D02*
D03*
D129*
Y460750D02*
D03*
X631750Y440750D02*
D03*
Y460750D02*
D03*
X611750D02*
D03*
X591750D02*
D03*
X571750Y440750D02*
D03*
Y460750D02*
D03*
X551750Y440750D02*
D03*
Y460750D02*
D03*
D130*
X611750Y440750D02*
D03*
X591750D02*
D03*
D131*
X453380Y83500D02*
D03*
D132*
X341497Y263997D02*
D03*
X142000Y301969D02*
D03*
D133*
X142000Y432000D02*
D03*
D134*
X651200Y36300D02*
D03*
X261400Y438300D02*
D03*
D135*
X702000Y36300D02*
D03*
X676600D02*
D03*
X752800Y61700D02*
D03*
X727400D02*
D03*
X702000D02*
D03*
X676600D02*
D03*
X651200D02*
D03*
X727400Y36300D02*
D03*
X752800D02*
D03*
X363000Y438300D02*
D03*
X337600D02*
D03*
X261400Y463700D02*
D03*
X286800D02*
D03*
X312200D02*
D03*
X337600D02*
D03*
X363000D02*
D03*
X286800Y438300D02*
D03*
X312200D02*
D03*
D136*
X811500Y86000D02*
D03*
D137*
X886000D02*
D03*
D138*
X559520Y372750D02*
D03*
X510720D02*
D03*
D139*
X733000Y322250D02*
D03*
Y296850D02*
D03*
D140*
X43000Y300000D02*
D03*
Y200000D02*
D03*
D141*
X17600Y325400D02*
D03*
X68400D02*
D03*
Y274600D02*
D03*
X17600D02*
D03*
Y174600D02*
D03*
X68400D02*
D03*
Y225400D02*
D03*
X17600D02*
D03*
X857500Y122850D02*
D03*
D142*
X970000Y470000D02*
D03*
Y30000D02*
D03*
X30000Y470000D02*
D03*
Y30000D02*
D03*
D239*
X769000Y86000D02*
D03*
X933000D02*
D03*
D240*
X195750Y309009D02*
D03*
Y282491D02*
D03*
D241*
X963250Y124200D02*
D03*
Y188300D02*
D03*
D313*
X79963Y105437D02*
D03*
X125662D02*
D03*
D314*
X102812Y39188D02*
D03*
D315*
X419000Y412000D02*
D03*
X509500Y460000D02*
D03*
D316*
X441850Y483000D02*
D03*
X396150D02*
D03*
X532350Y389000D02*
D03*
X486650D02*
D03*
D317*
X195500Y348850D02*
D03*
Y331150D02*
D03*
D318*
X202000Y485000D02*
D03*
D319*
Y426500D02*
D03*
X176600D02*
D03*
X189300D02*
D03*
X214700D02*
D03*
X227400D02*
D03*
D320*
X351750Y63000D02*
D03*
X361250D02*
D03*
X370750D02*
D03*
Y37500D02*
D03*
X351750D02*
D03*
X548000Y63000D02*
D03*
X557500D02*
D03*
X567000D02*
D03*
Y37500D02*
D03*
X548000D02*
D03*
D321*
X850750Y288250D02*
D03*
X820750D02*
D03*
X911750D02*
D03*
X881750D02*
D03*
Y182250D02*
D03*
X911750D02*
D03*
X216500Y376750D02*
D03*
X186500D02*
D03*
X719000Y118250D02*
D03*
X749000D02*
D03*
D322*
X642250Y255250D02*
D03*
Y271250D02*
D03*
X673750Y269500D02*
D03*
Y253500D02*
D03*
D323*
X753896Y185278D02*
D03*
X772896D02*
D03*
X763396Y162278D02*
D03*
D324*
X919750Y365500D02*
D03*
X592750D02*
D03*
D325*
X608750Y343750D02*
D03*
X613750D02*
D03*
X618750D02*
D03*
X623750D02*
D03*
X628750D02*
D03*
X633750D02*
D03*
X638750D02*
D03*
X643750D02*
D03*
X648750D02*
D03*
X653750D02*
D03*
X658750D02*
D03*
X663750D02*
D03*
X668750D02*
D03*
X673750D02*
D03*
X678750D02*
D03*
X683750D02*
D03*
X688750D02*
D03*
X693750D02*
D03*
X698750D02*
D03*
X703750D02*
D03*
X708750D02*
D03*
X713750D02*
D03*
X718750D02*
D03*
X723750D02*
D03*
X728750D02*
D03*
X733750D02*
D03*
X738750D02*
D03*
X743750D02*
D03*
X748750D02*
D03*
X753750D02*
D03*
X758750D02*
D03*
X763750D02*
D03*
X768750D02*
D03*
X773750D02*
D03*
X778750D02*
D03*
X783750D02*
D03*
X788750D02*
D03*
X793750D02*
D03*
X798750D02*
D03*
X803750D02*
D03*
X808750D02*
D03*
X813750D02*
D03*
X818750D02*
D03*
X823750D02*
D03*
X828750D02*
D03*
X833750D02*
D03*
X838750D02*
D03*
X843750D02*
D03*
X848750D02*
D03*
X853750D02*
D03*
X858750D02*
D03*
X863750D02*
D03*
X868750D02*
D03*
X873750D02*
D03*
X878750D02*
D03*
X883750D02*
D03*
X888750D02*
D03*
X893750D02*
D03*
X898750D02*
D03*
X903750D02*
D03*
D326*
X157000Y248000D02*
D03*
Y226000D02*
D03*
X119000Y248000D02*
D03*
Y226000D02*
D03*
D327*
X107000Y201000D02*
D03*
Y171000D02*
D03*
X304750Y64500D02*
D03*
Y34500D02*
D03*
X416500D02*
D03*
Y64500D02*
D03*
X622750Y34500D02*
D03*
Y64500D02*
D03*
X488000Y34500D02*
D03*
Y64500D02*
D03*
X259500Y376000D02*
D03*
Y406000D02*
D03*
X53750Y145750D02*
D03*
Y115750D02*
D03*
X155250Y46250D02*
D03*
Y16250D02*
D03*
D328*
X271782Y201283D02*
D03*
X285217Y214718D02*
D03*
X411468Y328218D02*
D03*
X398032Y314783D02*
D03*
D329*
X409967Y204032D02*
D03*
X396533Y217467D02*
D03*
X271782Y327967D02*
D03*
X285217Y314533D02*
D03*
D330*
X201850Y246000D02*
D03*
X184150D02*
D03*
D331*
X174161Y207854D02*
D03*
Y188854D02*
D03*
X199661D02*
D03*
Y207854D02*
D03*
Y198354D02*
D03*
D332*
X906909Y235167D02*
D03*
D333*
X848409Y260567D02*
D03*
Y247867D02*
D03*
Y235167D02*
D03*
Y222467D02*
D03*
Y209767D02*
D03*
M02*
