G04*
G04 #@! TF.GenerationSoftware,Altium Limited,Altium Designer,21.7.1 (17)*
G04*
G04 Layer_Color=8421504*
%FSLAX44Y44*%
%MOMM*%
G71*
G04*
G04 #@! TF.SameCoordinates,003C428C-6323-4237-91BB-275CBF4B30E0*
G04*
G04*
G04 #@! TF.FilePolarity,Positive*
G04*
G01*
G75*
%ADD19R,0.9000X1.3000*%
%ADD20R,3.6000X2.0000*%
%ADD21R,0.6000X2.0000*%
%ADD22R,1.0000X1.6500*%
%ADD23R,1.6500X0.7600*%
%ADD24R,0.7600X1.6500*%
%ADD25R,1.6500X1.0000*%
%ADD26R,1.0000X1.0000*%
%ADD27R,1.6000X0.3000*%
%ADD28R,0.3000X1.6000*%
%ADD29R,2.0000X0.6000*%
%ADD30R,2.4100X3.3000*%
%ADD31R,1.9250X0.6500*%
%ADD32R,2.1500X2.2000*%
%ADD33R,0.9000X1.7000*%
%ADD34R,1.3000X0.7000*%
%ADD35R,1.0000X0.5000*%
%ADD36R,0.5500X0.6000*%
%ADD37R,0.5000X1.0000*%
%ADD38R,1.4750X0.3000*%
%ADD39R,0.3000X1.4750*%
%ADD40R,4.1000X4.1000*%
%ADD41R,0.2540X1.3208*%
%ADD42R,1.3208X0.2540*%
%ADD43R,1.3208X0.2540*%
%ADD44R,5.5880X5.5880*%
%ADD45R,2.0000X2.0000*%
%ADD46R,1.0500X0.3500*%
%ADD47R,0.3500X1.0500*%
%ADD48R,1.8000X2.0000*%
%ADD49O,0.6500X1.8500*%
%ADD50O,0.9000X0.2500*%
%ADD51O,0.2500X0.9000*%
%ADD52R,1.4500X1.4500*%
%ADD53R,7.4000X7.4000*%
%ADD54O,0.8500X0.3000*%
%ADD55O,0.3000X0.8500*%
%ADD56R,0.8000X0.8000*%
%ADD57R,3.4000X2.4000*%
%ADD58R,0.4500X0.8000*%
%ADD59R,3.2000X1.6000*%
%ADD60R,0.7000X1.2000*%
%ADD61R,1.0000X1.2000*%
%ADD62R,1.3000X1.9000*%
%ADD63R,1.0000X0.8000*%
%ADD64R,1.0000X2.8000*%
%ADD65R,1.0000X1.6000*%
%ADD66R,1.3000X0.9000*%
%ADD67R,1.9000X1.3000*%
%ADD68R,0.7000X1.3000*%
%ADD69R,1.6000X3.2000*%
%ADD70R,2.0000X3.6000*%
%ADD71R,0.8000X0.8000*%
D19*
X426750Y483000D02*
D03*
X445750D02*
D03*
X643750Y395500D02*
D03*
X624750D02*
D03*
Y376083D02*
D03*
X643750D02*
D03*
Y356667D02*
D03*
X624750D02*
D03*
Y337250D02*
D03*
X643750D02*
D03*
X896250Y209126D02*
D03*
X877250D02*
D03*
X590250Y13750D02*
D03*
X571250D02*
D03*
X346500Y19000D02*
D03*
X327500D02*
D03*
X877250Y190000D02*
D03*
X896250D02*
D03*
X346500Y36750D02*
D03*
X327500D02*
D03*
X108250Y451000D02*
D03*
X89250D02*
D03*
X172500Y422000D02*
D03*
X191500D02*
D03*
X89250Y433000D02*
D03*
X108250D02*
D03*
X89250Y369000D02*
D03*
X108250D02*
D03*
X132500D02*
D03*
X151500D02*
D03*
X777500Y151750D02*
D03*
X796500D02*
D03*
D20*
X974500Y72000D02*
D03*
Y106000D02*
D03*
D21*
X552200Y114250D02*
D03*
X577600D02*
D03*
X564900D02*
D03*
X590250D02*
D03*
X552200Y36250D02*
D03*
X564900D02*
D03*
X577600D02*
D03*
X590250D02*
D03*
X465700Y483750D02*
D03*
X478400D02*
D03*
X491100D02*
D03*
X503800D02*
D03*
Y409750D02*
D03*
X491100D02*
D03*
X478400D02*
D03*
X465700D02*
D03*
D22*
X323750Y107500D02*
D03*
Y83500D02*
D03*
Y59500D02*
D03*
X389750D02*
D03*
Y83500D02*
D03*
Y107500D02*
D03*
D23*
X340850Y83500D02*
D03*
Y96200D02*
D03*
X372650D02*
D03*
Y70800D02*
D03*
X340850D02*
D03*
D24*
X30300Y401900D02*
D03*
Y370100D02*
D03*
X55700D02*
D03*
Y401900D02*
D03*
X43000D02*
D03*
X55700Y98100D02*
D03*
Y129900D02*
D03*
X30300D02*
D03*
Y98100D02*
D03*
X43000D02*
D03*
D25*
X67000Y353000D02*
D03*
X19000D02*
D03*
Y419000D02*
D03*
X43000D02*
D03*
X67000D02*
D03*
X19000Y147000D02*
D03*
X67000D02*
D03*
Y81000D02*
D03*
X43000D02*
D03*
X19000D02*
D03*
D26*
X43000Y353000D02*
D03*
Y147000D02*
D03*
D27*
X706500Y290000D02*
D03*
Y285000D02*
D03*
Y280000D02*
D03*
Y275000D02*
D03*
Y270000D02*
D03*
Y265000D02*
D03*
Y260000D02*
D03*
Y255000D02*
D03*
Y250000D02*
D03*
Y245000D02*
D03*
Y240000D02*
D03*
Y235000D02*
D03*
Y230000D02*
D03*
Y225000D02*
D03*
Y220000D02*
D03*
Y215000D02*
D03*
Y210000D02*
D03*
Y205000D02*
D03*
Y200000D02*
D03*
Y195000D02*
D03*
Y190000D02*
D03*
Y185000D02*
D03*
Y180000D02*
D03*
Y175000D02*
D03*
Y170000D02*
D03*
X552500D02*
D03*
Y175000D02*
D03*
Y180000D02*
D03*
Y185000D02*
D03*
Y190000D02*
D03*
Y195000D02*
D03*
Y200000D02*
D03*
Y205000D02*
D03*
Y210000D02*
D03*
Y215000D02*
D03*
Y220000D02*
D03*
Y225000D02*
D03*
Y230000D02*
D03*
Y235000D02*
D03*
Y240000D02*
D03*
Y245000D02*
D03*
Y250000D02*
D03*
Y255000D02*
D03*
Y260000D02*
D03*
Y265000D02*
D03*
Y270000D02*
D03*
Y275000D02*
D03*
Y280000D02*
D03*
Y285000D02*
D03*
Y290000D02*
D03*
D28*
X689500Y153000D02*
D03*
X684500D02*
D03*
X679500D02*
D03*
X674500D02*
D03*
X669500D02*
D03*
X664500D02*
D03*
X659500D02*
D03*
X654500D02*
D03*
X649500D02*
D03*
X644500D02*
D03*
X639500D02*
D03*
X634500D02*
D03*
X629500D02*
D03*
X624500D02*
D03*
X619500D02*
D03*
X614500D02*
D03*
X609500D02*
D03*
X604500D02*
D03*
X599500D02*
D03*
X594500D02*
D03*
X589500D02*
D03*
X584500D02*
D03*
X579500D02*
D03*
X574500D02*
D03*
X569500D02*
D03*
Y307000D02*
D03*
X574500D02*
D03*
X579500D02*
D03*
X584500D02*
D03*
X589500D02*
D03*
X594500D02*
D03*
X599500D02*
D03*
X604500D02*
D03*
X609500D02*
D03*
X614500D02*
D03*
X619500D02*
D03*
X624500D02*
D03*
X629500D02*
D03*
X634500D02*
D03*
X639500D02*
D03*
X644500D02*
D03*
X649500D02*
D03*
X654500D02*
D03*
X659500D02*
D03*
X664500D02*
D03*
X669500D02*
D03*
X674500D02*
D03*
X679500D02*
D03*
X684500D02*
D03*
X689500D02*
D03*
D29*
X884500Y102800D02*
D03*
Y115500D02*
D03*
Y128200D02*
D03*
Y140900D02*
D03*
X830500D02*
D03*
Y128200D02*
D03*
Y115500D02*
D03*
Y102800D02*
D03*
D30*
X857500Y122850D02*
D03*
D31*
X846120Y247050D02*
D03*
Y259750D02*
D03*
X751880D02*
D03*
Y247050D02*
D03*
Y234350D02*
D03*
Y221650D02*
D03*
Y208950D02*
D03*
Y183550D02*
D03*
X846120D02*
D03*
Y234350D02*
D03*
Y221650D02*
D03*
Y208950D02*
D03*
X751880Y196250D02*
D03*
X846120D02*
D03*
X751880Y272450D02*
D03*
X846120D02*
D03*
D32*
X699000Y438250D02*
D03*
Y482250D02*
D03*
X745500Y438250D02*
D03*
Y482250D02*
D03*
D33*
X170950Y94930D02*
D03*
X199950D02*
D03*
Y72070D02*
D03*
X170950D02*
D03*
D34*
X802958Y310000D02*
D03*
Y291000D02*
D03*
X750750Y382750D02*
D03*
Y401750D02*
D03*
X104250Y216000D02*
D03*
Y235000D02*
D03*
X604500Y377000D02*
D03*
Y396000D02*
D03*
X604250Y337250D02*
D03*
Y356250D02*
D03*
X740000Y110500D02*
D03*
Y129500D02*
D03*
X104250Y76750D02*
D03*
Y57750D02*
D03*
Y90250D02*
D03*
Y109250D02*
D03*
X721000Y110500D02*
D03*
Y129500D02*
D03*
X90000Y404500D02*
D03*
Y385500D02*
D03*
X821417Y310000D02*
D03*
Y291000D02*
D03*
X839875D02*
D03*
Y310000D02*
D03*
X876792Y291000D02*
D03*
Y310000D02*
D03*
X895250Y291000D02*
D03*
Y310000D02*
D03*
X784500Y291000D02*
D03*
Y310000D02*
D03*
D35*
X149000Y402500D02*
D03*
Y387500D02*
D03*
X135000D02*
D03*
Y402500D02*
D03*
D36*
X34750Y340250D02*
D03*
X43250D02*
D03*
D37*
X237750Y376750D02*
D03*
X222750D02*
D03*
D38*
X411000Y56000D02*
D03*
Y61000D02*
D03*
Y66000D02*
D03*
Y71000D02*
D03*
Y81000D02*
D03*
Y86000D02*
D03*
Y96000D02*
D03*
Y101000D02*
D03*
X495760Y106000D02*
D03*
Y101000D02*
D03*
Y96000D02*
D03*
Y81000D02*
D03*
Y76000D02*
D03*
Y71000D02*
D03*
Y66000D02*
D03*
Y61000D02*
D03*
Y56000D02*
D03*
X411000Y91000D02*
D03*
Y76000D02*
D03*
Y106000D02*
D03*
Y111000D02*
D03*
X495760Y86000D02*
D03*
Y91000D02*
D03*
Y111000D02*
D03*
D39*
X425880Y125880D02*
D03*
X430880D02*
D03*
X435880D02*
D03*
X445880D02*
D03*
X455880D02*
D03*
X460880D02*
D03*
X465880D02*
D03*
X470880D02*
D03*
X475880D02*
D03*
X480880D02*
D03*
Y41120D02*
D03*
X475880D02*
D03*
X470880D02*
D03*
X465880D02*
D03*
X460880D02*
D03*
X455880D02*
D03*
X450880D02*
D03*
X445880D02*
D03*
X440880D02*
D03*
X435880D02*
D03*
X425880D02*
D03*
X430880D02*
D03*
X440880Y125880D02*
D03*
X450880D02*
D03*
D40*
X453380Y83500D02*
D03*
D41*
X428999Y371000D02*
D03*
X424000D02*
D03*
X418999D02*
D03*
X414000D02*
D03*
X408999D02*
D03*
X404000D02*
D03*
X398999D02*
D03*
X394000D02*
D03*
X388999D02*
D03*
X384000D02*
D03*
X379001D02*
D03*
X374000D02*
D03*
X369001D02*
D03*
X364000D02*
D03*
X359001D02*
D03*
X354000D02*
D03*
X349001D02*
D03*
X344000D02*
D03*
X339001D02*
D03*
X334000D02*
D03*
X328999D02*
D03*
X324000D02*
D03*
X318999D02*
D03*
X314000D02*
D03*
X308999D02*
D03*
X304000D02*
D03*
X298999D02*
D03*
X294000D02*
D03*
X288999D02*
D03*
X284000D02*
D03*
X278999D02*
D03*
X274000D02*
D03*
X268999D02*
D03*
X264000D02*
D03*
X258999D02*
D03*
X254000D02*
D03*
Y157000D02*
D03*
X258999D02*
D03*
X264000D02*
D03*
X268999D02*
D03*
X274000D02*
D03*
X278999D02*
D03*
X284000D02*
D03*
X288999D02*
D03*
X294000D02*
D03*
X298999D02*
D03*
X304000D02*
D03*
X308999D02*
D03*
X314000D02*
D03*
X318999D02*
D03*
X324000D02*
D03*
X328999D02*
D03*
X334000D02*
D03*
X339001D02*
D03*
X344000D02*
D03*
X349001D02*
D03*
X354000D02*
D03*
X359001D02*
D03*
X364000D02*
D03*
X369001D02*
D03*
X374000D02*
D03*
X379001D02*
D03*
X384000D02*
D03*
X388999D02*
D03*
X394000D02*
D03*
X398999D02*
D03*
X404000D02*
D03*
X408999D02*
D03*
X414000D02*
D03*
X418999D02*
D03*
X424000D02*
D03*
X428999D02*
D03*
D42*
X234501Y351501D02*
D03*
Y341501D02*
D03*
Y331501D02*
D03*
Y321501D02*
D03*
Y311501D02*
D03*
Y296500D02*
D03*
Y286500D02*
D03*
Y276500D02*
D03*
Y266500D02*
D03*
Y256500D02*
D03*
Y246500D02*
D03*
Y236500D02*
D03*
Y226500D02*
D03*
Y216500D02*
D03*
Y211501D02*
D03*
Y201501D02*
D03*
Y191501D02*
D03*
Y181501D02*
D03*
X448501Y176500D02*
D03*
Y186500D02*
D03*
Y196500D02*
D03*
Y206500D02*
D03*
Y221501D02*
D03*
Y231501D02*
D03*
Y241501D02*
D03*
Y251501D02*
D03*
Y261501D02*
D03*
Y271501D02*
D03*
Y281501D02*
D03*
Y291501D02*
D03*
Y301501D02*
D03*
Y306500D02*
D03*
Y316500D02*
D03*
Y326499D02*
D03*
Y336499D02*
D03*
Y346499D02*
D03*
D43*
X234501D02*
D03*
Y336499D02*
D03*
Y326499D02*
D03*
Y316500D02*
D03*
Y306500D02*
D03*
Y301501D02*
D03*
Y291501D02*
D03*
Y281501D02*
D03*
Y271501D02*
D03*
Y261501D02*
D03*
Y251501D02*
D03*
Y241501D02*
D03*
Y231501D02*
D03*
Y221501D02*
D03*
Y206500D02*
D03*
Y196500D02*
D03*
Y186500D02*
D03*
Y176500D02*
D03*
X448501Y181501D02*
D03*
Y191501D02*
D03*
Y201501D02*
D03*
Y211501D02*
D03*
Y216500D02*
D03*
Y226500D02*
D03*
Y236500D02*
D03*
Y246500D02*
D03*
Y256500D02*
D03*
Y266500D02*
D03*
Y276500D02*
D03*
Y286500D02*
D03*
Y296500D02*
D03*
Y311501D02*
D03*
Y321501D02*
D03*
Y331501D02*
D03*
Y341501D02*
D03*
Y351501D02*
D03*
D44*
X341497Y263997D02*
D03*
D45*
X236250Y83500D02*
D03*
D46*
X217750Y73750D02*
D03*
Y80250D02*
D03*
Y86750D02*
D03*
Y93250D02*
D03*
X254750D02*
D03*
Y86750D02*
D03*
Y80250D02*
D03*
Y73750D02*
D03*
D47*
X226500Y102000D02*
D03*
X233000D02*
D03*
X239500D02*
D03*
X246000D02*
D03*
Y65000D02*
D03*
X239500D02*
D03*
X233000D02*
D03*
X226500D02*
D03*
D48*
X106050Y153023D02*
D03*
X156850D02*
D03*
Y195023D02*
D03*
X106050D02*
D03*
X131450Y153023D02*
D03*
Y195023D02*
D03*
D49*
X474300Y239500D02*
D03*
X487000D02*
D03*
X499700D02*
D03*
X512400D02*
D03*
X474300Y313000D02*
D03*
X487000D02*
D03*
X499700D02*
D03*
X512400D02*
D03*
D50*
X127500Y439500D02*
D03*
Y434500D02*
D03*
Y429500D02*
D03*
X156500D02*
D03*
Y434500D02*
D03*
X127500Y424500D02*
D03*
X156500D02*
D03*
Y439500D02*
D03*
D51*
X134500Y417500D02*
D03*
X139500D02*
D03*
X144500D02*
D03*
X149500D02*
D03*
Y446500D02*
D03*
X144500D02*
D03*
X139500D02*
D03*
X134500D02*
D03*
D52*
X142000Y432000D02*
D03*
D53*
Y301969D02*
D03*
D54*
X186500Y339469D02*
D03*
Y334469D02*
D03*
Y329469D02*
D03*
Y324469D02*
D03*
Y319469D02*
D03*
Y314469D02*
D03*
Y309469D02*
D03*
Y304469D02*
D03*
Y299469D02*
D03*
Y294469D02*
D03*
Y289469D02*
D03*
Y284469D02*
D03*
Y279469D02*
D03*
Y274469D02*
D03*
Y269469D02*
D03*
Y264469D02*
D03*
X97500D02*
D03*
Y269469D02*
D03*
Y274469D02*
D03*
Y279469D02*
D03*
Y284469D02*
D03*
Y289469D02*
D03*
Y294469D02*
D03*
Y299469D02*
D03*
Y304469D02*
D03*
Y309469D02*
D03*
Y314469D02*
D03*
Y319469D02*
D03*
Y324469D02*
D03*
Y329469D02*
D03*
Y334469D02*
D03*
Y339469D02*
D03*
D55*
X179500Y257469D02*
D03*
X174500D02*
D03*
X169500D02*
D03*
X164500D02*
D03*
X159500D02*
D03*
X154500D02*
D03*
X149500D02*
D03*
X144500D02*
D03*
X139500D02*
D03*
X134500D02*
D03*
X129500D02*
D03*
X124500D02*
D03*
X119500D02*
D03*
X114500D02*
D03*
X109500D02*
D03*
X104500D02*
D03*
Y346469D02*
D03*
X109500D02*
D03*
X114500D02*
D03*
X119500D02*
D03*
X124500D02*
D03*
X129500D02*
D03*
X134500D02*
D03*
X139500D02*
D03*
X144500D02*
D03*
X149500D02*
D03*
X154500D02*
D03*
X159500D02*
D03*
X164500D02*
D03*
X169500D02*
D03*
X174500D02*
D03*
X179500D02*
D03*
D56*
X237750Y389755D02*
D03*
X222750D02*
D03*
D57*
X840250Y17250D02*
D03*
Y75250D02*
D03*
D58*
X508500Y217500D02*
D03*
X500500D02*
D03*
X492500D02*
D03*
X484500D02*
D03*
Y201500D02*
D03*
X492500D02*
D03*
X500500D02*
D03*
X508500D02*
D03*
D59*
X977750Y154750D02*
D03*
X927750D02*
D03*
D60*
X813000Y329500D02*
D03*
X824000D02*
D03*
X835000D02*
D03*
X846000D02*
D03*
X857000D02*
D03*
X879000D02*
D03*
X890000D02*
D03*
X899500D02*
D03*
X868000D02*
D03*
D61*
X797500D02*
D03*
X909000Y372500D02*
D03*
D62*
X774000Y480500D02*
D03*
D63*
X909000Y434490D02*
D03*
D64*
Y475990D02*
D03*
D65*
X152190Y50480D02*
D03*
X122190D02*
D03*
Y72070D02*
D03*
X152190D02*
D03*
Y94930D02*
D03*
X122190D02*
D03*
Y116520D02*
D03*
X152190D02*
D03*
D66*
X945500Y112250D02*
D03*
Y93250D02*
D03*
X674000Y129500D02*
D03*
Y110500D02*
D03*
X694500D02*
D03*
Y129500D02*
D03*
X444000Y456250D02*
D03*
Y437250D02*
D03*
X544000Y325000D02*
D03*
Y306000D02*
D03*
X177000Y387500D02*
D03*
Y368500D02*
D03*
X108000Y385500D02*
D03*
Y404500D02*
D03*
X308000Y93000D02*
D03*
Y74000D02*
D03*
X905750Y104250D02*
D03*
Y123250D02*
D03*
X928250Y93250D02*
D03*
Y112250D02*
D03*
X858333Y291000D02*
D03*
Y310000D02*
D03*
D67*
X698000Y390000D02*
D03*
X666000D02*
D03*
X698000Y335000D02*
D03*
X666000D02*
D03*
D68*
X272530Y120060D02*
D03*
X291530D02*
D03*
X561500Y410000D02*
D03*
X580500D02*
D03*
X204250Y162500D02*
D03*
X185250D02*
D03*
Y185500D02*
D03*
X204250D02*
D03*
X169000Y219000D02*
D03*
X150000D02*
D03*
X138250D02*
D03*
X119250D02*
D03*
X333750Y130250D02*
D03*
X352750D02*
D03*
X289500Y36750D02*
D03*
X308500D02*
D03*
X369500Y130250D02*
D03*
X388500D02*
D03*
X603250Y112000D02*
D03*
X622250D02*
D03*
X560000Y13750D02*
D03*
X541000D02*
D03*
X877250Y230250D02*
D03*
X896250D02*
D03*
Y249250D02*
D03*
X877250D02*
D03*
X289500Y19000D02*
D03*
X308500D02*
D03*
X254530Y120060D02*
D03*
X235530D02*
D03*
X291250Y73750D02*
D03*
X272250D02*
D03*
X291250Y93250D02*
D03*
X272250D02*
D03*
X198810Y46670D02*
D03*
X217810D02*
D03*
X217530Y120060D02*
D03*
X198530D02*
D03*
X896250Y268123D02*
D03*
X877250D02*
D03*
X191500Y440000D02*
D03*
X172500D02*
D03*
X883250Y157500D02*
D03*
X864250D02*
D03*
X831250D02*
D03*
X850250D02*
D03*
X369500Y36750D02*
D03*
X388500D02*
D03*
D69*
X909750Y23250D02*
D03*
Y73250D02*
D03*
D70*
X804250Y117500D02*
D03*
X770250D02*
D03*
D71*
X731245Y400500D02*
D03*
Y385500D02*
D03*
M02*
