G04*
G04 #@! TF.GenerationSoftware,Altium Limited,Altium Designer,21.7.1 (17)*
G04*
G04 Layer_Physical_Order=3*
G04 Layer_Color=128*
%FSLAX44Y44*%
%MOMM*%
G71*
G04*
G04 #@! TF.SameCoordinates,003C428C-6323-4237-91BB-275CBF4B30E0*
G04*
G04*
G04 #@! TF.FilePolarity,Negative*
G04*
G01*
G75*
%ADD148C,0.5000*%
%ADD218C,1.0160*%
%ADD220C,1.1032*%
%ADD221C,0.9032*%
%ADD222C,1.2532*%
%ADD223C,1.2032*%
%ADD224C,1.4532*%
%ADD225C,1.3032*%
%ADD226C,1.9032*%
%ADD227C,0.4531*%
%ADD228C,0.4532*%
%ADD229C,3.2032*%
%ADD230C,3.7032*%
%ADD231C,0.8032*%
%ADD232C,3.4032*%
%ADD233C,2.6032*%
D148*
X582750Y292500D02*
X589250Y299000D01*
X521500Y292500D02*
X582750D01*
X937000Y85000D02*
Y134250D01*
X947750Y145000D01*
X999750D01*
X316000Y179250D02*
X322000Y185250D01*
X780750Y138000D02*
X814250Y171500D01*
Y243750D02*
X826750Y256250D01*
X894750D01*
X899750Y261250D01*
Y325500D01*
X826750Y256250D02*
Y341000D01*
X817250Y350500D02*
X826750Y341000D01*
X606750Y350500D02*
X817250D01*
X899750Y325500D02*
Y390500D01*
X878500Y411750D02*
X899750Y390500D01*
X820250Y411750D02*
X878500D01*
X79500Y71000D02*
X91250Y59250D01*
X0Y71000D02*
X79500D01*
X206500Y156250D02*
X208000Y157750D01*
X337500Y185250D02*
X345750Y177000D01*
X374750Y193500D02*
X429500D01*
X436250Y200250D01*
X442000Y206000D01*
Y288250D01*
X446250Y292500D01*
X486250D01*
X365500Y184250D02*
X374750Y193500D01*
X358250Y177000D02*
X365500Y184250D01*
X345750Y177000D02*
X358250D01*
X216500Y122500D02*
X480250D01*
X515500Y87250D01*
X730000D01*
X765250Y122500D01*
X814250Y171500D02*
Y243750D01*
X537250Y372750D02*
Y411750D01*
X472000Y411750D02*
X780000Y411750D01*
X589250Y333000D02*
X606750Y350500D01*
X589250Y299000D02*
Y333000D01*
X486250Y292500D02*
X521500D01*
X255250Y362250D02*
X466250D01*
Y347750D02*
Y368500D01*
Y347750D02*
X470250Y343750D01*
X508250D01*
X537250Y372750D01*
X466250Y406000D02*
X472000Y411750D01*
X466250Y397000D02*
Y406000D01*
Y368500D02*
Y397000D01*
X79500Y400500D02*
Y416750D01*
Y203750D02*
Y359000D01*
Y71000D02*
Y224000D01*
X-250Y400500D02*
X79500D01*
X0Y71000D02*
Y124000D01*
X199500Y237000D02*
Y301750D01*
X211000Y313250D01*
Y315500D01*
Y441250D01*
X201750Y450500D02*
X211000Y441250D01*
X110250Y367250D02*
X125500D01*
X105250Y362250D02*
X110250Y367250D01*
X105250Y307000D02*
Y362250D01*
X146250Y225750D02*
X158500D01*
X179750Y247000D01*
Y289500D01*
X120000Y225750D02*
X146250D01*
X105250Y240500D02*
X120000Y225750D01*
X105250Y240500D02*
Y307000D01*
X125500Y367250D02*
X156250D01*
X179750Y343750D01*
Y289500D02*
Y343750D01*
X79500Y359000D02*
Y445750D01*
X84250Y450500D01*
X201750D01*
X166250Y203750D02*
X199500Y237000D01*
X79500Y203750D02*
X166250D01*
X241750Y348750D02*
X255250Y362250D01*
X241750Y205250D02*
Y348750D01*
X234000Y197500D02*
X241750Y205250D01*
X227000Y197500D02*
X234000D01*
X215500D02*
X227000D01*
X206500Y188500D02*
X215500Y197500D01*
X877000Y25000D02*
X937000Y85000D01*
X765250Y122500D02*
X780750Y138000D01*
X125500Y25000D02*
X877000D01*
X91250Y59250D02*
X125500Y25000D01*
X322000Y185250D02*
X337500D01*
X294500Y157750D02*
X316000Y179250D01*
X208000Y157750D02*
X294500D01*
X206500Y132500D02*
X216500Y122500D01*
X206500Y132500D02*
Y188500D01*
X780000Y411750D02*
X820250D01*
D218*
X0Y0D02*
X1000000D01*
Y500000D01*
X0D02*
X1000000D01*
X0Y0D02*
Y500000D01*
D220*
X948250Y289750D02*
D03*
Y269750D02*
D03*
Y249750D02*
D03*
Y229750D02*
D03*
Y209750D02*
D03*
D221*
Y363250D02*
D03*
Y383250D02*
D03*
Y403250D02*
D03*
Y423250D02*
D03*
X559520Y372750D02*
D03*
X510720D02*
D03*
D222*
X651750Y440750D02*
D03*
Y460750D02*
D03*
X631750Y440750D02*
D03*
Y460750D02*
D03*
X611750Y440750D02*
D03*
Y460750D02*
D03*
X591750Y440750D02*
D03*
Y460750D02*
D03*
X571750Y440750D02*
D03*
Y460750D02*
D03*
X551750Y440750D02*
D03*
Y460750D02*
D03*
D223*
X651200Y36300D02*
D03*
X702000D02*
D03*
X676600D02*
D03*
X752800Y61700D02*
D03*
X727400D02*
D03*
X702000D02*
D03*
X676600D02*
D03*
X651200D02*
D03*
X727400Y36300D02*
D03*
X752800D02*
D03*
X886000Y86000D02*
D03*
X363000Y438300D02*
D03*
X337600D02*
D03*
X261400Y463700D02*
D03*
X286800D02*
D03*
X312200D02*
D03*
X337600D02*
D03*
X363000D02*
D03*
X286800Y438300D02*
D03*
X312200D02*
D03*
X261400D02*
D03*
D224*
X811500Y86000D02*
D03*
D225*
X733000Y322250D02*
D03*
Y296850D02*
D03*
D226*
X43000Y300000D02*
D03*
Y200000D02*
D03*
D227*
X928500Y248500D02*
D03*
X905500Y256250D02*
D03*
X906750Y209250D02*
D03*
X817250Y96500D02*
D03*
X607500Y40500D02*
D03*
X638000D02*
D03*
X559250Y52500D02*
D03*
X312000Y119000D02*
D03*
X367000Y105250D02*
D03*
X346250D02*
D03*
X355250Y116000D02*
D03*
X337750D02*
D03*
X361000Y47750D02*
D03*
X249250D02*
D03*
X312000Y105250D02*
D03*
X89750Y414750D02*
D03*
X96500Y421500D02*
D03*
X99000Y394500D02*
D03*
X105000Y334250D02*
D03*
X564250Y314750D02*
D03*
X348060Y221751D02*
D03*
X328060D02*
D03*
X308060D02*
D03*
X709750Y392000D02*
D03*
X704500Y401250D02*
D03*
X693000D02*
D03*
X424000Y87500D02*
D03*
X453500Y463750D02*
D03*
X378060Y231751D02*
D03*
X368060D02*
D03*
X358060D02*
D03*
X348060D02*
D03*
X338060D02*
D03*
X328060D02*
D03*
X298060D02*
D03*
X308060D02*
D03*
X318060D02*
D03*
X368060Y301751D02*
D03*
X348060D02*
D03*
X308060D02*
D03*
X328060D02*
D03*
X388060Y291751D02*
D03*
X378060D02*
D03*
X383060Y281751D02*
D03*
X373060D02*
D03*
X388060Y271751D02*
D03*
X378060D02*
D03*
X388060Y251751D02*
D03*
X383060Y241751D02*
D03*
X373060D02*
D03*
X378060Y251751D02*
D03*
X298060D02*
D03*
X293060Y241751D02*
D03*
X303060D02*
D03*
X308060Y251751D02*
D03*
X298060Y271751D02*
D03*
X308060D02*
D03*
X298060Y291751D02*
D03*
X308060D02*
D03*
X293060Y281751D02*
D03*
X303060D02*
D03*
X108250Y222000D02*
D03*
X100250D02*
D03*
X115000Y157250D02*
D03*
X68250Y70750D02*
D03*
X473750Y429750D02*
D03*
Y436250D02*
D03*
Y442750D02*
D03*
Y449250D02*
D03*
X486750Y429750D02*
D03*
Y436250D02*
D03*
Y442750D02*
D03*
Y449250D02*
D03*
Y455750D02*
D03*
Y462250D02*
D03*
X334500Y172500D02*
D03*
X224500Y136250D02*
D03*
X147028Y236500D02*
D03*
X328500Y172500D02*
D03*
X218272Y136154D02*
D03*
X141257Y236511D02*
D03*
X125000Y356500D02*
D03*
X119000D02*
D03*
X640757Y126071D02*
D03*
X635406Y123909D02*
D03*
X665750Y73750D02*
D03*
X719745Y180739D02*
D03*
X707005Y375011D02*
D03*
X700665Y369318D02*
D03*
X712000Y366750D02*
D03*
X677835Y295500D02*
D03*
X681777Y286991D02*
D03*
X704745Y359797D02*
D03*
X717761Y280025D02*
D03*
Y274254D02*
D03*
X652500Y290500D02*
D03*
X622420Y325739D02*
D03*
X694513Y298150D02*
D03*
X639750Y291500D02*
D03*
X695532Y307515D02*
D03*
X716995Y306995D02*
D03*
X717373Y315504D02*
D03*
X750216Y289750D02*
D03*
X750250Y295750D02*
D03*
X750973Y306972D02*
D03*
X650246Y132047D02*
D03*
X751473Y326944D02*
D03*
X751098Y321186D02*
D03*
X271500Y168500D02*
D03*
X284000D02*
D03*
X298455Y166980D02*
D03*
X892750Y317500D02*
D03*
X880500D02*
D03*
X817500Y139750D02*
D03*
X806920Y144020D02*
D03*
X521540Y264824D02*
D03*
X539000Y254479D02*
D03*
X459250Y332000D02*
D03*
X241500Y360250D02*
D03*
X215500Y247500D02*
D03*
X221500Y256750D02*
D03*
X174250Y226750D02*
D03*
X165750Y180750D02*
D03*
X551505Y133896D02*
D03*
X686750Y202000D02*
D03*
X689245Y214750D02*
D03*
X694213Y226418D02*
D03*
X691729Y220500D02*
D03*
X729048Y376675D02*
D03*
X723839Y374191D02*
D03*
X736228Y169914D02*
D03*
X735016Y223447D02*
D03*
Y206303D02*
D03*
X720111Y174980D02*
D03*
X714247Y161245D02*
D03*
X569250Y142250D02*
D03*
X580315Y140065D02*
D03*
X525500Y235250D02*
D03*
X693511Y364222D02*
D03*
X724000Y308500D02*
D03*
X897750Y280250D02*
D03*
X803256Y283979D02*
D03*
X797750Y282250D02*
D03*
X834000Y283000D02*
D03*
X739750Y391750D02*
D03*
X644250Y409500D02*
D03*
X593500Y387250D02*
D03*
X634250Y366500D02*
D03*
X592500Y344500D02*
D03*
X535500Y360250D02*
D03*
X525500D02*
D03*
X545500D02*
D03*
X269750Y390250D02*
D03*
X556500Y473250D02*
D03*
X546500D02*
D03*
X256750Y346000D02*
D03*
X252750Y331250D02*
D03*
X305750Y384000D02*
D03*
X263500Y120500D02*
D03*
X228500Y160000D02*
D03*
X482500Y293500D02*
D03*
X468000D02*
D03*
X559750Y87750D02*
D03*
X584250Y344500D02*
D03*
X286000Y105250D02*
D03*
X352000Y458500D02*
D03*
X299500D02*
D03*
X325000D02*
D03*
X149500Y380250D02*
D03*
X134500D02*
D03*
X208000Y197500D02*
D03*
X215250Y231250D02*
D03*
X689245Y260000D02*
D03*
X722740Y192257D02*
D03*
X728480Y185621D02*
D03*
X288060Y291751D02*
D03*
Y271751D02*
D03*
Y251751D02*
D03*
Y231751D02*
D03*
X383060Y221751D02*
D03*
X373060D02*
D03*
X388060Y231751D02*
D03*
X393060Y241751D02*
D03*
Y301751D02*
D03*
Y281751D02*
D03*
Y261751D02*
D03*
X363060D02*
D03*
Y281751D02*
D03*
X368060Y271751D02*
D03*
Y251751D02*
D03*
X363060Y241751D02*
D03*
X353060D02*
D03*
X343060D02*
D03*
X368060Y291751D02*
D03*
X358060D02*
D03*
X348060D02*
D03*
X338060D02*
D03*
X328060D02*
D03*
X318060D02*
D03*
X323060Y281751D02*
D03*
X313060D02*
D03*
X318060Y271751D02*
D03*
Y251751D02*
D03*
X313060Y261751D02*
D03*
X333060Y241751D02*
D03*
X323060D02*
D03*
X313060D02*
D03*
X715406Y146242D02*
D03*
X864250Y357000D02*
D03*
X854000D02*
D03*
X843750D02*
D03*
X833500D02*
D03*
X823250D02*
D03*
X813000D02*
D03*
X564984Y214783D02*
D03*
X564984Y225217D02*
D03*
X567654Y197471D02*
D03*
X568250Y203750D02*
D03*
X467529Y238971D02*
D03*
X463000Y244250D02*
D03*
X484758Y108549D02*
D03*
X482250Y114000D02*
D03*
X476500Y106750D02*
D03*
X430640Y114501D02*
D03*
X435314Y153368D02*
D03*
X436187Y162344D02*
D03*
X549250Y95000D02*
D03*
X655500Y169000D02*
D03*
X649500D02*
D03*
X674250Y139753D02*
D03*
X489766Y349234D02*
D03*
X478000Y361000D02*
D03*
X482500Y356500D02*
D03*
X473500Y365500D02*
D03*
X498500Y367750D02*
D03*
X496250Y373500D02*
D03*
X698337Y312559D02*
D03*
Y302472D02*
D03*
X717495Y301246D02*
D03*
X432750Y308750D02*
D03*
X432752Y301501D02*
D03*
X539000Y248500D02*
D03*
X568549Y236952D02*
D03*
X525750Y228659D02*
D03*
X568250Y209750D02*
D03*
X694995Y149611D02*
D03*
X686750Y195000D02*
D03*
X643500Y169000D02*
D03*
X629531Y122756D02*
D03*
X606859Y137021D02*
D03*
X571031Y189750D02*
D03*
X601750Y169000D02*
D03*
X704929Y162734D02*
D03*
X787000Y145250D02*
D03*
X568250Y220000D02*
D03*
Y231122D02*
D03*
X526750Y274250D02*
D03*
X526195Y268235D02*
D03*
X577250Y344500D02*
D03*
X571250D02*
D03*
X577421Y356329D02*
D03*
X590271Y332245D02*
D03*
X571250Y356500D02*
D03*
X537821Y263218D02*
D03*
X525000Y256250D02*
D03*
X752250Y177250D02*
D03*
X745917Y176550D02*
D03*
X624000Y142750D02*
D03*
X618000Y141750D02*
D03*
X208750Y80750D02*
D03*
Y86250D02*
D03*
X220679Y110771D02*
D03*
X220750Y56000D02*
D03*
X231000Y75250D02*
D03*
X237750D02*
D03*
X231000Y91750D02*
D03*
X237750D02*
D03*
Y83500D02*
D03*
X231000D02*
D03*
X562527Y360508D02*
D03*
X613500Y376250D02*
D03*
X708250Y486750D02*
D03*
X346750Y134500D02*
D03*
X796750Y265250D02*
D03*
X877250Y166250D02*
D03*
X885250D02*
D03*
X202000Y422500D02*
D03*
X369250Y180000D02*
D03*
X85500Y378750D02*
D03*
X480250Y433000D02*
D03*
Y439500D02*
D03*
X493250Y459000D02*
D03*
Y465500D02*
D03*
Y452500D02*
D03*
X93250Y105500D02*
D03*
Y116500D02*
D03*
X716782Y294935D02*
D03*
X661250Y379250D02*
D03*
X668750D02*
D03*
X700445Y158250D02*
D03*
X740750Y173500D02*
D03*
X650000Y356500D02*
D03*
X525500Y403750D02*
D03*
X518500D02*
D03*
X655250Y400250D02*
D03*
X624500Y407500D02*
D03*
Y386000D02*
D03*
X434500Y291250D02*
D03*
X433000Y266250D02*
D03*
Y271250D02*
D03*
Y261250D02*
D03*
X413000Y113996D02*
D03*
X423538Y112993D02*
D03*
X480500Y88500D02*
D03*
X479101Y81031D02*
D03*
Y61093D02*
D03*
X474101Y91000D02*
D03*
X429101Y81031D02*
D03*
X474101Y71062D02*
D03*
X469101Y61093D02*
D03*
X449101D02*
D03*
X439101D02*
D03*
X459101D02*
D03*
X424101Y76000D02*
D03*
X434101Y71062D02*
D03*
X429101Y61093D02*
D03*
X301250Y430250D02*
D03*
X354500Y355500D02*
D03*
X299000Y384000D02*
D03*
X205750Y392000D02*
D03*
X202000Y408500D02*
D03*
Y415500D02*
D03*
X174250Y360253D02*
D03*
X224747Y331500D02*
D03*
X242266Y331335D02*
D03*
X221500Y296500D02*
D03*
X200250Y264500D02*
D03*
X147000Y427000D02*
D03*
X128500Y466500D02*
D03*
Y459500D02*
D03*
X121500Y466500D02*
D03*
X114500D02*
D03*
X147000Y437000D02*
D03*
X137000Y427000D02*
D03*
X123060Y447751D02*
D03*
Y454751D02*
D03*
X137000Y437000D02*
D03*
X158250Y419500D02*
D03*
X163750Y384750D02*
D03*
Y391750D02*
D03*
X125750Y419500D02*
D03*
X118750Y395750D02*
D03*
Y381750D02*
D03*
Y388750D02*
D03*
Y367750D02*
D03*
X93500Y466500D02*
D03*
X86500D02*
D03*
X107500D02*
D03*
X100500D02*
D03*
X79500Y452500D02*
D03*
Y459500D02*
D03*
Y438500D02*
D03*
Y445500D02*
D03*
Y431500D02*
D03*
Y466500D02*
D03*
X72500Y431500D02*
D03*
X90266Y334469D02*
D03*
X291577Y182983D02*
D03*
X284000Y183000D02*
D03*
X372000Y116000D02*
D03*
X260750Y83500D02*
D03*
X244500Y91750D02*
D03*
Y83500D02*
D03*
X260750Y77000D02*
D03*
X251750Y68000D02*
D03*
X244500Y75250D02*
D03*
X251750Y62000D02*
D03*
X220250Y226500D02*
D03*
X224261Y194314D02*
D03*
X129500Y178000D02*
D03*
X220750Y105000D02*
D03*
Y99000D02*
D03*
Y68000D02*
D03*
Y62000D02*
D03*
X172250Y144250D02*
D03*
X752000Y228250D02*
D03*
X393777Y166930D02*
D03*
X395750Y184250D02*
D03*
X418000Y119250D02*
D03*
X169421Y356402D02*
D03*
X374750Y7625D02*
D03*
X364750Y12750D02*
D03*
X369750Y7625D02*
D03*
X364750Y23000D02*
D03*
X374750Y23000D02*
D03*
X369750Y17875D02*
D03*
X364750D02*
D03*
X374750D02*
D03*
X369750Y23000D02*
D03*
Y12750D02*
D03*
X364750Y7625D02*
D03*
X374750Y12750D02*
D03*
X163514Y229065D02*
D03*
X233250Y173750D02*
D03*
X246000Y134500D02*
D03*
X254000D02*
D03*
X239500Y171480D02*
D03*
X249480Y236734D02*
D03*
X246750Y194750D02*
D03*
X250060Y186500D02*
D03*
X265500Y186000D02*
D03*
X300250Y174000D02*
D03*
X270250Y106266D02*
D03*
X456000Y115750D02*
D03*
X412750Y185250D02*
D03*
X589125Y172928D02*
D03*
X409198Y172448D02*
D03*
X379500Y171250D02*
D03*
X384000Y167250D02*
D03*
X348215Y148076D02*
D03*
X339000Y148250D02*
D03*
X570250Y362500D02*
D03*
X399000Y39000D02*
D03*
Y45000D02*
D03*
Y33000D02*
D03*
X440767Y158468D02*
D03*
X436524Y168335D02*
D03*
X435212Y174189D02*
D03*
X436500Y146941D02*
D03*
X429250Y187250D02*
D03*
X493250Y446000D02*
D03*
Y439500D02*
D03*
Y433000D02*
D03*
X480250Y446000D02*
D03*
Y452500D02*
D03*
Y459000D02*
D03*
Y465500D02*
D03*
X91250Y259250D02*
D03*
X85430Y255150D02*
D03*
X400750Y119750D02*
D03*
X251030Y103939D02*
D03*
X408500Y119750D02*
D03*
X595750Y169000D02*
D03*
X419000Y379750D02*
D03*
X43000Y412000D02*
D03*
X250250Y311500D02*
D03*
X432750Y251750D02*
D03*
X433000Y206000D02*
D03*
X408750Y355250D02*
D03*
X429250D02*
D03*
X293750Y355500D02*
D03*
X378500Y382750D02*
D03*
X249801Y346499D02*
D03*
X230250Y358250D02*
D03*
X262750Y349250D02*
D03*
X264019Y355251D02*
D03*
X278500Y176500D02*
D03*
X418985Y167500D02*
D03*
X418000Y180000D02*
D03*
X412986Y167569D02*
D03*
X404018Y167750D02*
D03*
X259030Y97189D02*
D03*
X446000Y110500D02*
D03*
X435250D02*
D03*
X244280Y118939D02*
D03*
X234000Y37000D02*
D03*
X481750Y96250D02*
D03*
X326250Y388266D02*
D03*
X354750Y390000D02*
D03*
X348750D02*
D03*
X332500D02*
D03*
X345000Y385250D02*
D03*
X338250Y387750D02*
D03*
D228*
X408060Y481751D02*
D03*
X928061Y121750D02*
D03*
X988061Y441751D02*
D03*
X978061Y421751D02*
D03*
X988061Y401751D02*
D03*
X958061Y421751D02*
D03*
X968061Y401751D02*
D03*
X938061Y461751D02*
D03*
X948061Y441751D02*
D03*
X938061Y421751D02*
D03*
Y341751D02*
D03*
X948061Y321751D02*
D03*
X938061Y301751D02*
D03*
Y261751D02*
D03*
Y221751D02*
D03*
Y181751D02*
D03*
X948061Y161751D02*
D03*
X938061Y141750D02*
D03*
Y21750D02*
D03*
X928061Y481751D02*
D03*
X918061Y461751D02*
D03*
X928061Y441751D02*
D03*
X918061Y421751D02*
D03*
X928061Y401751D02*
D03*
X918061Y341751D02*
D03*
X928061Y321751D02*
D03*
Y281751D02*
D03*
X918061Y261751D02*
D03*
Y141750D02*
D03*
X928061Y41750D02*
D03*
X898061Y461751D02*
D03*
Y421751D02*
D03*
X908061Y401751D02*
D03*
X898061Y381751D02*
D03*
X908061Y321751D02*
D03*
X898061Y301751D02*
D03*
X908061Y161751D02*
D03*
X898061Y21750D02*
D03*
X888061Y481751D02*
D03*
X878061Y461751D02*
D03*
X888061Y441751D02*
D03*
X878061Y421751D02*
D03*
X888061Y401751D02*
D03*
X878061Y381751D02*
D03*
X888061Y361751D02*
D03*
Y41750D02*
D03*
X878061Y21750D02*
D03*
X868061Y481751D02*
D03*
X858061Y461751D02*
D03*
X868061Y441751D02*
D03*
X858061Y421751D02*
D03*
X868061Y401751D02*
D03*
X858061Y381751D02*
D03*
Y101750D02*
D03*
X868061Y41750D02*
D03*
X848061Y481751D02*
D03*
X838061Y461751D02*
D03*
X848061Y441751D02*
D03*
X838061Y421751D02*
D03*
X848061Y401751D02*
D03*
X838061Y381751D02*
D03*
X828061Y481751D02*
D03*
X818061Y461751D02*
D03*
X828061Y441751D02*
D03*
X818061Y421751D02*
D03*
X828061Y401751D02*
D03*
X818061Y381751D02*
D03*
X808061Y481751D02*
D03*
X798061Y461751D02*
D03*
X808061Y441751D02*
D03*
X798061Y421751D02*
D03*
X808061Y401751D02*
D03*
X798061Y381751D02*
D03*
X788061Y481751D02*
D03*
X778061Y461751D02*
D03*
X788061Y441751D02*
D03*
X778061Y421751D02*
D03*
X788061Y401751D02*
D03*
X778061Y381751D02*
D03*
X758061Y461751D02*
D03*
X768061Y441751D02*
D03*
X758061Y421751D02*
D03*
X768061Y401751D02*
D03*
X758061Y21750D02*
D03*
X738061Y461751D02*
D03*
Y421751D02*
D03*
Y21750D02*
D03*
X728061Y481751D02*
D03*
Y441751D02*
D03*
X718061Y421751D02*
D03*
Y21750D02*
D03*
X698061Y421751D02*
D03*
Y21750D02*
D03*
X678061D02*
D03*
X668061Y481751D02*
D03*
Y441751D02*
D03*
Y361751D02*
D03*
X658061Y21750D02*
D03*
X638060D02*
D03*
X598060Y421751D02*
D03*
Y21750D02*
D03*
X548060Y401751D02*
D03*
X418060Y461751D02*
D03*
X398060D02*
D03*
X378060D02*
D03*
Y301751D02*
D03*
Y261751D02*
D03*
X368060Y481751D02*
D03*
X358060Y301751D02*
D03*
Y221751D02*
D03*
X348060Y481751D02*
D03*
X338060Y301751D02*
D03*
Y221751D02*
D03*
X328060Y481751D02*
D03*
X318060Y301751D02*
D03*
Y221751D02*
D03*
X308060Y481751D02*
D03*
X298060Y301751D02*
D03*
Y261751D02*
D03*
Y221751D02*
D03*
X288060Y481751D02*
D03*
X278060Y61750D02*
D03*
Y21750D02*
D03*
X268060Y481751D02*
D03*
X258060Y21750D02*
D03*
X248060Y481751D02*
D03*
X238060Y461751D02*
D03*
X248060Y441751D02*
D03*
Y361751D02*
D03*
X238060Y21750D02*
D03*
X228060Y481751D02*
D03*
X218060Y461751D02*
D03*
X228060Y441751D02*
D03*
X218060Y301751D02*
D03*
Y21750D02*
D03*
X198060Y461751D02*
D03*
X208060Y361751D02*
D03*
X198060Y141750D02*
D03*
Y21750D02*
D03*
X178060Y461751D02*
D03*
Y141750D02*
D03*
X188060Y121750D02*
D03*
Y41750D02*
D03*
X178060Y21750D02*
D03*
X168060Y481751D02*
D03*
X158060Y461751D02*
D03*
X168060Y121750D02*
D03*
X148060Y481751D02*
D03*
X138060Y61750D02*
D03*
Y21750D02*
D03*
X118060Y461751D02*
D03*
X108060Y121750D02*
D03*
X88060Y201751D02*
D03*
Y161751D02*
D03*
X68060Y481751D02*
D03*
X58060Y461751D02*
D03*
X68060Y401751D02*
D03*
Y41750D02*
D03*
X58060Y21750D02*
D03*
X523809Y208160D02*
D03*
X683512Y296534D02*
D03*
X727383Y255867D02*
D03*
X642770Y83690D02*
D03*
X629470Y95187D02*
D03*
X896500Y132750D02*
D03*
X894500Y108926D02*
D03*
X686761Y208250D02*
D03*
X724000Y250000D02*
D03*
X718428Y240072D02*
D03*
X718000Y250000D02*
D03*
X528778Y186180D02*
D03*
X516855Y193359D02*
D03*
X517000Y199230D02*
D03*
X503386Y186500D02*
D03*
X571170Y102947D02*
D03*
X564500Y100750D02*
D03*
X565000Y118250D02*
D03*
X587496Y132770D02*
D03*
X592469Y91048D02*
D03*
X468000Y348000D02*
D03*
X545500Y335500D02*
D03*
X535500D02*
D03*
X805500Y155000D02*
D03*
X811250Y158000D02*
D03*
X598936Y122409D02*
D03*
X608750Y96512D02*
D03*
X615012Y98974D02*
D03*
X771875Y139000D02*
D03*
X778000D02*
D03*
X736250Y355500D02*
D03*
X742359D02*
D03*
X765750Y139000D02*
D03*
X857250Y150625D02*
D03*
Y157500D02*
D03*
D229*
X453380Y83500D02*
D03*
D230*
X341497Y263997D02*
D03*
D231*
X142000Y432000D02*
D03*
D232*
X970000Y470000D02*
D03*
Y30000D02*
D03*
X30000Y470000D02*
D03*
Y30000D02*
D03*
D233*
X857500Y122850D02*
D03*
M02*
