G04*
G04 #@! TF.GenerationSoftware,Altium Limited,Altium Designer,21.7.1 (17)*
G04*
G04 Layer_Physical_Order=2*
G04 Layer_Color=32768*
%FSLAX44Y44*%
%MOMM*%
G71*
G04*
G04 #@! TF.SameCoordinates,003C428C-6323-4237-91BB-275CBF4B30E0*
G04*
G04*
G04 #@! TF.FilePolarity,Negative*
G04*
G01*
G75*
%ADD148C,0.5000*%
%ADD218C,1.0160*%
%ADD219R,6.4750X27.7750*%
%ADD220C,1.1032*%
%ADD221C,0.9032*%
%ADD222C,1.2532*%
%ADD223C,1.2032*%
%ADD224C,1.4532*%
%ADD225C,1.3032*%
%ADD226C,1.9032*%
%ADD227C,0.4531*%
%ADD228C,0.4532*%
D148*
X471750Y420500D02*
X474250Y423000D01*
X471750Y399750D02*
Y420500D01*
X468250Y396250D02*
X471750Y399750D01*
X435750Y396250D02*
X468250D01*
X474250Y423000D02*
X492000D01*
X432500Y361000D02*
X438250Y355250D01*
X368250Y361000D02*
X432500D01*
X364500Y364750D02*
X368250Y361000D01*
X364500Y364750D02*
Y366500D01*
Y385250D01*
X367000Y387750D01*
X375500Y396250D01*
X398500D01*
X435750D01*
X506000Y103000D02*
X512750Y96250D01*
X486750Y103000D02*
X506000D01*
X475250D02*
X486750D01*
X473750Y101500D02*
X475250Y103000D01*
X473250Y101000D02*
X473750Y101500D01*
X473250Y91851D02*
Y101000D01*
Y91851D02*
X474851Y90250D01*
X483000D01*
X512750Y-500D02*
Y27000D01*
Y96250D01*
X401750Y28500D02*
X479500D01*
X480750Y29750D01*
X487250Y36250D01*
Y70750D01*
Y86000D01*
X483000Y90250D02*
X487250Y86000D01*
X569000Y296500D02*
X573500Y292000D01*
X555250Y296500D02*
X569000D01*
X551500Y292750D02*
X555250Y296500D01*
X551500Y282500D02*
Y292750D01*
X548000Y279000D02*
X551500Y282500D01*
X535250Y279000D02*
X548000D01*
X527750Y286500D02*
X535250Y279000D01*
X527750Y286500D02*
Y290250D01*
Y306250D01*
X531500Y310000D01*
X534750Y313250D01*
X543750D01*
X584250D02*
X600000Y297500D01*
X543750Y313250D02*
X584250D01*
X999500Y141500D02*
Y144750D01*
X1000000Y399000D02*
Y426000D01*
X390000Y183250D02*
Y229500D01*
X397750Y237250D01*
Y307000D01*
X392000Y312750D02*
X397750Y307000D01*
X381750Y312750D02*
X392000D01*
X359000Y28500D02*
X401750D01*
X428000Y1750D02*
X489500D01*
X304750Y169250D02*
Y176250D01*
X302500Y178500D02*
X304750Y176250D01*
X282000Y178500D02*
X302500D01*
X279500Y196000D02*
X287750Y204250D01*
X279500Y181000D02*
Y196000D01*
Y181000D02*
X282000Y178500D01*
X393250Y180000D02*
X413500D01*
X390000Y183250D02*
X393250Y180000D01*
X350250Y312750D02*
X381750D01*
X293750D02*
X350250D01*
X287750Y306750D02*
X293750Y312750D01*
X287750Y204250D02*
Y306750D01*
X302750Y167250D02*
X304750Y169250D01*
X413500Y180000D02*
X438250Y204750D01*
X389750Y0D02*
X396500D01*
X356250Y25750D02*
X359000Y28500D01*
X356250Y0D02*
Y25750D01*
X438250Y332750D02*
Y355250D01*
X600000Y297500D02*
X682750D01*
X573500Y286500D02*
Y292000D01*
Y286500D02*
X577750Y282250D01*
X683750D01*
X685250Y283750D01*
Y295000D01*
X682750Y297500D02*
X685250Y295000D01*
X244750Y430500D02*
Y442000D01*
X254500Y451750D01*
X358000D01*
X244750Y348500D02*
Y430500D01*
X438250Y293000D02*
Y332750D01*
X497500Y428500D02*
Y465250D01*
X493250Y469500D02*
X497500Y465250D01*
X375750Y469500D02*
X493250D01*
X358000Y451750D02*
X375750Y469500D01*
X492000Y423000D02*
X497500Y428500D01*
X249750Y167250D02*
X302750D01*
X244750Y172250D02*
X249750Y167250D01*
X438250Y204750D02*
Y293000D01*
X244750Y172250D02*
Y348500D01*
D218*
X0Y0D02*
X1000000D01*
Y500000D01*
X0D02*
X1000000D01*
X0Y0D02*
Y500000D01*
D219*
X32375Y250125D02*
D03*
D220*
X948250Y269750D02*
D03*
Y249750D02*
D03*
Y229750D02*
D03*
Y209750D02*
D03*
D221*
Y363250D02*
D03*
Y383250D02*
D03*
X559520Y372750D02*
D03*
X510720D02*
D03*
D222*
X631750Y440750D02*
D03*
Y460750D02*
D03*
X611750Y440750D02*
D03*
Y460750D02*
D03*
X591750Y440750D02*
D03*
Y460750D02*
D03*
X571750Y440750D02*
D03*
Y460750D02*
D03*
X551750Y440750D02*
D03*
Y460750D02*
D03*
D223*
X651200Y36300D02*
D03*
X702000D02*
D03*
X752800Y61700D02*
D03*
X727400D02*
D03*
X702000D02*
D03*
X651200D02*
D03*
X727400Y36300D02*
D03*
X752800D02*
D03*
X886000Y86000D02*
D03*
X363000Y438300D02*
D03*
X337600D02*
D03*
X286800Y463700D02*
D03*
X312200D02*
D03*
X337600D02*
D03*
X286800Y438300D02*
D03*
X312200D02*
D03*
X261400D02*
D03*
D224*
X811500Y86000D02*
D03*
D225*
X733000Y322250D02*
D03*
Y296850D02*
D03*
D226*
X43000Y300000D02*
D03*
X17600Y325400D02*
D03*
Y274600D02*
D03*
Y174600D02*
D03*
Y225400D02*
D03*
X43000Y200000D02*
D03*
D227*
X97750Y354250D02*
D03*
X885750Y274500D02*
D03*
Y267750D02*
D03*
X888500Y261750D02*
D03*
X446375Y474250D02*
D03*
X453750D02*
D03*
X439000D02*
D03*
X453500Y463750D02*
D03*
X108250Y222000D02*
D03*
X100250D02*
D03*
X30839Y146774D02*
D03*
X37689Y127746D02*
D03*
X22911Y126034D02*
D03*
X24576Y160647D02*
D03*
X33402Y153332D02*
D03*
X37689Y134786D02*
D03*
X22911Y133075D02*
D03*
X7161Y151164D02*
D03*
X11276Y138411D02*
D03*
X12637Y155589D02*
D03*
X7161Y144123D02*
D03*
X115000Y157250D02*
D03*
X33250Y63250D02*
D03*
X27062D02*
D03*
X20875D02*
D03*
X29555Y165626D02*
D03*
X48074Y168518D02*
D03*
X34534Y170604D02*
D03*
X38381Y158310D02*
D03*
X43359Y163289D02*
D03*
X19678Y155589D02*
D03*
X14688Y63250D02*
D03*
X18317Y138411D02*
D03*
X37502Y120707D02*
D03*
X8500Y63250D02*
D03*
X334500Y172500D02*
D03*
X224500Y136250D02*
D03*
X147028Y236500D02*
D03*
X328500Y172500D02*
D03*
X218272Y136154D02*
D03*
X141257Y236511D02*
D03*
X125000Y356500D02*
D03*
X119000D02*
D03*
X640757Y126071D02*
D03*
X635406Y123909D02*
D03*
X719745Y180739D02*
D03*
X707005Y375011D02*
D03*
X700665Y369318D02*
D03*
X712000Y366750D02*
D03*
X677835Y295500D02*
D03*
X704745Y359797D02*
D03*
X717761Y280025D02*
D03*
Y274254D02*
D03*
X652500Y290500D02*
D03*
X622420Y325739D02*
D03*
X694513Y298150D02*
D03*
X586943Y288357D02*
D03*
X646250Y287000D02*
D03*
X695532Y307515D02*
D03*
X716995Y306995D02*
D03*
X717373Y315504D02*
D03*
X750216Y289750D02*
D03*
X750250Y295750D02*
D03*
X750973Y306972D02*
D03*
X650246Y132047D02*
D03*
X751473Y326944D02*
D03*
X751098Y321186D02*
D03*
X271500Y168500D02*
D03*
X284000D02*
D03*
X298455Y166980D02*
D03*
X817500Y139750D02*
D03*
X806920Y144020D02*
D03*
X521540Y264824D02*
D03*
X539000Y254479D02*
D03*
X239750Y401750D02*
D03*
X234734Y399000D02*
D03*
X234750Y404813D02*
D03*
X239750Y413417D02*
D03*
Y407583D02*
D03*
X234750Y410625D02*
D03*
Y422250D02*
D03*
Y416437D02*
D03*
X239750Y419250D02*
D03*
X194250Y263500D02*
D03*
X551505Y133896D02*
D03*
X686750Y202000D02*
D03*
X689245Y214750D02*
D03*
X694213Y226418D02*
D03*
X691729Y220500D02*
D03*
X729048Y376675D02*
D03*
X723839Y374191D02*
D03*
X736228Y169914D02*
D03*
X735016Y223447D02*
D03*
Y206303D02*
D03*
X720111Y174980D02*
D03*
X714247Y161245D02*
D03*
X569250Y142250D02*
D03*
X580315Y140065D02*
D03*
X525500Y235250D02*
D03*
X722850Y355746D02*
D03*
X693511Y364222D02*
D03*
X724000Y308500D02*
D03*
X854000Y304004D02*
D03*
X862500D02*
D03*
X803256Y283979D02*
D03*
X797750Y282250D02*
D03*
X577443Y288357D02*
D03*
X269750Y390250D02*
D03*
X256750Y346000D02*
D03*
X252750Y331250D02*
D03*
X305750Y384000D02*
D03*
X689245Y260000D02*
D03*
X722740Y192257D02*
D03*
X728480Y185621D02*
D03*
X288060Y291751D02*
D03*
Y271751D02*
D03*
Y251751D02*
D03*
Y231751D02*
D03*
X715406Y146242D02*
D03*
X759134Y374159D02*
D03*
X564984Y214783D02*
D03*
X564984Y225217D02*
D03*
X567654Y197471D02*
D03*
X568250Y203750D02*
D03*
X467529Y238971D02*
D03*
X463000Y244250D02*
D03*
X484758Y108549D02*
D03*
X482250Y114000D02*
D03*
X476500Y106750D02*
D03*
X430640Y114501D02*
D03*
X435314Y153368D02*
D03*
X436187Y162344D02*
D03*
X549250Y95000D02*
D03*
X655500Y169000D02*
D03*
X649500D02*
D03*
X674250Y139753D02*
D03*
X579500Y70250D02*
D03*
X585250D02*
D03*
X579500Y76000D02*
D03*
X585250D02*
D03*
X582500Y80500D02*
D03*
X588250D02*
D03*
X634250D02*
D03*
X628500D02*
D03*
X622750D02*
D03*
X617000D02*
D03*
X611250D02*
D03*
X605500D02*
D03*
X599750D02*
D03*
X594000D02*
D03*
X489766Y349234D02*
D03*
X478000Y361000D02*
D03*
X482500Y356500D02*
D03*
X473500Y365500D02*
D03*
X498500Y367750D02*
D03*
X496250Y373500D02*
D03*
X456750Y326500D02*
D03*
X698337Y312559D02*
D03*
Y302472D02*
D03*
X717495Y301246D02*
D03*
X539000Y248500D02*
D03*
X568549Y236952D02*
D03*
X525750Y228659D02*
D03*
X568250Y209750D02*
D03*
X694995Y149611D02*
D03*
X686750Y195000D02*
D03*
X643500Y169000D02*
D03*
X629531Y122756D02*
D03*
X606859Y137021D02*
D03*
X571031Y189750D02*
D03*
X601750Y169000D02*
D03*
X704929Y162734D02*
D03*
X787000Y145250D02*
D03*
X568250Y220000D02*
D03*
Y231122D02*
D03*
X526750Y274250D02*
D03*
X526195Y268235D02*
D03*
X543000Y290000D02*
D03*
X577250Y344500D02*
D03*
X571250D02*
D03*
X577421Y356329D02*
D03*
X590271Y332245D02*
D03*
X571250Y356500D02*
D03*
X537821Y263218D02*
D03*
X525000Y256250D02*
D03*
X602500Y70250D02*
D03*
X608250D02*
D03*
Y64500D02*
D03*
X752250Y177250D02*
D03*
X745917Y176550D02*
D03*
X624000Y142750D02*
D03*
X618000Y141750D02*
D03*
X889500Y280250D02*
D03*
X822500Y220002D02*
D03*
X48500Y340250D02*
D03*
X22357Y340362D02*
D03*
X27336Y335384D02*
D03*
X32315Y330405D02*
D03*
X208750Y80750D02*
D03*
Y86250D02*
D03*
X220679Y110771D02*
D03*
X220750Y56000D02*
D03*
X549873Y369750D02*
D03*
X562527Y360508D02*
D03*
X346750Y134500D02*
D03*
X636996Y70250D02*
D03*
Y64500D02*
D03*
Y76000D02*
D03*
X602500D02*
D03*
X591000D02*
D03*
X596750Y70250D02*
D03*
X585250Y64500D02*
D03*
X579500D02*
D03*
X591000Y70250D02*
D03*
X608250Y76000D02*
D03*
X596750D02*
D03*
X796750Y265250D02*
D03*
X830250Y173500D02*
D03*
X822500D02*
D03*
X838001D02*
D03*
X40328Y215877D02*
D03*
X33806Y213225D02*
D03*
X29021Y208060D02*
D03*
X26947Y201332D02*
D03*
X27922Y194359D02*
D03*
X31727Y188434D02*
D03*
X37293Y184123D02*
D03*
Y177082D02*
D03*
X24011Y119079D02*
D03*
X30977Y118061D02*
D03*
X48707Y175531D02*
D03*
Y182572D02*
D03*
X53472Y187755D02*
D03*
X57681Y193399D02*
D03*
X59155Y200284D02*
D03*
X57466Y207120D02*
D03*
X53028Y212586D02*
D03*
X46732Y215737D02*
D03*
X27655Y381939D02*
D03*
X22911Y376737D02*
D03*
Y369696D02*
D03*
X20182Y363206D02*
D03*
X13329Y361589D02*
D03*
X7189Y358144D02*
D03*
X7161Y351103D02*
D03*
X9840Y344592D02*
D03*
X16878Y344411D02*
D03*
X37293Y325426D02*
D03*
Y318385D02*
D03*
X33130Y312707D02*
D03*
X28612Y307307D02*
D03*
X26837Y300494D02*
D03*
X28238Y293594D02*
D03*
X32359Y287885D02*
D03*
X38519Y284475D02*
D03*
X45550Y284107D02*
D03*
X52097Y286700D02*
D03*
X56922Y291827D02*
D03*
X59036Y298543D02*
D03*
X58127Y305525D02*
D03*
X54356Y311471D02*
D03*
X48707Y315673D02*
D03*
Y322714D02*
D03*
X48627Y329754D02*
D03*
X30839Y351217D02*
D03*
X30977Y358256D02*
D03*
X37689Y367942D02*
D03*
Y374983D02*
D03*
X35474Y381666D02*
D03*
X369250Y180000D02*
D03*
X85500Y378750D02*
D03*
X716782Y294935D02*
D03*
X822500Y212252D02*
D03*
X830250D02*
D03*
Y220002D02*
D03*
X700445Y158250D02*
D03*
X740750Y173500D02*
D03*
X525500Y403750D02*
D03*
X518500D02*
D03*
X862500Y266250D02*
D03*
X867000Y262500D02*
D03*
Y270250D02*
D03*
X866250Y280250D02*
D03*
X874000D02*
D03*
X881750D02*
D03*
X434500Y291250D02*
D03*
X433000Y266250D02*
D03*
Y271250D02*
D03*
Y261250D02*
D03*
X474101Y91000D02*
D03*
X301250Y430250D02*
D03*
X354500Y355500D02*
D03*
X299000Y384000D02*
D03*
X752000Y228250D02*
D03*
X822500Y181250D02*
D03*
X830250D02*
D03*
X393777Y166930D02*
D03*
X418000Y119250D02*
D03*
X179848Y353994D02*
D03*
X169421Y356402D02*
D03*
X189750Y259000D02*
D03*
X167750Y362253D02*
D03*
X211500Y186250D02*
D03*
Y161750D02*
D03*
X204375Y321519D02*
D03*
X164500Y429500D02*
D03*
X119003Y439500D02*
D03*
X119000Y427000D02*
D03*
X163514Y229065D02*
D03*
X233250Y173750D02*
D03*
X246000Y134500D02*
D03*
X254000D02*
D03*
X239500Y171480D02*
D03*
X250000Y337750D02*
D03*
X246750Y194750D02*
D03*
X246034Y300824D02*
D03*
X265500Y186000D02*
D03*
X291250Y168500D02*
D03*
X270250Y106266D02*
D03*
X348500Y181250D02*
D03*
X456000Y115750D02*
D03*
X589125Y172928D02*
D03*
X409198Y172448D02*
D03*
X379500Y171250D02*
D03*
X384000Y167250D02*
D03*
X348215Y148076D02*
D03*
X339000Y148250D02*
D03*
X570250Y362500D02*
D03*
X399000Y39000D02*
D03*
Y45000D02*
D03*
Y33000D02*
D03*
X440767Y158468D02*
D03*
X436524Y168335D02*
D03*
X435212Y174189D02*
D03*
X436500Y146941D02*
D03*
X429250Y187250D02*
D03*
X204500Y257000D02*
D03*
X91250Y259250D02*
D03*
X85430Y255150D02*
D03*
X97250Y261718D02*
D03*
X400750Y119750D02*
D03*
X251030Y103939D02*
D03*
X408500Y119750D02*
D03*
X595750Y169000D02*
D03*
X419000Y379750D02*
D03*
X43000Y412000D02*
D03*
X433250Y240750D02*
D03*
Y280750D02*
D03*
X378500Y382750D02*
D03*
X433250Y215500D02*
D03*
X230250Y358250D02*
D03*
X246250Y257500D02*
D03*
X262750Y349250D02*
D03*
X250750Y227500D02*
D03*
X418985Y167500D02*
D03*
X418000Y180000D02*
D03*
X412986Y167569D02*
D03*
X404018Y167750D02*
D03*
X346000Y355500D02*
D03*
X304250D02*
D03*
X259030Y97189D02*
D03*
X446000Y110500D02*
D03*
X435250D02*
D03*
X244280Y118939D02*
D03*
X234000Y37000D02*
D03*
X97750Y346500D02*
D03*
X326250Y388266D02*
D03*
X354750Y390000D02*
D03*
X348750D02*
D03*
X332500D02*
D03*
X345000Y385250D02*
D03*
X338250Y387750D02*
D03*
D228*
X825500Y91125D02*
D03*
X867500D02*
D03*
X853500D02*
D03*
X839500D02*
D03*
X418060Y461751D02*
D03*
X398060D02*
D03*
X378060D02*
D03*
X248060Y441751D02*
D03*
Y361751D02*
D03*
X58060Y341751D02*
D03*
X38060Y261751D02*
D03*
X48060Y241751D02*
D03*
X38060Y221751D02*
D03*
X18060Y381751D02*
D03*
Y301751D02*
D03*
X28060Y241751D02*
D03*
X825500Y70625D02*
D03*
Y80875D02*
D03*
X833000Y65625D02*
D03*
X832500Y85125D02*
D03*
Y75875D02*
D03*
X839500Y70625D02*
D03*
Y80875D02*
D03*
X847000Y65625D02*
D03*
X846500Y85125D02*
D03*
Y75875D02*
D03*
X853500Y70625D02*
D03*
Y80875D02*
D03*
X523809Y208160D02*
D03*
X683512Y296534D02*
D03*
X727383Y255867D02*
D03*
X642770Y83690D02*
D03*
X629470Y95187D02*
D03*
X896500Y132750D02*
D03*
X894500Y108926D02*
D03*
X686761Y208250D02*
D03*
X724000Y250000D02*
D03*
X718428Y240072D02*
D03*
X718000Y250000D02*
D03*
X528778Y186180D02*
D03*
X516855Y193359D02*
D03*
X517000Y199230D02*
D03*
X503386Y186500D02*
D03*
X571170Y102947D02*
D03*
X564500Y100750D02*
D03*
X860500Y75875D02*
D03*
X867500Y80875D02*
D03*
X565000Y118250D02*
D03*
X587496Y132770D02*
D03*
X592469Y91048D02*
D03*
X468750Y303250D02*
D03*
X468000Y348000D02*
D03*
X478500Y321000D02*
D03*
X468750Y309860D02*
D03*
X598936Y122409D02*
D03*
X608750Y96512D02*
D03*
X615012Y98974D02*
D03*
X771875Y139000D02*
D03*
X778000D02*
D03*
X964250Y135500D02*
D03*
X958750Y139500D02*
D03*
X969667D02*
D03*
X991500Y139500D02*
D03*
X980583Y139500D02*
D03*
X985750Y135500D02*
D03*
X860500Y85125D02*
D03*
X991500Y131000D02*
D03*
Y122500D02*
D03*
X975000Y135500D02*
D03*
X986000Y126750D02*
D03*
X765750Y139000D02*
D03*
X867500Y70625D02*
D03*
X860000Y65625D02*
D03*
X857250Y150625D02*
D03*
Y157500D02*
D03*
M02*
